<svg width="1007" height="254" viewBox="0 0 1007 254" fill="none" xmlns="http://www.w3.org/2000/svg">
<g clip-path="url(#clip0_131_157)">
<path fill-rule="evenodd" clip-rule="evenodd" d="M0 14.5912C0 6.5327 6.5327 0 14.5912 0H992.201C1000.26 0 1006.79 6.5327 1006.79 14.5912V94.2098C1006.55 94.1834 1006.31 94.1698 1006.06 94.1698C1002.44 94.1698 999.498 97.1096 999.498 100.736C999.498 104.362 1002.44 107.302 1006.06 107.302C1006.31 107.302 1006.55 107.288 1006.79 107.262V111.719C1006.55 111.693 1006.31 111.679 1006.06 111.679C1002.44 111.679 999.498 114.619 999.498 118.245C999.498 121.872 1002.44 124.811 1006.06 124.811C1006.31 124.811 1006.55 124.798 1006.79 124.771V129.229C1006.55 129.203 1006.31 129.189 1006.06 129.189C1002.44 129.189 999.498 132.129 999.498 135.755C999.498 139.381 1002.44 142.321 1006.06 142.321C1006.31 142.321 1006.55 142.308 1006.79 142.281V146.738C1006.55 146.712 1006.31 146.698 1006.06 146.698C1002.44 146.698 999.498 149.638 999.498 153.264C999.498 156.891 1002.44 159.83 1006.06 159.83C1006.31 159.83 1006.55 159.817 1006.79 159.79V239.409C1006.79 247.467 1000.26 254 992.201 254H14.5912C6.5327 254 0 247.467 0 239.409V162.9C3.28307 162.502 5.83667 159.455 5.83667 155.755C5.83667 152.054 3.28307 149.007 0 148.61V143.73C3.28307 143.333 5.83667 140.285 5.83667 136.585C5.83667 132.885 3.28307 129.838 0 129.44V124.56C3.28307 124.163 5.83667 121.115 5.83667 117.415C5.83667 113.715 3.28307 110.668 0 110.27V105.39C3.28307 104.993 5.83667 101.946 5.83667 98.2453C5.83667 94.545 3.28307 91.4977 0 91.1004V14.5912Z" fill="url(#paint0_linear_131_157)"/>
<path d="M805.837 -110.804C805.837 -110.804 749.272 -205.876 661.808 -155.417C574.46 -103.711 566.705 -119.302 516.302 -165.852C465.899 -212.401 436.781 -219.517 406.528 -201.327C394.941 -193.857 367.727 -145.724 463.388 -91.1663C559.048 -36.6085 481.354 12.8592 432.635 -41.4276C396.306 -83.0984 322.757 -211.734 210.638 -148.689C98.5181 -85.6441 255.074 9.36299 255.074 9.36299C255.074 9.36299 127.052 -35.616 63.2245 28.8349C3.77606 87.7929 26.3325 176.233 101.511 211.443C176.816 247.899 275.247 220.272 353.258 332.063C429.923 442.732 470.259 511.73 572.822 512.663C676.607 513.472 685.53 443.25 711.982 387.642C732.123 342.757 754.832 298.871 795.408 297.27C838.55 296.668 829.292 339.202 827.689 372.121C827.193 403.682 862.634 400.085 862.634 400.085C862.634 400.085 1004.75 389.437 937.094 197.209C859.454 -20.4812 645.46 170.095 628.017 180.69C611.796 191.162 497.534 306.077 314.519 230.146C132.853 155.338 132.254 88.6137 156.015 67.2932C205.985 24.4166 228.955 56.1136 275.868 153.424C322.909 251.98 382.009 128.79 332.112 87.2249C276.947 42.4174 329.988 -31.0096 360.037 -2.54894C389.959 24.6528 397.885 54.0873 396.712 103.354C396.761 152.497 471.428 146.177 488.905 75.1005C506.382 4.01131 535.957 -33.0055 578.863 36.9777C631 124.946 688.429 82.5709 711.215 63.867C734.141 46.4208 848.919 -26.9649 805.837 -110.804Z" fill="url(#paint1_linear_131_157)"/>
<path d="M34.1863 205.2V222H40.4023C44.3623 222 46.4503 220.296 46.4503 216.96C46.4503 215.064 45.4903 213.6 43.9543 213V212.952C45.1063 212.376 45.8263 211.128 45.8263 209.592C45.8263 207 43.7863 205.2 40.9063 205.2H34.1863ZM40.4983 212.184H36.6583V207.48H40.4983C42.3943 207.48 43.3543 208.272 43.3543 209.808C43.3543 211.392 42.3943 212.184 40.4983 212.184ZM40.4023 219.72H36.6583V214.272H40.4503C42.9223 214.272 43.9783 215.088 43.9783 216.936C43.9783 218.88 42.8983 219.72 40.4023 219.72ZM47.9338 215.64C47.9338 219.648 50.3818 222.36 54.0058 222.36C57.6298 222.36 60.0778 219.648 60.0778 215.64C60.0778 211.632 57.6298 208.92 54.0058 208.92C50.3818 208.92 47.9338 211.632 47.9338 215.64ZM57.7258 215.64C57.7258 218.424 56.3098 220.176 54.0058 220.176C51.7018 220.176 50.2858 218.424 50.2858 215.64C50.2858 212.856 51.7018 211.104 54.0058 211.104C56.3098 211.104 57.7258 212.856 57.7258 215.64ZM61.5632 215.64C61.5632 219.648 64.0112 222.36 67.6352 222.36C71.2592 222.36 73.7072 219.648 73.7072 215.64C73.7072 211.632 71.2592 208.92 67.6352 208.92C64.0112 208.92 61.5632 211.632 61.5632 215.64ZM71.3552 215.64C71.3552 218.424 69.9392 220.176 67.6352 220.176C65.3312 220.176 63.9152 218.424 63.9152 215.64C63.9152 212.856 65.3312 211.104 67.6352 211.104C69.9392 211.104 71.3552 212.856 71.3552 215.64ZM75.6726 204.48V222H78.0246V217.896L79.8726 215.88H79.9206L83.7126 222H86.4486L81.4806 214.248L86.1606 209.28H82.9926L78.0726 214.656H78.0246V204.48H75.6726ZM96.4532 221.04L93.8132 227.4H96.2372L103.797 209.28H101.325L97.6772 218.328H97.6292L94.0292 209.28H91.5572L96.4532 221.04ZM103.753 215.64C103.753 219.648 106.201 222.36 109.825 222.36C113.449 222.36 115.897 219.648 115.897 215.64C115.897 211.632 113.449 208.92 109.825 208.92C106.201 208.92 103.753 211.632 103.753 215.64ZM113.545 215.64C113.545 218.424 112.129 220.176 109.825 220.176C107.521 220.176 106.105 218.424 106.105 215.64C106.105 212.856 107.521 211.104 109.825 211.104C112.129 211.104 113.545 212.856 113.545 215.64ZM117.622 217.56C117.622 220.608 119.278 222.36 122.134 222.36C123.598 222.36 124.99 221.808 125.758 220.872H125.83V222H128.086V209.28H125.734V217.128C125.734 218.976 124.582 220.176 122.83 220.176C120.91 220.176 119.974 219.168 119.974 217.128V209.28H117.622V217.56ZM130.53 209.28V222H132.882V214.608C132.882 212.4 133.626 211.392 135.09 211.392C135.474 211.392 135.906 211.464 136.41 211.608L136.866 209.256C136.386 209.136 135.906 209.064 135.45 209.064C134.274 209.064 133.29 209.544 132.786 210.336H132.738V209.28H130.53ZM146.897 211.392H150.017V209.28H146.897V206.304H144.545V209.28H142.553V211.392H144.545V218.688C144.545 221.112 145.481 222 148.049 222H149.417V219.768H148.265C147.233 219.768 146.897 219.48 146.897 218.64V211.392ZM151.637 209.28V222H153.989V209.28H151.637ZM151.517 204.6V207.072H154.085V204.6H151.517ZM155.927 215.64C155.927 219.624 158.375 222.36 161.903 222.36C163.367 222.36 164.615 221.952 165.623 221.112C166.655 220.272 167.279 219.12 167.495 217.704L165.239 217.248C164.879 219.144 163.703 220.176 161.903 220.176C159.695 220.176 158.279 218.424 158.279 215.64C158.279 212.856 159.695 211.104 161.903 211.104C163.703 211.104 164.927 212.184 165.239 214.032L167.495 213.576C167.279 212.16 166.655 211.032 165.623 210.192C164.615 209.352 163.367 208.92 161.903 208.92C158.375 208.92 155.927 211.656 155.927 215.64ZM169.334 204.48V222H171.686V217.896L173.534 215.88H173.582L177.374 222H180.11L175.142 214.248L179.822 209.28H176.654L171.734 214.656H171.686V204.48H169.334ZM180.233 215.64C180.233 219.648 182.633 222.36 186.161 222.36C188.585 222.36 190.457 221.28 191.585 219.168L189.761 217.944C188.705 219.648 187.745 220.272 186.137 220.272C185.105 220.272 184.265 219.912 183.617 219.168C182.969 218.424 182.633 217.464 182.609 216.336H191.897V215.352C191.897 211.536 189.593 208.92 186.137 208.92C182.657 208.92 180.233 211.68 180.233 215.64ZM189.569 214.536H182.657C182.705 212.616 184.217 211.008 186.137 211.008C188.153 211.008 189.473 212.448 189.569 214.536ZM196.903 211.392H200.023V209.28H196.903V206.304H194.551V209.28H192.559V211.392H194.551V218.688C194.551 221.112 195.487 222 198.055 222H199.423V219.768H198.271C197.239 219.768 196.903 219.48 196.903 218.64V211.392ZM200.455 217.728C200.815 220.704 202.903 222.36 206.191 222.36C209.095 222.36 211.015 220.896 211.015 218.616C211.015 216.408 209.551 215.352 206.215 214.368C204.079 213.768 203.359 213.36 203.359 212.568C203.359 211.632 204.271 211.008 205.639 211.008C207.103 211.008 208.063 211.752 208.495 213.264L210.703 212.688C210.199 210.384 208.207 208.92 205.639 208.92C203.023 208.92 201.079 210.504 201.079 212.616C201.079 214.56 202.375 215.496 205.447 216.36C207.871 217.104 208.711 217.584 208.711 218.712C208.711 219.672 207.751 220.272 206.191 220.272C204.079 220.272 203.071 219.384 202.663 217.248L200.455 217.728Z" fill="#0A0A0A"/>
<path d="M32.2423 224.88H211.759V227.04H32.2423V224.88Z" fill="#0A0A0A"/>
<path d="M576.26 58.831V73.1304H585.024V71.1693H578.364V66.7161H584.452V64.8367H578.364V60.7921H585.024V58.831H576.26ZM589.427 67.6353L585.688 73.1304H588.038L590.612 69.147H590.652L593.247 73.1304H595.596L591.837 67.6353L595.494 62.3037H593.145L590.652 66.1033H590.612L588.16 62.3037H585.791L589.427 67.6353ZM596.48 62.3037V77.7266H598.481V72.1498H598.522C599.176 72.9057 600.34 73.4368 601.586 73.4368C604.385 73.4368 606.428 71.0672 606.428 67.717C606.428 64.3669 604.385 61.9973 601.566 61.9973C600.32 61.9973 599.196 62.508 598.481 63.3047H598.441V62.3037H596.48ZM604.426 67.717C604.426 70.0866 603.221 71.5779 601.341 71.5779C599.748 71.5779 598.481 70.2705 598.481 68.6567V66.7569C598.481 65.1636 599.768 63.8562 601.403 63.8562C603.262 63.8562 604.426 65.3474 604.426 67.717ZM607.692 67.717C607.692 71.1285 609.734 73.4368 612.737 73.4368C614.8 73.4368 616.394 72.5175 617.354 70.7199L615.801 69.6781C614.903 71.1285 614.085 71.6596 612.717 71.6596C611.838 71.6596 611.123 71.3532 610.572 70.7199C610.02 70.0866 609.734 69.2695 609.714 68.3094H617.619V67.4719C617.619 64.2239 615.658 61.9973 612.717 61.9973C609.755 61.9973 607.692 64.3465 607.692 67.717ZM615.638 66.7774H609.755C609.796 65.1432 611.083 63.7745 612.717 63.7745C614.433 63.7745 615.556 65.0002 615.638 66.7774ZM619.302 62.3037V73.1304H621.304V66.8386C621.304 64.9593 621.937 64.1013 623.183 64.1013C623.51 64.1013 623.878 64.1626 624.307 64.2852L624.695 62.2833C624.286 62.1811 623.878 62.1199 623.49 62.1199C622.489 62.1199 621.651 62.5284 621.222 63.2025H621.181V62.3037H619.302ZM625.836 62.3037V73.1304H627.837V62.3037H625.836ZM625.733 58.3203V60.4244H627.919V58.3203H625.733ZM629.487 67.717C629.487 71.1285 631.53 73.4368 634.533 73.4368C636.596 73.4368 638.189 72.5175 639.149 70.7199L637.597 69.6781C636.698 71.1285 635.881 71.6596 634.512 71.6596C633.634 71.6596 632.919 71.3532 632.367 70.7199C631.816 70.0866 631.53 69.2695 631.509 68.3094H639.415V67.4719C639.415 64.2239 637.454 61.9973 634.512 61.9973C631.55 61.9973 629.487 64.3465 629.487 67.717ZM637.433 66.7774H631.55C631.591 65.1432 632.878 63.7745 634.512 63.7745C636.228 63.7745 637.352 65.0002 637.433 66.7774ZM641.097 62.3037V73.1304H643.099V66.4505C643.099 64.898 644.121 63.8562 645.673 63.8562C647.226 63.8562 648.145 64.8367 648.145 66.4505V73.1304H650.147V66.1441C650.147 63.6111 648.533 61.9973 646.061 61.9973C644.917 61.9973 643.712 62.508 643.058 63.2638H643.017V62.3037H641.097ZM651.711 67.717C651.711 71.108 653.794 73.4368 656.797 73.4368C658.043 73.4368 659.106 73.0895 659.964 72.3745C660.842 71.6596 661.373 70.6791 661.557 69.4738L659.637 69.0857C659.33 70.6995 658.329 71.5779 656.797 71.5779C654.918 71.5779 653.713 70.0866 653.713 67.717C653.713 65.3474 654.918 63.8562 656.797 63.8562C658.329 63.8562 659.371 64.7755 659.637 66.3484L661.557 65.9603C661.373 64.755 660.842 63.7949 659.964 63.08C659.106 62.365 658.043 61.9973 656.797 61.9973C653.794 61.9973 651.711 64.326 651.711 67.717ZM662.713 67.717C662.713 71.1285 664.756 73.4368 667.759 73.4368C669.822 73.4368 671.415 72.5175 672.375 70.7199L670.823 69.6781C669.924 71.1285 669.107 71.6596 667.738 71.6596C666.86 71.6596 666.145 71.3532 665.593 70.7199C665.042 70.0866 664.756 69.2695 664.735 68.3094H672.641V67.4719C672.641 64.2239 670.68 61.9973 667.738 61.9973C664.776 61.9973 662.713 64.3465 662.713 67.717ZM670.659 66.7774H664.776C664.817 65.1432 666.104 63.7745 667.738 63.7745C669.454 63.7745 670.578 65.0002 670.659 66.7774ZM679.749 58.831V73.1304H681.853V68.718L683.488 66.7161H683.529L688.043 73.1304H690.597L684.836 65.1227L690.065 58.831H687.553L681.894 65.756H681.853V58.831H679.749ZM690.673 67.717C690.673 71.1285 692.715 73.4368 695.718 73.4368C697.781 73.4368 699.375 72.5175 700.335 70.7199L698.782 69.6781C697.884 71.1285 697.066 71.6596 695.698 71.6596C694.819 71.6596 694.104 71.3532 693.553 70.7199C693.001 70.0866 692.715 69.2695 692.695 68.3094H700.6V67.4719C700.6 64.2239 698.639 61.9973 695.698 61.9973C692.736 61.9973 690.673 64.3465 690.673 67.717ZM698.619 66.7774H692.736C692.777 65.1432 694.064 63.7745 695.698 63.7745C697.414 63.7745 698.537 65.0002 698.619 66.7774ZM702.283 62.3037V73.1304H704.285V66.8386C704.285 64.9593 704.918 64.1013 706.164 64.1013C706.491 64.1013 706.859 64.1626 707.288 64.2852L707.676 62.2833C707.267 62.1811 706.859 62.1199 706.471 62.1199C705.47 62.1199 704.632 62.5284 704.203 63.2025H704.162V62.3037H702.283ZM707.751 70.3114C707.751 72.2111 709.16 73.4368 711.305 73.4368C712.633 73.4368 713.756 72.9261 714.349 72.0886H714.39V73.1304H716.228V65.6947C716.228 63.4068 714.676 61.9973 712.163 61.9973C710.999 61.9973 709.998 62.3241 709.181 62.9574C708.384 63.5906 707.894 64.4282 707.71 65.4904L709.65 65.899C709.916 64.5303 710.835 63.7541 712.163 63.7541C713.389 63.7541 714.145 64.326 714.145 65.2044C714.145 66.0011 713.532 66.3892 711.571 66.8795C708.813 67.5332 707.751 68.4933 707.751 70.3114ZM714.247 69.4738C714.247 70.7199 713.123 71.6392 711.55 71.6392C710.345 71.6392 709.712 71.108 709.712 70.1888C709.712 69.3717 710.365 68.9018 712.081 68.4729C713.389 68.1256 714.022 67.7987 714.206 67.3289H714.247V69.4738ZM718.203 58.2182V73.1304H720.205V58.2182H718.203ZM721.895 70.3114C721.895 72.2111 723.305 73.4368 725.45 73.4368C726.777 73.4368 727.901 72.9261 728.493 72.0886H728.534V73.1304H730.373V65.6947C730.373 63.4068 728.82 61.9973 726.308 61.9973C725.143 61.9973 724.142 62.3241 723.325 62.9574C722.528 63.5906 722.038 64.4282 721.854 65.4904L723.795 65.899C724.061 64.5303 724.98 63.7541 726.308 63.7541C727.533 63.7541 728.289 64.326 728.289 65.2044C728.289 66.0011 727.676 66.3892 725.715 66.8795C722.957 67.5332 721.895 68.4933 721.895 70.3114ZM728.391 69.4738C728.391 70.7199 727.268 71.6392 725.695 71.6392C724.49 71.6392 723.856 71.108 723.856 70.1888C723.856 69.3717 724.51 68.9018 726.226 68.4729C727.533 68.1256 728.167 67.7987 728.35 67.3289H728.391V69.4738ZM731.362 58.831V63.5702H733.119V58.831H731.362ZM734.917 69.4942C735.223 72.0273 737.001 73.4368 739.799 73.4368C742.271 73.4368 743.905 72.1907 743.905 70.2501C743.905 68.3707 742.659 67.4719 739.82 66.6344C738.001 66.1237 737.389 65.7764 737.389 65.1023C737.389 64.3056 738.165 63.7745 739.329 63.7745C740.575 63.7745 741.392 64.4078 741.76 65.6947L743.64 65.2044C743.211 63.2434 741.515 61.9973 739.329 61.9973C737.103 61.9973 735.448 63.3455 735.448 65.1432C735.448 66.7978 736.551 67.5945 739.166 68.3299C741.229 68.9631 741.944 69.3717 741.944 70.3318C741.944 71.1489 741.127 71.6596 739.799 71.6596C738.001 71.6596 737.144 70.9038 736.796 69.0857L734.917 69.4942ZM749.365 67.717C749.365 71.108 751.449 73.4368 754.452 73.4368C755.698 73.4368 756.76 73.0895 757.618 72.3745C758.497 71.6596 759.028 70.6791 759.212 69.4738L757.291 69.0857C756.985 70.6995 755.984 71.5779 754.452 71.5779C752.573 71.5779 751.367 70.0866 751.367 67.717C751.367 65.3474 752.573 63.8562 754.452 63.8562C755.984 63.8562 757.026 64.7755 757.291 66.3484L759.212 65.9603C759.028 64.755 758.497 63.7949 757.618 63.08C756.76 62.365 755.698 61.9973 754.452 61.9973C751.449 61.9973 749.365 64.326 749.365 67.717ZM760.572 69.3513C760.572 71.9456 761.981 73.4368 764.412 73.4368C765.658 73.4368 766.843 72.9669 767.497 72.1703H767.558V73.1304H769.478V62.3037H767.477V68.9836C767.477 70.5565 766.496 71.5779 765.005 71.5779C763.371 71.5779 762.574 70.7199 762.574 68.9836V62.3037H760.572V69.3513ZM771.559 58.2182V73.1304H773.561V58.2182H771.559ZM778.397 64.1013H781.053V62.3037H778.397V59.7707H776.395V62.3037H774.7V64.1013H776.395V70.3114C776.395 72.3745 777.192 73.1304 779.378 73.1304H780.542V71.2306H779.562C778.683 71.2306 778.397 70.9855 778.397 70.2705V64.1013ZM782.228 69.3513C782.228 71.9456 783.637 73.4368 786.068 73.4368C787.314 73.4368 788.499 72.9669 789.153 72.1703H789.214V73.1304H791.134V62.3037H789.132V68.9836C789.132 70.5565 788.152 71.5779 786.66 71.5779C785.026 71.5779 784.23 70.7199 784.23 68.9836V62.3037H782.228V69.3513ZM793.215 62.3037V73.1304H795.217V66.8386C795.217 64.9593 795.85 64.1013 797.096 64.1013C797.423 64.1013 797.791 64.1626 798.22 64.2852L798.608 62.2833C798.199 62.1811 797.791 62.1199 797.402 62.1199C796.401 62.1199 795.564 62.5284 795.135 63.2025H795.094V62.3037H793.215ZM798.721 67.717C798.721 71.1285 800.764 73.4368 803.767 73.4368C805.83 73.4368 807.424 72.5175 808.384 70.7199L806.831 69.6781C805.932 71.1285 805.115 71.6596 803.747 71.6596C802.868 71.6596 802.153 71.3532 801.602 70.7199C801.05 70.0866 800.764 69.2695 800.744 68.3094H808.649V67.4719C808.649 64.2239 806.688 61.9973 803.747 61.9973C800.785 61.9973 798.721 64.3465 798.721 67.717ZM806.668 66.7774H800.785C800.825 65.1432 802.112 63.7745 803.747 63.7745C805.463 63.7745 806.586 65.0002 806.668 66.7774ZM810.305 66.1441V68.0235H815.759V66.1441H810.305ZM817.155 67.717C817.155 71.0672 819.198 73.4368 821.996 73.4368C823.324 73.4368 824.509 72.9261 825.183 72.0886H825.224V73.1304H827.103V58.2182H825.101V63.2842H825.061C824.346 62.4876 823.242 61.9973 822.017 61.9973C819.198 61.9973 817.155 64.3669 817.155 67.717ZM825.101 68.6567C825.101 70.2705 823.835 71.5779 822.242 71.5779C820.362 71.5779 819.157 70.0866 819.157 67.717C819.157 65.3474 820.321 63.8562 822.18 63.8562C823.814 63.8562 825.101 65.1636 825.101 66.7569V68.6567ZM828.776 67.717C828.776 71.1285 830.818 73.4368 833.821 73.4368C835.884 73.4368 837.478 72.5175 838.438 70.7199L836.885 69.6781C835.987 71.1285 835.17 71.6596 833.801 71.6596C832.922 71.6596 832.207 71.3532 831.656 70.7199C831.104 70.0866 830.818 69.2695 830.798 68.3094H838.703V67.4719C838.703 64.2239 836.742 61.9973 833.801 61.9973C830.839 61.9973 828.776 64.3465 828.776 67.717ZM836.722 66.7774H830.839C830.88 65.1432 832.167 63.7745 833.801 63.7745C835.517 63.7745 836.64 65.0002 836.722 66.7774ZM849.117 58.3203H846.972V60.3835H849.117V58.3203ZM849.096 62.3037H843.05V61.3845C843.05 60.7716 843.356 60.4652 843.989 60.4652H845.501V58.6267H843.765C842.049 58.6267 841.048 59.5868 841.048 61.1393V62.3037H839.128V64.1013H841.048V73.1304H843.05V64.1013H847.094V73.1304H849.096V62.3037ZM851.149 62.3037V73.1304H853.151V66.4505C853.151 64.898 854.172 63.8562 855.725 63.8562C857.277 63.8562 858.196 64.8367 858.196 66.4505V73.1304H860.198V66.1441C860.198 63.6111 858.584 61.9973 856.113 61.9973C854.969 61.9973 853.763 62.508 853.11 63.2638H853.069V62.3037H851.149ZM862.171 62.3037V73.1304H864.173V62.3037H862.171ZM862.069 58.3203V60.4244H864.255V58.3203H862.069ZM866.231 62.3037V73.1304H868.233V66.4505C868.233 64.898 869.254 63.8562 870.807 63.8562C872.359 63.8562 873.278 64.8367 873.278 66.4505V73.1304H875.28V66.1441C875.28 63.6111 873.667 61.9973 871.195 61.9973C870.051 61.9973 868.846 62.508 868.192 63.2638H868.151V62.3037H866.231ZM877.621 75.1936C878.417 76.9708 880.113 78.033 882.176 78.033C884.954 78.033 886.793 76.1537 886.793 73.3755V62.3037H884.832V63.3455H884.791C884.076 62.508 882.932 62.0177 881.706 62.0177C878.887 62.0177 876.845 64.3873 876.845 67.717C876.845 71.0672 878.846 73.4368 881.686 73.4368C883.055 73.4368 884.198 72.9261 884.791 72.0886H884.832V73.2734C884.832 75.0914 883.831 76.2149 882.176 76.2149C880.807 76.2149 880.031 75.6838 879.316 74.2335L877.621 75.1936ZM884.791 68.6567C884.791 70.2705 883.524 71.5779 881.931 71.5779C880.052 71.5779 878.846 70.0866 878.846 67.717C878.846 65.3679 880.052 63.8766 881.87 63.8766C883.504 63.8766 884.791 65.184 884.791 66.7978V68.6567ZM894.393 64.1013V73.1304H896.395V64.1013H899.194V62.3037H896.395V61.3845C896.395 60.7716 896.702 60.4652 897.335 60.4652H898.847V58.6267H897.11C895.394 58.6267 894.393 59.5868 894.393 61.1393V62.3037H892.473V64.1013H894.393ZM899.478 67.717C899.478 71.1285 901.52 73.4368 904.523 73.4368C906.587 73.4368 908.18 72.5175 909.14 70.7199L907.588 69.6781C906.689 71.1285 905.872 71.6596 904.503 71.6596C903.625 71.6596 902.91 71.3532 902.358 70.7199C901.806 70.0866 901.52 69.2695 901.5 68.3094H909.406V67.4719C909.406 64.2239 907.445 61.9973 904.503 61.9973C901.541 61.9973 899.478 64.3465 899.478 67.717ZM907.424 66.7774H901.541C901.582 65.1432 902.869 63.7745 904.503 63.7745C906.219 63.7745 907.342 65.0002 907.424 66.7774ZM910.276 69.4942C910.582 72.0273 912.359 73.4368 915.158 73.4368C917.63 73.4368 919.264 72.1907 919.264 70.2501C919.264 68.3707 918.018 67.4719 915.178 66.6344C913.36 66.1237 912.747 65.7764 912.747 65.1023C912.747 64.3056 913.524 63.7745 914.688 63.7745C915.934 63.7745 916.751 64.4078 917.119 65.6947L918.998 65.2044C918.569 63.2434 916.874 61.9973 914.688 61.9973C912.461 61.9973 910.807 63.3455 910.807 65.1432C910.807 66.7978 911.91 67.5945 914.525 68.3299C916.588 68.9631 917.303 69.3717 917.303 70.3318C917.303 71.1489 916.486 71.6596 915.158 71.6596C913.36 71.6596 912.502 70.9038 912.155 69.0857L910.276 69.4942ZM923.233 64.1013H925.888V62.3037H923.233V59.7707H921.231V62.3037H919.535V64.1013H921.231V70.3114C921.231 72.3745 922.027 73.1304 924.213 73.1304H925.377V71.2306H924.397C923.519 71.2306 923.233 70.9855 923.233 70.2705V64.1013ZM927.267 62.3037V73.1304H929.269V62.3037H927.267ZM927.165 58.3203V60.4244H929.351V58.3203H927.165ZM930.224 62.3037L934.78 73.1304H936.577L941.133 62.3037H938.988L935.699 70.4339H935.658L932.369 62.3037H930.224ZM941.343 70.3114C941.343 72.2111 942.753 73.4368 944.898 73.4368C946.226 73.4368 947.349 72.9261 947.942 72.0886H947.982V73.1304H949.821V65.6947C949.821 63.4068 948.268 61.9973 945.756 61.9973C944.591 61.9973 943.59 62.3241 942.773 62.9574C941.977 63.5906 941.486 64.4282 941.303 65.4904L943.243 65.899C943.509 64.5303 944.428 63.7541 945.756 63.7541C946.981 63.7541 947.737 64.326 947.737 65.2044C947.737 66.0011 947.124 66.3892 945.163 66.8795C942.406 67.5332 941.343 68.4933 941.343 70.3114ZM947.839 69.4738C947.839 70.7199 946.716 71.6392 945.143 71.6392C943.938 71.6392 943.305 71.108 943.305 70.1888C943.305 69.3717 943.958 68.9018 945.674 68.4729C946.981 68.1256 947.615 67.7987 947.799 67.3289H947.839V69.4738ZM951.796 58.2182V73.1304H953.798V58.2182H951.796ZM956.387 70.5156V73.1304H959.083V70.5156H956.387ZM575.77 87.1655C575.77 91.8434 578.487 94.642 582.817 94.642C584.431 94.642 585.698 94.3765 587.066 93.6615L586.474 92.3745C585.35 92.9669 584.125 93.2529 582.817 93.2529C579.324 93.2529 577.261 91.0263 577.261 87.1655C577.261 83.6315 579.61 81.0985 582.817 81.0985C586.188 81.0985 588.292 83.3455 588.292 86.8386C588.292 88.8814 587.802 89.9641 586.882 89.9641C586.147 89.9641 585.861 89.5964 585.861 88.5341V85.8785C585.861 84.1422 584.676 83.0391 583.022 83.0391C581.285 83.0391 580.101 83.9992 579.794 85.6334L581.408 85.9603C581.592 85.0206 582.143 84.5507 583.022 84.5507C583.655 84.5507 584.125 84.8776 584.125 85.3679C584.125 85.9603 583.818 86.1441 582.123 86.6139C580.468 87.1042 579.753 87.8192 579.753 89.0653C579.753 90.5156 580.815 91.394 582.388 91.394C583.389 91.394 584.309 91.0059 584.799 90.3522H584.84C585.187 91.0263 585.841 91.3736 586.801 91.3736C588.762 91.3736 589.804 89.8415 589.804 86.8386C589.804 82.651 587.046 79.7298 582.817 79.7298C578.793 79.6685 575.709 82.9778 575.77 87.1655ZM584.125 88.5341C584.125 89.3513 583.471 89.8824 582.572 89.8824C581.857 89.8824 581.49 89.576 581.49 88.9427C581.49 88.4524 581.755 88.146 582.552 87.8805C583.594 87.5536 583.961 87.3493 584.104 87.0838H584.125V88.5341ZM598.962 80.7921V93.1304H601.066V80.7921H605.397V78.831H594.59V80.7921H598.962ZM612.815 90.4543L613.755 93.1304H615.879L610.752 78.831H608.791L603.643 93.1304H605.768L606.707 90.4543H612.815ZM612.182 88.6159H607.341L609.751 81.7317H609.792L612.182 88.6159ZM615.941 85.9807C615.941 90.4952 618.331 93.4368 622.028 93.4368C625.338 93.4368 627.544 91.0672 627.544 87.5128V85.899H622.212V87.7783H625.501C625.562 90.0662 624.234 91.4757 622.028 91.4757C619.557 91.4757 618.045 89.3921 618.045 85.9807C618.045 82.5693 619.557 80.4856 622.028 80.4856C623.846 80.4856 625.072 81.6092 625.46 83.6519L627.523 83.3047C627.115 80.4244 624.909 78.5246 622.028 78.5246C618.331 78.5246 615.941 81.4662 615.941 85.9807ZM628.818 85.9807C628.818 90.4543 631.249 93.4368 634.906 93.4368C638.583 93.4368 641.014 90.4543 641.014 85.9807C641.014 81.507 638.583 78.5246 634.906 78.5246C631.249 78.5246 628.818 81.507 628.818 85.9807ZM638.91 85.9807C638.91 89.3921 637.377 91.4757 634.906 91.4757C632.434 91.4757 630.922 89.3921 630.922 85.9807C630.922 82.5693 632.434 80.4856 634.906 80.4856C637.377 80.4856 638.91 82.5693 638.91 85.9807ZM649.935 87.4106V87.3902C652.059 86.9204 653.285 85.3883 653.285 83.1821C653.285 80.4652 651.487 78.831 648.484 78.831H643.091V93.1304H645.195V87.5536H647.708L650.65 93.1304H653.019L649.935 87.4106ZM648.28 85.613H645.195V80.7921H648.28C650.221 80.7921 651.181 81.5887 651.181 83.1821C651.181 84.755 650.18 85.613 648.28 85.613ZM655.211 78.831V93.1304H663.974V91.1693H657.315V86.7161H663.402V84.8367H657.315V80.7921H663.974V78.831H655.211ZM673.005 80.7921V93.1304H675.109V80.7921H679.44V78.831H668.634V80.7921H673.005ZM681.335 78.831V93.1304H683.439V86.7161H689.302V93.1304H691.406V78.831H689.302V84.8572H683.439V78.831H681.335ZM694.292 78.831V93.1304H703.056V91.1693H696.396V86.7161H702.484V84.8367H696.396V80.7921H703.056V78.831H694.292ZM712.893 90.4543L713.832 93.1304H715.957L710.829 78.831H708.868L703.72 93.1304H705.845L706.785 90.4543H712.893ZM712.259 88.6159H707.418L709.828 81.7317H709.869L712.259 88.6159ZM718.57 80.7921V93.1304H720.674V80.7921H725.005V78.831H714.198V80.7921H718.57ZM733.743 87.4106V87.3902C735.868 86.9204 737.093 85.3883 737.093 83.1821C737.093 80.4652 735.296 78.831 732.293 78.831H726.9V93.1304H729.004V87.5536H731.516L734.458 93.1304H736.828L733.743 87.4106ZM732.088 85.613H729.004V80.7921H732.088C734.029 80.7921 734.989 81.5887 734.989 83.1821C734.989 84.755 733.988 85.613 732.088 85.613ZM739.019 78.831V93.1304H747.783V91.1693H741.123V86.7161H747.211V84.8367H741.123V80.7921H747.783V78.831H739.019ZM756.814 80.7921V93.1304H758.918V80.7921H763.248V78.831H752.442V80.7921H756.814ZM771.987 87.4106V87.3902C774.111 86.9204 775.337 85.3883 775.337 83.1821C775.337 80.4652 773.539 78.831 770.536 78.831H765.143V93.1304H767.248V87.5536H769.76L772.702 93.1304H775.071L771.987 87.4106ZM770.332 85.613H767.248V80.7921H770.332C772.273 80.7921 773.233 81.5887 773.233 83.1821C773.233 84.755 772.232 85.613 770.332 85.613ZM777.263 78.831V93.1304H779.367V78.831H777.263ZM780.627 78.831L785.774 93.1304H787.96L793.108 78.831H790.902L786.898 90.2501H786.857L782.853 78.831H780.627ZM800.522 90.4543L801.461 93.1304H803.586L798.458 78.831H796.497L791.35 93.1304H793.474L794.414 90.4543H800.522ZM799.888 88.6159H795.047L797.457 81.7317H797.498L799.888 88.6159ZM804.863 78.831V93.1304H806.967V82.2628H807.008L812.973 93.1304H815.302V78.831H813.198V89.6985H813.157L807.192 78.831H804.863ZM818.2 78.831V93.1304H822.714C826.616 93.1304 828.985 90.6995 828.985 85.9603C828.985 81.507 826.473 78.831 822.796 78.831H818.2ZM822.632 91.1693H820.304V80.7921H822.734C825.329 80.7921 826.881 82.5897 826.881 85.9603C826.881 89.433 825.472 91.1693 822.632 91.1693ZM837.92 87.4106V87.3902C840.045 86.9204 841.27 85.3883 841.27 83.1821C841.27 80.4652 839.473 78.831 836.47 78.831H831.077V93.1304H833.181V87.5536H835.694L838.635 93.1304H841.005L837.92 87.4106ZM836.266 85.613H833.181V80.7921H836.266C838.206 80.7921 839.166 81.5887 839.166 83.1821C839.166 84.755 838.165 85.613 836.266 85.613ZM843.094 88.4524C843.094 91.6392 844.953 93.4368 848.303 93.4368C851.633 93.4368 853.533 91.6392 853.533 88.4524V78.831H851.429V88.3503C851.429 90.4339 850.387 91.4757 848.303 91.4757C846.24 91.4757 845.198 90.4135 845.198 88.3094V78.831H843.094V88.4524ZM856.333 78.831V93.1304H858.417V82.4058H858.458L862.931 93.1304H863.81L868.304 82.4058H868.345V93.1304H870.428V78.831H867.834L863.401 89.6372H863.36L858.927 78.831H856.333ZM873.525 94.4582V95.5408C875.261 95.3978 876.18 94.4582 876.18 92.8035V90.5769H873.423V93.1304H874.546C874.546 93.9271 874.26 94.2947 873.525 94.4582ZM576.26 98.831V113.13H578.364V108.718L579.998 106.716H580.039L584.554 113.13H587.107L581.347 105.123L586.576 98.831H584.063L578.405 105.756H578.364V98.831H576.26ZM588.399 98.831V113.13H597.163V111.169H590.503V106.716H596.591V104.837H590.503V100.792H597.163V98.831H588.399ZM606.285 107.411V107.39C608.409 106.92 609.635 105.388 609.635 103.182C609.635 100.465 607.837 98.831 604.834 98.831H599.442V113.13H601.546V107.554H604.058L607 113.13H609.369L606.285 107.411ZM604.63 105.613H601.546V100.792H604.63C606.571 100.792 607.531 101.589 607.531 103.182C607.531 104.755 606.53 105.613 604.63 105.613ZM619.119 110.454L620.059 113.13H622.183L617.056 98.831H615.095L609.947 113.13H612.072L613.011 110.454H619.119ZM618.486 108.616H613.645L616.055 101.732H616.096L618.486 108.616ZM623.461 98.831V113.13H631.857V111.169H625.565V98.831H623.461ZM641.722 110.454L642.662 113.13H644.786L639.659 98.831H637.698L632.55 113.13H634.674L635.614 110.454H641.722ZM641.089 108.616H636.247L638.658 101.732H638.699L641.089 108.616Z" fill="#0A0A0A"/>
<path d="M605.838 159.85C605.838 164.365 608.228 167.306 611.925 167.306C613.498 167.306 614.785 166.837 615.786 165.876C616.787 164.916 617.359 163.589 617.502 161.934L615.398 161.628C615.132 164.079 613.947 165.345 611.925 165.345C609.453 165.345 607.942 163.282 607.942 159.85C607.942 156.439 609.453 154.355 611.925 154.355C613.825 154.355 615.01 155.54 615.398 157.767L617.461 157.419C617.093 154.396 614.867 152.394 611.925 152.394C608.268 152.394 605.838 155.377 605.838 159.85ZM619.27 162.322C619.27 165.509 621.129 167.306 624.479 167.306C627.809 167.306 629.709 165.509 629.709 162.322V152.701H627.605V162.22C627.605 164.304 626.563 165.345 624.479 165.345C622.416 165.345 621.374 164.283 621.374 162.179V152.701H619.27V162.322ZM639.352 161.28V161.26C641.477 160.79 642.703 159.258 642.703 157.052C642.703 154.335 640.905 152.701 637.902 152.701H632.509V167H634.613V161.423H637.126L640.067 167H642.437L639.352 161.28ZM637.698 159.483H634.613V154.662H637.698C639.638 154.662 640.599 155.458 640.599 157.052C640.599 158.625 639.598 159.483 637.698 159.483ZM652.187 164.324L653.126 167H655.251L650.124 152.701H648.163L643.015 167H645.139L646.079 164.324H652.187ZM651.554 162.485H646.712L649.123 155.601H649.164L651.554 162.485ZM657.864 154.662V167H659.968V154.662H664.299V152.701H653.493V154.662H657.864ZM666.194 152.701V167H674.958V165.039H668.298V160.586H674.386V158.706H668.298V154.662H674.958V152.701H666.194ZM677.236 152.701V167H681.751C685.652 167 688.022 164.569 688.022 159.83C688.022 155.377 685.509 152.701 681.832 152.701H677.236ZM681.669 165.039H679.34V154.662H681.771C684.365 154.662 685.918 156.459 685.918 159.83C685.918 163.303 684.508 165.039 681.669 165.039ZM606.655 172.701V187H608.738V176.275H608.779L613.253 187H614.131L618.625 176.275H618.666V187H620.75V172.701H618.155L613.723 183.507H613.682L609.249 172.701H606.655ZM631.18 184.324L632.119 187H634.244L629.117 172.701H627.156L622.008 187H624.132L625.072 184.324H631.18ZM630.547 182.485H625.705L628.116 175.601H628.157L630.547 182.485ZM642.365 181.28V181.26C644.489 180.79 645.715 179.258 645.715 177.052C645.715 174.335 643.917 172.701 640.914 172.701H635.521V187H637.626V181.423H640.138L643.08 187H645.449L642.365 181.28ZM640.71 179.483H637.626V174.662H640.71C642.651 174.662 643.611 175.458 643.611 177.052C643.611 178.625 642.61 179.483 640.71 179.483ZM647.641 172.701V187H649.745V182.588L651.379 180.586H651.42L655.934 187H658.488L652.727 178.992L657.957 172.701H655.444L649.786 179.626H649.745V172.701H647.641ZM659.78 172.701V187H668.544V185.039H661.884V180.586H667.972V178.706H661.884V174.662H668.544V172.701H659.78ZM674.193 174.662V187H676.297V174.662H680.628V172.701H669.821V174.662H674.193ZM682.523 172.701V187H684.627V181.668H688.14C691.184 181.668 692.982 179.993 692.982 177.195C692.982 174.417 691.184 172.701 688.161 172.701H682.523ZM688.059 179.707H684.627V174.662H688.079C689.958 174.662 690.878 175.479 690.878 177.195C690.878 178.87 689.938 179.707 688.059 179.707ZM694.682 172.701V187H703.078V185.039H696.786V172.701H694.682ZM712.943 184.324L713.883 187H716.007L710.88 172.701H708.919L703.771 187H705.896L706.835 184.324H712.943ZM712.31 182.485H707.469L709.879 175.601H709.92L712.31 182.485ZM716.069 179.85C716.069 184.365 718.459 187.306 722.156 187.306C723.729 187.306 725.016 186.837 726.017 185.876C727.018 184.916 727.59 183.589 727.733 181.934L725.629 181.628C725.363 184.079 724.179 185.345 722.156 185.345C719.684 185.345 718.173 183.282 718.173 179.85C718.173 176.439 719.684 174.355 722.156 174.355C724.056 174.355 725.241 175.54 725.629 177.767L727.692 177.419C727.324 174.396 725.098 172.394 722.156 172.394C718.5 172.394 716.069 175.377 716.069 179.85ZM729.604 172.701V187H738.367V185.039H731.708V180.586H737.795V178.706H731.708V174.662H738.367V172.701H729.604Z" fill="#0A0A0A"/>
<path d="M817.545 152.315L820.303 166.614H822.713L826.002 155.645H826.043L829.311 166.614H831.742L834.48 152.315H832.335L830.292 163.264H830.251L827.003 152.315H825.022L821.794 163.264H821.753L819.71 152.315H817.545ZM835.202 159.465C835.202 163.938 837.633 166.921 841.289 166.921C844.966 166.921 847.397 163.938 847.397 159.465C847.397 154.991 844.966 152.008 841.289 152.008C837.633 152.008 835.202 154.991 835.202 159.465ZM845.293 159.465C845.293 162.876 843.761 164.96 841.289 164.96C838.817 164.96 837.306 162.876 837.306 159.465C837.306 156.053 838.817 153.97 841.289 153.97C843.761 153.97 845.293 156.053 845.293 159.465ZM856.318 160.895V160.874C858.443 160.404 859.668 158.872 859.668 156.666C859.668 153.949 857.871 152.315 854.868 152.315H849.475V166.614H851.579V161.038H854.091L857.033 166.614H859.403L856.318 160.895ZM854.663 159.097H851.579V154.276H854.663C856.604 154.276 857.564 155.073 857.564 156.666C857.564 158.239 856.563 159.097 854.663 159.097ZM861.594 152.315V166.614H863.698V162.202L865.332 160.2H865.373L869.888 166.614H872.441L866.681 158.607L871.91 152.315H869.397L863.739 159.24H863.698V152.315H861.594ZM872.712 161.895C873.1 165.143 875.184 166.921 878.636 166.921C881.639 166.921 883.702 165.307 883.702 162.917C883.702 160.629 882.354 159.383 878.656 158.157C876.226 157.401 875.47 156.829 875.47 155.869C875.47 154.705 876.471 153.949 878.044 153.949C879.739 153.949 880.801 154.848 881.251 156.625L883.294 156.176C883.069 154.909 882.497 153.908 881.537 153.152C880.577 152.397 879.412 152.008 878.044 152.008C875.306 152.008 873.386 153.602 873.386 155.869C873.386 157.851 874.53 158.913 877.962 160.037C880.761 160.935 881.618 161.63 881.618 162.958C881.618 164.183 880.475 164.98 878.677 164.98C876.287 164.98 875.082 163.918 874.775 161.487L872.712 161.895ZM885.554 152.315V166.614H887.658V160.2H893.52V166.614H895.624V152.315H893.52V158.341H887.658V152.315H885.554ZM897.694 159.465C897.694 163.938 900.125 166.921 903.781 166.921C907.458 166.921 909.889 163.938 909.889 159.465C909.889 154.991 907.458 152.008 903.781 152.008C900.125 152.008 897.694 154.991 897.694 159.465ZM907.785 159.465C907.785 162.876 906.253 164.96 903.781 164.96C901.309 164.96 899.798 162.876 899.798 159.465C899.798 156.053 901.309 153.97 903.781 153.97C906.253 153.97 907.785 156.053 907.785 159.465ZM911.967 152.315V166.614H914.071V161.283H917.584C920.628 161.283 922.426 159.608 922.426 156.809C922.426 154.031 920.628 152.315 917.605 152.315H911.967ZM917.503 159.322H914.071V154.276H917.523C919.402 154.276 920.322 155.093 920.322 156.809C920.322 158.484 919.382 159.322 917.503 159.322ZM923.105 161.895C923.493 165.143 925.576 166.921 929.029 166.921C932.031 166.921 934.095 165.307 934.095 162.917C934.095 160.629 932.746 159.383 929.049 158.157C926.618 157.401 925.862 156.829 925.862 155.869C925.862 154.705 926.863 153.949 928.436 153.949C930.132 153.949 931.194 154.848 931.643 156.625L933.686 156.176C933.461 154.909 932.889 153.908 931.929 153.152C930.969 152.397 929.805 152.008 928.436 152.008C925.699 152.008 923.779 153.602 923.779 155.869C923.779 157.851 924.923 158.913 928.354 160.037C931.153 160.935 932.011 161.63 932.011 162.958C932.011 164.183 930.867 164.98 929.069 164.98C926.679 164.98 925.474 163.918 925.168 161.487L923.105 161.895Z" fill="#0A0A0A"/>
<path d="M818.958 207.701V222H821.062V216.117H827.211V214.258H821.062V209.662H827.742V207.701H818.958ZM828.685 214.85C828.685 219.324 831.116 222.306 834.772 222.306C838.449 222.306 840.88 219.324 840.88 214.85C840.88 210.377 838.449 207.394 834.772 207.394C831.116 207.394 828.685 210.377 828.685 214.85ZM838.776 214.85C838.776 218.262 837.244 220.345 834.772 220.345C832.3 220.345 830.789 218.262 830.789 214.85C830.789 211.439 832.3 209.355 834.772 209.355C837.244 209.355 838.776 211.439 838.776 214.85ZM842.141 214.85C842.141 219.324 844.571 222.306 848.228 222.306C851.905 222.306 854.336 219.324 854.336 214.85C854.336 210.377 851.905 207.394 848.228 207.394C844.571 207.394 842.141 210.377 842.141 214.85ZM852.232 214.85C852.232 218.262 850.7 220.345 848.228 220.345C845.756 220.345 844.245 218.262 844.245 214.85C844.245 211.439 845.756 209.355 848.228 209.355C850.7 209.355 852.232 211.439 852.232 214.85ZM856.414 207.701V222H860.928C864.83 222 867.199 219.569 867.199 214.83C867.199 210.377 864.687 207.701 861.01 207.701H856.414ZM860.846 220.039H858.518V209.662H860.949C863.543 209.662 865.095 211.459 865.095 214.83C865.095 218.303 863.686 220.039 860.846 220.039ZM884.87 221.203L886.075 219.773L884.216 218.139V213.788H882.296V216.464L878.108 212.808C877.23 212.072 876.964 211.561 876.964 210.887C876.964 209.907 877.72 209.253 878.864 209.253C880.028 209.253 880.702 209.825 880.927 211.051L882.909 210.744C882.643 208.681 881.091 207.394 878.864 207.394C876.596 207.394 874.962 208.845 874.962 210.826C874.962 211.95 875.453 212.869 876.596 213.951C874.799 215.014 873.818 216.525 873.818 218.098C873.818 220.733 875.718 222.306 878.844 222.306C881.111 222.306 882.725 221.53 883.603 220.08L884.87 221.203ZM882.071 218.752C881.642 219.835 880.498 220.427 878.864 220.427C876.964 220.427 875.82 219.508 875.82 218.017C875.82 216.893 876.535 215.933 877.945 215.136L882.071 218.752ZM894.517 209.662V222H896.621V209.662H900.952V207.701H890.145V209.662H894.517ZM909.69 216.28V216.26C911.814 215.79 913.04 214.258 913.04 212.052C913.04 209.335 911.242 207.701 908.24 207.701H902.847V222H904.951V216.423H907.463L910.405 222H912.775L909.69 216.28ZM908.035 214.483H904.951V209.662H908.035C909.976 209.662 910.936 210.458 910.936 212.052C910.936 213.625 909.935 214.483 908.035 214.483ZM914.966 207.701V222H923.729V220.039H917.07V215.586H923.158V213.706H917.07V209.662H923.729V207.701H914.966ZM933.566 219.324L934.506 222H936.631L931.503 207.701H929.542L924.394 222H926.519L927.458 219.324H933.566ZM932.933 217.485H928.092L930.502 210.601H930.543L932.933 217.485ZM939.244 209.662V222H941.348V209.662H945.679V207.701H934.872V209.662H939.244ZM946.552 217.281C946.94 220.529 949.024 222.306 952.476 222.306C955.479 222.306 957.542 220.693 957.542 218.303C957.542 216.015 956.194 214.769 952.497 213.543C950.066 212.787 949.31 212.215 949.31 211.255C949.31 210.091 950.311 209.335 951.884 209.335C953.579 209.335 954.642 210.234 955.091 212.011L957.134 211.561C956.909 210.295 956.337 209.294 955.377 208.538C954.417 207.782 953.253 207.394 951.884 207.394C949.147 207.394 947.226 208.988 947.226 211.255C947.226 213.237 948.37 214.299 951.802 215.422C954.601 216.321 955.459 217.016 955.459 218.343C955.459 219.569 954.315 220.366 952.517 220.366C950.127 220.366 948.922 219.304 948.615 216.873L946.552 217.281Z" fill="#0A0A0A"/>
<path d="M607.296 207.701V222H615.692V220.039H609.4V207.701H607.296ZM617.6 207.701V222H619.704V207.701H617.6ZM620.964 207.701L626.112 222H628.298L633.445 207.701H631.239L627.235 219.12H627.195L623.191 207.701H620.964ZM634.737 207.701V222H643.501V220.039H636.841V215.586H642.929V213.706H636.841V209.662H643.501V207.701H634.737ZM650.797 207.701V222H652.88V211.275H652.921L657.395 222H658.273L662.767 211.275H662.808V222H664.892V207.701H662.298L657.865 218.507H657.824L653.391 207.701H650.797ZM667.662 217.322C667.662 220.509 669.521 222.306 672.871 222.306C676.2 222.306 678.1 220.509 678.1 217.322V207.701H675.996V217.22C675.996 219.304 674.954 220.345 672.871 220.345C670.807 220.345 669.766 219.283 669.766 217.179V207.701H667.662V217.322ZM679.879 217.281C680.267 220.529 682.351 222.306 685.803 222.306C688.806 222.306 690.869 220.693 690.869 218.303C690.869 216.015 689.521 214.769 685.824 213.543C683.393 212.787 682.637 212.215 682.637 211.255C682.637 210.091 683.638 209.335 685.211 209.335C686.906 209.335 687.968 210.234 688.418 212.011L690.461 211.561C690.236 210.295 689.664 209.294 688.704 208.538C687.744 207.782 686.579 207.394 685.211 207.394C682.473 207.394 680.553 208.988 680.553 211.255C680.553 213.237 681.697 214.299 685.129 215.422C687.928 216.321 688.786 217.016 688.786 218.343C688.786 219.569 687.642 220.366 685.844 220.366C683.454 220.366 682.249 219.304 681.942 216.873L679.879 217.281ZM692.721 207.701V222H694.825V207.701H692.721ZM696.881 214.85C696.881 219.365 699.271 222.306 702.969 222.306C704.542 222.306 705.828 221.837 706.829 220.876C707.83 219.916 708.402 218.589 708.545 216.934L706.441 216.628C706.176 219.079 704.991 220.345 702.969 220.345C700.497 220.345 698.985 218.282 698.985 214.85C698.985 211.439 700.497 209.355 702.969 209.355C704.868 209.355 706.053 210.54 706.441 212.767L708.505 212.419C708.137 209.396 705.91 207.394 702.969 207.394C699.312 207.394 696.881 210.377 696.881 214.85Z" fill="#0A0A0A"/>
<path d="M586.077 155.098L585.119 156.056L589.205 159.884H577.649V161.238H589.205L585.119 165.067L586.077 166.048L591.75 160.561L586.077 155.098Z" fill="#0A0A0A"/>
<path d="M797.739 155.098L796.782 156.056L800.867 159.884H789.311V161.238H800.867L796.782 165.067L797.739 166.048L803.412 160.561L797.739 155.098Z" fill="#0A0A0A"/>
<path d="M797.846 210.484L796.888 211.441L800.974 215.27H789.418V216.624H800.974L796.888 220.452L797.846 221.433L803.519 215.947L797.846 210.484Z" fill="#0A0A0A"/>
<path d="M586.183 210.484L585.226 211.441L589.311 215.27H577.755V216.624H589.311L585.226 220.452L586.183 221.433L591.856 215.947L586.183 210.484Z" fill="#0A0A0A"/>
<path d="M63.8065 100.402C58.2569 100.402 53.3737 99.3779 49.1568 97.3292C44.94 95.2804 41.6878 92.5056 39.4004 89.0048C37.1129 85.504 35.9692 81.6253 35.9692 77.3687C35.9692 73.0325 37.103 69.1637 39.3705 65.7624C41.658 62.3411 44.9101 59.6658 49.127 57.7364C53.3439 55.7871 58.2569 54.8124 63.8661 54.8124C69.4356 54.8124 74.3188 55.7871 78.5158 57.7364C82.7326 59.6658 85.9749 62.3411 88.2424 65.7624C90.5299 69.1637 91.6736 73.0325 91.6736 77.3687C91.6736 81.6452 90.5199 85.5339 88.2126 89.0347C85.9251 92.5355 82.673 95.3102 78.4561 97.359C74.2392 99.3879 69.356 100.402 63.8065 100.402ZM63.8065 87.9904C66.0939 87.9904 68.1029 87.5528 69.8334 86.6776C71.5639 85.7825 72.8966 84.5393 73.8315 82.9481C74.7663 81.3568 75.2338 79.5368 75.2338 77.488C75.2338 75.4592 74.7663 73.669 73.8315 72.1175C72.8966 70.566 71.5639 69.3626 69.8334 68.5073C68.1029 67.652 66.0939 67.2243 63.8065 67.2243C61.4991 67.2243 59.4802 67.652 57.7497 68.5073C56.0192 69.3626 54.6766 70.566 53.7218 72.1175C52.7869 73.669 52.3195 75.4592 52.3195 77.488C52.3195 79.5368 52.7869 81.3568 53.7218 82.9481C54.6766 84.5393 56.0192 85.7825 57.7497 86.6776C59.4802 87.5528 61.4991 87.9904 63.8065 87.9904ZM135.162 86.5284V99H95.8674V56.2147H111.144V86.5284H135.162ZM168.088 90.8249H152.036L149.381 99H134.283L149.381 56.2147H171.251L186.228 99H170.714L168.088 90.8249ZM165.313 82.2618L160.062 65.9414L154.781 82.2618H165.313ZM237.951 99L235.952 68.8057L226.763 99H211.427L203.043 70.0588L201.342 99H187.349L190.034 56.2147H212.471L219.721 80.2031L227.21 56.2147H249.558L252.81 99H237.951ZM305.773 89.6016V99H270.865V90.8249L282.501 83.6641C284.549 82.4707 286.151 81.3866 287.304 80.412C288.458 79.4174 289.274 78.4527 289.751 77.5179C290.248 76.583 290.497 75.5586 290.497 74.4447C290.497 72.7142 289.86 71.3417 288.587 70.3273C287.334 69.3129 285.484 68.8057 283.038 68.8057C280.79 68.8057 278.572 69.2234 276.384 70.0588C274.216 70.8942 272.356 71.9683 270.805 73.2811V61.9135C275.559 58.8105 281.019 57.259 287.185 57.259C290.944 57.259 294.177 57.8358 296.882 58.9895C299.607 60.1432 301.685 61.7842 303.118 63.9125C304.55 66.0209 305.266 68.4874 305.266 71.3119C305.266 74.3154 304.301 77.0803 302.372 79.6064C300.442 82.1325 297.419 84.609 293.301 87.0356L288.975 89.6016H305.773ZM331.001 100.104C326.665 100.104 322.826 99.2089 319.485 97.4187C316.143 95.6285 313.547 93.1322 311.697 89.9298C309.867 86.7074 308.952 83.0276 308.952 78.8903C308.952 74.6934 309.867 70.9539 311.697 67.6719C313.547 64.3899 316.143 61.8339 319.485 60.0039C322.826 58.174 326.665 57.259 331.001 57.259C335.417 57.259 339.286 58.174 342.608 60.0039C345.949 61.8339 348.525 64.3899 350.335 67.6719C352.145 70.9539 353.05 74.7132 353.05 78.95C353.05 83.0873 352.145 86.7572 350.335 89.9596C348.525 93.162 345.949 95.6583 342.608 97.4485C339.286 99.2188 335.417 100.104 331.001 100.104ZM331.001 88.617C333.388 88.617 335.218 87.7517 336.491 86.0212C337.764 84.2907 338.401 81.9336 338.401 78.95C338.401 75.847 337.764 73.3706 336.491 71.5208C335.218 69.6709 333.388 68.746 331.001 68.746C329.45 68.746 328.117 69.1736 327.003 70.0289C325.909 70.8644 325.064 72.0479 324.467 73.5795C323.89 75.0912 323.602 76.8615 323.602 78.8903C323.602 81.8938 324.248 84.2708 325.541 86.0212C326.854 87.7517 328.674 88.617 331.001 88.617ZM391.496 89.6016V99H356.588V90.8249L368.224 83.6641C370.273 82.4707 371.874 81.3866 373.028 80.412C374.181 79.4174 374.997 78.4527 375.474 77.5179C375.971 76.583 376.22 75.5586 376.22 74.4447C376.22 72.7142 375.584 71.3417 374.311 70.3273C373.057 69.3129 371.208 68.8057 368.761 68.8057C366.513 68.8057 364.296 69.2234 362.108 70.0588C359.939 70.8942 358.08 71.9683 356.528 73.2811V61.9135C361.282 58.8105 366.742 57.259 372.908 57.259C376.668 57.259 379.9 57.8358 382.605 58.9895C385.33 60.1432 387.409 61.7842 388.841 63.9125C390.273 66.0209 390.989 68.4874 390.989 71.3119C390.989 74.3154 390.024 77.0803 388.095 79.6064C386.166 82.1325 383.142 84.609 379.025 87.0356L374.698 89.6016H391.496ZM417.59 72.8336C420.633 72.8336 423.259 73.3607 425.467 74.4149C427.675 75.4691 429.365 76.941 430.539 78.8307C431.712 80.7203 432.299 82.8983 432.299 85.3648C432.299 88.2291 431.484 90.7751 429.853 93.0029C428.222 95.2307 425.845 96.9711 422.722 98.2243C419.619 99.4774 415.929 100.104 411.653 100.104C408.55 100.104 405.496 99.726 402.493 98.9702C399.489 98.1944 397.162 97.2496 395.511 96.1357V86.8865C397.381 88.0003 399.43 88.8159 401.657 89.333C403.905 89.8303 406.362 90.0789 409.027 90.0789C410.996 90.0789 412.647 89.88 413.98 89.4822C415.312 89.0645 416.307 88.4976 416.963 87.7815C417.62 87.0655 417.948 86.2599 417.948 85.3648C417.948 83.9128 417.232 82.769 415.8 81.9336C414.368 81.0982 412.19 80.6805 409.266 80.6805C406.839 80.6805 404.502 80.8993 402.254 81.3369C400.026 81.7546 398.067 82.3016 396.376 82.9779V58.3033H430.241V68.6266H407.983V74.8923C409.236 74.2558 410.678 73.7585 412.309 73.4004C413.94 73.0225 415.7 72.8336 417.59 72.8336Z" fill="#0A0A0A"/>
<path d="M37.255 132.227H43.9765L57.8473 166.201H57.9695L71.8403 132.227H78.5618V175H73.4901V140.292H73.3679L58.9472 175H56.8085L42.3878 140.292H42.2656V175H37.255V132.227ZM109.645 166.384H90.3966L87.4024 175H82.2085L97.6069 132.227H102.495L117.833 175H112.639L109.645 166.384ZM108.117 161.985L100.112 139.132H99.99L91.9853 161.985H108.117ZM125.772 157.157L110.801 132.227H116.667L128.216 152.208H128.338L139.948 132.227H145.814L130.844 157.157V175H125.772V157.157ZM168.043 170.234H191.079V175H162.665V170.967C162.665 167.484 163.276 164.796 164.437 162.84C165.232 161.435 166.393 160.09 167.92 158.868C169.509 157.646 171.953 156.18 175.314 154.469C184.296 149.825 186.741 147.381 186.741 143.042C186.741 138.948 183.013 136.076 177.819 136.076C171.403 136.076 167.554 139.804 167.126 146.464L162.054 146.036C162.299 141.515 163.826 137.909 166.637 135.282C169.509 132.654 173.237 131.31 177.819 131.31C185.641 131.31 191.812 136.504 191.812 143.042C191.812 149.397 188.696 152.941 179.225 157.83C175.681 159.602 173.237 161.007 171.892 161.985C170.548 162.901 169.57 163.94 169.02 164.979C168.409 166.14 168.104 167.912 168.043 170.234ZM199.185 178.666C201.201 178.239 202.057 177.261 202.057 175H198.879V168.095H206.334V174.083C206.334 178.544 203.829 181.11 199.185 181.355V178.666ZM212.198 160.763L217.209 159.968C218.064 167.423 221.67 171.15 227.963 171.15C233.524 171.15 237.129 167.851 237.129 162.901C237.129 157.096 233.83 154.347 227.047 154.347H223.992V149.947H227.047C232.057 149.947 236.029 146.892 236.029 143.042C236.029 138.643 232.974 135.954 227.902 135.954C222.586 135.954 218.981 138.948 218.248 144.02L213.298 143.287C213.787 139.681 215.376 136.748 218.003 134.61C220.631 132.41 223.931 131.31 227.902 131.31C235.602 131.31 241.101 135.954 241.101 142.676C241.101 146.342 238.779 149.947 235.296 151.658V151.78C239.512 153.43 242.14 157.707 242.14 162.901C242.14 170.662 236.396 175.917 227.963 175.917C218.92 175.917 213.237 170.478 212.198 160.763ZM248.389 178.666C250.405 178.239 251.261 177.261 251.261 175H248.083V168.095H255.538V174.083C255.538 178.544 253.033 181.11 248.389 181.355V178.666ZM281.782 166.262H260.396V161.862L279.216 132.227H286.854V161.801H292.292V166.262H286.854V175H281.782V166.262ZM281.782 161.801V136.198H281.66L265.406 161.801H281.782Z" fill="#0A0A0A"/>
</g>
<defs>
<linearGradient id="paint0_linear_131_157" x1="1007" y1="127" x2="-5.64168e-08" y2="127" gradientUnits="userSpaceOnUse">
<stop stop-color="#EDE6EC"/>
<stop offset="1" stop-color="#EFECA3"/>
</linearGradient>
<linearGradient id="paint1_linear_131_157" x1="937.899" y1="107.579" x2="38.2166" y2="198.893" gradientUnits="userSpaceOnUse">
<stop stop-color="#C7A0ED"/>
<stop offset="0.411855" stop-color="white"/>
<stop offset="1" stop-color="#EDEA9D"/>
</linearGradient>
<clipPath id="clip0_131_157">
<rect width="1007" height="254" fill="white"/>
</clipPath>
</defs>
</svg>
