<svg width="319" height="92" viewBox="0 0 319 92" fill="none" xmlns="http://www.w3.org/2000/svg">
<g clip-path="url(#clip0_131_16)">
<path d="M0 0H319V83.7469C319 87.9517 315.592 91.3603 311.387 91.3603H7.61335C3.40861 91.3603 0 87.9517 0 83.7469V0Z" fill="url(#paint0_linear_131_16)"/>
<path fill-rule="evenodd" clip-rule="evenodd" d="M317.857 1.14338H1.14338V83.7469C1.14338 87.3202 4.04008 90.2169 7.61335 90.2169H311.387C314.96 90.2169 317.857 87.3202 317.857 83.7469V1.14338ZM0 0V83.7469C0 87.9517 3.40861 91.3603 7.61335 91.3603H311.387C315.592 91.3603 319 87.9517 319 83.7469V0H0Z" fill="black"/>
<path fill-rule="evenodd" clip-rule="evenodd" d="M317.857 59.0048H1.1435V83.7468C1.1435 87.3201 4.0402 90.2168 7.61347 90.2168H311.387C314.96 90.2168 317.857 87.3201 317.857 83.7468V59.0048ZM0.00012207 57.8615V83.7468C0.00012207 87.9516 3.40873 91.3602 7.61347 91.3602H311.387C315.592 91.3602 319 87.9516 319 83.7468V57.8615H0.00012207Z" fill="black"/>
<path d="M245.554 26.7501C247.432 26.7501 249.056 27.0342 250.424 27.6025C251.804 28.1591 252.86 28.9651 253.59 30.0204C254.332 31.0641 254.704 32.2991 254.704 33.7255C254.704 35.4418 254.164 36.961 253.086 38.283C252.007 39.605 250.424 40.6371 248.337 41.3793C246.25 42.1099 243.745 42.4752 240.822 42.4752C239.466 42.4752 238.08 42.3651 236.665 42.1447C235.262 41.936 233.98 41.6577 232.821 41.3098C231.661 40.9503 230.751 40.5618 230.09 40.1443V34.143C232.316 35.1751 235.175 35.6912 238.665 35.6912C240.266 35.6912 241.472 35.4998 242.284 35.1171C243.095 34.7228 243.501 34.2126 243.501 33.5864C243.501 32.937 243.124 32.4325 242.37 32.073C241.617 31.7019 240.451 31.5164 238.874 31.5164C237.355 31.5164 235.865 31.6323 234.404 31.8643C232.954 32.0962 231.725 32.3861 230.716 32.734V18.07H253.469V24.9932H239.674V27.7764C240.44 27.4633 241.327 27.214 242.336 27.0284C243.345 26.8429 244.417 26.7501 245.554 26.7501Z" fill="#181A23"/>
<path d="M229.175 35.1693V41.7968H205.9V36.126L212.354 33.0819C213.618 32.5021 214.598 31.9918 215.293 31.5511C215.989 31.0989 216.488 30.6408 216.789 30.1769C217.102 29.7131 217.259 29.1854 217.259 28.594C217.259 27.7706 216.946 27.1212 216.32 26.6458C215.693 26.1587 214.719 25.9152 213.397 25.9152C212.075 25.9152 210.724 26.1471 209.344 26.611C207.976 27.0632 206.822 27.6431 205.883 28.3505V20.314C209.037 18.3889 212.69 17.4264 216.842 17.4264C219.358 17.4264 221.521 17.7801 223.33 18.4875C225.139 19.1949 226.513 20.198 227.453 21.4968C228.403 22.7841 228.879 24.2858 228.879 26.0021C228.879 27.904 228.316 29.5043 227.192 30.8032C226.067 32.102 224.269 33.2211 221.799 34.1604L219.033 35.1693H229.175Z" fill="#181A23"/>
<path d="M186.762 41.7968L185.823 25.1672L181.665 41.7968H170.219L166.236 25.7238L165.453 41.7968H155.625L157.017 16.8524H173.629L176.569 28.5592L179.595 16.8524H196.034L197.686 41.7968H186.762Z" fill="#181A23"/>
<path d="M143.438 38.0221H135.158L134.08 41.7968H122.773L130.914 16.8524H148.065L156.189 41.7968H144.517L143.438 38.0221ZM141.855 32.4035L139.315 23.4451L136.758 32.4035H141.855Z" fill="#181A23"/>
<path d="M124.154 33.1341V41.7968H98.7572V16.8524H110.342V33.1341H124.154Z" fill="#181A23"/>
<path d="M80.4646 42.6492C76.9276 42.6492 73.8371 42.0519 71.1931 40.8575C68.549 39.6514 66.5196 38.0221 65.1048 35.9695C63.7016 33.9053 63 31.6265 63 29.1332C63 26.5704 63.7016 24.2974 65.1048 22.3144C66.508 20.3314 68.5258 18.7832 71.1583 17.6699C73.8023 16.5566 76.916 16 80.4994 16C84.048 16 87.1327 16.5566 89.7535 17.6699C92.386 18.7716 94.4038 20.3198 95.807 22.3144C97.2102 24.2974 97.9118 26.5704 97.9118 29.1332C97.9118 31.6381 97.2044 33.9169 95.7896 35.9695C94.3864 38.0221 92.3628 39.6514 89.7188 40.8575C87.0747 42.0519 83.99 42.6492 80.4646 42.6492ZM80.4646 34.143C81.4503 34.143 82.3143 33.9401 83.0565 33.5342C83.8102 33.1167 84.3901 32.5369 84.796 31.7947C85.2018 31.0409 85.4048 30.1827 85.4048 29.2202C85.4048 28.2693 85.2018 27.4401 84.796 26.7327C84.3901 26.0253 83.816 25.4803 83.0739 25.0976C82.3317 24.7149 81.4619 24.5236 80.4646 24.5236C79.4557 24.5236 78.5743 24.7149 77.8206 25.0976C77.0784 25.4803 76.5043 26.0253 76.0984 26.7327C75.6926 27.4401 75.4896 28.2693 75.4896 29.2202C75.4896 30.1943 75.6926 31.0525 76.0984 31.7947C76.5043 32.5369 77.0842 33.1167 77.838 33.5342C78.5917 33.9401 79.4673 34.143 80.4646 34.143Z" fill="#181A23"/>
<path d="M260.371 76.72L261.667 76.4C262.003 77.936 262.979 78.672 264.627 78.672C266.403 78.672 267.523 77.6 267.523 75.936C267.523 74.352 266.403 73.232 264.627 73.232C263.587 73.232 262.659 73.632 261.843 74.416L260.659 74.112L261.747 68.48H267.715V69.728H262.739L262.163 72.832L262.195 72.848C262.947 72.336 263.795 72.08 264.771 72.08C267.187 72.08 268.851 73.712 268.851 75.936C268.851 78.288 267.139 79.92 264.627 79.92C262.387 79.92 260.803 78.72 260.371 76.72Z" fill="#181A23"/>
<path d="M252.093 78.416H258.781V79.68H250.701V78.624C250.701 77.76 250.861 77.056 251.181 76.512C251.405 76.128 251.741 75.776 252.173 75.44C252.621 75.104 253.309 74.736 254.237 74.32C256.861 73.12 257.453 72.64 257.517 71.424C257.517 70.256 256.509 69.488 254.909 69.488C253.133 69.488 252.029 70.544 251.853 72.224L250.525 72.096C250.653 69.904 252.429 68.24 254.909 68.24C257.261 68.24 258.845 69.568 258.845 71.424C258.797 73.152 258.013 73.984 255.261 75.184C254.253 75.632 253.549 75.984 253.165 76.256C252.781 76.512 252.509 76.784 252.365 77.072C252.189 77.408 252.093 77.856 252.093 78.416Z" fill="#181A23"/>
<path d="M249.159 74.08C249.159 77.616 247.415 79.92 244.759 79.92C242.103 79.92 240.359 77.616 240.359 74.08C240.359 70.544 242.103 68.24 244.759 68.24C247.415 68.24 249.159 70.544 249.159 74.08ZM241.687 74.08C241.687 74.528 241.719 75.008 241.799 75.536L247.367 71.392C246.855 70.176 245.927 69.488 244.759 69.488C243.799 69.488 243.047 69.904 242.503 70.736C241.959 71.568 241.687 72.688 241.687 74.08ZM247.831 74.08C247.831 73.504 247.783 72.976 247.687 72.496L242.103 76.64C242.615 77.936 243.527 78.672 244.759 78.672C245.719 78.672 246.471 78.256 247.015 77.424C247.559 76.592 247.831 75.472 247.831 74.08Z" fill="#181A23"/>
<path d="M232.24 78.416H238.928V79.68H230.848V78.624C230.848 77.76 231.008 77.056 231.328 76.512C231.552 76.128 231.888 75.776 232.32 75.44C232.768 75.104 233.456 74.736 234.384 74.32C237.008 73.12 237.6 72.64 237.664 71.424C237.664 70.256 236.656 69.488 235.056 69.488C233.28 69.488 232.176 70.544 232 72.224L230.672 72.096C230.8 69.904 232.576 68.24 235.056 68.24C237.408 68.24 238.992 69.568 238.992 71.424C238.944 73.152 238.16 73.984 235.408 75.184C234.4 75.632 233.696 75.984 233.312 76.256C232.928 76.512 232.656 76.784 232.512 77.072C232.336 77.408 232.24 77.856 232.24 78.416Z" fill="#181A23"/>
<path d="M214.324 79.68V75.328L210.18 68.48H211.716L214.964 74.08H214.996L218.244 68.48H219.78L215.652 75.328V79.68H214.324Z" fill="#181A23"/>
<path d="M208.574 79.68L207.742 77.44H202.366L201.534 79.68H200.174L204.414 68.48H205.694L209.934 79.68H208.574ZM202.798 76.272H207.31L205.07 70.272H205.038L202.798 76.272Z" fill="#181A23"/>
<path d="M191.207 79.68V68.48H192.759L195.111 75.024H195.143L197.495 68.48H199.047V79.68H197.719V71.264H197.687L195.383 77.6H194.871L192.583 71.264H192.551V79.68H191.207Z" fill="#181A23"/>
<path d="M171.515 79.68V68H172.763V72.208H172.795C173.435 71.424 174.491 70.96 175.595 70.96C177.787 70.96 179.115 72.336 179.115 74.592V79.68H177.867V74.928C177.867 73.136 177.019 72.128 175.499 72.128C173.851 72.128 172.763 73.2 172.763 74.816V79.68H171.515Z" fill="#181A23"/>
<path d="M169.029 72.32H165.381V77.392C165.381 78.272 165.621 78.512 166.501 78.512H168.645V79.68H166.485C164.869 79.68 164.133 78.992 164.133 77.504V72.32H161.669V71.2H164.133V69.264H165.381V71.2H169.029V72.32Z" fill="#181A23"/>
<path d="M157.118 79.68V77.552H150.702V76.384L156.526 68.928H158.366V76.368H159.822V77.552H158.366V79.68H157.118ZM152.062 76.368H157.118V69.952H157.086L152.062 76.368Z" fill="#181A23"/>
<path d="M140.61 78.112L139.858 78.992L138.786 78.08C138.13 79.232 136.738 79.92 134.994 79.92C132.498 79.92 131.01 78.688 131.01 76.64C131.01 75.408 131.794 74.24 133.25 73.328C132.354 72.48 131.97 71.744 131.97 70.848C131.97 69.312 133.234 68.24 135.01 68.24C136.722 68.24 137.922 69.2 138.162 70.752L136.93 70.976C136.69 69.936 136.05 69.408 135.01 69.408C133.906 69.408 133.218 69.984 133.218 70.896C133.218 71.488 133.522 72.032 134.146 72.56L137.954 75.824V73.424H139.17V76.88L140.61 78.112ZM137.794 77.216L134.098 74.064C132.818 74.832 132.258 75.632 132.258 76.64C132.258 77.936 133.282 78.752 134.994 78.752C136.402 78.752 137.41 78.192 137.794 77.216Z" fill="#181A23"/>
<path d="M111.397 75.44C111.397 72.8 113.078 70.96 115.382 70.96C116.582 70.96 117.621 71.44 118.277 72.192H118.31V68H119.557V79.68H118.357V78.672H118.326C117.686 79.44 116.614 79.92 115.478 79.92C112.966 79.92 111.397 78.112 111.397 75.44ZM118.31 76.224V74.64C118.31 73.328 117.029 72.128 115.445 72.128C114.613 72.128 113.941 72.432 113.413 73.04C112.901 73.632 112.645 74.432 112.645 75.44C112.645 77.488 113.733 78.752 115.541 78.752C117.029 78.752 118.31 77.552 118.31 76.224Z" fill="#181A23"/>
<path d="M103.007 79.68V71.2H104.223V72.288H104.255C104.815 71.456 105.759 70.96 106.959 70.96C108.287 70.96 109.311 71.6 109.951 72.8L108.863 73.424C108.367 72.544 107.759 72.128 106.879 72.128C105.295 72.128 104.255 73.248 104.255 74.896V79.68H103.007Z" fill="#181A23"/>
<path d="M91.545 76.096L92.777 75.888C93.017 77.792 94.105 78.736 96.073 78.736C97.817 78.736 98.937 77.92 98.937 76.64C98.937 75.168 97.945 74.48 95.785 74.48H94.937V73.36H95.817C97.401 73.36 98.633 72.624 98.633 71.632C98.633 70.544 97.657 69.84 96.073 69.84C94.425 69.84 93.385 70.592 93.081 71.888L91.897 71.664C92.265 69.824 93.817 68.704 96.073 68.704C98.361 68.704 99.881 69.856 99.881 71.6C99.881 72.528 99.369 73.264 98.345 73.808V73.84C99.577 74.336 100.185 75.28 100.185 76.64C100.185 78.576 98.489 79.904 96.073 79.904C93.401 79.904 91.817 78.592 91.545 76.096Z" fill="#181A23"/>
<path d="M84.9468 81.536V80.768C85.5388 80.656 85.7948 80.336 85.7948 79.68H84.8668V77.68H87.0108V79.424C87.0108 80.704 86.2908 81.456 84.9468 81.536Z" fill="#181A23"/>
<path d="M71.6925 75.44C71.6925 72.8 73.3725 70.96 75.6765 70.96C76.8765 70.96 77.9165 71.44 78.5725 72.192H78.6045V68H79.8525V79.68H78.6525V78.672H78.6205C77.9805 79.44 76.9085 79.92 75.7725 79.92C73.2605 79.92 71.6925 78.112 71.6925 75.44ZM78.6045 76.224V74.64C78.6045 73.328 77.3245 72.128 75.7405 72.128C74.9085 72.128 74.2365 72.432 73.7085 73.04C73.1965 73.632 72.9405 74.432 72.9405 75.44C72.9405 77.488 74.0285 78.752 75.8365 78.752C77.3245 78.752 78.6045 77.552 78.6045 76.224Z" fill="#181A23"/>
<path d="M62.3262 79.68V71.2H63.5742V72.144H63.6062C64.2622 71.392 65.3022 70.96 66.4062 70.96C68.5982 70.96 69.9262 72.352 69.9262 74.592V79.68H68.6782V74.928C68.6782 73.136 67.8302 72.128 66.3102 72.128C64.6622 72.128 63.5742 73.2 63.5742 74.816V79.68H62.3262Z" fill="#181A23"/>
<path d="M53.472 78.512H60.256V79.68H52.176V78.688C52.176 77.856 52.336 77.184 52.656 76.672C52.896 76.272 53.248 75.92 53.68 75.616C54.112 75.296 54.816 74.944 55.776 74.544C58.368 73.472 59.072 72.88 59.072 71.744C59.072 70.608 58.064 69.872 56.4 69.872C54.56 69.872 53.424 70.944 53.248 72.608L52 72.48C52.128 70.368 53.888 68.704 56.4 68.704C58.752 68.704 60.32 69.968 60.32 71.744C60.32 73.376 59.456 74.224 56.72 75.344C55.696 75.776 54.976 76.112 54.576 76.384C54.176 76.656 53.904 76.928 53.76 77.2C53.584 77.52 53.488 77.952 53.472 78.512Z" fill="#181A23"/>
</g>
<defs>
<linearGradient id="paint0_linear_131_16" x1="159" y1="-3.75724e-07" x2="159" y2="108.5" gradientUnits="userSpaceOnUse">
<stop stop-color="white"/>
<stop offset="0.511855" stop-color="#FBF55E"/>
<stop offset="0.986855" stop-color="#F296E9"/>
</linearGradient>
<clipPath id="clip0_131_16">
<rect width="319" height="92" fill="white"/>
</clipPath>
</defs>
</svg>
