<svg width="319" height="92" viewBox="0 0 319 92" fill="none" xmlns="http://www.w3.org/2000/svg">
<g clip-path="url(#clip0_131_16)">
<path d="M0 0H319V83.7469C319 87.9517 315.592 91.3603 311.387 91.3603H7.61335C3.40861 91.3603 0 87.9517 0 83.7469V0Z" fill="url(#paint0_linear_131_16)"/>
<path fill-rule="evenodd" clip-rule="evenodd" d="M317.857 1.14338H1.14338V83.7469C1.14338 87.3202 4.04008 90.2169 7.61335 90.2169H311.387C314.96 90.2169 317.857 87.3202 317.857 83.7469V1.14338ZM0 0V83.7469C0 87.9517 3.40861 91.3603 7.61335 91.3603H311.387C315.592 91.3603 319 87.9517 319 83.7469V0H0Z" fill="black"/>
<path fill-rule="evenodd" clip-rule="evenodd" d="M317.857 59.0048H1.1435V83.7468C1.1435 87.3201 4.0402 90.2168 7.61347 90.2168H311.387C314.96 90.2168 317.857 87.3201 317.857 83.7468V59.0048ZM0.00012207 57.8615V83.7468C0.00012207 87.9516 3.40873 91.3602 7.61347 91.3602H311.387C315.592 91.3602 319 87.9516 319 83.7468V57.8615H0.00012207Z" fill="black"/>
<path d="M245.554 26.7501C247.432 26.7501 249.056 27.0342 250.424 27.6025C251.804 28.1591 252.86 28.9651 253.59 30.0204C254.332 31.0641 254.704 32.2991 254.704 33.7255C254.704 35.4418 254.164 36.961 253.086 38.283C252.007 39.605 250.424 40.6371 248.337 41.3793C246.25 42.1099 243.745 42.4752 240.822 42.4752C239.466 42.4752 238.08 42.3651 236.665 42.1447C235.262 41.936 233.98 41.6577 232.821 41.3098C231.661 40.9503 230.751 40.5618 230.09 40.1443V34.143C232.316 35.1751 235.175 35.6912 238.665 35.6912C240.266 35.6912 241.472 35.4998 242.284 35.1171C243.095 34.7228 243.501 34.2126 243.501 33.5864C243.501 32.937 243.124 32.4325 242.37 32.073C241.617 31.7019 240.451 31.5164 238.874 31.5164C237.355 31.5164 235.865 31.6323 234.404 31.8643C232.954 32.0962 231.725 32.3861 230.716 32.734V18.07H253.469V24.9932H239.674V27.7764C240.44 27.4633 241.327 27.214 242.336 27.0284C243.345 26.8429 244.417 26.7501 245.554 26.7501Z" fill="#181A23"/>
<path d="M229.175 35.1693V41.7968H205.9V36.126L212.354 33.0819C213.618 32.5021 214.598 31.9918 215.293 31.5511C215.989 31.0989 216.488 30.6408 216.789 30.1769C217.102 29.7131 217.259 29.1854 217.259 28.594C217.259 27.7706 216.946 27.1212 216.32 26.6458C215.693 26.1587 214.719 25.9152 213.397 25.9152C212.075 25.9152 210.724 26.1471 209.344 26.611C207.976 27.0632 206.822 27.6431 205.883 28.3505V20.314C209.037 18.3889 212.69 17.4264 216.842 17.4264C219.358 17.4264 221.521 17.7801 223.33 18.4875C225.139 19.1949 226.513 20.198 227.453 21.4968C228.403 22.7841 228.879 24.2858 228.879 26.0021C228.879 27.904 228.316 29.5043 227.192 30.8032C226.067 32.102 224.269 33.2211 221.799 34.1604L219.033 35.1693H229.175Z" fill="#181A23"/>
<path d="M186.762 41.7968L185.823 25.1672L181.665 41.7968H170.219L166.236 25.7238L165.453 41.7968H155.625L157.017 16.8524H173.629L176.569 28.5592L179.595 16.8524H196.034L197.686 41.7968H186.762Z" fill="#181A23"/>
<path d="M143.438 38.0221H135.158L134.08 41.7968H122.773L130.914 16.8524H148.065L156.189 41.7968H144.517L143.438 38.0221ZM141.855 32.4035L139.315 23.4451L136.758 32.4035H141.855Z" fill="#181A23"/>
<path d="M124.154 33.1341V41.7968H98.7572V16.8524H110.342V33.1341H124.154Z" fill="#181A23"/>
<path d="M80.4646 42.6492C76.9276 42.6492 73.8371 42.0519 71.1931 40.8575C68.549 39.6514 66.5196 38.0221 65.1048 35.9695C63.7016 33.9053 63 31.6265 63 29.1332C63 26.5704 63.7016 24.2974 65.1048 22.3144C66.508 20.3314 68.5258 18.7832 71.1583 17.6699C73.8023 16.5566 76.916 16 80.4994 16C84.048 16 87.1327 16.5566 89.7535 17.6699C92.386 18.7716 94.4038 20.3198 95.807 22.3144C97.2102 24.2974 97.9118 26.5704 97.9118 29.1332C97.9118 31.6381 97.2044 33.9169 95.7896 35.9695C94.3864 38.0221 92.3628 39.6514 89.7188 40.8575C87.0747 42.0519 83.99 42.6492 80.4646 42.6492ZM80.4646 34.143C81.4503 34.143 82.3143 33.9401 83.0565 33.5342C83.8102 33.1167 84.3901 32.5369 84.796 31.7947C85.2018 31.0409 85.4048 30.1827 85.4048 29.2202C85.4048 28.2693 85.2018 27.4401 84.796 26.7327C84.3901 26.0253 83.816 25.4803 83.0739 25.0976C82.3317 24.7149 81.4619 24.5236 80.4646 24.5236C79.4557 24.5236 78.5743 24.7149 77.8206 25.0976C77.0784 25.4803 76.5043 26.0253 76.0984 26.7327C75.6926 27.4401 75.4896 28.2693 75.4896 29.2202C75.4896 30.1943 75.6926 31.0525 76.0984 31.7947C76.5043 32.5369 77.0842 33.1167 77.838 33.5342C78.5917 33.9401 79.4673 34.143 80.4646 34.143Z" fill="#181A23"/>
<path d="M249.191 76.3875L250.626 76.0333C250.998 77.7336 252.007 78.5484 253.796 78.5484C255.638 78.5484 256.86 77.3617 256.86 75.5196C256.86 74.6517 256.577 73.9255 256.01 73.3764C255.461 72.8096 254.717 72.5262 253.796 72.5262C252.645 72.5262 251.653 72.969 250.803 73.8369L249.51 73.5181L250.696 67.2656H257.197V68.6472H251.812L251.139 72.0834L251.175 72.1011C251.936 71.5343 252.893 71.2509 254.026 71.2509C256.488 71.2509 258.331 73.0576 258.331 75.5196C258.331 78.1233 256.453 79.93 253.796 79.93C251.334 79.93 249.669 78.637 249.191 76.3875Z" fill="#181A23"/>
<path d="M241.502 78.2828H248.179V79.6643H239.943V78.4953C239.943 77.4857 240.12 76.7064 240.457 76.1396C240.687 75.7322 241.023 75.3425 241.466 74.9883C241.927 74.634 242.635 74.2089 243.609 73.713C246.213 72.3669 246.922 71.6584 246.922 70.4008C246.922 69.214 245.841 68.3816 244.336 68.3816C242.476 68.3816 241.36 69.462 241.236 71.3927L239.766 71.2687C239.837 69.958 240.279 68.9129 241.094 68.1513C241.927 67.3897 243.007 67 244.336 67C246.603 67 248.392 68.5056 248.392 70.4008C248.392 72.2429 247.488 73.2702 244.743 74.6872C243.716 75.2008 243.007 75.6082 242.617 75.8916C242.228 76.1573 241.944 76.4584 241.785 76.7595C241.608 77.0961 241.519 77.6097 241.502 78.2828Z" fill="#181A23"/>
<path d="M229.24 73.465C229.24 69.4797 231.241 67 234.146 67C237.051 67 239.052 69.4797 239.052 73.465C239.052 77.4503 237.051 79.93 234.146 79.93C231.259 79.93 229.24 77.4326 229.24 73.465ZM237.582 73.465C237.582 70.2768 236.254 68.3816 234.146 68.3816C232.038 68.3816 230.71 70.2768 230.71 73.465C230.71 76.6532 232.038 78.5485 234.146 78.5485C236.254 78.5485 237.582 76.6532 237.582 73.465Z" fill="#181A23"/>
<path d="M221.652 78.2828H228.33V79.6643H220.093V78.4953C220.093 77.4857 220.27 76.7064 220.607 76.1396C220.837 75.7322 221.174 75.3425 221.617 74.9883C222.077 74.634 222.786 74.2089 223.76 73.713C226.363 72.3669 227.072 71.6584 227.072 70.4008C227.072 69.214 225.991 68.3816 224.486 68.3816C222.626 68.3816 221.51 69.462 221.386 71.3927L219.916 71.2687C219.987 69.958 220.43 68.9129 221.245 68.1513C222.077 67.3897 223.157 67 224.486 67C226.753 67 228.542 68.5056 228.542 70.4008C228.542 72.2429 227.639 73.2702 224.893 74.6872C223.866 75.2008 223.158 75.6082 222.768 75.8916C222.378 76.1573 222.095 76.4584 221.935 76.7595C221.758 77.0961 221.67 77.6097 221.652 78.2828Z" fill="#181A23"/>
<path d="M207.106 75.2266L202.767 68H204.467L207.815 73.7919H207.85L211.216 68H212.916L208.577 75.2266V80.3987H207.106V75.2266Z" fill="#181A23"/>
<path d="M202.432 77.9012H196.852L195.984 80.3987H194.479L198.942 68H200.359L204.805 80.3987H203.3L202.432 77.9012ZM201.989 76.6259L199.669 70.0015H199.633L197.313 76.6259H201.989Z" fill="#181A23"/>
<path d="M181.448 68H183.397L187.417 77.8481H187.453L191.473 68H193.422V80.3987H191.952V70.338H191.916L187.736 80.3987H187.116L182.936 70.338H182.901V80.3987H181.448V68Z" fill="#181A23"/>
<path d="M166.867 67H168.249V71.4104H168.284C168.798 70.755 169.878 70.2768 170.888 70.2768C173.067 70.2768 174.448 71.6584 174.448 73.837V79.93H173.067V74.0318C173.067 72.4908 172.163 71.5698 170.729 71.5698C169.241 71.5698 168.249 72.5617 168.249 74.0318V79.93H166.867V67Z" fill="#181A23"/>
<path d="M163.398 71.7823V77.7868C163.398 78.4068 163.663 78.637 164.425 78.637H165.204V79.93H164.319C162.618 79.93 162.016 79.381 162.016 77.7691V71.7823H160.599V70.5425H162.016V68.417H163.398V70.5425H165.7V71.7823H163.398Z" fill="#181A23"/>
<path d="M157.259 77.5566H151.042V76.2813L156.551 68.0273H158.641V76.2636H160.252V77.5566H158.641V79.9301H157.259V77.5566ZM157.259 76.2636V69.1255H157.224L152.441 76.2636H157.259Z" fill="#181A23"/>
<path d="M143.209 78.9027L142.04 77.8577C141.35 79.2038 139.933 79.93 137.931 79.93C135.292 79.93 133.663 78.5485 133.663 76.299C133.663 74.8997 134.548 73.5536 136.16 72.6325C135.115 71.6584 134.708 70.8613 134.708 69.8694C134.708 68.2222 136.071 67 137.931 67C139.773 67 141.049 68.045 141.314 69.7986L139.95 70.0288C139.685 68.8775 139.065 68.293 137.949 68.293C136.815 68.293 136.089 68.9484 136.089 69.9225C136.089 70.631 136.337 71.0916 137.134 71.8001L141.084 75.3071V72.7211H142.43V76.4938L144.042 77.9285L143.209 78.9027ZM140.96 76.9012L137.099 73.4827C135.629 74.2798 135.044 75.1654 135.044 76.299C135.044 77.7337 136.142 78.637 137.931 78.637C139.49 78.637 140.588 78.0348 140.96 76.9012Z" fill="#181A23"/>
<path d="M118.267 75.2363C118.267 72.3137 120.038 70.2768 122.482 70.2768C123.616 70.2768 124.626 70.755 125.246 71.5344H125.281V67H126.663V79.93H125.334V78.9913H125.299C124.679 79.7529 123.634 80.1957 122.482 80.1957C120.038 80.1957 118.267 78.1588 118.267 75.2363ZM125.281 76.1396V74.3152C125.281 72.7919 124.041 71.5698 122.482 71.5698C120.8 71.5698 119.648 73.0222 119.648 75.2363C119.648 77.4503 120.8 78.9027 122.571 78.9027C124.059 78.9027 125.281 77.6629 125.281 76.1396Z" fill="#181A23"/>
<path d="M113.929 70.5425H115.239V71.3218H115.275C115.629 70.7373 116.32 70.3831 117.223 70.3831C117.507 70.3831 117.825 70.4362 118.162 70.5248L117.861 71.9595C117.524 71.8532 117.205 71.8 116.94 71.8C115.824 71.8 115.31 72.544 115.31 74.2975V79.93H113.929V70.5425Z" fill="#181A23"/>
<path d="M103.693 75.9802L105.057 75.7676C105.287 77.8222 106.385 78.885 108.245 78.885C109.874 78.885 110.937 77.9639 110.937 76.5647C110.937 74.9528 109.963 74.1912 107.979 74.1912H107.094V72.9691H107.979C109.467 72.9691 110.618 72.1189 110.618 71.0384C110.618 69.8163 109.715 69.0723 108.227 69.0723C106.669 69.0723 105.588 69.9048 105.376 71.3041L104.012 71.1093C104.153 70.0996 104.596 69.2849 105.358 68.6827C106.119 68.0804 107.076 67.7793 108.227 67.7793C110.477 67.7793 112 69.0369 112 70.9321C112 71.9949 111.345 72.9868 110.3 73.4296V73.465C111.557 73.9432 112.319 75.0768 112.319 76.5647C112.319 78.7079 110.689 80.178 108.245 80.178C105.624 80.178 103.976 78.6547 103.693 75.9802Z" fill="#181A23"/>
<path d="M94.6205 79.0642C95.205 78.9403 95.453 78.6569 95.453 78.0015H94.532V76H96.6929V77.7358C96.6929 79.0288 95.9667 79.7727 94.6205 79.8436V79.0642Z" fill="#181A23"/>
<path d="M79.1363 75.2363C79.1363 72.3137 80.9075 70.2768 83.3518 70.2768C84.4854 70.2768 85.495 70.755 86.115 71.5344H86.1504V67H87.532V79.93H86.2035V78.9913H86.1681C85.5482 79.7529 84.5031 80.1957 83.3518 80.1957C80.9075 80.1957 79.1363 78.1588 79.1363 75.2363ZM86.1504 76.1396V74.3152C86.1504 72.7919 84.9105 71.5698 83.3518 71.5698C81.6692 71.5698 80.5179 73.0222 80.5179 75.2363C80.5179 77.4503 81.6692 78.9027 83.4404 78.9027C84.9282 78.9027 86.1504 77.6629 86.1504 76.1396Z" fill="#181A23"/>
<path d="M70.1971 70.5425H71.5432V71.4104H71.5786C72.1454 70.7196 73.2082 70.2768 74.2178 70.2768C76.3964 70.2768 77.778 71.6761 77.778 73.8547V79.93H76.3964V74.0318C76.3964 72.4908 75.4931 71.5698 74.0584 71.5698C72.5705 71.5698 71.5786 72.5617 71.5786 74.0318V79.93H70.1971V70.5425Z" fill="#181A23"/>
<path d="M61.6473 78.637H68.3957V79.93H60.1771V78.8141C60.1771 77.84 60.3365 77.0606 60.6731 76.5115C60.9033 76.1219 61.2576 75.7676 61.7004 75.4311C62.1609 75.0945 62.8871 74.6872 63.8613 74.2089C66.465 72.9336 67.2089 72.2428 67.2089 71.0561C67.2089 69.9048 66.1108 69.0723 64.5521 69.0723C62.6569 69.0723 61.5056 70.1351 61.3639 71.9772L60 71.8709C60.0708 70.6133 60.5137 69.6214 61.3284 68.8952C62.1609 68.1513 63.2237 67.7793 64.5521 67.7793C66.837 67.7793 68.5905 69.214 68.5905 71.0561C68.5905 72.8274 67.6872 73.7838 64.924 75.13C63.879 75.6436 63.1705 76.0156 62.7631 76.2813C62.3735 76.547 62.0901 76.8126 61.9306 77.1137C61.7358 77.468 61.665 77.8754 61.6473 78.637Z" fill="#181A23"/>
</g>
<defs>
<linearGradient id="paint0_linear_131_16" x1="159" y1="-3.75724e-07" x2="159" y2="108.5" gradientUnits="userSpaceOnUse">
<stop offset="0.06" stop-color="#FBF55E"/>
<stop offset="1" stop-color="#F296E9"/>
</linearGradient>
<clipPath id="clip0_131_16">
<rect width="319" height="92" fill="white"/>
</clipPath>
</defs>
</svg>
