<svg width="115" height="130" viewBox="0 0 115 130" fill="none" xmlns="http://www.w3.org/2000/svg">
<g filter="url(#filter0_b_100_484)">
<path d="M33.1788 0.762387C33.1788 0.762387 7.20639 4.66481 7.76294 21.7611C8.13398 38.8574 29.4684 49.2638 36.7036 52.4229C43.7533 55.3962 47.0926 68.2184 35.034 63.5727C23.1609 58.927 15.1836 64.8735 28.1698 72.6783C41.156 80.2973 43.5677 91.2613 30.396 84.7572C17.4098 78.439 5.35122 70.0767 1.64088 87.5447C-2.06947 105.013 0.527771 122.109 19.8216 128.427C39.1153 134.559 55.6264 121.366 45.6084 112.817C35.405 104.455 32.8078 106.128 27.7988 101.668C23.5319 97.7653 28.3553 92.9337 39.6719 99.8094C51.174 106.499 54.1422 105.384 56.3684 99.8094C58.4091 94.0487 55.6264 88.8455 48.9477 82.8989C42.4546 76.9524 40.0429 68.0326 48.5767 72.8642C57.1105 77.6957 62.1194 86.058 62.305 100.924C62.4905 115.791 65.4588 129.17 82.5263 129.914C99.7794 130.657 107.015 122.481 102.933 111.331C98.8518 100.181 89.3905 101.854 85.6801 103.154C81.9698 104.641 75.6622 108.358 72.5084 97.022C69.5401 85.6864 69.7257 79.7398 58.9657 71.935C48.3912 63.9444 57.8526 54.4671 66.0153 60.7853C74.1781 67.2893 79.7436 82.7131 96.2546 74.9083C112.951 67.2893 116.29 46.4764 113.137 33.84C109.983 21.0178 90.6891 -0.352585 79.0015 17.487C67.1284 35.3266 90.3181 47.963 92.5443 56.3254C94.2139 63.5727 84.938 72.8642 77.8884 59.2986C71.0243 45.7331 64.3457 32.5392 59.7077 36.9991C55.0698 41.2732 58.5946 43.689 59.8932 47.5914C61.1919 51.8654 54.3277 57.0687 47.4636 46.6622C40.5995 36.4416 37.6312 27.336 47.4636 29.0084C57.296 30.4951 61.9339 31.0526 62.8615 21.7611C63.7891 12.4696 53.5857 -3.69751 33.1788 0.762387Z" fill="url(#paint0_linear_100_484)"/>
</g>
<defs>
<filter id="filter0_b_100_484" x="-19.7976" y="-20" width="154" height="170" filterUnits="userSpaceOnUse" color-interpolation-filters="sRGB">
<feFlood flood-opacity="0" result="BackgroundImageFix"/>
<feGaussianBlur in="BackgroundImageFix" stdDeviation="10"/>
<feComposite in2="SourceAlpha" operator="in" result="effect1_backgroundBlur_100_484"/>
<feBlend mode="normal" in="SourceGraphic" in2="effect1_backgroundBlur_100_484" result="shape"/>
</filter>
<linearGradient id="paint0_linear_100_484" x1="57.2024" y1="0" x2="57.2024" y2="130" gradientUnits="userSpaceOnUse">
<stop stop-color="#FF86F3"/>
<stop offset="1" stop-color="white" stop-opacity="0"/>
</linearGradient>
</defs>
</svg>
