<svg width="178" height="131" viewBox="0 0 178 131" fill="none" xmlns="http://www.w3.org/2000/svg">
<g filter="url(#filter0_b_116_36)">
<path d="M26.0636 64.2144C34.4621 58.2355 43.9804 46.0909 48.0863 39.3647C52.1923 32.8254 64.6967 28.3413 59.0977 43.2884C53.4987 58.6092 48.8328 60.4776 39.3145 70.0064C29.9829 79.5351 38.0081 85.514 44.3536 84.0193C50.6991 82.5245 58.5378 77.1062 62.0838 77.1062C65.6298 76.9194 63.0169 95.2296 45.1001 97.2848C31.8491 98.7795 22.8908 121.2 40.621 128.113C58.5378 135.213 74.5882 128.113 84.4798 111.111C92.1317 98.0322 93.9981 45.7173 109.302 50.3882C124.606 55.0592 109.862 83.0851 102.583 93.3612C95.3045 103.637 88.5858 117.277 99.0372 125.684C111.355 135.587 121.806 124.376 126.659 118.584C130.765 113.727 134.684 102.329 147.002 96.9111C157.453 92.427 168.465 84.0192 171.451 78.9745C174.624 73.9299 180.036 60.6644 169.771 37.8701C159.506 15.2626 177.983 9.09687 177.983 9.09687C177.983 9.09687 171.451 -1.92663 147.375 8.3495C123.299 18.8125 124.979 33.199 133.564 58.7959C142.336 84.206 131.885 98.4058 123.673 102.703C115.461 107 108.929 103.264 108.556 96.7243C108.182 90.185 119.194 71.501 122.74 57.8618C126.472 44.2225 119.754 19.9335 102.21 20.494C84.8531 21.2413 83.1733 37.4964 85.7862 48.1462C88.2124 58.796 90.6386 75.2378 85.7862 88.6902C80.7471 102.329 70.109 102.329 67.1229 95.79C64.3234 89.2507 77.761 80.6561 81.1204 70.3799C84.6665 60.1038 73.8417 58.9829 69.3625 63.6539C65.0699 68.3248 57.2313 70.7537 58.1645 63.6539C59.0976 56.7408 69.1759 47.5856 76.4546 41.7936C83.1734 36.1885 83.5467 25.5387 81.6803 18.4389C79.814 11.5258 68.9892 -6.4107 43.0472 2.37072C15.9853 11.5258 1.9878 49.2673 1.9878 49.2673C-4.91764 65.7091 16.9185 70.9406 26.0636 64.2144Z" fill="url(#paint0_linear_116_36)"/>
<path d="M26.0636 64.2144C34.4621 58.2355 43.9804 46.0909 48.0863 39.3647C52.1923 32.8254 64.6967 28.3413 59.0977 43.2884C53.4987 58.6092 48.8328 60.4776 39.3145 70.0064C29.9829 79.5351 38.0081 85.514 44.3536 84.0193C50.6991 82.5245 58.5378 77.1062 62.0838 77.1062C65.6298 76.9194 63.0169 95.2296 45.1001 97.2848C31.8491 98.7795 22.8908 121.2 40.621 128.113C58.5378 135.213 74.5882 128.113 84.4798 111.111C92.1317 98.0322 93.9981 45.7173 109.302 50.3882C124.606 55.0592 109.862 83.0851 102.583 93.3612C95.3045 103.637 88.5858 117.277 99.0372 125.684C111.355 135.587 121.806 124.376 126.659 118.584C130.765 113.727 134.684 102.329 147.002 96.9111C157.453 92.427 168.465 84.0192 171.451 78.9745C174.624 73.9299 180.036 60.6644 169.771 37.8701C159.506 15.2626 177.983 9.09687 177.983 9.09687C177.983 9.09687 171.451 -1.92663 147.375 8.3495C123.299 18.8125 124.979 33.199 133.564 58.7959C142.336 84.206 131.885 98.4058 123.673 102.703C115.461 107 108.929 103.264 108.556 96.7243C108.182 90.185 119.194 71.501 122.74 57.8618C126.472 44.2225 119.754 19.9335 102.21 20.494C84.8531 21.2413 83.1733 37.4964 85.7862 48.1462C88.2124 58.796 90.6386 75.2378 85.7862 88.6902C80.7471 102.329 70.109 102.329 67.1229 95.79C64.3234 89.2507 77.761 80.6561 81.1204 70.3799C84.6665 60.1038 73.8417 58.9829 69.3625 63.6539C65.0699 68.3248 57.2313 70.7537 58.1645 63.6539C59.0976 56.7408 69.1759 47.5856 76.4546 41.7936C83.1734 36.1885 83.5467 25.5387 81.6803 18.4389C79.814 11.5258 68.9892 -6.4107 43.0472 2.37072C15.9853 11.5258 1.9878 49.2673 1.9878 49.2673C-4.91764 65.7091 16.9185 70.9406 26.0636 64.2144Z" fill="url(#paint1_linear_116_36)"/>
</g>
<defs>
<filter id="filter0_b_116_36" x="-13.64" y="-14.3002" width="205.923" height="159.448" filterUnits="userSpaceOnUse" color-interpolation-filters="sRGB">
<feFlood flood-opacity="0" result="BackgroundImageFix"/>
<feGaussianBlur in="BackgroundImageFix" stdDeviation="7.15012"/>
<feComposite in2="SourceAlpha" operator="in" result="effect1_backgroundBlur_116_36"/>
<feBlend mode="normal" in="SourceGraphic" in2="effect1_backgroundBlur_116_36" result="shape"/>
</filter>
<linearGradient id="paint0_linear_116_36" x1="89.3217" y1="-7.75103e-06" x2="89.3217" y2="130.847" gradientUnits="userSpaceOnUse">
<stop stop-color="#FF86F3"/>
<stop offset="1" stop-color="white" stop-opacity="0"/>
</linearGradient>
<linearGradient id="paint1_linear_116_36" x1="89.3217" y1="-7.75103e-06" x2="89.3217" y2="130.847" gradientUnits="userSpaceOnUse">
<stop stop-color="#FF86F3"/>
<stop offset="1" stop-color="white" stop-opacity="0"/>
</linearGradient>
</defs>
</svg>
