<svg width="154" height="164" viewBox="0 0 154 164" fill="none" xmlns="http://www.w3.org/2000/svg">
<path d="M92.8276 14.8972C132.297 24.3061 147.584 52.1934 136.971 96.713C126.359 141.233 100.297 158.545 60.8273 149.136C21.1877 139.686 5.73851 112.479 16.3513 67.959C26.9641 23.4394 53.188 5.44773 92.8276 14.8972ZM71.9401 65.1309C71.3509 65.3709 70.788 65.7042 70.2603 66.0595C67.6068 67.8458 69.1011 65.4399 72.1623 62.9576C76.7255 59.2572 77.3809 62.9142 71.9401 65.1309V65.1309Z" fill="white"/>
<path d="M99.7386 58.2539L76.2386 81.7539M76.2386 81.7539L52.7386 105.254M76.2386 81.7539L99.7386 105.254M76.2386 81.7539L52.7386 58.2539" stroke="#1E1E1E" stroke-width="3" stroke-linecap="round" stroke-linejoin="round"/>
</svg>
