<svg width="112" height="137" viewBox="0 0 112 137" fill="none" xmlns="http://www.w3.org/2000/svg">
<path d="M53.258 68.1141C51.2294 71.2776 48.0449 71.4613 45.0612 71.7895C30.9024 73.3469 14.6411 63.8114 12.0267 48.2416C9.39061 32.5428 20.7107 16.7081 36.2728 14.8408C39.2565 14.4828 42.1987 14.5503 45.0407 15.124C53.2191 16.7748 55.0912 19.1609 57.4652 29.3807C57.6422 30.1423 57.6698 30.9378 57.8312 31.7041C58.8211 36.4051 60.0877 36.7235 63.8976 33.7944C69.0902 29.8022 74.7567 26.6611 81.4647 26.0805C87.4851 25.5595 91.1389 27.9031 94.0632 33.2839C99.778 43.7994 97.7859 53.9669 93.0631 64.0783C90.8016 68.9201 88.1434 73.4838 83.7399 76.7729C81.5142 78.4353 79.101 79.358 76.308 78.8299C73.9219 78.3787 71.5435 77.6853 71.0616 74.8588C70.6153 72.2408 71.5635 70.0012 73.8262 68.5048C77.4842 66.0856 79.5355 62.6096 80.5158 58.4532C81.7974 53.0202 80.0052 49.4699 75.4535 48.0865C73.6589 47.541 71.9842 47.6889 70.3342 48.5764C67.393 50.1586 64.4838 51.8129 61.4686 53.2416C56.0558 55.8065 51.0414 53.1356 50.0379 47.2546C49.4773 43.9693 49.0104 40.6763 47.8708 37.5086C45.3172 30.4102 40.0924 27.0008 32.6653 27.7082C26.2839 28.316 20.0349 33.9976 19.2418 40.3724C18.5588 45.8635 18.7879 51.3728 20.8775 56.6265C21.9539 59.333 23.4153 61.7261 26.3735 62.8049C29.8463 64.0715 32.6669 62.6207 33.5542 59.0139C33.9754 57.3017 34.2041 55.5354 34.7181 53.8542C36.3231 48.6039 40.6181 46.783 45.5911 49.161C52.7687 52.5931 56.072 60.5543 53.258 68.1141ZM38.083 56.5306C38.2009 57.3186 38.6294 57.7272 39.4535 57.7736C44.0317 58.0316 44.036 58.0376 44.7092 62.3853C44.8593 63.355 44.9932 64.329 45.0815 65.3059C45.1721 66.3085 45.2147 67.4535 46.4293 67.613C47.5476 67.7598 48.1142 66.7922 48.5671 65.8821C50.1261 62.7487 49.0539 56.9916 46.4738 54.6523C43.5074 51.9626 39.7144 52.6257 38.083 56.5306Z" fill="white"/>
<path d="M78.2658 83.7108C80.5444 82.2077 82.7064 81.7902 85.1567 82.719C90.399 84.7062 91.5766 89.5047 87.4793 93.2901C82.6654 97.7374 76.7414 100.078 70.4368 101.552C51.5501 105.97 34.405 102.497 19.3119 90.1068C15.4597 86.9444 12.7857 82.7821 10.7447 78.2583C9.23394 74.9098 9.74111 71.6602 11.9646 68.8235C14.1918 65.9822 17.356 65.9531 20.5921 66.4759C24.6756 67.1356 28.0624 69.4184 31.6034 71.2929C39.5696 75.51 47.7416 77.2766 56.5319 74.0774C58.7401 73.2737 61.0593 72.7795 63.3106 72.0881C66.1292 71.2225 68.3673 72.0357 69.9737 74.4333C71.6496 76.9348 71.0726 79.4329 69.2506 81.4842C65.5847 85.6116 60.6602 85.8341 55.6576 85.2316C49.3906 84.4768 43.3803 82.6993 37.514 80.37C35.2404 79.4672 32.8507 78.8498 30.4987 78.1536C28.1664 77.4632 25.8392 77.4522 24.5177 79.8334C23.1525 82.2934 25.0703 83.9921 26.6687 85.3049C33.1975 90.6671 40.6374 94.3132 48.6733 96.9368C57.0308 99.6653 63.8849 97.5278 69.8268 91.3964C72.4255 88.7147 75.0474 86.0486 78.2658 83.7108Z" fill="white"/>
<path d="M56.0356 7.02271C46.1671 5.54163 36.7548 6.22657 28.5189 11.6785C19.6724 17.5345 12.3913 25.032 10.0647 35.9084C8.6321 42.6053 10.1995 49.1789 12.2258 55.5941C12.9373 57.8469 13.6252 60.1068 13.7777 62.4627C13.9969 65.8471 12.6757 67.8112 10.0808 68.2566C6.86374 68.8088 4.25799 67.1165 3.46238 63.8863C1.28783 55.0577 2.35451 46.3295 4.50238 37.6886C9.66969 16.9005 25.1447 2.69582 46.3179 0.355955C73.9656 -2.69941 97.9145 14.1625 104.057 41.3993C105.659 48.5031 106.727 55.6931 105.285 62.9835C104.835 65.264 104.111 67.7115 101.169 67.4469C98.4494 67.2023 96.9803 65.169 97.0682 62.5149C97.2205 57.9146 97.3581 53.2754 98.0603 48.739C100.151 35.2333 94.5577 25.2299 84.1457 17.41C75.9171 11.23 66.361 8.39997 56.0356 7.02271Z" fill="white"/>
<path d="M88.1911 82.4776C86.7912 77.549 87.3036 73.2094 91.3367 70.0185C96.1563 66.2053 103.426 67.9329 107.222 73.5757C110.49 78.4347 108.652 84.6271 103.01 87.7713C97.3431 90.9293 89.993 88.1134 88.1911 82.4776ZM98.8164 79.4073C98.9053 80.7727 98.0099 82.6763 99.9808 83.1651C101.875 83.6349 102.972 82.0578 103.797 80.5684C105.533 77.4336 104.507 73.8145 101.414 71.9376C98.3271 70.0646 94.5171 70.7259 92.505 73.4939C91.9179 74.3015 91.2816 75.2318 91.9549 76.1689C92.7923 77.3345 93.6556 76.3448 94.4938 75.9397C97.592 74.4424 99.0739 75.4582 98.8164 79.4073Z" fill="white"/>
<path d="M9.62483 136.753C7.70605 136.753 6.01767 136.399 4.55967 135.691C3.10168 134.982 1.97723 134.023 1.18634 132.812C0.395447 131.602 0 130.261 0 128.789C0 127.29 0.392008 125.952 1.17602 124.776C1.96692 123.593 3.09136 122.668 4.54936 122.001C6.00735 121.327 7.70605 120.99 9.64546 120.99C11.5711 120.99 13.2595 121.327 14.7106 122.001C16.1686 122.668 17.2896 123.593 18.0736 124.776C18.8645 125.952 19.26 127.29 19.26 128.789C19.26 130.268 18.8611 131.612 18.0633 132.823C17.2724 134.033 16.148 134.992 14.69 135.701C13.232 136.402 11.5436 136.753 9.62483 136.753ZM9.62483 132.462C10.4157 132.462 11.1103 132.31 11.7087 132.008C12.307 131.698 12.7678 131.268 13.091 130.718C13.4142 130.168 13.5759 129.539 13.5759 128.83C13.5759 128.129 13.4142 127.51 13.091 126.974C12.7678 126.437 12.307 126.021 11.7087 125.725C11.1103 125.43 10.4157 125.282 9.62483 125.282C8.82706 125.282 8.12901 125.43 7.53068 125.725C6.93235 126.021 6.46813 126.437 6.13802 126.974C5.81479 127.51 5.65317 128.129 5.65317 128.83C5.65317 129.539 5.81479 130.168 6.13802 130.718C6.46813 131.268 6.93235 131.698 7.53068 132.008C8.12901 132.31 8.82706 132.462 9.62483 132.462Z" fill="white"/>
<path d="M33.5567 131.956V136.268H19.9705V121.475H25.2523V131.956H33.5567Z" fill="white"/>
<path d="M44.2016 133.442H38.6516L37.7335 136.268H32.5136L37.7335 121.475H45.2951L50.4737 136.268H45.1094L44.2016 133.442ZM43.2422 130.481L41.4266 124.838L39.6007 130.481H43.2422Z" fill="white"/>
<path d="M67.6177 136.268L66.9265 125.828L63.7492 136.268H58.4468L55.548 126.262L54.9599 136.268H50.1217L51.0502 121.475H58.8078L61.3146 129.769L63.9039 121.475H71.6306L72.7551 136.268H67.6177Z" fill="white"/>
<path d="M93.6024 132.408V135.913H76.6786V132.864L82.3199 130.193C83.3131 129.748 84.0894 129.344 84.6487 128.98C85.208 128.609 85.6034 128.25 85.8348 127.901C86.0759 127.552 86.1964 127.17 86.1964 126.755C86.1964 126.109 85.8879 125.597 85.2707 125.219C84.6632 124.841 83.7663 124.651 82.5802 124.651C81.4905 124.651 80.4153 124.807 79.3546 125.119C78.3035 125.43 77.4018 125.831 76.6497 126.321V122.081C78.9544 120.923 81.6014 120.345 84.5908 120.345C86.4134 120.345 87.9804 120.56 89.2919 120.99C90.613 121.42 91.6207 122.033 92.3151 122.826C93.0094 123.613 93.3565 124.533 93.3565 125.586C93.3565 126.706 92.8888 127.738 91.9534 128.68C91.018 129.622 89.5523 130.546 87.5561 131.451L85.4587 132.408H93.6024Z" fill="white"/>
<path d="M107.4 127.756C108.895 127.986 110.033 128.439 110.814 129.114C111.605 129.789 112 130.62 112 131.607C112 132.534 111.6 133.357 110.799 134.077C110.009 134.789 108.88 135.342 107.415 135.735C105.949 136.128 104.247 136.325 102.308 136.325C100.688 136.325 99.2178 136.199 97.8967 135.947C96.5853 135.702 95.4377 135.364 94.4541 134.934V131.696C95.0906 132 95.944 132.259 97.0144 132.475C98.0944 132.682 99.3143 132.786 100.674 132.786C101.947 132.786 102.911 132.642 103.567 132.352C104.232 132.063 104.565 131.662 104.565 131.15C104.565 130.282 103.615 129.848 101.715 129.848H96.0597L96.9421 126.821H101.397C102.439 126.821 103.181 126.71 103.625 126.488C104.068 126.258 104.29 125.935 104.29 125.519C104.29 125.089 103.991 124.755 103.393 124.518C102.795 124.273 101.87 124.151 100.616 124.151C99.3143 124.151 98.1233 124.266 97.0433 124.496C95.9729 124.726 95.1195 125 94.483 125.319V121.558C95.5341 121.179 96.7444 120.883 98.1137 120.667C99.4927 120.452 100.93 120.345 102.424 120.345C104.324 120.345 105.949 120.526 107.299 120.89C108.649 121.246 109.671 121.739 110.365 122.37C111.06 123.001 111.407 123.717 111.407 124.518C111.407 125.341 111.065 126.039 110.38 126.61C109.705 127.181 108.712 127.563 107.4 127.756Z" fill="white"/>
</svg>
