<svg width="95" height="92" viewBox="0 0 95 92" fill="none" xmlns="http://www.w3.org/2000/svg">
<path d="M45.374 60.6126C43.5688 63.4277 40.7349 63.5912 38.0799 63.8832C25.4803 65.2691 11.0098 56.7837 8.68324 42.9285C6.33745 28.9585 16.4109 14.8676 30.2592 13.206C32.9144 12.8874 35.5325 12.9475 38.0616 13.458C45.3393 14.927 47.0053 17.0503 49.1179 26.1446C49.2753 26.8224 49.2999 27.5303 49.4435 28.2122C50.3244 32.3955 51.4515 32.6788 54.8419 30.0723C59.4627 26.5198 64.5051 23.7245 70.4745 23.2079C75.8318 22.7442 79.0833 24.8298 81.6855 29.618C86.7709 38.9755 84.9982 48.0233 80.7955 57.0212C78.7831 61.3298 76.4176 65.391 72.4991 68.3178C70.5185 69.7971 68.371 70.6183 65.8856 70.1483C63.7623 69.7468 61.6458 69.1297 61.217 66.6145C60.8198 64.2848 61.6636 62.2918 63.6771 60.9602C66.9323 58.8074 68.7576 55.7142 69.6301 52.0155C70.7704 47.1809 69.1757 44.0215 65.1252 42.7905C63.5282 42.3051 62.0379 42.4366 60.5696 43.2265C57.9524 44.6344 55.3635 46.1065 52.6804 47.3779C47.8636 49.6603 43.4015 47.2836 42.5085 42.0502C42.0096 39.1267 41.5941 36.1964 40.5801 33.3775C38.3076 27.0607 33.6583 24.0268 27.049 24.6563C21.3703 25.1972 15.8095 30.2531 15.1038 35.9259C14.496 40.8123 14.6999 45.7149 16.5593 50.39C17.5172 52.7984 18.8176 54.928 21.4501 55.8881C24.5404 57.0151 27.0505 55.7241 27.8401 52.5145C28.2149 50.9909 28.4184 49.4191 28.8757 47.923C30.304 43.2509 34.1261 41.6306 38.5513 43.7466C44.9386 46.8008 47.878 53.8853 45.374 60.6126ZM31.8701 50.3047C31.975 51.006 32.3564 51.3695 33.0897 51.4108C37.1637 51.6404 37.1675 51.6458 37.7666 55.5146C37.9002 56.3775 38.0193 57.2443 38.0979 58.1136C38.1786 59.0058 38.2165 60.0247 39.2972 60.1666C40.2924 60.2973 40.7967 59.4363 41.1996 58.6264C42.587 55.838 41.6328 50.7149 39.3369 48.6332C36.6971 46.2398 33.3219 46.8298 31.8701 50.3047Z" fill="#181A23"/>
<path d="M67.6279 74.4922C69.6556 73.1546 71.5795 72.783 73.7599 73.6096C78.4249 75.3779 79.4729 79.648 75.8268 83.0165C71.543 86.974 66.2714 89.0565 60.661 90.3688C43.8543 94.3 28.5972 91.2099 15.1663 80.1838C11.7383 77.3696 9.35876 73.6657 7.54253 69.6401C6.19814 66.6603 6.64946 63.7686 8.62811 61.2443C10.61 58.7159 13.4258 58.69 16.3055 59.1552C19.9393 59.7423 22.9532 61.7737 26.1042 63.4417C33.1931 67.1944 40.4652 68.7665 48.2874 65.9196C50.2525 65.2044 52.3162 64.7647 54.3196 64.1494C56.8278 63.3791 58.8195 64.1028 60.249 66.2363C61.7403 68.4623 61.2268 70.6853 59.6055 72.5107C56.3433 76.1836 51.9611 76.3816 47.5095 75.8455C41.9326 75.1738 36.5842 73.592 31.3639 71.5192C29.3407 70.7159 27.2141 70.1664 25.1212 69.5469C23.0457 68.9325 20.9748 68.9228 19.7988 71.0418C18.5839 73.2308 20.2905 74.7424 21.7129 75.9106C27.5227 80.6824 34.1433 83.927 41.2943 86.2616C48.7314 88.6897 54.8307 86.7875 60.1182 81.3313C62.4308 78.945 64.7639 76.5725 67.6279 74.4922Z" fill="#181A23"/>
<path d="M47.8458 6.24934C39.0641 4.93136 30.6882 5.54088 23.3593 10.3924C15.4871 15.6035 9.00777 22.2754 6.93736 31.954C5.66255 37.9134 7.05731 43.7631 8.86047 49.4718C9.49368 51.4765 10.1058 53.4876 10.2415 55.584C10.4365 58.5957 9.26082 60.3436 6.95173 60.7399C4.08893 61.2312 1.77014 59.7253 1.06214 56.8509C-0.872943 48.9945 0.0762685 41.2275 1.98761 33.5382C6.58587 15.0393 20.3567 2.39895 39.1982 0.316756C63.8012 -2.40214 85.1128 12.6028 90.5786 36.8403C92.0042 43.1617 92.9544 49.5599 91.672 56.0475C91.2708 58.0768 90.6273 60.2548 88.0086 60.0193C85.5888 59.8017 84.2815 57.9923 84.3597 55.6305C84.4952 51.5368 84.6176 47.4085 85.2425 43.3716C87.1028 31.3533 82.1256 22.4515 72.8602 15.4928C65.5378 9.99328 57.0341 7.47493 47.8458 6.24934Z" fill="#181A23"/>
<path d="M76.4603 73.3946C75.2145 69.0087 75.6705 65.147 79.2594 62.3075C83.5483 58.9143 90.017 60.4516 93.395 65.473C96.3037 69.7969 94.6682 75.3074 89.6474 78.1053C84.6044 80.9155 78.0638 78.4097 76.4603 73.3946ZM85.9155 70.6624C85.9946 71.8774 85.1978 73.5714 86.9517 74.0064C88.6374 74.4244 89.6134 73.021 90.3473 71.6956C91.8921 68.9061 90.9797 65.6855 88.227 64.0153C85.4801 62.3486 82.0896 62.937 80.2991 65.4002C79.7767 66.1189 79.2105 66.9467 79.8096 67.7806C80.5548 68.8178 81.323 67.9371 82.0689 67.5767C84.8259 66.2443 86.1446 67.1482 85.9155 70.6624Z" fill="#181A23"/>
</svg>
