<svg width="319" height="92" viewBox="0 0 319 92" fill="none" xmlns="http://www.w3.org/2000/svg">
<path d="M0.00012207 -6.10352e-05H319V83.7468C319 87.9516 315.592 91.3602 311.387 91.3602H7.61347C3.40873 91.3602 0.00012207 87.9516 0.00012207 83.7468V-6.10352e-05Z" fill="#ED68E0"/>
<path fill-rule="evenodd" clip-rule="evenodd" d="M317.857 1.14332H1.1435V83.7468C1.1435 87.3201 4.0402 90.2168 7.61347 90.2168H311.387C314.96 90.2168 317.857 87.3201 317.857 83.7468V1.14332ZM0.00012207 -6.10352e-05V83.7468C0.00012207 87.9516 3.40873 91.3602 7.61347 91.3602H311.387C315.592 91.3602 319 87.9516 319 83.7468V-6.10352e-05H0.00012207Z" fill="black"/>
<path d="M0.00012207 57.8615H319V83.7468C319 87.9516 315.592 91.3602 311.387 91.3602H7.61347C3.40873 91.3602 0.00012207 87.9516 0.00012207 83.7468V57.8615Z" fill="#FBF55E"/>
<path fill-rule="evenodd" clip-rule="evenodd" d="M317.857 59.0048H1.1435V83.7468C1.1435 87.3201 4.0402 90.2168 7.61347 90.2168H311.387C314.96 90.2168 317.857 87.3201 317.857 83.7468V59.0048ZM0.00012207 57.8615V83.7468C0.00012207 87.9516 3.40873 91.3602 7.61347 91.3602H311.387C315.592 91.3602 319 87.9516 319 83.7468V57.8615H0.00012207Z" fill="black"/>
<path d="M39.5734 75.211C39.8322 77.6625 41.3397 78.9873 43.8825 78.9873C46.1818 78.9873 47.7958 77.6473 47.7958 75.744C47.7958 74.3888 47.2172 73.4752 46.0447 72.9879V72.9575C47.0192 72.4398 47.5065 71.7089 47.5065 70.7496C47.5065 69.029 46.0295 67.8718 43.8673 67.8718C41.7356 67.8718 40.2281 69.0138 39.9084 70.8257L41.1265 71.0389C41.3701 69.7751 42.3446 69.029 43.8673 69.029C45.3291 69.029 46.2427 69.7142 46.2427 70.7953C46.2427 71.7698 45.1007 72.5007 43.6389 72.5007H42.8014V73.6122H43.6237C45.5879 73.6122 46.532 74.2974 46.532 75.744C46.532 77.0078 45.4813 77.7996 43.8825 77.7996C42.0705 77.7996 41.0504 76.8707 40.822 74.9979L39.5734 75.211Z" fill="#181A23"/>
<path d="M49.0199 78.7589H50.2837V74.4345H52.5525L54.8213 78.7589H56.2982L53.9533 74.3736V74.3431C55.6587 74.0538 56.6332 72.9575 56.6332 71.2521C56.6332 69.2879 55.278 68.1002 53.0702 68.1002H49.0199V78.7589ZM50.2837 73.2468V69.2878H52.9636C54.5472 69.2878 55.3694 69.9578 55.3694 71.2521C55.3694 72.5464 54.5319 73.2468 52.9636 73.2468H50.2837Z" fill="#181A23"/>
<path d="M57.9334 78.7589H61.0092C63.9328 78.7589 65.6991 77.0535 65.6991 73.4143C65.6991 70.0796 63.7957 68.1002 61.1006 68.1002H57.9334V78.7589ZM59.1973 77.5712V69.2878H61.0245C63.141 69.2878 64.4352 70.7344 64.4352 73.4143C64.4352 76.3378 63.1867 77.5712 60.9179 77.5712H59.1973Z" fill="#181A23"/>
<path d="M69.4812 80.5252C70.7603 80.449 71.4455 79.7334 71.4455 78.5152V76.8555H69.4051V78.7589H70.2883C70.2883 79.3832 70.0446 79.6877 69.4812 79.7943V80.5252Z" fill="#181A23"/>
<path d="M80.892 78.7589H82.1558V76.6576H83.5262V75.4547H82.1558V68.1002H80.2677L74.847 75.4699V76.6576H80.892V78.7589ZM76.2326 75.4547L80.8615 69.1356H80.892V75.4547H76.2326Z" fill="#181A23"/>
<path d="M87.6281 78.7589H88.892V69.2878H92.6682V68.1002H83.8367V69.2878H87.6281V78.7589Z" fill="#181A23"/>
<path d="M93.5877 78.7589H94.8516V73.8254H99.4805V78.7589H100.744V68.1002H99.4805V72.7139H94.8516V68.1002H93.5877V78.7589Z" fill="#181A23"/>
<path d="M119.79 77.2666L118.419 76.0942V72.8052H117.262V75.0892L113.638 71.983C113.044 71.4805 112.755 70.9628 112.755 70.3994C112.755 69.5315 113.41 68.9833 114.46 68.9833C115.45 68.9833 116.059 69.4858 116.287 70.4755L117.46 70.2624C117.231 68.7854 116.089 67.8718 114.46 67.8718C112.77 67.8718 111.567 68.892 111.567 70.3537C111.567 71.2064 111.933 71.9068 112.785 72.7139C111.4 73.5818 110.654 74.6933 110.654 75.8658C110.654 77.8148 112.07 78.9873 114.445 78.9873C116.105 78.9873 117.429 78.3325 118.054 77.2362L119.074 78.1041L119.79 77.2666ZM117.11 76.4139C116.744 77.3428 115.785 77.8757 114.445 77.8757C112.816 77.8757 111.841 77.0991 111.841 75.8658C111.841 74.9065 112.374 74.1452 113.592 73.4143L117.11 76.4139Z" fill="#181A23"/>
<path d="M128.785 75.9419C129.196 77.8453 130.704 78.9873 132.836 78.9873C135.226 78.9873 136.855 77.4341 136.855 75.1958C136.855 73.0793 135.272 71.5262 132.973 71.5262C132.044 71.5262 131.237 71.7698 130.521 72.2571L130.491 72.2418L131.039 69.2878H135.774V68.1002H130.095L129.059 73.46L130.186 73.7493C130.963 73.0032 131.846 72.6225 132.836 72.6225C134.526 72.6225 135.592 73.6884 135.592 75.1958C135.592 76.7794 134.526 77.7996 132.836 77.7996C131.267 77.7996 130.338 77.0992 130.019 75.6374L128.785 75.9419Z" fill="#181A23"/>
<path d="M141.11 78.7589H142.373V69.2878H146.15V68.1002H137.318V69.2878H141.11V78.7589Z" fill="#181A23"/>
<path d="M147.069 78.7589H148.333V73.8254H152.962V78.7589H154.226V68.1002H152.962V72.7139H148.333V68.1002H147.069V78.7589Z" fill="#181A23"/>
<path d="M164.896 78.7589H166.16V74.2365H171.916V73.0945H166.16V69.2878H172.357V68.1002H164.896V78.7589Z" fill="#181A23"/>
<path d="M173.962 78.7589H181.119V77.5712H175.226V73.8406H180.692V72.6986H175.226V69.2878H181.119V68.1002H173.962V78.7589Z" fill="#181A23"/>
<path d="M182.723 78.7589H186.576C189.027 78.7589 190.337 77.6625 190.337 75.6069C190.337 74.3888 189.682 73.4447 188.692 73.0793V73.0488C189.469 72.6986 189.941 71.8916 189.941 70.8562C189.941 70.0187 189.652 69.364 189.088 68.8615C188.525 68.359 187.764 68.1002 186.835 68.1002H182.723V78.7589ZM183.987 72.6225V69.2878H186.591C187.946 69.2878 188.677 69.836 188.677 70.9171C188.677 72.0591 187.992 72.6225 186.606 72.6225H183.987ZM183.987 77.5712V73.734H186.424C188.312 73.734 189.073 74.267 189.073 75.6069C189.073 76.9926 188.266 77.5712 186.393 77.5712H183.987Z" fill="#181A23"/>
<path d="M191.637 78.7589H192.901V74.4345H195.17L197.438 78.7589H198.915L196.57 74.3736V74.3431C198.276 74.0538 199.25 72.9575 199.25 71.2521C199.25 69.2879 197.895 68.1002 195.687 68.1002H191.637V78.7589ZM192.901 73.2468V69.2878H195.581C197.164 69.2878 197.987 69.9578 197.987 71.2521C197.987 72.5464 197.149 73.2468 195.581 73.2468H192.901Z" fill="#181A23"/>
<path d="M200.474 75.0892C200.474 77.5103 201.754 78.9873 204.114 78.9873C206.474 78.9873 207.783 77.5103 207.783 75.0892V68.1002H206.519V75.0435C206.519 76.8251 205.712 77.7996 204.114 77.7996C202.53 77.7996 201.738 76.8707 201.738 74.9979V68.1002H200.474V75.0892Z" fill="#181A23"/>
<path d="M216.392 78.7589H217.687L213.652 68.1002H212.433L208.398 78.7589H209.693L210.484 76.6271H215.601L216.392 78.7589ZM210.895 75.5156L213.027 69.8056H213.058L215.189 75.5156H210.895Z" fill="#181A23"/>
<path d="M218.378 78.7589H219.642V74.4345H221.91L224.179 78.7589H225.656L223.311 74.3736V74.3431C225.017 74.0538 225.991 72.9575 225.991 71.2521C225.991 69.2879 224.636 68.1002 222.428 68.1002H218.378V78.7589ZM219.642 73.2468V69.2878H222.321C223.905 69.2878 224.727 69.9578 224.727 71.2521C224.727 72.5464 223.89 73.2468 222.321 73.2468H219.642Z" fill="#181A23"/>
<path d="M230.245 78.7589H231.509V74.6172L235.438 68.1002H233.976L230.885 73.4295H230.854L227.763 68.1002H226.302L230.245 74.6172V78.7589Z" fill="#181A23"/>
<path d="M246.23 77.556C246.23 77.023 246.321 76.5967 246.489 76.2769C246.626 76.0028 246.885 75.744 247.25 75.5003C247.616 75.2415 248.286 74.9065 249.245 74.4802C251.864 73.3382 252.61 72.5464 252.656 70.9019C252.656 69.1356 251.148 67.8718 248.91 67.8718C246.55 67.8718 244.86 69.4553 244.738 71.5414L246.002 71.6632C246.169 70.0644 247.22 69.0594 248.91 69.0594C250.433 69.0594 251.392 69.7903 251.392 70.9019C251.331 72.0591 250.768 72.5159 248.27 73.6579C247.387 74.0538 246.733 74.404 246.306 74.7238C245.895 75.0435 245.575 75.3785 245.362 75.744C245.058 76.2617 244.905 76.9317 244.905 77.7539V78.7589H252.595V77.556H246.23Z" fill="#181A23"/>
<path d="M261.798 73.4295C261.798 70.0644 260.138 67.8718 257.61 67.8718C255.083 67.8718 253.423 70.0644 253.423 73.4295C253.423 76.7946 255.083 78.9873 257.61 78.9873C260.138 78.9873 261.798 76.7946 261.798 73.4295ZM254.687 73.4295C254.687 72.1048 254.946 71.0389 255.463 70.2471C255.981 69.4553 256.697 69.0594 257.61 69.0594C258.722 69.0594 259.605 69.7142 260.092 70.8714L254.793 74.8151C254.717 74.3127 254.687 73.8559 254.687 73.4295ZM260.534 73.4295C260.534 74.7542 260.275 75.8201 259.757 76.6119C259.24 77.4037 258.524 77.7996 257.61 77.7996C256.438 77.7996 255.57 77.0991 255.083 75.8658L260.397 71.9221C260.488 72.3789 260.534 72.8814 260.534 73.4295Z" fill="#181A23"/>
<path d="M264.057 77.556C264.057 77.023 264.149 76.5967 264.316 76.2769C264.453 76.0028 264.712 75.744 265.077 75.5003C265.443 75.2415 266.113 74.9065 267.072 74.4802C269.691 73.3382 270.437 72.5464 270.483 70.9019C270.483 69.1356 268.975 67.8718 266.737 67.8718C264.377 67.8718 262.687 69.4553 262.565 71.5414L263.829 71.6632C263.996 70.0644 265.047 69.0594 266.737 69.0594C268.26 69.0594 269.219 69.7903 269.219 70.9019C269.158 72.0591 268.595 72.5159 266.098 73.6579C265.214 74.0538 264.56 74.404 264.133 74.7238C263.722 75.0435 263.402 75.3785 263.189 75.744C262.885 76.2617 262.732 76.9317 262.732 77.7539V78.7589H270.422V77.556H264.057Z" fill="#181A23"/>
<path d="M271.326 75.211C271.585 77.6625 273.093 78.9873 275.635 78.9873C277.935 78.9873 279.549 77.6473 279.549 75.744C279.549 74.3888 278.97 73.4752 277.798 72.9879V72.9575C278.772 72.4398 279.259 71.7089 279.259 70.7496C279.259 69.029 277.782 67.8718 275.62 67.8718C273.488 67.8718 271.981 69.0138 271.661 70.8257L272.879 71.0389C273.123 69.7751 274.098 69.029 275.62 69.029C277.082 69.029 277.996 69.7142 277.996 70.7953C277.996 71.7698 276.854 72.5007 275.392 72.5007H274.554V73.6122H275.377C277.341 73.6122 278.285 74.2974 278.285 75.744C278.285 77.0078 277.234 77.7996 275.635 77.7996C273.823 77.7996 272.803 76.8707 272.575 74.9979L271.326 75.211Z" fill="#181A23"/>
<path d="M81.2695 44.5633C78.017 44.5633 75.1549 43.9629 72.6835 42.7621C70.212 41.5613 68.3059 39.935 66.9652 37.8832C65.6246 35.8314 64.9542 33.5581 64.9542 31.0633C64.9542 28.5219 65.6187 26.2544 66.9477 24.2609C68.2884 22.2557 70.1945 20.6877 72.666 19.5569C75.1375 18.4144 78.017 17.8432 81.3045 17.8432C84.5688 17.8432 87.4308 18.4144 89.8906 19.5569C92.3621 20.6877 94.2623 22.2557 95.5914 24.2609C96.932 26.2544 97.6024 28.5219 97.6024 31.0633C97.6024 33.5698 96.9262 35.8489 95.5739 37.9007C94.2332 39.9525 92.3271 41.5788 89.8556 42.7796C87.3841 43.9687 84.5221 44.5633 81.2695 44.5633ZM81.2695 37.2887C82.6102 37.2887 83.7877 37.0322 84.8019 36.5193C85.8162 35.9947 86.5972 35.266 87.1452 34.3334C87.6931 33.4008 87.967 32.3341 87.967 31.1333C87.967 29.9442 87.6931 28.895 87.1452 27.9856C86.5972 27.0763 85.8162 26.371 84.8019 25.8697C83.7877 25.3684 82.6102 25.1178 81.2695 25.1178C79.9172 25.1178 78.7339 25.3684 77.7197 25.8697C76.7055 26.371 75.9185 27.0763 75.359 27.9856C74.811 28.895 74.5371 29.9442 74.5371 31.1333C74.5371 32.3341 74.811 33.4008 75.359 34.3334C75.9185 35.266 76.7055 35.9947 77.7197 36.5193C78.7339 37.0322 79.9172 37.2887 81.2695 37.2887Z" fill="#181A23"/>
<path d="M121.837 36.4318V43.7414H98.8069V18.6651H107.76V36.4318H121.837Z" fill="#181A23"/>
<path d="M139.882 38.9499H130.474L128.917 43.7414H120.069L128.917 18.6651H141.735L150.514 43.7414H141.42L139.882 38.9499ZM138.255 33.9312L135.178 24.3658L132.082 33.9312H138.255Z" fill="#181A23"/>
<path d="M179.575 43.7414L178.403 26.0446L173.017 43.7414H164.029L159.115 26.779L158.118 43.7414H149.917L151.491 18.6651H164.641L168.89 32.7246L173.28 18.6651H186.377L188.283 43.7414H179.575Z" fill="#181A23"/>
<path d="M223.622 37.1979V43.1401H194.934V37.9714L204.497 33.444C206.181 32.6894 207.497 32.0041 208.445 31.3878C209.393 30.759 210.063 30.1491 210.455 29.558C210.864 28.967 211.068 28.3193 211.068 27.615C211.068 26.5209 210.545 25.6532 209.499 25.0118C208.469 24.3704 206.949 24.0497 204.938 24.0497C203.091 24.0497 201.269 24.3138 199.471 24.842C197.689 25.3702 196.16 26.0493 194.885 26.8793V19.6922C198.792 17.7303 203.279 16.7494 208.347 16.7494C211.436 16.7494 214.092 17.1141 216.316 17.8435C218.555 18.5729 220.263 19.6104 221.44 20.9561C222.617 22.2891 223.206 23.8485 223.206 25.6343C223.206 27.5333 222.413 29.2814 220.827 30.8785C219.242 32.4757 216.757 34.0414 213.373 35.5756L209.818 37.1979H223.622Z" fill="#181A23"/>
<path d="M247.011 29.3128C249.545 29.7027 251.474 30.4698 252.798 31.6142C254.138 32.7586 254.809 34.1671 254.809 35.8397C254.809 37.4117 254.13 38.8077 252.773 40.0275C251.433 41.2348 249.521 42.1717 247.036 42.8383C244.551 43.5048 241.666 43.8381 238.38 43.8381C235.634 43.8381 233.141 43.6243 230.902 43.1967C228.679 42.7817 226.734 42.2095 225.066 41.4801V35.9906C226.145 36.5063 227.592 36.9464 229.406 37.3111C231.237 37.6633 233.305 37.8393 235.61 37.8393C237.767 37.8393 239.402 37.5941 240.514 37.1036C241.642 36.6132 242.205 35.9341 242.205 35.0663C242.205 33.5949 240.595 32.8592 237.375 32.8592H227.788L229.284 27.7282H236.836C238.601 27.7282 239.86 27.5396 240.612 27.1623C241.364 26.7724 241.74 26.2254 241.74 25.5211C241.74 24.7917 241.233 24.2258 240.219 23.8234C239.206 23.4084 237.637 23.2009 235.512 23.2009C233.305 23.2009 231.286 23.3958 229.455 23.7857C227.641 24.1755 226.194 24.6408 225.115 25.1816V18.8056C226.897 18.1642 228.948 17.6611 231.27 17.2964C233.607 16.9317 236.043 16.7494 238.577 16.7494C241.797 16.7494 244.551 17.0575 246.84 17.6737C249.128 18.2774 250.861 19.1137 252.038 20.1826C253.215 21.2516 253.803 22.4652 253.803 23.8234C253.803 25.2193 253.223 26.4015 252.062 27.3698C250.918 28.3382 249.234 28.9858 247.011 29.3128Z" fill="#181A23"/>
</svg>
