<svg width="153" height="163" viewBox="0 0 153 163" fill="none" xmlns="http://www.w3.org/2000/svg">
<path d="M59.4991 37.9451L120.273 80.6623C122.032 81.8984 122.083 83.9714 120.387 85.2925L61.787 130.946C59.0516 133.078 54.2518 131.734 54.18 128.817L52.006 40.4459C51.9342 37.529 56.6622 35.9511 59.4991 37.9451Z" fill="white"/>
<path d="M60.225 148.595C20.7555 139.186 5.46841 111.299 16.0812 66.7795C26.694 22.2599 52.7559 4.94782 92.2253 14.3567C131.865 23.8062 147.314 51.0138 136.701 95.5334C126.089 140.053 99.8646 158.045 60.225 148.595ZM124.476 91.003C131.922 85.4151 132.043 77.363 124.647 72.1878L66.3255 30.9891C54.0116 22.3071 41.1871 28.5881 42.3132 45.7369L47.822 124.448C48.4377 133.933 58.3536 140.607 66.6412 134.501L124.476 91.003Z" fill="#ED68E0"/>
</svg>
