<svg width="1250" height="288" viewBox="0 0 1250 288" fill="none" xmlns="http://www.w3.org/2000/svg">
<path fill-rule="evenodd" clip-rule="evenodd" d="M0 18.1055C0 8.10612 8.10612 0 18.1055 0H1231.18C1241.18 0 1249.28 8.10612 1249.28 18.1055V103.251C1248.98 103.218 1248.68 103.202 1248.38 103.202C1243.88 103.202 1240.23 106.849 1240.23 111.349C1240.23 115.849 1243.88 119.496 1248.38 119.496C1248.68 119.496 1248.98 119.48 1249.28 119.447V124.978C1248.98 124.945 1248.68 124.928 1248.38 124.928C1243.88 124.928 1240.23 128.576 1240.23 133.076C1240.23 137.575 1243.88 141.223 1248.38 141.223C1248.68 141.223 1248.98 141.206 1249.28 141.174V146.705C1248.98 146.672 1248.68 146.655 1248.38 146.655C1243.88 146.655 1240.23 150.303 1240.23 154.802C1240.23 159.302 1243.88 162.95 1248.38 162.95C1248.68 162.95 1248.98 162.933 1249.28 162.9V168.431C1248.98 168.398 1248.68 168.381 1248.38 168.381C1243.88 168.381 1240.23 172.029 1240.23 176.529C1240.23 181.029 1243.88 184.676 1248.38 184.676C1248.68 184.676 1248.98 184.659 1249.28 184.627V269.772C1249.28 279.772 1241.18 287.878 1231.18 287.878H18.1054C8.10604 287.878 0 279.772 0 269.772V184.627C4.07379 184.176 7.24241 180.723 7.24241 176.529C7.24241 172.335 4.07379 168.881 0 168.431V162.9C4.07379 162.45 7.24241 158.996 7.24241 154.802C7.24241 150.609 4.07379 147.155 0 146.705V141.173C4.07379 140.723 7.24241 137.269 7.24241 133.076C7.24241 128.882 4.07379 125.428 0 124.978V119.447C4.07375 118.997 7.24232 115.543 7.24232 111.349C7.24232 107.155 4.07375 103.702 0 103.251V18.1055Z" fill="url(#paint0_linear_326_176)"/>
<path d="M99.9446 140.458C89.0134 140.458 79.3948 138.44 71.0886 134.404C62.7825 130.369 56.3766 124.903 51.8709 118.008C47.3652 111.112 45.1124 103.472 45.1124 95.0873C45.1124 86.5461 47.3456 78.9256 51.8121 72.2259C56.3178 65.4869 62.7237 60.2172 71.0299 56.4168C79.336 52.5772 89.0134 50.6573 100.062 50.6573C111.033 50.6573 120.651 52.5772 128.918 56.4168C137.224 60.2172 143.611 65.4869 148.077 72.2259C152.583 78.9256 154.836 86.5461 154.836 95.0873C154.836 103.511 152.563 111.171 148.018 118.066C143.513 124.962 137.107 130.428 128.801 134.463C120.494 138.459 110.876 140.458 99.9446 140.458ZM99.9446 116.009C104.45 116.009 108.407 115.147 111.816 113.424C115.225 111.66 117.85 109.212 119.691 106.077C121.533 102.943 122.453 99.3579 122.453 95.3224C122.453 91.3261 121.533 87.7999 119.691 84.7438C117.85 81.6878 115.225 79.3174 111.816 77.6327C108.407 75.948 104.45 75.1056 99.9446 75.1056C95.3997 75.1056 91.423 75.948 88.0143 77.6327C84.6057 79.3174 81.961 81.6878 80.0804 84.7438C78.239 87.7999 77.3182 91.3261 77.3182 95.3224C77.3182 99.3579 78.239 102.943 80.0804 106.077C81.961 109.212 84.6057 111.66 88.0143 113.424C91.423 115.147 95.3997 116.009 99.9446 116.009ZM236.284 113.13V137.695H158.884V53.4195H188.974V113.13H236.284ZM296.927 121.593H265.309L260.078 137.695H230.341L260.078 53.4195H303.157L332.659 137.695H302.099L296.927 121.593ZM291.461 104.726L281.118 72.5785L270.716 104.726H291.461ZM430.327 137.695L426.39 78.2204L408.289 137.695H378.081L361.567 80.6887L358.217 137.695H330.654L335.943 53.4195H380.138L394.419 100.67L409.17 53.4195H453.189L459.595 137.695H430.327Z" fill="#0A0A0A"/>
<path d="M44.2798 223.896C45.5074 234.8 52.5124 241.011 63.4893 241.011C73.6718 241.011 80.5324 234.873 80.5324 226.207C80.5324 220.357 77.4993 215.663 72.5886 213.713V213.569C76.6327 211.619 79.2325 207.864 79.2325 203.603C79.2325 195.804 72.6608 190.46 63.2004 190.46C53.5957 190.46 46.6629 195.804 45.4352 204.253L52.368 205.408C53.2346 200.137 57.3509 196.959 63.2004 196.959C68.7611 196.959 72.1553 199.775 72.1553 204.325C72.1553 208.369 67.9667 211.402 62.4061 211.402H58.5786V217.324H62.6227C69.8444 217.324 73.4552 220.213 73.4552 225.99C73.4552 231.117 69.5555 234.439 63.4893 234.439C56.1955 234.439 52.2958 230.684 51.2125 222.668L44.2798 223.896ZM88.0553 244.694V248.522C94.1937 248.016 97.4434 244.694 97.4434 238.845V230.973H87.6942V240H91.6661C91.6661 242.816 90.6551 244.116 88.0553 244.694ZM128.951 230.612V240H136.028V230.612H142.455V224.04H136.028V191.471H125.123L103.819 224.04V230.612H128.951ZM128.951 224.04H110.969L128.806 196.815H128.951V224.04ZM203.905 237.184L208.166 232.128L201.594 226.351V210.969H194.806V220.429L180.001 207.503C176.896 204.903 175.957 203.097 175.957 200.714C175.957 197.248 178.629 194.937 182.673 194.937C186.79 194.937 189.173 196.959 189.967 201.292L196.972 200.209C196.033 192.915 190.545 188.365 182.673 188.365C174.657 188.365 168.88 193.493 168.88 200.498C168.88 204.47 170.613 207.719 174.657 211.547C168.302 215.302 164.836 220.646 164.836 226.207C164.836 235.523 171.552 241.083 182.601 241.083C190.617 241.083 196.322 238.339 199.428 233.212L203.905 237.184ZM194.011 228.518C192.495 232.345 188.451 234.439 182.673 234.439C175.957 234.439 171.913 231.19 171.913 225.918C171.913 221.946 174.441 218.552 179.424 215.735L194.011 228.518ZM228.699 227.218C230.794 235.956 237.654 241.011 247.692 241.011C258.741 241.011 266.324 234.006 266.324 223.824C266.324 214.219 258.958 207.214 248.776 207.214C244.37 207.214 240.687 208.297 237.727 210.391L237.582 210.247L240.037 198.042H261.775V191.471H234.549L229.783 216.313L236.21 218.046C239.532 214.796 243.359 213.208 247.692 213.208C254.625 213.208 259.247 217.613 259.247 223.751C259.247 230.179 254.553 234.439 247.692 234.439C240.832 234.439 237.004 231.406 235.488 225.268L228.699 227.218ZM281.406 208.08H290.794V201.725H281.406V192.771H274.329V201.725H268.335V208.08H274.329V230.034C274.329 237.328 277.145 240 284.872 240H288.989V233.284H285.522C282.417 233.284 281.406 232.417 281.406 229.89V208.08ZM295.67 187.282V240H302.747V216.385C302.747 210.897 306.358 207.214 311.846 207.214C317.335 207.214 320.585 210.68 320.585 216.385V240H327.662V215.085C327.662 206.347 321.957 200.642 313.219 200.642C309.174 200.642 305.13 202.447 302.892 205.12H302.747V187.282H295.67ZM353.818 189.449V240H361.257V219.202H382.994V212.63H361.257V196.381H384.871V189.449H353.818ZM387.427 220.863C387.427 232.923 394.649 241.083 405.264 241.083C412.558 241.083 418.191 237.834 421.585 231.478L416.097 227.795C412.919 232.923 410.031 234.8 405.192 234.8C402.087 234.8 399.559 233.717 397.61 231.478C395.66 229.24 394.649 226.351 394.576 222.957H422.524V219.996C422.524 208.514 415.591 200.642 405.192 200.642C394.721 200.642 387.427 208.947 387.427 220.863ZM415.519 217.541H394.721C394.865 211.763 399.415 206.925 405.192 206.925C411.258 206.925 415.23 211.258 415.519 217.541ZM435.26 236.317C437.643 239.278 441.832 241.083 446.526 241.083C456.42 241.083 463.641 232.706 463.641 220.863C463.641 209.019 456.42 200.642 446.454 200.642C442.121 200.642 438.221 202.375 435.694 205.192H435.549V187.282H428.472V240H435.116V236.317H435.26ZM456.564 220.863C456.564 229.24 452.303 234.512 445.659 234.512C440.026 234.512 435.549 229.89 435.549 224.185V217.468C435.549 211.836 440.099 207.214 445.876 207.214C452.448 207.214 456.564 212.486 456.564 220.863ZM469.553 201.725V240H476.631V217.757C476.631 211.113 478.869 208.08 483.275 208.08C484.43 208.08 485.73 208.297 487.246 208.73L488.619 201.653C487.174 201.292 485.73 201.075 484.358 201.075C480.819 201.075 477.858 202.52 476.342 204.903H476.197V201.725H469.553ZM491.929 226.64C491.929 235.811 496.912 241.083 505.506 241.083C509.911 241.083 514.1 239.422 516.411 236.606H516.627V240H523.416V201.725H516.338V225.34C516.338 230.901 512.872 234.512 507.6 234.512C501.823 234.512 499.006 231.478 499.006 225.34V201.725H491.929V226.64ZM529.471 230.034C529.471 236.75 534.454 241.083 542.037 241.083C546.731 241.083 550.703 239.278 552.797 236.317H552.941V240H559.441V213.713C559.441 205.625 553.952 200.642 545.07 200.642C540.953 200.642 537.415 201.798 534.526 204.036C531.71 206.275 529.976 209.236 529.327 212.991L536.187 214.435C537.126 209.597 540.376 206.853 545.07 206.853C549.403 206.853 552.075 208.875 552.075 211.98C552.075 214.796 549.908 216.169 542.975 217.902C533.226 220.213 529.471 223.607 529.471 230.034ZM552.436 227.073C552.436 231.478 548.464 234.728 542.903 234.728C538.642 234.728 536.404 232.851 536.404 229.601C536.404 226.712 538.715 225.051 544.781 223.535C549.403 222.307 551.641 221.152 552.291 219.491H552.436V227.073ZM566.422 201.725V240H573.499V217.757C573.499 211.113 575.738 208.08 580.143 208.08C581.299 208.08 582.599 208.297 584.115 208.73L585.487 201.653C584.043 201.292 582.599 201.075 581.226 201.075C577.688 201.075 574.727 202.52 573.21 204.903H573.066V201.725H566.422ZM600.564 237.111L592.62 256.249H599.914L622.662 201.725H615.224L604.247 228.951H604.103L593.27 201.725H585.832L600.564 237.111Z" fill="#0A0A0A"/>
<path d="M627.792 127.399C627.792 127.399 637.43 122.914 633.454 114.061C629.358 105.208 630.924 104.618 635.864 100.25C640.804 95.8828 641.768 93.1679 640.322 90.0989C639.72 88.9185 635.382 85.8495 629.238 94.4663C623.093 103.083 619.117 95.1746 624.78 91.0432C629.117 87.9742 642.129 82.1903 637.189 70.8585C632.25 59.5268 621.647 73.5734 621.647 73.5734C621.647 73.5734 627.189 61.7695 621.647 55.0413C616.587 48.7852 607.912 50.0836 603.816 56.9299C599.599 63.7762 601.286 73.4554 589.84 79.8295C578.514 86.0856 571.526 89.2726 570.442 99.0699C569.357 108.985 575.984 110.52 581.044 113.589C585.141 115.949 589.117 118.546 588.876 122.442C588.514 126.573 584.538 125.275 581.406 124.802C578.394 124.448 578.394 127.871 578.394 127.871C578.394 127.871 578.032 141.564 597.069 136.96C618.635 131.649 602.49 109.339 601.647 107.569C600.804 105.916 590.924 93.8761 599.96 77.1146C608.876 60.4711 615.262 61.0613 617.069 63.5401C620.683 68.7338 617.43 70.6225 607.671 74.1636C597.792 77.7048 608.996 84.5511 613.454 80.1836C618.274 75.344 624.78 81.1279 621.768 83.7248C618.876 86.3217 615.984 86.7938 611.286 86.2036C606.587 85.7315 606.466 92.9318 613.093 95.2926C619.719 97.6534 622.972 100.84 615.864 104.264C606.948 108.395 610.442 114.297 612.009 116.658C613.454 119.018 619.358 130.704 627.792 127.399Z" fill="url(#paint1_linear_326_176)"/>
<path d="M715.411 59.3839V77.1273H726.285V74.6939H718.022V69.1681H725.575V66.8361H718.022V61.8173H726.285V59.3839H715.411ZM731.749 70.3088L727.11 77.1273H730.025L733.219 72.1845H733.269L736.489 77.1273H739.404L734.74 70.3088L739.277 63.693H736.362L733.269 68.4077H733.219L730.177 63.693H727.237L731.749 70.3088ZM740.5 63.693V82.8306H742.984V75.9106H743.035C743.846 76.8485 745.291 77.5075 746.837 77.5075C750.31 77.5075 752.844 74.5672 752.844 70.4102C752.844 66.2531 750.31 63.3128 746.812 63.3128C745.266 63.3128 743.871 63.9465 742.984 64.9351H742.934V63.693H740.5ZM750.36 70.4102C750.36 73.3505 748.865 75.2009 746.533 75.2009C744.556 75.2009 742.984 73.5786 742.984 71.5762V69.2188C742.984 67.2417 744.581 65.6194 746.609 65.6194C748.916 65.6194 750.36 67.4698 750.36 70.4102ZM754.413 70.4102C754.413 74.6432 756.947 77.5075 760.674 77.5075C763.234 77.5075 765.211 76.3669 766.402 74.1363L764.476 72.8436C763.36 74.6432 762.347 75.3023 760.648 75.3023C759.558 75.3023 758.671 74.9221 757.987 74.1363C757.302 73.3505 756.947 72.3366 756.922 71.1453H766.732V70.106C766.732 66.0757 764.298 63.3128 760.648 63.3128C756.973 63.3128 754.413 66.2278 754.413 70.4102ZM764.273 69.2442H756.973C757.023 67.2164 758.62 65.5181 760.648 65.5181C762.777 65.5181 764.172 67.0389 764.273 69.2442ZM768.819 63.693V77.1273H771.303V69.3202C771.303 66.9882 772.089 65.9236 773.635 65.9236C774.041 65.9236 774.497 65.9997 775.029 66.1518L775.511 63.6677C775.004 63.5409 774.497 63.4649 774.016 63.4649C772.774 63.4649 771.734 63.9718 771.202 64.8083H771.151V63.693H768.819ZM776.927 63.693V77.1273H779.411V63.693H776.927ZM776.8 58.7502V61.361H779.512V58.7502H776.8ZM781.458 70.4102C781.458 74.6432 783.992 77.5075 787.718 77.5075C790.279 77.5075 792.256 76.3669 793.447 74.1363L791.521 72.8436C790.405 74.6432 789.391 75.3023 787.693 75.3023C786.603 75.3023 785.716 74.9221 785.032 74.1363C784.347 73.3505 783.992 72.3366 783.967 71.1453H793.777V70.106C793.777 66.0757 791.343 63.3128 787.693 63.3128C784.018 63.3128 781.458 66.2278 781.458 70.4102ZM791.318 69.2442H784.018C784.068 67.2164 785.665 65.5181 787.693 65.5181C789.822 65.5181 791.216 67.0389 791.318 69.2442ZM795.864 63.693V77.1273H798.348V68.8386C798.348 66.9122 799.616 65.6194 801.542 65.6194C803.468 65.6194 804.609 66.8361 804.609 68.8386V77.1273H807.093V68.4584C807.093 65.3153 805.091 63.3128 802.024 63.3128C800.604 63.3128 799.109 63.9465 798.298 64.8844H798.247V63.693H795.864ZM809.034 70.4102C809.034 74.6179 811.62 77.5075 815.346 77.5075C816.892 77.5075 818.21 77.0766 819.275 76.1895C820.364 75.3023 821.024 74.0856 821.252 72.5901L818.869 72.1085C818.489 74.1109 817.247 75.2009 815.346 75.2009C813.014 75.2009 811.518 73.3505 811.518 70.4102C811.518 67.4698 813.014 65.6194 815.346 65.6194C817.247 65.6194 818.539 66.7601 818.869 68.7119L821.252 68.2303C821.024 66.7347 820.364 65.5434 819.275 64.6562C818.21 63.7691 816.892 63.3128 815.346 63.3128C811.62 63.3128 809.034 66.2024 809.034 70.4102ZM822.686 70.4102C822.686 74.6432 825.221 77.5075 828.947 77.5075C831.507 77.5075 833.484 76.3669 834.676 74.1363L832.749 72.8436C831.634 74.6432 830.62 75.3023 828.922 75.3023C827.832 75.3023 826.945 74.9221 826.26 74.1363C825.576 73.3505 825.221 72.3366 825.196 71.1453H835.005V70.106C835.005 66.0757 832.572 63.3128 828.922 63.3128C825.246 63.3128 822.686 66.2278 822.686 70.4102ZM832.546 69.2442H825.246C825.297 67.2164 826.894 65.5181 828.922 65.5181C831.051 65.5181 832.445 67.0389 832.546 69.2442ZM843.826 59.3839V77.1273H846.437V71.6522L848.464 69.1681H848.515L854.117 77.1273H857.285L850.137 67.191L856.626 59.3839H853.509L846.487 67.9768H846.437V59.3839H843.826ZM857.38 70.4102C857.38 74.6432 859.915 77.5075 863.641 77.5075C866.201 77.5075 868.178 76.3669 869.369 74.1363L867.443 72.8436C866.328 74.6432 865.314 75.3023 863.615 75.3023C862.525 75.3023 861.638 74.9221 860.954 74.1363C860.27 73.3505 859.915 72.3366 859.889 71.1453H869.699V70.106C869.699 66.0757 867.266 63.3128 863.615 63.3128C859.94 63.3128 857.38 66.2278 857.38 70.4102ZM867.24 69.2442H859.94C859.991 67.2164 861.588 65.5181 863.615 65.5181C865.745 65.5181 867.139 67.0389 867.24 69.2442ZM871.787 63.693V77.1273H874.271V69.3202C874.271 66.9882 875.056 65.9236 876.603 65.9236C877.008 65.9236 877.464 65.9997 877.997 66.1518L878.478 63.6677C877.971 63.5409 877.464 63.4649 876.983 63.4649C875.741 63.4649 874.702 63.9718 874.169 64.8083H874.119V63.693H871.787ZM878.571 73.6293C878.571 75.9867 880.32 77.5075 882.982 77.5075C884.629 77.5075 886.023 76.8738 886.759 75.8346H886.809V77.1273H889.091V67.9007C889.091 65.0618 887.164 63.3128 884.046 63.3128C882.601 63.3128 881.359 63.7184 880.346 64.5041C879.357 65.2899 878.749 66.3292 878.521 67.6473L880.929 68.1542C881.258 66.4559 882.399 65.4927 884.046 65.4927C885.567 65.4927 886.505 66.2024 886.505 67.2924C886.505 68.281 885.745 68.7626 883.311 69.3709C879.889 70.182 878.571 71.3734 878.571 73.6293ZM886.632 72.5901C886.632 74.1363 885.238 75.2769 883.286 75.2769C881.79 75.2769 881.005 74.6179 881.005 73.4772C881.005 72.4633 881.816 71.8803 883.945 71.348C885.567 70.9171 886.353 70.5116 886.581 69.9286H886.632V72.5901ZM891.541 58.6235V77.1273H894.025V58.6235H891.541ZM896.123 73.6293C896.123 75.9867 897.872 77.5075 900.533 77.5075C902.181 77.5075 903.575 76.8738 904.31 75.8346H904.361V77.1273H906.642V67.9007C906.642 65.0618 904.715 63.3128 901.598 63.3128C900.153 63.3128 898.911 63.7184 897.897 64.5041C896.908 65.2899 896.3 66.3292 896.072 67.6473L898.48 68.1542C898.809 66.4559 899.95 65.4927 901.598 65.4927C903.119 65.4927 904.056 66.2024 904.056 67.2924C904.056 68.281 903.296 68.7626 900.863 69.3709C897.441 70.182 896.123 71.3734 896.123 73.6293ZM904.183 72.5901C904.183 74.1363 902.789 75.2769 900.837 75.2769C899.342 75.2769 898.556 74.6179 898.556 73.4772C898.556 72.4633 899.367 71.8803 901.496 71.348C903.119 70.9171 903.904 70.5116 904.132 69.9286H904.183V72.5901ZM907.87 59.3839V65.2646H910.05V59.3839H907.87ZM912.281 72.6154C912.661 75.7585 914.866 77.5075 918.339 77.5075C921.406 77.5075 923.434 75.9613 923.434 73.5533C923.434 71.2213 921.887 70.106 918.364 69.0667C916.108 68.433 915.348 68.0021 915.348 67.1657C915.348 66.1771 916.311 65.5181 917.756 65.5181C919.302 65.5181 920.316 66.3038 920.772 67.9007L923.104 67.2924C922.572 64.859 920.468 63.3128 917.756 63.3128C914.993 63.3128 912.94 64.9858 912.94 67.2164C912.94 69.2695 914.308 70.2581 917.553 71.1706C920.113 71.9564 921 72.4633 921 73.6547C921 74.6686 919.986 75.3023 918.339 75.3023C916.108 75.3023 915.043 74.3644 914.613 72.1085L912.281 72.6154ZM930.209 70.4102C930.209 74.6179 932.795 77.5075 936.521 77.5075C938.067 77.5075 939.385 77.0766 940.45 76.1895C941.54 75.3023 942.199 74.0856 942.427 72.5901L940.044 72.1085C939.664 74.1109 938.422 75.2009 936.521 75.2009C934.189 75.2009 932.693 73.3505 932.693 70.4102C932.693 67.4698 934.189 65.6194 936.521 65.6194C938.422 65.6194 939.714 66.7601 940.044 68.7119L942.427 68.2303C942.199 66.7347 941.54 65.5434 940.45 64.6562C939.385 63.7691 938.067 63.3128 936.521 63.3128C932.795 63.3128 930.209 66.2024 930.209 70.4102ZM944.115 72.438C944.115 75.6572 945.864 77.5075 948.88 77.5075C950.426 77.5075 951.896 76.9245 952.708 75.936H952.784V77.1273H955.166V63.693H952.682V71.9817C952.682 73.9335 951.466 75.2009 949.615 75.2009C947.587 75.2009 946.599 74.1363 946.599 71.9817V63.693H944.115V72.438ZM957.748 58.6235V77.1273H960.232V58.6235H957.748ZM966.233 65.9236H969.528V63.693H966.233V60.5499H963.749V63.693H961.645V65.9236H963.749V73.6293C963.749 76.1895 964.738 77.1273 967.45 77.1273H968.895V74.77H967.678C966.588 74.77 966.233 74.4658 966.233 73.5786V65.9236ZM970.986 72.438C970.986 75.6572 972.735 77.5075 975.752 77.5075C977.298 77.5075 978.768 76.9245 979.579 75.936H979.655V77.1273H982.038V63.693H979.554V71.9817C979.554 73.9335 978.337 75.2009 976.487 75.2009C974.459 75.2009 973.47 74.1363 973.47 71.9817V63.693H970.986V72.438ZM984.62 63.693V77.1273H987.104V69.3202C987.104 66.9882 987.889 65.9236 989.436 65.9236C989.841 65.9236 990.297 65.9997 990.83 66.1518L991.311 63.6677C990.804 63.5409 990.297 63.4649 989.816 63.4649C988.574 63.4649 987.535 63.9718 987.002 64.8083H986.952V63.693H984.62ZM991.453 70.4102C991.453 74.6432 993.987 77.5075 997.713 77.5075C1000.27 77.5075 1002.25 76.3669 1003.44 74.1363L1001.52 72.8436C1000.4 74.6432 999.386 75.3023 997.688 75.3023C996.598 75.3023 995.711 74.9221 995.027 74.1363C994.342 73.3505 993.987 72.3366 993.962 71.1453H1003.77V70.106C1003.77 66.0757 1001.34 63.3128 997.688 63.3128C994.013 63.3128 991.453 66.2278 991.453 70.4102ZM1001.31 69.2442H994.013C994.063 67.2164 995.66 65.5181 997.688 65.5181C999.817 65.5181 1001.21 67.0389 1001.31 69.2442ZM1005.83 68.4584V70.7904H1012.59V68.4584H1005.83ZM1014.33 70.4102C1014.33 74.5672 1016.86 77.5075 1020.33 77.5075C1021.98 77.5075 1023.45 76.8738 1024.29 75.8346H1024.34V77.1273H1026.67V58.6235H1024.19V64.9097H1024.14C1023.25 63.9212 1021.88 63.3128 1020.36 63.3128C1016.86 63.3128 1014.33 66.2531 1014.33 70.4102ZM1024.19 71.5762C1024.19 73.5786 1022.61 75.2009 1020.64 75.2009C1018.31 75.2009 1016.81 73.3505 1016.81 70.4102C1016.81 67.4698 1018.25 65.6194 1020.56 65.6194C1022.59 65.6194 1024.19 67.2417 1024.19 69.2188V71.5762ZM1028.75 70.4102C1028.75 74.6432 1031.28 77.5075 1035.01 77.5075C1037.57 77.5075 1039.54 76.3669 1040.73 74.1363L1038.81 72.8436C1037.69 74.6432 1036.68 75.3023 1034.98 75.3023C1033.89 75.3023 1033 74.9221 1032.32 74.1363C1031.64 73.3505 1031.28 72.3366 1031.25 71.1453H1041.06V70.106C1041.06 66.0757 1038.63 63.3128 1034.98 63.3128C1031.31 63.3128 1028.75 66.2278 1028.75 70.4102ZM1038.61 69.2442H1031.31C1031.36 67.2164 1032.95 65.5181 1034.98 65.5181C1037.11 65.5181 1038.5 67.0389 1038.61 69.2442ZM1053.99 58.7502H1051.32V61.3103H1053.99V58.7502ZM1053.96 63.693H1046.46V62.5524C1046.46 61.7919 1046.84 61.4117 1047.62 61.4117H1049.5V59.1304H1047.34C1045.22 59.1304 1043.97 60.3218 1043.97 62.2482V63.693H1041.59V65.9236H1043.97V77.1273H1046.46V65.9236H1051.48V77.1273H1053.96V63.693ZM1056.51 63.693V77.1273H1058.99V68.8386C1058.99 66.9122 1060.26 65.6194 1062.19 65.6194C1064.11 65.6194 1065.25 66.8361 1065.25 68.8386V77.1273H1067.74V68.4584C1067.74 65.3153 1065.73 63.3128 1062.67 63.3128C1061.25 63.3128 1059.75 63.9465 1058.94 64.8844H1058.89V63.693H1056.51ZM1070.18 63.693V77.1273H1072.67V63.693H1070.18ZM1070.06 58.7502V61.361H1072.77V58.7502H1070.06ZM1075.22 63.693V77.1273H1077.71V68.8386C1077.71 66.9122 1078.97 65.6194 1080.9 65.6194C1082.83 65.6194 1083.97 66.8361 1083.97 68.8386V77.1273H1086.45V68.4584C1086.45 65.3153 1084.45 63.3128 1081.38 63.3128C1079.96 63.3128 1078.47 63.9465 1077.66 64.8844H1077.6V63.693H1075.22ZM1089.36 79.6874C1090.34 81.8927 1092.45 83.2108 1095.01 83.2108C1098.45 83.2108 1100.74 80.8788 1100.74 77.4315V63.693H1098.3V64.9858H1098.25C1097.36 63.9465 1095.95 63.3382 1094.42 63.3382C1090.93 63.3382 1088.39 66.2785 1088.39 70.4102C1088.39 74.5672 1090.88 77.5075 1094.4 77.5075C1096.1 77.5075 1097.52 76.8738 1098.25 75.8346H1098.3V77.3048C1098.3 79.5607 1097.06 80.9548 1095.01 80.9548C1093.31 80.9548 1092.35 80.2958 1091.46 78.4961L1089.36 79.6874ZM1098.25 71.5762C1098.25 73.5786 1096.68 75.2009 1094.7 75.2009C1092.37 75.2009 1090.88 73.3505 1090.88 70.4102C1090.88 67.4952 1092.37 65.6448 1094.63 65.6448C1096.66 65.6448 1098.25 67.2671 1098.25 69.2695V71.5762ZM1110.17 65.9236V77.1273H1112.65V65.9236H1116.12V63.693H1112.65V62.5524C1112.65 61.7919 1113.03 61.4117 1113.82 61.4117H1115.69V59.1304H1113.54C1111.41 59.1304 1110.17 60.3218 1110.17 62.2482V63.693H1107.78V65.9236H1110.17ZM1116.48 70.4102C1116.48 74.6432 1119.01 77.5075 1122.74 77.5075C1125.3 77.5075 1127.27 76.3669 1128.47 74.1363L1126.54 72.8436C1125.42 74.6432 1124.41 75.3023 1122.71 75.3023C1121.62 75.3023 1120.73 74.9221 1120.05 74.1363C1119.37 73.3505 1119.01 72.3366 1118.99 71.1453H1128.8V70.106C1128.8 66.0757 1126.36 63.3128 1122.71 63.3128C1119.04 63.3128 1116.48 66.2278 1116.48 70.4102ZM1126.34 69.2442H1119.04C1119.09 67.2164 1120.68 65.5181 1122.71 65.5181C1124.84 65.5181 1126.24 67.0389 1126.34 69.2442ZM1129.87 72.6154C1130.26 75.7585 1132.46 77.5075 1135.93 77.5075C1139 77.5075 1141.03 75.9613 1141.03 73.5533C1141.03 71.2213 1139.48 70.106 1135.96 69.0667C1133.7 68.433 1132.94 68.0021 1132.94 67.1657C1132.94 66.1771 1133.91 65.5181 1135.35 65.5181C1136.9 65.5181 1137.91 66.3038 1138.37 67.9007L1140.7 67.2924C1140.17 64.859 1138.06 63.3128 1135.35 63.3128C1132.59 63.3128 1130.53 64.9858 1130.53 67.2164C1130.53 69.2695 1131.9 70.2581 1135.15 71.1706C1137.71 71.9564 1138.59 72.4633 1138.59 73.6547C1138.59 74.6686 1137.58 75.3023 1135.93 75.3023C1133.7 75.3023 1132.64 74.3644 1132.21 72.1085L1129.87 72.6154ZM1145.95 65.9236H1149.25V63.693H1145.95V60.5499H1143.47V63.693H1141.36V65.9236H1143.47V73.6293C1143.47 76.1895 1144.46 77.1273 1147.17 77.1273H1148.61V74.77H1147.4C1146.31 74.77 1145.95 74.4658 1145.95 73.5786V65.9236ZM1150.96 63.693V77.1273H1153.44V63.693H1150.96ZM1150.83 58.7502V61.361H1153.54V58.7502H1150.83ZM1154.63 63.693L1160.28 77.1273H1162.51L1168.16 63.693H1165.5L1161.42 73.7814H1161.37L1157.29 63.693H1154.63ZM1168.43 73.6293C1168.43 75.9867 1170.17 77.5075 1172.84 77.5075C1174.48 77.5075 1175.88 76.8738 1176.61 75.8346H1176.66V77.1273H1178.94V67.9007C1178.94 65.0618 1177.02 63.3128 1173.9 63.3128C1172.46 63.3128 1171.21 63.7184 1170.2 64.5041C1169.21 65.2899 1168.6 66.3292 1168.37 67.6473L1170.78 68.1542C1171.11 66.4559 1172.25 65.4927 1173.9 65.4927C1175.42 65.4927 1176.36 66.2024 1176.36 67.2924C1176.36 68.281 1175.6 68.7626 1173.17 69.3709C1169.74 70.182 1168.43 71.3734 1168.43 73.6293ZM1176.49 72.5901C1176.49 74.1363 1175.09 75.2769 1173.14 75.2769C1171.64 75.2769 1170.86 74.6179 1170.86 73.4772C1170.86 72.4633 1171.67 71.8803 1173.8 71.348C1175.42 70.9171 1176.21 70.5116 1176.44 69.9286H1176.49V72.5901ZM1181.4 58.6235V77.1273H1183.88V58.6235H1181.4ZM1187.09 73.8828V77.1273H1190.44V73.8828H1187.09ZM714.802 94.7258C714.802 100.53 718.174 104.003 723.547 104.003C725.55 104.003 727.121 103.674 728.82 102.786L728.085 101.189C726.691 101.925 725.17 102.279 723.547 102.279C719.213 102.279 716.653 99.5165 716.653 94.7258C716.653 90.3406 719.568 87.1975 723.547 87.1975C727.73 87.1975 730.341 89.9858 730.341 94.3202C730.341 96.855 729.732 98.1984 728.592 98.1984C727.679 98.1984 727.324 97.7422 727.324 96.4241V93.1289C727.324 90.9743 725.854 89.6055 723.801 89.6055C721.646 89.6055 720.176 90.7969 719.796 92.8247L721.798 93.2303C722.027 92.0643 722.711 91.4813 723.801 91.4813C724.587 91.4813 725.17 91.8868 725.17 92.4952C725.17 93.2303 724.789 93.4584 722.686 94.0414C720.632 94.6497 719.745 95.5369 719.745 97.0831C719.745 98.8828 721.063 99.9728 723.015 99.9728C724.257 99.9728 725.398 99.4912 726.006 98.68H726.057C726.488 99.5165 727.299 99.9474 728.49 99.9474C730.924 99.9474 732.216 98.0463 732.216 94.3202C732.216 89.1239 728.794 85.4992 723.547 85.4992C718.554 85.4232 714.726 89.5295 714.802 94.7258ZM725.17 96.4241C725.17 97.438 724.359 98.097 723.243 98.097C722.356 98.097 721.9 97.7168 721.9 96.931C721.9 96.3227 722.229 95.9425 723.218 95.613C724.511 95.2074 724.967 94.9539 725.144 94.6244H725.17V96.4241ZM743.58 86.8173V102.127H746.191V86.8173H751.565V84.3839H738.156V86.8173H743.58ZM760.77 98.8068L761.936 102.127H764.573L758.21 84.3839H755.777L749.389 102.127H752.025L753.191 98.8068H760.77ZM759.985 96.5255H753.977L756.968 87.9833H757.019L759.985 96.5255ZM764.649 93.2556C764.649 98.8575 767.614 102.508 772.202 102.508C776.309 102.508 779.046 99.5672 779.046 95.1567V93.1542H772.431V95.4862H776.512C776.588 98.3252 774.94 100.074 772.202 100.074C769.135 100.074 767.26 97.4887 767.26 93.2556C767.26 89.0225 769.135 86.4371 772.202 86.4371C774.458 86.4371 775.979 87.8312 776.461 90.366L779.021 89.9351C778.514 86.361 775.776 84.0037 772.202 84.0037C767.614 84.0037 764.649 87.6538 764.649 93.2556ZM780.628 93.2556C780.628 98.8068 783.644 102.508 788.181 102.508C792.744 102.508 795.76 98.8068 795.76 93.2556C795.76 87.7045 792.744 84.0037 788.181 84.0037C783.644 84.0037 780.628 87.7045 780.628 93.2556ZM793.15 93.2556C793.15 97.4887 791.248 100.074 788.181 100.074C785.114 100.074 783.239 97.4887 783.239 93.2556C783.239 89.0225 785.114 86.4371 788.181 86.4371C791.248 86.4371 793.15 89.0225 793.15 93.2556ZM806.83 95.03V95.0046C809.466 94.4216 810.987 92.5205 810.987 89.783C810.987 86.4117 808.756 84.3839 805.03 84.3839H798.339V102.127H800.949V95.2074H804.067L807.717 102.127H810.658L806.83 95.03ZM804.777 92.7994H800.949V86.8173H804.777C807.185 86.8173 808.376 87.8059 808.376 89.783C808.376 91.7347 807.134 92.7994 804.777 92.7994ZM813.377 84.3839V102.127H824.251V99.6939H815.988V94.1681H823.541V91.8361H815.988V86.8173H824.251V84.3839H813.377ZM835.457 86.8173V102.127H838.068V86.8173H843.442V84.3839H830.033V86.8173H835.457ZM845.793 84.3839V102.127H848.404V94.1681H855.679V102.127H858.29V84.3839H855.679V91.8615H848.404V84.3839H845.793ZM861.871 84.3839V102.127H872.745V99.6939H864.482V94.1681H872.036V91.8361H864.482V86.8173H872.745V84.3839H861.871ZM884.952 98.8068L886.118 102.127H888.754L882.391 84.3839H879.958L873.57 102.127H876.207L877.373 98.8068H884.952ZM884.166 96.5255H878.158L881.149 87.9833H881.2L884.166 96.5255ZM891.996 86.8173V102.127H894.607V86.8173H899.981V84.3839H886.572V86.8173H891.996ZM910.824 95.03V95.0046C913.46 94.4216 914.981 92.5205 914.981 89.783C914.981 86.4117 912.75 84.3839 909.024 84.3839H902.333V102.127H904.943V95.2074H908.061L911.711 102.127H914.652L910.824 95.03ZM908.771 92.7994H904.943V86.8173H908.771C911.179 86.8173 912.37 87.8059 912.37 89.783C912.37 91.7347 911.128 92.7994 908.771 92.7994ZM917.371 84.3839V102.127H928.245V99.6939H919.982V94.1681H927.535V91.8361H919.982V86.8173H928.245V84.3839H917.371ZM939.451 86.8173V102.127H942.062V86.8173H947.436V84.3839H934.027V86.8173H939.451ZM958.279 95.03V95.0046C960.915 94.4216 962.436 92.5205 962.436 89.783C962.436 86.4117 960.205 84.3839 956.479 84.3839H949.787V102.127H952.398V95.2074H955.516L959.166 102.127H962.106L958.279 95.03ZM956.226 92.7994H952.398V86.8173H956.226C958.634 86.8173 959.825 87.8059 959.825 89.783C959.825 91.7347 958.583 92.7994 956.226 92.7994ZM964.826 84.3839V102.127H967.436V84.3839H964.826ZM969 84.3839L975.387 102.127H978.099L984.487 84.3839H981.75L976.781 98.5533H976.731L971.763 84.3839H969ZM993.686 98.8068L994.852 102.127H997.489L991.126 84.3839H988.693L982.305 102.127H984.941L986.107 98.8068H993.686ZM992.901 96.5255H986.893L989.884 87.9833H989.935L992.901 96.5255ZM999.074 84.3839V102.127H1001.68V88.6423H1001.74L1009.14 102.127H1012.03V84.3839H1009.42V97.8689H1009.36L1001.96 84.3839H999.074ZM1015.62 84.3839V102.127H1021.22C1026.07 102.127 1029.01 99.1109 1029.01 93.2303C1029.01 87.7045 1025.89 84.3839 1021.33 84.3839H1015.62ZM1021.12 99.6939H1018.23V86.8173H1021.25C1024.47 86.8173 1026.39 89.0479 1026.39 93.2303C1026.39 97.5394 1024.65 99.6939 1021.12 99.6939ZM1040.09 95.03V95.0046C1042.73 94.4216 1044.25 92.5205 1044.25 89.783C1044.25 86.4117 1042.02 84.3839 1038.29 84.3839H1031.6V102.127H1034.21V95.2074H1037.33L1040.98 102.127H1043.92L1040.09 95.03ZM1038.04 92.7994H1034.21V86.8173H1038.04C1040.45 86.8173 1041.64 87.8059 1041.64 89.783C1041.64 91.7347 1040.4 92.7994 1038.04 92.7994ZM1046.51 96.3227C1046.51 100.277 1048.82 102.508 1052.98 102.508C1057.11 102.508 1059.47 100.277 1059.47 96.3227V84.3839H1056.85V96.196C1056.85 98.7814 1055.56 100.074 1052.98 100.074C1050.42 100.074 1049.12 98.7561 1049.12 96.1453V84.3839H1046.51V96.3227ZM1062.94 84.3839V102.127H1065.53V88.8198H1065.58L1071.13 102.127H1072.22L1077.79 88.8198H1077.84V102.127H1080.43V84.3839H1077.21L1071.71 97.7929H1071.66L1066.16 84.3839H1062.94ZM1084.27 103.775V105.118C1086.43 104.941 1087.57 103.775 1087.57 101.722V98.9589H1084.15V102.127H1085.54C1085.54 103.116 1085.18 103.572 1084.27 103.775ZM715.411 109.384V127.127H718.022V121.652L720.049 119.168H720.1L725.702 127.127H728.87L721.722 117.191L728.211 109.384H725.094L718.072 117.977H718.022V109.384H715.411ZM730.474 109.384V127.127H741.348V124.694H733.085V119.168H740.638V116.836H733.085V111.817H741.348V109.384H730.474ZM752.667 120.03V120.005C755.303 119.422 756.824 117.521 756.824 114.783C756.824 111.412 754.593 109.384 750.867 109.384H744.176V127.127H746.786V120.207H749.904L753.554 127.127H756.495L752.667 120.03ZM750.614 117.799H746.786V111.817H750.614C753.022 111.817 754.213 112.806 754.213 114.783C754.213 116.735 752.971 117.799 750.614 117.799ZM768.593 123.807L769.759 127.127H772.395L766.032 109.384H763.599L757.211 127.127H759.848L761.014 123.807H768.593ZM767.807 121.525H761.799L764.79 112.983H764.841L767.807 121.525ZM773.98 109.384V127.127H784.398V124.694H776.591V109.384H773.98ZM796.639 123.807L797.805 127.127H800.442L794.079 109.384H791.646L785.258 127.127H787.894L789.06 123.807H796.639ZM795.854 121.525H789.846L792.837 112.983H792.888L795.854 121.525Z" fill="#0A0A0A"/>
<path d="M753.306 187.195C753.306 191.15 755.612 193.38 759.769 193.38C763.901 193.38 766.258 191.15 766.258 187.195V175.257H763.647V187.069C763.647 189.654 762.355 190.947 759.769 190.947C757.209 190.947 755.916 189.629 755.916 187.018V175.257H753.306V187.195ZM769.733 175.257V193H772.344V179.515H772.395L779.796 193H782.686V175.257H780.075V188.742H780.024L772.623 175.257H769.733ZM786.281 175.257V193H788.892V175.257H786.281ZM804.929 190.262C806.019 188.64 806.577 186.587 806.577 184.128C806.577 178.577 803.56 174.876 798.998 174.876C794.46 174.876 791.444 178.577 791.444 184.128C791.444 189.679 794.46 193.38 798.998 193.38C800.797 193.38 802.318 192.848 803.586 191.783L805.106 193.38L806.577 192.011L804.929 190.262ZM801.862 189.958C801.076 190.617 800.138 190.947 798.998 190.947C795.931 190.947 794.055 188.361 794.055 184.128C794.055 179.895 795.931 177.31 798.998 177.31C802.065 177.31 803.966 179.895 803.966 184.128C803.966 185.801 803.687 187.221 803.104 188.361L799.809 184.889L798.288 186.232L801.862 189.958ZM809.102 187.195C809.102 191.15 811.409 193.38 815.566 193.38C819.698 193.38 822.055 191.15 822.055 187.195V175.257H819.444V187.069C819.444 189.654 818.151 190.947 815.566 190.947C813.006 190.947 811.713 189.629 811.713 187.018V175.257H809.102V187.195ZM825.53 175.257V193H836.404V190.567H828.141V185.041H835.694V182.709H828.141V177.69H836.404V175.257H825.53ZM842.688 175.257L849.075 193H851.787L858.175 175.257H855.438L850.469 189.426H850.419L845.451 175.257H842.688ZM859.778 175.257V193H870.652V190.567H862.389V185.041H869.942V182.709H862.389V177.69H870.652V175.257H859.778ZM873.48 175.257V193H876.09V179.515H876.141L883.543 193H886.432V175.257H883.821V188.742H883.771L876.369 175.257H873.48ZM890.028 175.257V193H895.63C900.471 193 903.411 189.984 903.411 184.103C903.411 178.577 900.294 175.257 895.731 175.257H890.028ZM895.528 190.567H892.639V177.69H895.655C898.874 177.69 900.801 179.921 900.801 184.103C900.801 188.412 899.052 190.567 895.528 190.567ZM904.993 184.128C904.993 189.679 908.009 193.38 912.547 193.38C917.109 193.38 920.126 189.679 920.126 184.128C920.126 178.577 917.109 174.876 912.547 174.876C908.009 174.876 904.993 178.577 904.993 184.128ZM917.515 184.128C917.515 188.361 915.614 190.947 912.547 190.947C909.479 190.947 907.604 188.361 907.604 184.128C907.604 179.895 909.479 177.31 912.547 177.31C915.614 177.31 917.515 179.895 917.515 184.128ZM931.195 185.903V185.877C933.831 185.294 935.352 183.393 935.352 180.656C935.352 177.284 933.122 175.257 929.395 175.257H922.704V193H925.314V186.08H928.432L932.082 193H935.023L931.195 185.903ZM929.142 183.672H925.314V177.69H929.142C931.55 177.69 932.741 178.679 932.741 180.656C932.741 182.607 931.499 183.672 929.142 183.672ZM936.475 187.145C936.956 191.175 939.542 193.38 943.825 193.38C947.552 193.38 950.112 191.378 950.112 188.412C950.112 185.573 948.439 184.027 943.851 182.506C940.834 181.568 939.897 180.858 939.897 179.667C939.897 178.222 941.139 177.284 943.09 177.284C945.194 177.284 946.512 178.4 947.07 180.605L949.605 180.047C949.326 178.476 948.616 177.234 947.425 176.296C946.233 175.358 944.789 174.876 943.09 174.876C939.694 174.876 937.311 176.853 937.311 179.667C937.311 182.126 938.731 183.444 942.989 184.838C946.462 185.953 947.526 186.815 947.526 188.463C947.526 189.984 946.107 190.972 943.876 190.972C940.91 190.972 939.415 189.654 939.035 186.638L936.475 187.145Z" fill="#0A0A0A"/>
<path d="M1014.45 175.257L1017.87 193H1020.87L1024.95 179.388H1025L1029.05 193H1032.07L1035.47 175.257H1032.8L1030.27 188.843H1030.22L1026.19 175.257H1023.73L1019.72 188.843H1019.67L1017.14 175.257H1014.45ZM1036.36 184.128C1036.36 189.679 1039.38 193.38 1043.92 193.38C1048.48 193.38 1051.49 189.679 1051.49 184.128C1051.49 178.577 1048.48 174.876 1043.92 174.876C1039.38 174.876 1036.36 178.577 1036.36 184.128ZM1048.88 184.128C1048.88 188.361 1046.98 190.947 1043.92 190.947C1040.85 190.947 1038.97 188.361 1038.97 184.128C1038.97 179.895 1040.85 177.31 1043.92 177.31C1046.98 177.31 1048.88 179.895 1048.88 184.128ZM1062.56 185.903V185.877C1065.2 185.294 1066.72 183.393 1066.72 180.656C1066.72 177.284 1064.49 175.257 1060.76 175.257H1054.07V193H1056.68V186.08H1059.8L1063.45 193H1066.39L1062.56 185.903ZM1060.51 183.672H1056.68V177.69H1060.51C1062.92 177.69 1064.11 178.679 1064.11 180.656C1064.11 182.607 1062.87 183.672 1060.51 183.672ZM1069.11 175.257V193H1071.72V187.525L1073.75 185.041H1073.8L1079.4 193H1082.57L1075.42 183.064L1081.91 175.257H1078.79L1071.77 183.849H1071.72V175.257H1069.11ZM1082.91 187.145C1083.39 191.175 1085.97 193.38 1090.26 193.38C1093.98 193.38 1096.54 191.378 1096.54 188.412C1096.54 185.573 1094.87 184.027 1090.28 182.506C1087.27 181.568 1086.33 180.858 1086.33 179.667C1086.33 178.222 1087.57 177.284 1089.52 177.284C1091.63 177.284 1092.94 178.4 1093.5 180.605L1096.04 180.047C1095.76 178.476 1095.05 177.234 1093.86 176.296C1092.67 175.358 1091.22 174.876 1089.52 174.876C1086.13 174.876 1083.74 176.853 1083.74 179.667C1083.74 182.126 1085.16 183.444 1089.42 184.838C1092.89 185.953 1093.96 186.815 1093.96 188.463C1093.96 189.984 1092.54 190.972 1090.31 190.972C1087.34 190.972 1085.85 189.654 1085.47 186.638L1082.91 187.145ZM1098.84 175.257V193H1101.45V185.041H1108.73V193H1111.34V175.257H1108.73V182.734H1101.45V175.257H1098.84ZM1113.91 184.128C1113.91 189.679 1116.92 193.38 1121.46 193.38C1126.02 193.38 1129.04 189.679 1129.04 184.128C1129.04 178.577 1126.02 174.876 1121.46 174.876C1116.92 174.876 1113.91 178.577 1113.91 184.128ZM1126.43 184.128C1126.43 188.361 1124.53 190.947 1121.46 190.947C1118.39 190.947 1116.52 188.361 1116.52 184.128C1116.52 179.895 1118.39 177.31 1121.46 177.31C1124.53 177.31 1126.43 179.895 1126.43 184.128ZM1131.62 175.257V193H1134.23V186.384H1138.59C1142.36 186.384 1144.59 184.306 1144.59 180.833C1144.59 177.386 1142.36 175.257 1138.61 175.257H1131.62ZM1138.48 183.951H1134.23V177.69H1138.51C1140.84 177.69 1141.98 178.704 1141.98 180.833C1141.98 182.912 1140.82 183.951 1138.48 183.951ZM1145.44 187.145C1145.92 191.175 1148.5 193.38 1152.79 193.38C1156.51 193.38 1159.07 191.378 1159.07 188.412C1159.07 185.573 1157.4 184.027 1152.81 182.506C1149.8 181.568 1148.86 180.858 1148.86 179.667C1148.86 178.222 1150.1 177.284 1152.05 177.284C1154.16 177.284 1155.47 178.4 1156.03 180.605L1158.57 180.047C1158.29 178.476 1157.58 177.234 1156.39 176.296C1155.2 175.358 1153.75 174.876 1152.05 174.876C1148.66 174.876 1146.27 176.853 1146.27 179.667C1146.27 182.126 1147.69 183.444 1151.95 184.838C1155.42 185.953 1156.49 186.815 1156.49 188.463C1156.49 189.984 1155.07 190.972 1152.84 190.972C1149.87 190.972 1148.38 189.654 1148 186.638L1145.44 187.145Z" fill="#0A0A0A"/>
<path d="M1015.72 218.257V236H1018.33V229.384H1022.69C1026.46 229.384 1028.7 227.306 1028.7 223.833C1028.7 220.386 1026.46 218.257 1022.71 218.257H1015.72ZM1022.59 226.951H1018.33V220.69H1022.61C1024.94 220.69 1026.08 221.704 1026.08 223.833C1026.08 225.912 1024.92 226.951 1022.59 226.951ZM1030.8 218.257V236H1041.68V233.567H1033.42V228.041H1040.97V225.709H1033.42V220.69H1041.68V218.257H1030.8ZM1048.69 220.69V236H1051.3V220.69H1056.67V218.257H1043.26V220.69H1048.69ZM1065.25 218.257V236H1067.86V228.7H1075.49V226.393H1067.86V220.69H1076.15V218.257H1065.25ZM1087.25 228.903V228.877C1089.88 228.294 1091.4 226.393 1091.4 223.656C1091.4 220.284 1089.17 218.257 1085.45 218.257H1078.75V236H1081.37V229.08H1084.48L1088.13 236H1091.07L1087.25 228.903ZM1085.19 226.672H1081.37V220.69H1085.19C1087.6 220.69 1088.79 221.679 1088.79 223.656C1088.79 225.607 1087.55 226.672 1085.19 226.672ZM1093.79 218.257V236H1096.4V218.257H1093.79ZM1099.97 218.257V236H1110.84V233.567H1102.58V228.041H1110.13V225.709H1102.58V220.69H1110.84V218.257H1099.97ZM1113.67 218.257V236H1116.28V222.515H1116.33L1123.73 236H1126.62V218.257H1124.01V231.742H1123.96L1116.56 218.257H1113.67ZM1130.22 218.257V236H1135.82C1140.66 236 1143.6 232.984 1143.6 227.103C1143.6 221.577 1140.49 218.257 1135.92 218.257H1130.22ZM1135.72 233.567H1132.83V220.69H1135.85C1139.07 220.69 1140.99 222.921 1140.99 227.103C1140.99 231.412 1139.24 233.567 1135.72 233.567ZM1146.2 218.257V236H1156.62V233.567H1148.81V218.257H1146.2ZM1159.45 228.649V236H1162.06V228.649L1168.17 218.257H1165.25L1160.77 226.216H1160.72L1156.23 218.257H1153.32L1159.45 228.649Z" fill="#0A0A0A"/>
<path d="M753.075 218.257V236H763.493V233.567H755.685V218.257H753.075ZM765.86 218.257V236H768.471V218.257H765.86ZM770.034 218.257L776.422 236H779.134L785.522 218.257H782.784L777.816 232.426H777.766L772.797 218.257H770.034ZM787.125 218.257V236H797.999V233.567H789.736V228.041H797.289V225.709H789.736V220.69H797.999V218.257H787.125ZM807.052 218.257V236H809.638V222.692H809.689L815.24 236H816.33L821.906 222.692H821.957V236H824.542V218.257H821.323L815.823 231.666H815.772L810.272 218.257H807.052ZM827.979 230.195C827.979 234.15 830.286 236.38 834.443 236.38C838.575 236.38 840.932 234.15 840.932 230.195V218.257H838.321V230.069C838.321 232.654 837.028 233.947 834.443 233.947C831.883 233.947 830.59 232.629 830.59 230.018V218.257H827.979V230.195ZM843.139 230.145C843.621 234.175 846.206 236.38 850.49 236.38C854.216 236.38 856.776 234.378 856.776 231.412C856.776 228.573 855.103 227.027 850.515 225.506C847.499 224.568 846.561 223.858 846.561 222.667C846.561 221.222 847.803 220.284 849.755 220.284C851.859 220.284 853.177 221.4 853.735 223.605L856.269 223.047C855.991 221.476 855.281 220.234 854.09 219.296C852.898 218.358 851.453 217.876 849.755 217.876C846.358 217.876 843.976 219.853 843.976 222.667C843.976 225.126 845.395 226.444 849.654 227.838C853.126 228.953 854.191 229.815 854.191 231.463C854.191 232.984 852.771 233.972 850.541 233.972C847.575 233.972 846.08 232.654 845.699 229.638L843.139 230.145ZM859.074 218.257V236H861.685V218.257H859.074ZM864.236 227.128C864.236 232.73 867.202 236.38 871.79 236.38C873.742 236.38 875.339 235.797 876.581 234.606C877.823 233.415 878.532 231.767 878.71 229.714L876.099 229.334C875.77 232.375 874.299 233.947 871.79 233.947C868.723 233.947 866.847 231.387 866.847 227.128C866.847 222.895 868.723 220.31 871.79 220.31C874.147 220.31 875.617 221.78 876.099 224.543L878.659 224.112C878.203 220.36 875.44 217.876 871.79 217.876C867.253 217.876 864.236 221.577 864.236 227.128Z" fill="#0A0A0A"/>
<path d="M726.899 177.721L725.711 178.909L730.781 183.66L716.441 183.66L716.441 185.34L730.781 185.34L725.711 190.091L726.899 191.307L733.938 184.5L726.899 177.721Z" fill="#0A0A0A"/>
<path d="M989.541 177.721L988.353 178.909L993.423 183.66L979.083 183.66L979.083 185.34L993.423 185.34L988.353 190.091L989.541 191.307L996.581 184.5L989.541 177.721Z" fill="#0A0A0A"/>
<path d="M989.183 220.721L987.996 221.909L993.065 226.66L978.726 226.66L978.726 228.34L993.065 228.34L987.996 233.091L989.183 234.307L996.223 227.5L989.183 220.721Z" fill="#0A0A0A"/>
<path d="M726.541 220.721L725.353 221.909L730.423 226.66L716.083 226.66L716.083 228.34L730.423 228.34L725.353 233.091L726.541 234.307L733.581 227.5L726.541 220.721Z" fill="#0A0A0A"/>
<defs>
<linearGradient id="paint0_linear_326_176" x1="624.641" y1="0" x2="624.641" y2="287.878" gradientUnits="userSpaceOnUse">
<stop stop-color="white"/>
<stop offset="1" stop-color="#FFC1F9"/>
</linearGradient>
<linearGradient id="paint1_linear_326_176" x1="605.63" y1="137.906" x2="605.63" y2="51" gradientUnits="userSpaceOnUse">
<stop stop-color="#ED68E0"/>
<stop offset="1" stop-color="#8C1DF7"/>
</linearGradient>
</defs>
</svg>
