<svg width="1250" height="288" viewBox="0 0 1250 288" fill="none" xmlns="http://www.w3.org/2000/svg">
<path fill-rule="evenodd" clip-rule="evenodd" d="M0 18.1055C0 8.10612 8.10612 0 18.1055 0H1231.18C1241.18 0 1249.28 8.10612 1249.28 18.1055V103.251C1248.98 103.218 1248.68 103.202 1248.38 103.202C1243.88 103.202 1240.23 106.849 1240.23 111.349C1240.23 115.849 1243.88 119.496 1248.38 119.496C1248.68 119.496 1248.98 119.48 1249.28 119.447V124.978C1248.98 124.945 1248.68 124.928 1248.38 124.928C1243.88 124.928 1240.23 128.576 1240.23 133.076C1240.23 137.575 1243.88 141.223 1248.38 141.223C1248.68 141.223 1248.98 141.206 1249.28 141.174V146.705C1248.98 146.672 1248.68 146.655 1248.38 146.655C1243.88 146.655 1240.23 150.303 1240.23 154.802C1240.23 159.302 1243.88 162.95 1248.38 162.95C1248.68 162.95 1248.98 162.933 1249.28 162.9V168.431C1248.98 168.398 1248.68 168.381 1248.38 168.381C1243.88 168.381 1240.23 172.029 1240.23 176.529C1240.23 181.029 1243.88 184.676 1248.38 184.676C1248.68 184.676 1248.98 184.659 1249.28 184.627V269.772C1249.28 279.772 1241.18 287.878 1231.18 287.878H18.1054C8.10604 287.878 0 279.772 0 269.772V184.627C4.07379 184.176 7.24241 180.723 7.24241 176.529C7.24241 172.335 4.07379 168.881 0 168.431V162.9C4.07379 162.45 7.24241 158.996 7.24241 154.802C7.24241 150.609 4.07379 147.155 0 146.705V141.173C4.07379 140.723 7.24241 137.269 7.24241 133.076C7.24241 128.882 4.07379 125.428 0 124.978V119.447C4.07375 118.997 7.24232 115.543 7.24232 111.349C7.24232 107.155 4.07375 103.702 0 103.251V18.1055Z" fill="url(#paint0_linear_326_175)"/>
<path d="M95.343 211.2C96.5706 222.105 103.576 228.316 114.553 228.316C124.735 228.316 131.596 222.177 131.596 213.511C131.596 207.662 128.562 202.968 123.652 201.018V200.873C127.696 198.924 130.296 195.168 130.296 190.908C130.296 183.108 123.724 177.764 114.264 177.764C104.659 177.764 97.7261 183.108 96.4984 191.557L103.431 192.713C104.298 187.441 108.414 184.264 114.264 184.264C119.824 184.264 123.218 187.08 123.218 191.63C123.218 195.674 119.03 198.707 113.469 198.707H109.642V204.629H113.686C120.908 204.629 124.518 207.517 124.518 213.295C124.518 218.422 120.619 221.744 114.553 221.744C107.259 221.744 103.359 217.989 102.276 209.973L95.343 211.2ZM139.118 231.999V235.826C145.257 235.321 148.507 231.999 148.507 226.149V218.278H138.757V227.305H142.729C142.729 230.121 141.718 231.421 139.118 231.999ZM180.014 217.916V227.305H187.091V217.916H193.518V211.345H187.091V178.775H176.186L154.883 211.345V217.916H180.014ZM180.014 211.345H162.032L179.869 184.119H180.014V211.345ZM254.968 224.488L259.229 219.433L252.657 213.656V198.274H245.869V207.734L231.065 194.807C227.959 192.207 227.02 190.402 227.02 188.019C227.02 184.552 229.692 182.242 233.737 182.242C237.853 182.242 240.236 184.264 241.03 188.597L248.035 187.513C247.097 180.22 241.608 175.67 233.737 175.67C225.721 175.67 219.943 180.797 219.943 187.802C219.943 191.774 221.676 195.024 225.721 198.851C219.366 202.607 215.899 207.951 215.899 213.511C215.899 222.827 222.615 228.388 233.664 228.388C241.68 228.388 247.385 225.644 250.491 220.516L254.968 224.488ZM245.075 215.822C243.558 219.65 239.514 221.744 233.737 221.744C227.02 221.744 222.976 218.494 222.976 213.222C222.976 209.25 225.504 205.856 230.487 203.04L245.075 215.822ZM279.763 214.522C281.857 223.26 288.717 228.316 298.756 228.316C309.805 228.316 317.387 221.311 317.387 211.128C317.387 201.523 310.021 194.518 299.839 194.518C295.434 194.518 291.751 195.602 288.79 197.696L288.645 197.551L291.101 185.347H312.838V178.775H285.612L280.846 203.618L287.273 205.351C290.595 202.101 294.423 200.512 298.756 200.512C305.688 200.512 310.31 204.917 310.31 211.056C310.31 217.483 305.616 221.744 298.756 221.744C291.895 221.744 288.068 218.711 286.551 212.572L279.763 214.522ZM332.469 195.385H341.857V189.03H332.469V180.075H325.392V189.03H319.398V195.385H325.392V217.339C325.392 224.633 328.209 227.305 335.936 227.305H340.052V220.588H336.586C333.48 220.588 332.469 219.722 332.469 217.194V195.385ZM346.733 174.587V227.305H353.81V203.69C353.81 198.201 357.421 194.518 362.91 194.518C368.398 194.518 371.648 197.985 371.648 203.69V227.305H378.725V202.39C378.725 193.652 373.02 187.947 364.282 187.947C360.238 187.947 356.194 189.752 353.955 192.424H353.81V174.587H346.733ZM404.881 176.753V227.305H412.32V206.506H434.057V199.935H412.32V183.686H435.934V176.753H404.881ZM438.49 208.167C438.49 220.227 445.712 228.388 456.328 228.388C463.622 228.388 469.254 225.138 472.649 218.783L467.16 215.1C463.983 220.227 461.094 222.105 456.255 222.105C453.15 222.105 450.623 221.022 448.673 218.783C446.723 216.544 445.712 213.656 445.64 210.262H473.587V207.301C473.587 195.818 466.655 187.947 456.255 187.947C445.784 187.947 438.49 196.252 438.49 208.167ZM466.582 204.845H445.784C445.929 199.068 450.478 194.229 456.255 194.229C462.322 194.229 466.294 198.562 466.582 204.845ZM486.323 223.622C488.707 226.582 492.895 228.388 497.589 228.388C507.483 228.388 514.704 220.011 514.704 208.167C514.704 196.324 507.483 187.947 497.517 187.947C493.184 187.947 489.284 189.68 486.757 192.496H486.612V174.587H479.535V227.305H486.179V223.622H486.323ZM507.627 208.167C507.627 216.544 503.366 221.816 496.723 221.816C491.09 221.816 486.612 217.194 486.612 211.489V204.773C486.612 199.14 491.162 194.518 496.939 194.518C503.511 194.518 507.627 199.79 507.627 208.167ZM520.617 189.03V227.305H527.694V205.062C527.694 198.418 529.933 195.385 534.338 195.385C535.493 195.385 536.793 195.602 538.31 196.035L539.682 188.958C538.237 188.597 536.793 188.38 535.421 188.38C531.882 188.38 528.922 189.824 527.405 192.207H527.261V189.03H520.617ZM542.992 213.945C542.992 223.116 547.975 228.388 556.569 228.388C560.974 228.388 565.163 226.727 567.474 223.91H567.69V227.305H574.479V189.03H567.402V212.645C567.402 218.205 563.935 221.816 558.663 221.816C552.886 221.816 550.07 218.783 550.07 212.645V189.03H542.992V213.945ZM580.534 217.339C580.534 224.055 585.517 228.388 593.1 228.388C597.794 228.388 601.766 226.582 603.86 223.622H604.004V227.305H610.504V201.018C610.504 192.93 605.016 187.947 596.133 187.947C592.017 187.947 588.478 189.102 585.589 191.341C582.773 193.58 581.04 196.54 580.39 200.296L587.25 201.74C588.189 196.901 591.439 194.157 596.133 194.157C600.466 194.157 603.138 196.179 603.138 199.285C603.138 202.101 600.971 203.473 594.039 205.206C584.289 207.517 580.534 210.911 580.534 217.339ZM603.499 214.378C603.499 218.783 599.527 222.033 593.966 222.033C589.706 222.033 587.467 220.155 587.467 216.905C587.467 214.017 589.778 212.356 595.844 210.839C600.466 209.612 602.705 208.456 603.355 206.795H603.499V214.378ZM617.485 189.03V227.305H624.562V205.062C624.562 198.418 626.801 195.385 631.206 195.385C632.362 195.385 633.662 195.602 635.178 196.035L636.55 188.958C635.106 188.597 633.662 188.38 632.29 188.38C628.751 188.38 625.79 189.824 624.274 192.207H624.129V189.03H617.485ZM651.627 224.416L643.683 243.553H650.977L673.725 189.03H666.287L655.31 216.255H655.166L644.333 189.03H636.895L651.627 224.416ZM671.209 231.999V235.826C677.348 235.321 680.597 231.999 680.597 226.149V218.278H670.848V227.305H674.82C674.82 230.121 673.809 231.421 671.209 231.999ZM715.127 183.686V227.305H722.565V183.686H737.875V176.753H699.673V183.686H715.127ZM733.368 217.339C733.368 224.055 738.351 228.388 745.933 228.388C750.627 228.388 754.599 226.582 756.694 223.622H756.838V227.305H763.337V201.018C763.337 192.93 757.849 187.947 748.966 187.947C744.85 187.947 741.311 189.102 738.423 191.341C735.606 193.58 733.873 196.54 733.223 200.296L740.084 201.74C741.023 196.901 744.272 194.157 748.966 194.157C753.299 194.157 755.971 196.179 755.971 199.285C755.971 202.101 753.805 203.473 746.872 205.206C737.123 207.517 733.368 210.911 733.368 217.339ZM756.332 214.378C756.332 218.783 752.361 222.033 746.8 222.033C742.539 222.033 740.3 220.155 740.3 216.905C740.3 214.017 742.611 212.356 748.678 210.839C753.299 209.612 755.538 208.456 756.188 206.795H756.332V214.378ZM771.619 234.598C774.435 240.881 780.429 244.636 787.723 244.636C797.544 244.636 804.044 237.993 804.044 228.171V189.03H797.111V192.713H796.967C794.439 189.752 790.395 188.019 786.062 188.019C776.096 188.019 768.874 196.396 768.874 208.167C768.874 220.011 775.952 228.388 785.99 228.388C790.828 228.388 794.872 226.582 796.967 223.622H797.111V227.81C797.111 234.237 793.572 238.209 787.723 238.209C782.884 238.209 780.14 236.332 777.613 231.204L771.619 234.598ZM796.967 211.489C796.967 217.194 792.489 221.816 786.856 221.816C780.212 221.816 775.952 216.544 775.952 208.167C775.952 199.862 780.212 194.591 786.64 194.591C792.417 194.591 796.967 199.212 796.967 204.917V211.489ZM809.603 208.167C809.603 220.227 816.969 228.388 827.874 228.388C838.779 228.388 846.145 220.227 846.145 208.167C846.145 196.107 838.779 187.947 827.874 187.947C816.969 187.947 809.603 196.107 809.603 208.167ZM839.068 208.167C839.068 216.544 834.807 221.816 827.874 221.816C820.941 221.816 816.681 216.544 816.681 208.167C816.681 199.79 820.941 194.518 827.874 194.518C834.807 194.518 839.068 199.79 839.068 208.167ZM852.059 189.03V227.305H859.136V205.062C859.136 198.418 861.375 195.385 865.78 195.385C866.935 195.385 868.235 195.602 869.752 196.035L871.124 188.958C869.679 188.597 868.235 188.38 866.863 188.38C863.324 188.38 860.364 189.824 858.847 192.207H858.703V189.03H852.059ZM871.526 208.167C871.526 220.227 878.748 228.388 889.363 228.388C896.657 228.388 902.29 225.138 905.684 218.783L900.196 215.1C897.018 220.227 894.13 222.105 889.291 222.105C886.186 222.105 883.658 221.022 881.709 218.783C879.759 216.544 878.748 213.656 878.675 210.262H906.623V207.301C906.623 195.818 899.69 187.947 889.291 187.947C878.82 187.947 871.526 196.252 871.526 208.167ZM899.618 204.845H878.82C878.964 199.068 883.514 194.229 889.291 194.229C895.357 194.229 899.329 198.562 899.618 204.845ZM937.886 183.686V227.305H945.324V183.686H960.634V176.753H922.432V183.686H937.886ZM964.691 174.587V227.305H971.768V203.69C971.768 198.201 975.379 194.518 980.867 194.518C986.356 194.518 989.605 197.985 989.605 203.69V227.305H996.683V202.39C996.683 193.652 990.978 187.947 982.239 187.947C978.195 187.947 974.151 189.752 971.912 192.424H971.768V174.587H964.691ZM1002.21 208.167C1002.21 220.227 1009.43 228.388 1020.05 228.388C1027.34 228.388 1032.98 225.138 1036.37 218.783L1030.88 215.1C1027.7 220.227 1024.82 222.105 1019.98 222.105C1016.87 222.105 1014.34 221.022 1012.39 218.783C1010.44 216.544 1009.43 213.656 1009.36 210.262H1037.31V207.301C1037.31 195.818 1030.38 187.947 1019.98 187.947C1009.51 187.947 1002.21 196.252 1002.21 208.167ZM1030.3 204.845H1009.51C1009.65 199.068 1014.2 194.229 1019.98 194.229C1026.04 194.229 1030.02 198.562 1030.3 204.845ZM1041.25 217.339C1041.25 224.055 1046.23 228.388 1053.82 228.388C1058.51 228.388 1062.48 226.582 1064.58 223.622H1064.72V227.305H1071.22V201.018C1071.22 192.93 1065.73 187.947 1056.85 187.947C1052.73 187.947 1049.2 189.102 1046.31 191.341C1043.49 193.58 1041.76 196.54 1041.11 200.296L1047.97 201.74C1048.91 196.901 1052.16 194.157 1056.85 194.157C1061.18 194.157 1063.86 196.179 1063.86 199.285C1063.86 202.101 1061.69 203.473 1054.76 205.206C1045.01 207.517 1041.25 210.911 1041.25 217.339ZM1064.22 214.378C1064.22 218.783 1060.24 222.033 1054.68 222.033C1050.42 222.033 1048.18 220.155 1048.18 216.905C1048.18 214.017 1050.5 212.356 1056.56 210.839C1061.18 209.612 1063.42 208.456 1064.07 206.795H1064.22V214.378ZM1087.32 195.385H1096.71V189.03H1087.32V180.075H1080.24V189.03H1074.25V195.385H1080.24V217.339C1080.24 224.633 1083.06 227.305 1090.79 227.305H1094.9V220.588H1091.44C1088.33 220.588 1087.32 219.722 1087.32 217.194V195.385ZM1101.58 189.03V227.305H1108.66V205.062C1108.66 198.418 1110.9 195.385 1115.3 195.385C1116.46 195.385 1117.76 195.602 1119.28 196.035L1120.65 188.958C1119.2 188.597 1117.76 188.38 1116.39 188.38C1112.85 188.38 1109.89 189.824 1108.37 192.207H1108.23V189.03H1101.58ZM1121.05 208.167C1121.05 220.227 1128.27 228.388 1138.89 228.388C1146.18 228.388 1151.81 225.138 1155.21 218.783L1149.72 215.1C1146.54 220.227 1143.65 222.105 1138.82 222.105C1135.71 222.105 1133.18 221.022 1131.23 218.783C1129.28 216.544 1128.27 213.656 1128.2 210.262H1156.15V207.301C1156.15 195.818 1149.21 187.947 1138.82 187.947C1128.34 187.947 1121.05 196.252 1121.05 208.167ZM1149.14 204.845H1128.34C1128.49 199.068 1133.04 194.229 1138.82 194.229C1144.88 194.229 1148.85 198.562 1149.14 204.845Z" fill="#0A0A0A"/>
<path d="M306.172 141.762C295.241 141.762 285.622 139.744 277.316 135.709C269.01 131.673 262.604 126.208 258.098 119.312C253.593 112.416 251.34 104.776 251.34 96.3919C251.34 87.8507 253.573 80.2302 258.04 73.5304C262.545 66.7915 268.951 61.5218 277.257 57.7214C285.564 53.8817 295.241 51.9619 306.29 51.9619C317.26 51.9619 326.879 53.8817 335.146 57.7214C343.452 61.5218 349.838 66.7915 354.305 73.5304C358.81 80.2302 361.063 87.8507 361.063 96.3919C361.063 104.816 358.791 112.475 354.246 119.371C349.74 126.267 343.334 131.732 335.028 135.768C326.722 139.764 317.103 141.762 306.172 141.762ZM306.172 117.314C310.678 117.314 314.635 116.452 318.044 114.728C321.452 112.965 324.077 110.516 325.919 107.382C327.76 104.247 328.681 100.662 328.681 96.627C328.681 92.6306 327.76 89.1044 325.919 86.0484C324.077 82.9924 321.452 80.622 318.044 78.9373C314.635 77.2525 310.678 76.4102 306.172 76.4102C301.627 76.4102 297.651 77.2525 294.242 78.9373C290.833 80.622 288.189 82.9924 286.308 86.0484C284.466 89.1044 283.546 92.6306 283.546 96.627C283.546 100.662 284.466 104.247 286.308 107.382C288.189 110.516 290.833 112.965 294.242 114.728C297.651 116.452 301.627 117.314 306.172 117.314ZM442.511 114.434V139H365.111V54.7241H395.201V114.434H442.511ZM503.154 122.897H471.536L466.306 139H436.568L466.306 54.7241H509.384L538.886 139H508.326L503.154 122.897ZM497.689 106.03L487.345 73.883L476.943 106.03H497.689ZM636.555 139L632.617 79.525L614.516 139H584.309L567.794 81.9933L564.444 139H536.881L542.171 54.7241H586.365L600.647 101.975L615.398 54.7241H659.416L665.822 139H636.555ZM761.72 120.488V139H692.96V122.897L715.88 108.792C719.916 106.442 723.069 104.306 725.342 102.386C727.614 100.427 729.221 98.5272 730.161 96.6857C731.141 94.8443 731.63 92.8265 731.63 90.6324C731.63 87.2238 730.377 84.5204 727.869 82.5222C725.401 80.524 721.757 79.525 716.938 79.525C712.511 79.525 708.142 80.3477 703.832 81.9933C699.562 83.6388 695.898 85.7546 692.842 88.3404V65.9491C702.206 59.8371 712.961 56.781 725.107 56.781C732.512 56.781 738.879 57.9173 744.207 60.1897C749.575 62.4621 753.669 65.6945 756.49 69.8867C759.311 74.0398 760.721 78.8981 760.721 84.4616C760.721 90.3778 758.821 95.8238 755.021 100.8C751.22 105.775 745.265 110.653 737.155 115.433L728.633 120.488H761.72ZM807.201 141.174C798.66 141.174 791.098 139.411 784.516 135.885C777.934 132.359 772.821 127.442 769.177 121.134C765.573 114.787 763.77 107.539 763.77 99.3891C763.77 91.1222 765.573 83.7564 769.177 77.2917C772.821 70.827 777.934 65.7924 784.516 62.1879C791.098 58.5833 798.66 56.781 807.201 56.781C815.899 56.781 823.52 58.5833 830.063 62.1879C836.645 65.7924 841.719 70.827 845.284 77.2917C848.849 83.7564 850.632 91.1614 850.632 99.5067C850.632 107.656 848.849 114.885 845.284 121.193C841.719 127.501 836.645 132.418 830.063 135.944C823.52 139.431 815.899 141.174 807.201 141.174ZM807.201 118.548C811.903 118.548 815.507 116.844 818.015 113.435C820.522 110.026 821.776 105.384 821.776 99.5067C821.776 93.3946 820.522 88.5167 818.015 84.873C815.507 81.2293 811.903 79.4074 807.201 79.4074C804.145 79.4074 801.52 80.2498 799.326 81.9345C797.171 83.5801 795.506 85.9113 794.331 88.9281C793.194 91.9058 792.626 95.3928 792.626 99.3891C792.626 105.305 793.9 109.987 796.446 113.435C799.032 116.844 802.617 118.548 807.201 118.548ZM922.148 120.488V139H853.387V122.897L876.307 108.792C880.343 106.442 883.497 104.306 885.769 102.386C888.042 100.427 889.648 98.5272 890.589 96.6857C891.568 94.8443 892.058 92.8265 892.058 90.6324C892.058 87.2238 890.804 84.5204 888.296 82.5222C885.828 80.524 882.184 79.525 877.365 79.525C872.938 79.525 868.569 80.3477 864.26 81.9933C859.989 83.6388 856.326 85.7546 853.27 88.3404V65.9491C862.634 59.8371 873.389 56.781 885.534 56.781C892.939 56.781 899.306 57.9173 904.634 60.1897C910.002 62.4621 914.096 65.6945 916.917 69.8867C919.738 74.0398 921.149 78.8981 921.149 84.4616C921.149 90.3778 919.249 95.8238 915.448 100.8C911.648 105.775 905.692 110.653 897.582 115.433L889.06 120.488H922.148ZM978.207 95.9217C984.28 97.1363 988.903 99.5263 992.077 103.092C995.29 106.657 996.896 111.045 996.896 116.256C996.896 121.154 995.27 125.503 992.018 129.303C988.805 133.064 984.221 135.983 978.266 138.06C972.311 140.136 965.395 141.174 957.52 141.174C950.938 141.174 944.963 140.508 939.596 139.176C934.267 137.883 929.605 136.101 925.608 133.828V116.726C928.194 118.333 931.662 119.704 936.011 120.84C940.399 121.937 945.355 122.486 950.879 122.486C956.051 122.486 959.969 121.722 962.633 120.194C965.337 118.666 966.688 116.55 966.688 113.847C966.688 109.262 962.829 106.97 955.111 106.97H932.132L935.717 90.9851H953.818C958.049 90.9851 961.066 90.3974 962.868 89.222C964.671 88.0074 965.572 86.3031 965.572 84.109C965.572 81.8366 964.357 80.0735 961.928 78.8197C959.499 77.5268 955.738 76.8803 950.644 76.8803C945.355 76.8803 940.516 77.4876 936.128 78.7022C931.779 79.9168 928.312 81.3664 925.726 83.0511V63.1869C929.996 61.1888 934.914 59.6216 940.477 58.4854C946.08 57.3491 951.918 56.781 957.99 56.781C965.709 56.781 972.311 57.7409 977.796 59.6608C983.281 61.5414 987.434 64.1469 990.255 67.4771C993.076 70.8074 994.487 74.5883 994.487 78.8197C994.487 83.1687 993.096 86.8516 990.314 89.8684C987.571 92.8853 983.536 94.9031 978.207 95.9217Z" fill="#0A0A0A"/>
<defs>
<linearGradient id="paint0_linear_326_175" x1="624.641" y1="0" x2="624.641" y2="287.878" gradientUnits="userSpaceOnUse">
<stop stop-color="white"/>
<stop offset="1" stop-color="#FFC1F9"/>
</linearGradient>
</defs>
</svg>
