<svg width="1007" height="254" viewBox="0 0 1007 254" fill="none" xmlns="http://www.w3.org/2000/svg">
<path fill-rule="evenodd" clip-rule="evenodd" d="M0 14.5912C0 6.5327 6.5327 0 14.5912 0H992.201C1000.26 0 1006.79 6.5327 1006.79 14.5912V94.2098C1006.55 94.1834 1006.31 94.1698 1006.06 94.1698C1002.44 94.1698 999.498 97.1096 999.498 100.736C999.498 104.362 1002.44 107.302 1006.06 107.302C1006.31 107.302 1006.55 107.288 1006.79 107.262V111.719C1006.55 111.693 1006.31 111.679 1006.06 111.679C1002.44 111.679 999.498 114.619 999.498 118.245C999.498 121.872 1002.44 124.811 1006.06 124.811C1006.31 124.811 1006.55 124.798 1006.79 124.771V129.229C1006.55 129.203 1006.31 129.189 1006.06 129.189C1002.44 129.189 999.498 132.129 999.498 135.755C999.498 139.381 1002.44 142.321 1006.06 142.321C1006.31 142.321 1006.55 142.308 1006.79 142.281V146.738C1006.55 146.712 1006.31 146.698 1006.06 146.698C1002.44 146.698 999.498 149.638 999.498 153.264C999.498 156.891 1002.44 159.83 1006.06 159.83C1006.31 159.83 1006.55 159.817 1006.79 159.79V239.409C1006.79 247.467 1000.26 254 992.201 254H14.5912C6.5327 254 0 247.467 0 239.409V162.9C3.28307 162.502 5.83667 159.455 5.83667 155.755C5.83667 152.054 3.28307 149.007 0 148.61V143.73C3.28307 143.333 5.83667 140.285 5.83667 136.585C5.83667 132.885 3.28307 129.838 0 129.44V124.56C3.28307 124.163 5.83667 121.115 5.83667 117.415C5.83667 113.715 3.28307 110.668 0 110.27V105.39C3.28307 104.993 5.83667 101.946 5.83667 98.2453C5.83667 94.545 3.28307 91.4977 0 91.1004V14.5912Z" fill="url(#paint0_linear_406_494)"/>
<path d="M37.1692 132.261V173H43.1637V156.239H60.6816V150.943H43.1637V137.848H62.1948V132.261H37.1692ZM64.2545 157.577C64.2545 167.296 70.0744 173.873 78.6297 173.873C84.5077 173.873 89.0473 171.254 91.7826 166.133L87.3595 163.164C84.7987 167.296 82.4708 168.81 78.5715 168.81C76.0689 168.81 74.0319 167.937 72.4606 166.133C70.8892 164.328 70.0744 162 70.0162 159.265H92.5392V156.879C92.5392 147.625 86.9521 141.282 78.5715 141.282C70.1326 141.282 64.2545 147.974 64.2545 157.577ZM86.8939 154.9H70.1326C70.249 150.244 73.9155 146.345 78.5715 146.345C83.4602 146.345 86.6611 149.837 86.8939 154.9ZM102.803 170.032C104.724 172.418 108.099 173.873 111.882 173.873C119.855 173.873 125.675 167.122 125.675 157.577C125.675 148.033 119.855 141.282 111.824 141.282C108.332 141.282 105.189 142.678 103.152 144.948H103.036V130.515H97.3324V173H102.687V170.032H102.803ZM119.972 157.577C119.972 164.328 116.538 168.577 111.184 168.577C106.644 168.577 103.036 164.852 103.036 160.254V154.842C103.036 150.302 106.702 146.578 111.358 146.578C116.654 146.578 119.972 150.826 119.972 157.577ZM130.44 142.155V173H136.143V155.075C136.143 149.72 137.948 147.276 141.498 147.276C142.429 147.276 143.476 147.451 144.699 147.8L145.804 142.096C144.64 141.805 143.476 141.631 142.371 141.631C139.519 141.631 137.133 142.795 135.911 144.715H135.794V142.155H130.44ZM148.473 162.233C148.473 169.624 152.488 173.873 159.414 173.873C162.964 173.873 166.34 172.534 168.202 170.265H168.377V173H173.847V142.155H168.144V161.186C168.144 165.667 165.35 168.577 161.102 168.577C156.446 168.577 154.176 166.133 154.176 161.186V142.155H148.473V162.233ZM178.727 164.969C178.727 170.381 182.743 173.873 188.854 173.873C192.637 173.873 195.838 172.418 197.526 170.032H197.642V173H202.88V151.816C202.88 145.297 198.457 141.282 191.298 141.282C187.981 141.282 185.129 142.213 182.801 144.017C180.532 145.821 179.135 148.207 178.611 151.234L184.14 152.398C184.896 148.498 187.515 146.287 191.298 146.287C194.79 146.287 196.944 147.916 196.944 150.419C196.944 152.689 195.198 153.794 189.611 155.191C181.754 157.053 178.727 159.789 178.727 164.969ZM197.235 162.582C197.235 166.133 194.034 168.751 189.552 168.751C186.119 168.751 184.314 167.238 184.314 164.619C184.314 162.291 186.177 160.953 191.066 159.731C194.79 158.741 196.594 157.81 197.118 156.471H197.235V162.582ZM208.506 142.155V173H214.21V155.075C214.21 149.72 216.014 147.276 219.564 147.276C220.495 147.276 221.543 147.451 222.765 147.8L223.871 142.096C222.707 141.805 221.543 141.631 220.437 141.631C217.585 141.631 215.199 142.795 213.977 144.715H213.86V142.155H208.506ZM236.021 170.672L229.619 186.095H235.497L253.83 142.155H247.835L238.989 164.096H238.873L230.143 142.155H224.148L236.021 170.672ZM269.837 160.022C270.826 168.81 276.472 173.815 285.318 173.815C293.524 173.815 299.053 168.868 299.053 161.884C299.053 157.17 296.608 153.387 292.651 151.816V151.699C295.91 150.128 298.005 147.101 298.005 143.668C298.005 137.382 292.709 133.075 285.085 133.075C277.345 133.075 271.758 137.382 270.768 144.192L276.355 145.123C277.054 140.874 280.371 138.313 285.085 138.313C289.566 138.313 292.302 140.583 292.302 144.25C292.302 147.509 288.926 149.953 284.445 149.953H281.36V154.726H284.619C290.439 154.726 293.349 157.053 293.349 161.709C293.349 165.842 290.207 168.519 285.318 168.519C279.44 168.519 276.297 165.492 275.424 159.032L269.837 160.022ZM305.116 176.783V179.867C310.062 179.46 312.681 176.783 312.681 172.069V165.725H304.825V173H308.025C308.025 175.27 307.211 176.317 305.116 176.783ZM338.073 165.434V173H343.776V165.434H348.956V160.138H343.776V133.89H334.988L317.82 160.138V165.434H338.073ZM338.073 160.138H323.581L337.957 138.197H338.073V160.138ZM354.905 176.783V179.867C359.852 179.46 362.471 176.783 362.471 172.069V165.725H354.614V173H357.815C357.815 175.27 357 176.317 354.905 176.783ZM367.534 162.699C369.222 169.741 374.751 173.815 382.84 173.815C391.745 173.815 397.856 168.169 397.856 159.963C397.856 152.223 391.919 146.578 383.713 146.578C380.163 146.578 377.195 147.451 374.809 149.138L374.692 149.022L376.671 139.186H394.189V133.89H372.248L368.407 153.911L373.587 155.308C376.264 152.689 379.348 151.408 382.84 151.408C388.427 151.408 392.152 154.958 392.152 159.905C392.152 165.085 388.369 168.519 382.84 168.519C377.311 168.519 374.227 166.074 373.005 161.127L367.534 162.699Z" fill="#0A0A0A"/>
<path d="M34.1863 205.2V222H40.4023C44.3623 222 46.4503 220.296 46.4503 216.96C46.4503 215.064 45.4903 213.6 43.9543 213V212.952C45.1063 212.376 45.8263 211.128 45.8263 209.592C45.8263 207 43.7863 205.2 40.9063 205.2H34.1863ZM40.4983 212.184H36.6583V207.48H40.4983C42.3943 207.48 43.3543 208.272 43.3543 209.808C43.3543 211.392 42.3943 212.184 40.4983 212.184ZM40.4023 219.72H36.6583V214.272H40.4503C42.9223 214.272 43.9783 215.088 43.9783 216.936C43.9783 218.88 42.8983 219.72 40.4023 219.72ZM47.9338 215.64C47.9338 219.648 50.3818 222.36 54.0058 222.36C57.6298 222.36 60.0778 219.648 60.0778 215.64C60.0778 211.632 57.6298 208.92 54.0058 208.92C50.3818 208.92 47.9338 211.632 47.9338 215.64ZM57.7258 215.64C57.7258 218.424 56.3098 220.176 54.0058 220.176C51.7018 220.176 50.2858 218.424 50.2858 215.64C50.2858 212.856 51.7018 211.104 54.0058 211.104C56.3098 211.104 57.7258 212.856 57.7258 215.64ZM61.5632 215.64C61.5632 219.648 64.0112 222.36 67.6352 222.36C71.2592 222.36 73.7072 219.648 73.7072 215.64C73.7072 211.632 71.2592 208.92 67.6352 208.92C64.0112 208.92 61.5632 211.632 61.5632 215.64ZM71.3552 215.64C71.3552 218.424 69.9392 220.176 67.6352 220.176C65.3312 220.176 63.9152 218.424 63.9152 215.64C63.9152 212.856 65.3312 211.104 67.6352 211.104C69.9392 211.104 71.3552 212.856 71.3552 215.64ZM75.6726 204.48V222H78.0246V217.896L79.8726 215.88H79.9206L83.7126 222H86.4486L81.4806 214.248L86.1606 209.28H82.9926L78.0726 214.656H78.0246V204.48H75.6726ZM96.4532 221.04L93.8132 227.4H96.2372L103.797 209.28H101.325L97.6772 218.328H97.6292L94.0292 209.28H91.5572L96.4532 221.04ZM103.753 215.64C103.753 219.648 106.201 222.36 109.825 222.36C113.449 222.36 115.897 219.648 115.897 215.64C115.897 211.632 113.449 208.92 109.825 208.92C106.201 208.92 103.753 211.632 103.753 215.64ZM113.545 215.64C113.545 218.424 112.129 220.176 109.825 220.176C107.521 220.176 106.105 218.424 106.105 215.64C106.105 212.856 107.521 211.104 109.825 211.104C112.129 211.104 113.545 212.856 113.545 215.64ZM117.622 217.56C117.622 220.608 119.278 222.36 122.134 222.36C123.598 222.36 124.99 221.808 125.758 220.872H125.83V222H128.086V209.28H125.734V217.128C125.734 218.976 124.582 220.176 122.83 220.176C120.91 220.176 119.974 219.168 119.974 217.128V209.28H117.622V217.56ZM130.53 209.28V222H132.882V214.608C132.882 212.4 133.626 211.392 135.09 211.392C135.474 211.392 135.906 211.464 136.41 211.608L136.866 209.256C136.386 209.136 135.906 209.064 135.45 209.064C134.274 209.064 133.29 209.544 132.786 210.336H132.738V209.28H130.53ZM146.897 211.392H150.017V209.28H146.897V206.304H144.545V209.28H142.553V211.392H144.545V218.688C144.545 221.112 145.481 222 148.049 222H149.417V219.768H148.265C147.233 219.768 146.897 219.48 146.897 218.64V211.392ZM151.637 209.28V222H153.989V209.28H151.637ZM151.517 204.6V207.072H154.085V204.6H151.517ZM155.927 215.64C155.927 219.624 158.375 222.36 161.903 222.36C163.367 222.36 164.615 221.952 165.623 221.112C166.655 220.272 167.279 219.12 167.495 217.704L165.239 217.248C164.879 219.144 163.703 220.176 161.903 220.176C159.695 220.176 158.279 218.424 158.279 215.64C158.279 212.856 159.695 211.104 161.903 211.104C163.703 211.104 164.927 212.184 165.239 214.032L167.495 213.576C167.279 212.16 166.655 211.032 165.623 210.192C164.615 209.352 163.367 208.92 161.903 208.92C158.375 208.92 155.927 211.656 155.927 215.64ZM169.334 204.48V222H171.686V217.896L173.534 215.88H173.582L177.374 222H180.11L175.142 214.248L179.822 209.28H176.654L171.734 214.656H171.686V204.48H169.334ZM180.233 215.64C180.233 219.648 182.633 222.36 186.161 222.36C188.585 222.36 190.457 221.28 191.585 219.168L189.761 217.944C188.705 219.648 187.745 220.272 186.137 220.272C185.105 220.272 184.265 219.912 183.617 219.168C182.969 218.424 182.633 217.464 182.609 216.336H191.897V215.352C191.897 211.536 189.593 208.92 186.137 208.92C182.657 208.92 180.233 211.68 180.233 215.64ZM189.569 214.536H182.657C182.705 212.616 184.217 211.008 186.137 211.008C188.153 211.008 189.473 212.448 189.569 214.536ZM196.903 211.392H200.023V209.28H196.903V206.304H194.551V209.28H192.559V211.392H194.551V218.688C194.551 221.112 195.487 222 198.055 222H199.423V219.768H198.271C197.239 219.768 196.903 219.48 196.903 218.64V211.392ZM200.455 217.728C200.815 220.704 202.903 222.36 206.191 222.36C209.095 222.36 211.015 220.896 211.015 218.616C211.015 216.408 209.551 215.352 206.215 214.368C204.079 213.768 203.359 213.36 203.359 212.568C203.359 211.632 204.271 211.008 205.639 211.008C207.103 211.008 208.063 211.752 208.495 213.264L210.703 212.688C210.199 210.384 208.207 208.92 205.639 208.92C203.023 208.92 201.079 210.504 201.079 212.616C201.079 214.56 202.375 215.496 205.447 216.36C207.871 217.104 208.711 217.584 208.711 218.712C208.711 219.672 207.751 220.272 206.191 220.272C204.079 220.272 203.071 219.384 202.663 217.248L200.455 217.728Z" fill="#0A0A0A"/>
<path d="M32.2423 224.88H211.759V227.04H32.2423V224.88Z" fill="#0A0A0A"/>
<path d="M63.1364 103.461C57.3542 103.461 52.2664 102.394 47.8728 100.259C43.4791 98.1245 40.0907 95.2334 37.7074 91.5859C35.324 87.9384 34.1324 83.8971 34.1324 79.462C34.1324 74.9441 35.3137 70.9131 37.6763 67.3692C40.0596 63.8046 43.4481 61.0171 47.8417 59.0069C52.2353 56.9759 57.3542 55.9604 63.1986 55.9604C69.0015 55.9604 74.0893 56.9759 78.4622 59.0069C82.8558 61.0171 86.2339 63.8046 88.5965 67.3692C90.9799 70.9131 92.1715 74.9441 92.1715 79.462C92.1715 83.9178 90.9695 87.9695 88.5655 91.617C86.1821 95.2645 82.7937 98.1556 78.4001 100.29C74.0064 102.404 68.9186 103.461 63.1364 103.461ZM63.1364 90.5289C65.5197 90.5289 67.6129 90.073 69.416 89.1611C71.219 88.2285 72.6075 86.9332 73.5816 85.2753C74.5556 83.6173 75.0427 81.721 75.0427 79.5864C75.0427 77.4725 74.5556 75.6073 73.5816 73.9907C72.6075 72.3742 71.219 71.1204 69.416 70.2292C67.6129 69.3381 65.5197 68.8925 63.1364 68.8925C60.7324 68.8925 58.6288 69.3381 56.8258 70.2292C55.0227 71.1204 53.6238 72.3742 52.629 73.9907C51.655 75.6073 51.168 77.4725 51.168 79.5864C51.168 81.721 51.655 83.6173 52.629 85.2753C53.6238 86.9332 55.0227 88.2285 56.8258 89.1611C58.6288 90.073 60.7324 90.5289 63.1364 90.5289ZM135.254 89.0057V102H94.3128V57.4214H110.229V89.0057H135.254ZM167.332 93.4822H150.607L147.841 102H132.111L147.841 57.4214H170.627L186.233 102H170.068L167.332 93.4822ZM164.441 84.5603L158.97 67.5558L153.467 84.5603H164.441ZM237.896 102L235.813 70.5401L226.238 102H210.259L201.524 71.8457L199.752 102H185.172L187.97 57.4214H211.347L218.902 82.4153L226.704 57.4214H249.988L253.377 102H237.896ZM304.103 92.2076V102H267.732V93.4822L279.855 86.0214C281.99 84.7779 283.658 83.6484 284.86 82.6329C286.062 81.5967 286.912 80.5915 287.41 79.6175C287.928 78.6434 288.187 77.5761 288.187 76.4155C288.187 74.6125 287.523 73.1825 286.197 72.1255C284.891 71.0686 282.964 70.5401 280.415 70.5401C278.073 70.5401 275.762 70.9753 273.483 71.8457C271.224 72.7162 269.286 73.8353 267.669 75.2031V63.359C272.623 60.126 278.311 58.5095 284.736 58.5095C288.653 58.5095 292.021 59.1105 294.839 60.3125C297.679 61.5145 299.844 63.2243 301.336 65.4418C302.829 67.6387 303.575 70.2085 303.575 73.1514C303.575 76.2808 302.57 79.1615 300.559 81.7935C298.549 84.4256 295.399 87.0058 291.109 89.5342L286.601 92.2076H304.103ZM328.161 103.15C323.643 103.15 319.643 102.218 316.161 100.352C312.679 98.4872 309.975 95.8862 308.047 92.5496C306.141 89.1922 305.187 85.3582 305.187 81.0475C305.187 76.6746 306.141 72.7783 308.047 69.3588C309.975 65.9392 312.679 63.2761 316.161 61.3695C319.643 59.4628 323.643 58.5095 328.161 58.5095C332.762 58.5095 336.792 59.4628 340.253 61.3695C343.735 63.2761 346.419 65.9392 348.305 69.3588C350.191 72.7783 351.134 76.6953 351.134 81.1096C351.134 85.4203 350.191 89.244 348.305 92.5807C346.419 95.9173 343.735 98.5183 340.253 100.383C336.792 102.228 332.762 103.15 328.161 103.15ZM328.161 91.1818C330.648 91.1818 332.554 90.2803 333.881 88.4772C335.207 86.6742 335.87 84.2183 335.87 81.1096C335.87 77.8766 335.207 75.2964 333.881 73.369C332.554 71.4416 330.648 70.4779 328.161 70.4779C326.544 70.4779 325.156 70.9235 323.995 71.8147C322.855 72.6851 321.974 73.9182 321.353 75.514C320.752 77.0891 320.451 78.9335 320.451 81.0475C320.451 84.1769 321.125 86.6535 322.472 88.4772C323.84 90.2803 325.736 91.1818 328.161 91.1818ZM388.963 92.2076V102H352.591V93.4822L364.715 86.0214C366.85 84.7779 368.518 83.6484 369.72 82.6329C370.922 81.5967 371.772 80.5915 372.269 79.6175C372.787 78.6434 373.046 77.5761 373.046 76.4155C373.046 74.6125 372.383 73.1825 371.057 72.1255C369.751 71.0686 367.824 70.5401 365.275 70.5401C362.933 70.5401 360.622 70.9753 358.342 71.8457C356.083 72.7162 354.146 73.8353 352.529 75.2031V63.359C357.482 60.126 363.171 58.5095 369.596 58.5095C373.513 58.5095 376.88 59.1105 379.699 60.3125C382.538 61.5145 384.704 63.2243 386.196 65.4418C387.688 67.6387 388.434 70.2085 388.434 73.1514C388.434 76.2808 387.429 79.1615 385.419 81.7935C383.409 84.4256 380.258 87.0058 375.969 89.5342L371.461 92.2076H388.963ZM418.616 79.2133C421.828 79.8558 424.274 81.12 425.952 83.0059C427.652 84.8919 428.502 87.213 428.502 89.9694C428.502 92.56 427.642 94.8604 425.921 96.8707C424.222 98.8602 421.797 100.404 418.647 101.503C415.497 102.601 411.839 103.15 407.673 103.15C404.192 103.15 401.031 102.798 398.192 102.093C395.373 101.409 392.907 100.466 390.793 99.2644V90.2181C392.161 91.0678 393.995 91.7931 396.296 92.3942C398.617 92.9744 401.238 93.2646 404.161 93.2646C406.896 93.2646 408.969 92.8605 410.378 92.0522C411.808 91.2439 412.523 90.1248 412.523 88.6948C412.523 86.27 410.482 85.0577 406.399 85.0577H394.244L396.14 76.602H405.715C407.953 76.602 409.549 76.2912 410.502 75.6694C411.456 75.027 411.932 74.1254 411.932 72.9649C411.932 71.7628 411.29 70.8302 410.005 70.167C408.72 69.4831 406.73 69.1412 404.036 69.1412C401.238 69.1412 398.679 69.4624 396.358 70.1049C394.057 70.7473 392.223 71.5141 390.855 72.4053V61.8979C393.114 60.841 395.715 60.012 398.658 59.411C401.622 58.81 404.71 58.5095 407.922 58.5095C412.005 58.5095 415.497 59.0172 418.398 60.0327C421.3 61.0275 423.497 62.4057 424.989 64.1673C426.481 65.9289 427.227 67.9288 427.227 70.167C427.227 72.4675 426.491 74.4156 425.02 76.0114C423.569 77.6072 421.435 78.6745 418.616 79.2133Z" fill="#0A0A0A"/>
<path d="M521.313 112.57C521.313 112.57 529.081 108.955 525.877 101.821C522.576 94.6861 523.838 94.2105 527.819 90.6908C531.8 87.1711 532.576 84.9831 531.411 82.5098C530.926 81.5585 527.43 79.0852 522.478 86.0295C517.526 92.9738 514.322 86.6003 518.886 83.2709C522.381 80.7975 532.868 76.1363 528.887 67.0041C524.906 57.8718 516.361 69.192 516.361 69.192C516.361 69.192 520.828 59.6792 516.361 54.257C512.283 49.2152 505.292 50.2616 501.991 55.779C498.593 61.2964 499.952 69.0969 490.728 74.2337C481.601 79.2755 475.969 81.8439 475.095 89.7395C474.221 97.7302 479.562 98.9669 483.64 101.44C486.941 103.343 490.145 105.436 489.951 108.575C489.66 111.904 486.455 110.858 483.931 110.477C481.503 110.192 481.503 112.951 481.503 112.951C481.503 112.951 481.212 123.985 496.553 120.275C513.934 115.995 500.923 98.0156 500.243 96.5887C499.563 95.2569 491.602 85.5539 498.884 72.0458C506.069 58.6328 511.215 59.1085 512.672 61.1061C515.585 65.2918 512.963 66.8138 505.098 69.6676C497.136 72.5215 506.166 78.0388 509.759 74.5191C513.643 70.6189 518.886 75.2801 516.458 77.3729C514.128 79.4658 511.798 79.8463 508.011 79.3706C504.224 78.9901 504.127 84.7929 509.467 86.6954C514.808 88.598 517.429 91.1664 511.701 93.9251C504.515 97.2545 507.331 102.011 508.594 103.913C509.759 105.816 514.516 115.234 521.313 112.57Z" fill="url(#paint1_linear_406_494)"/>
<path d="M576.26 58.831V73.1304H585.024V71.1693H578.364V66.7161H584.452V64.8367H578.364V60.7921H585.024V58.831H576.26ZM589.427 67.6353L585.688 73.1304H588.038L590.612 69.147H590.652L593.247 73.1304H595.596L591.837 67.6353L595.494 62.3037H593.145L590.652 66.1033H590.612L588.16 62.3037H585.791L589.427 67.6353ZM596.48 62.3037V77.7266H598.481V72.1498H598.522C599.176 72.9057 600.34 73.4368 601.586 73.4368C604.385 73.4368 606.428 71.0672 606.428 67.717C606.428 64.3669 604.385 61.9973 601.566 61.9973C600.32 61.9973 599.196 62.508 598.481 63.3047H598.441V62.3037H596.48ZM604.426 67.717C604.426 70.0866 603.221 71.5779 601.341 71.5779C599.748 71.5779 598.481 70.2705 598.481 68.6567V66.7569C598.481 65.1636 599.768 63.8562 601.403 63.8562C603.262 63.8562 604.426 65.3474 604.426 67.717ZM607.692 67.717C607.692 71.1285 609.734 73.4368 612.737 73.4368C614.8 73.4368 616.394 72.5175 617.354 70.7199L615.801 69.6781C614.903 71.1285 614.085 71.6596 612.717 71.6596C611.838 71.6596 611.123 71.3532 610.572 70.7199C610.02 70.0866 609.734 69.2695 609.714 68.3094H617.619V67.4719C617.619 64.2239 615.658 61.9973 612.717 61.9973C609.755 61.9973 607.692 64.3465 607.692 67.717ZM615.638 66.7774H609.755C609.796 65.1432 611.083 63.7745 612.717 63.7745C614.433 63.7745 615.556 65.0002 615.638 66.7774ZM619.302 62.3037V73.1304H621.304V66.8386C621.304 64.9593 621.937 64.1013 623.183 64.1013C623.51 64.1013 623.878 64.1626 624.307 64.2852L624.695 62.2833C624.286 62.1811 623.878 62.1199 623.49 62.1199C622.489 62.1199 621.651 62.5284 621.222 63.2025H621.181V62.3037H619.302ZM625.836 62.3037V73.1304H627.837V62.3037H625.836ZM625.733 58.3203V60.4244H627.919V58.3203H625.733ZM629.487 67.717C629.487 71.1285 631.53 73.4368 634.533 73.4368C636.596 73.4368 638.189 72.5175 639.149 70.7199L637.597 69.6781C636.698 71.1285 635.881 71.6596 634.512 71.6596C633.634 71.6596 632.919 71.3532 632.367 70.7199C631.816 70.0866 631.53 69.2695 631.509 68.3094H639.415V67.4719C639.415 64.2239 637.454 61.9973 634.512 61.9973C631.55 61.9973 629.487 64.3465 629.487 67.717ZM637.433 66.7774H631.55C631.591 65.1432 632.878 63.7745 634.512 63.7745C636.228 63.7745 637.352 65.0002 637.433 66.7774ZM641.097 62.3037V73.1304H643.099V66.4505C643.099 64.898 644.121 63.8562 645.673 63.8562C647.226 63.8562 648.145 64.8367 648.145 66.4505V73.1304H650.147V66.1441C650.147 63.6111 648.533 61.9973 646.061 61.9973C644.917 61.9973 643.712 62.508 643.058 63.2638H643.017V62.3037H641.097ZM651.711 67.717C651.711 71.108 653.794 73.4368 656.797 73.4368C658.043 73.4368 659.106 73.0895 659.964 72.3745C660.842 71.6596 661.373 70.6791 661.557 69.4738L659.637 69.0857C659.33 70.6995 658.329 71.5779 656.797 71.5779C654.918 71.5779 653.713 70.0866 653.713 67.717C653.713 65.3474 654.918 63.8562 656.797 63.8562C658.329 63.8562 659.371 64.7755 659.637 66.3484L661.557 65.9603C661.373 64.755 660.842 63.7949 659.964 63.08C659.106 62.365 658.043 61.9973 656.797 61.9973C653.794 61.9973 651.711 64.326 651.711 67.717ZM662.713 67.717C662.713 71.1285 664.756 73.4368 667.759 73.4368C669.822 73.4368 671.415 72.5175 672.375 70.7199L670.823 69.6781C669.924 71.1285 669.107 71.6596 667.738 71.6596C666.86 71.6596 666.145 71.3532 665.593 70.7199C665.042 70.0866 664.756 69.2695 664.735 68.3094H672.641V67.4719C672.641 64.2239 670.68 61.9973 667.738 61.9973C664.776 61.9973 662.713 64.3465 662.713 67.717ZM670.659 66.7774H664.776C664.817 65.1432 666.104 63.7745 667.738 63.7745C669.454 63.7745 670.578 65.0002 670.659 66.7774ZM679.749 58.831V73.1304H681.853V68.718L683.488 66.7161H683.529L688.043 73.1304H690.597L684.836 65.1227L690.065 58.831H687.553L681.894 65.756H681.853V58.831H679.749ZM690.673 67.717C690.673 71.1285 692.715 73.4368 695.718 73.4368C697.781 73.4368 699.375 72.5175 700.335 70.7199L698.782 69.6781C697.884 71.1285 697.066 71.6596 695.698 71.6596C694.819 71.6596 694.104 71.3532 693.553 70.7199C693.001 70.0866 692.715 69.2695 692.695 68.3094H700.6V67.4719C700.6 64.2239 698.639 61.9973 695.698 61.9973C692.736 61.9973 690.673 64.3465 690.673 67.717ZM698.619 66.7774H692.736C692.777 65.1432 694.064 63.7745 695.698 63.7745C697.414 63.7745 698.537 65.0002 698.619 66.7774ZM702.283 62.3037V73.1304H704.285V66.8386C704.285 64.9593 704.918 64.1013 706.164 64.1013C706.491 64.1013 706.859 64.1626 707.288 64.2852L707.676 62.2833C707.267 62.1811 706.859 62.1199 706.471 62.1199C705.47 62.1199 704.632 62.5284 704.203 63.2025H704.162V62.3037H702.283ZM707.751 70.3114C707.751 72.2111 709.16 73.4368 711.305 73.4368C712.633 73.4368 713.756 72.9261 714.349 72.0886H714.39V73.1304H716.228V65.6947C716.228 63.4068 714.676 61.9973 712.163 61.9973C710.999 61.9973 709.998 62.3241 709.181 62.9574C708.384 63.5906 707.894 64.4282 707.71 65.4904L709.65 65.899C709.916 64.5303 710.835 63.7541 712.163 63.7541C713.389 63.7541 714.145 64.326 714.145 65.2044C714.145 66.0011 713.532 66.3892 711.571 66.8795C708.813 67.5332 707.751 68.4933 707.751 70.3114ZM714.247 69.4738C714.247 70.7199 713.123 71.6392 711.55 71.6392C710.345 71.6392 709.712 71.108 709.712 70.1888C709.712 69.3717 710.365 68.9018 712.081 68.4729C713.389 68.1256 714.022 67.7987 714.206 67.3289H714.247V69.4738ZM718.203 58.2182V73.1304H720.205V58.2182H718.203ZM721.895 70.3114C721.895 72.2111 723.305 73.4368 725.45 73.4368C726.777 73.4368 727.901 72.9261 728.493 72.0886H728.534V73.1304H730.373V65.6947C730.373 63.4068 728.82 61.9973 726.308 61.9973C725.143 61.9973 724.142 62.3241 723.325 62.9574C722.528 63.5906 722.038 64.4282 721.854 65.4904L723.795 65.899C724.061 64.5303 724.98 63.7541 726.308 63.7541C727.533 63.7541 728.289 64.326 728.289 65.2044C728.289 66.0011 727.676 66.3892 725.715 66.8795C722.957 67.5332 721.895 68.4933 721.895 70.3114ZM728.391 69.4738C728.391 70.7199 727.268 71.6392 725.695 71.6392C724.49 71.6392 723.856 71.108 723.856 70.1888C723.856 69.3717 724.51 68.9018 726.226 68.4729C727.533 68.1256 728.167 67.7987 728.35 67.3289H728.391V69.4738ZM731.362 58.831V63.5702H733.119V58.831H731.362ZM734.917 69.4942C735.223 72.0273 737.001 73.4368 739.799 73.4368C742.271 73.4368 743.905 72.1907 743.905 70.2501C743.905 68.3707 742.659 67.4719 739.82 66.6344C738.001 66.1237 737.389 65.7764 737.389 65.1023C737.389 64.3056 738.165 63.7745 739.329 63.7745C740.575 63.7745 741.392 64.4078 741.76 65.6947L743.64 65.2044C743.211 63.2434 741.515 61.9973 739.329 61.9973C737.103 61.9973 735.448 63.3455 735.448 65.1432C735.448 66.7978 736.551 67.5945 739.166 68.3299C741.229 68.9631 741.944 69.3717 741.944 70.3318C741.944 71.1489 741.127 71.6596 739.799 71.6596C738.001 71.6596 737.144 70.9038 736.796 69.0857L734.917 69.4942ZM749.365 67.717C749.365 71.108 751.449 73.4368 754.452 73.4368C755.698 73.4368 756.76 73.0895 757.618 72.3745C758.497 71.6596 759.028 70.6791 759.212 69.4738L757.291 69.0857C756.985 70.6995 755.984 71.5779 754.452 71.5779C752.573 71.5779 751.367 70.0866 751.367 67.717C751.367 65.3474 752.573 63.8562 754.452 63.8562C755.984 63.8562 757.026 64.7755 757.291 66.3484L759.212 65.9603C759.028 64.755 758.497 63.7949 757.618 63.08C756.76 62.365 755.698 61.9973 754.452 61.9973C751.449 61.9973 749.365 64.326 749.365 67.717ZM760.572 69.3513C760.572 71.9456 761.981 73.4368 764.412 73.4368C765.658 73.4368 766.843 72.9669 767.497 72.1703H767.558V73.1304H769.478V62.3037H767.477V68.9836C767.477 70.5565 766.496 71.5779 765.005 71.5779C763.371 71.5779 762.574 70.7199 762.574 68.9836V62.3037H760.572V69.3513ZM771.559 58.2182V73.1304H773.561V58.2182H771.559ZM778.397 64.1013H781.053V62.3037H778.397V59.7707H776.395V62.3037H774.7V64.1013H776.395V70.3114C776.395 72.3745 777.192 73.1304 779.378 73.1304H780.542V71.2306H779.562C778.683 71.2306 778.397 70.9855 778.397 70.2705V64.1013ZM782.228 69.3513C782.228 71.9456 783.637 73.4368 786.068 73.4368C787.314 73.4368 788.499 72.9669 789.153 72.1703H789.214V73.1304H791.134V62.3037H789.132V68.9836C789.132 70.5565 788.152 71.5779 786.66 71.5779C785.026 71.5779 784.23 70.7199 784.23 68.9836V62.3037H782.228V69.3513ZM793.215 62.3037V73.1304H795.217V66.8386C795.217 64.9593 795.85 64.1013 797.096 64.1013C797.423 64.1013 797.791 64.1626 798.22 64.2852L798.608 62.2833C798.199 62.1811 797.791 62.1199 797.402 62.1199C796.401 62.1199 795.564 62.5284 795.135 63.2025H795.094V62.3037H793.215ZM798.721 67.717C798.721 71.1285 800.764 73.4368 803.767 73.4368C805.83 73.4368 807.424 72.5175 808.384 70.7199L806.831 69.6781C805.932 71.1285 805.115 71.6596 803.747 71.6596C802.868 71.6596 802.153 71.3532 801.602 70.7199C801.05 70.0866 800.764 69.2695 800.744 68.3094H808.649V67.4719C808.649 64.2239 806.688 61.9973 803.747 61.9973C800.785 61.9973 798.721 64.3465 798.721 67.717ZM806.668 66.7774H800.785C800.825 65.1432 802.112 63.7745 803.747 63.7745C805.463 63.7745 806.586 65.0002 806.668 66.7774ZM810.305 66.1441V68.0235H815.759V66.1441H810.305ZM817.155 67.717C817.155 71.0672 819.198 73.4368 821.996 73.4368C823.324 73.4368 824.509 72.9261 825.183 72.0886H825.224V73.1304H827.103V58.2182H825.101V63.2842H825.061C824.346 62.4876 823.242 61.9973 822.017 61.9973C819.198 61.9973 817.155 64.3669 817.155 67.717ZM825.101 68.6567C825.101 70.2705 823.835 71.5779 822.242 71.5779C820.362 71.5779 819.157 70.0866 819.157 67.717C819.157 65.3474 820.321 63.8562 822.18 63.8562C823.814 63.8562 825.101 65.1636 825.101 66.7569V68.6567ZM828.776 67.717C828.776 71.1285 830.818 73.4368 833.821 73.4368C835.884 73.4368 837.478 72.5175 838.438 70.7199L836.885 69.6781C835.987 71.1285 835.17 71.6596 833.801 71.6596C832.922 71.6596 832.207 71.3532 831.656 70.7199C831.104 70.0866 830.818 69.2695 830.798 68.3094H838.703V67.4719C838.703 64.2239 836.742 61.9973 833.801 61.9973C830.839 61.9973 828.776 64.3465 828.776 67.717ZM836.722 66.7774H830.839C830.88 65.1432 832.167 63.7745 833.801 63.7745C835.517 63.7745 836.64 65.0002 836.722 66.7774ZM849.117 58.3203H846.972V60.3835H849.117V58.3203ZM849.096 62.3037H843.05V61.3845C843.05 60.7716 843.356 60.4652 843.989 60.4652H845.501V58.6267H843.765C842.049 58.6267 841.048 59.5868 841.048 61.1393V62.3037H839.128V64.1013H841.048V73.1304H843.05V64.1013H847.094V73.1304H849.096V62.3037ZM851.149 62.3037V73.1304H853.151V66.4505C853.151 64.898 854.172 63.8562 855.725 63.8562C857.277 63.8562 858.196 64.8367 858.196 66.4505V73.1304H860.198V66.1441C860.198 63.6111 858.584 61.9973 856.113 61.9973C854.969 61.9973 853.763 62.508 853.11 63.2638H853.069V62.3037H851.149ZM862.171 62.3037V73.1304H864.173V62.3037H862.171ZM862.069 58.3203V60.4244H864.255V58.3203H862.069ZM866.231 62.3037V73.1304H868.233V66.4505C868.233 64.898 869.254 63.8562 870.807 63.8562C872.359 63.8562 873.278 64.8367 873.278 66.4505V73.1304H875.28V66.1441C875.28 63.6111 873.667 61.9973 871.195 61.9973C870.051 61.9973 868.846 62.508 868.192 63.2638H868.151V62.3037H866.231ZM877.621 75.1936C878.417 76.9708 880.113 78.033 882.176 78.033C884.954 78.033 886.793 76.1537 886.793 73.3755V62.3037H884.832V63.3455H884.791C884.076 62.508 882.932 62.0177 881.706 62.0177C878.887 62.0177 876.845 64.3873 876.845 67.717C876.845 71.0672 878.846 73.4368 881.686 73.4368C883.055 73.4368 884.198 72.9261 884.791 72.0886H884.832V73.2734C884.832 75.0914 883.831 76.2149 882.176 76.2149C880.807 76.2149 880.031 75.6838 879.316 74.2335L877.621 75.1936ZM884.791 68.6567C884.791 70.2705 883.524 71.5779 881.931 71.5779C880.052 71.5779 878.846 70.0866 878.846 67.717C878.846 65.3679 880.052 63.8766 881.87 63.8766C883.504 63.8766 884.791 65.184 884.791 66.7978V68.6567ZM894.393 64.1013V73.1304H896.395V64.1013H899.194V62.3037H896.395V61.3845C896.395 60.7716 896.702 60.4652 897.335 60.4652H898.847V58.6267H897.11C895.394 58.6267 894.393 59.5868 894.393 61.1393V62.3037H892.473V64.1013H894.393ZM899.478 67.717C899.478 71.1285 901.52 73.4368 904.523 73.4368C906.587 73.4368 908.18 72.5175 909.14 70.7199L907.588 69.6781C906.689 71.1285 905.872 71.6596 904.503 71.6596C903.625 71.6596 902.91 71.3532 902.358 70.7199C901.806 70.0866 901.52 69.2695 901.5 68.3094H909.406V67.4719C909.406 64.2239 907.445 61.9973 904.503 61.9973C901.541 61.9973 899.478 64.3465 899.478 67.717ZM907.424 66.7774H901.541C901.582 65.1432 902.869 63.7745 904.503 63.7745C906.219 63.7745 907.342 65.0002 907.424 66.7774ZM910.276 69.4942C910.582 72.0273 912.359 73.4368 915.158 73.4368C917.63 73.4368 919.264 72.1907 919.264 70.2501C919.264 68.3707 918.018 67.4719 915.178 66.6344C913.36 66.1237 912.747 65.7764 912.747 65.1023C912.747 64.3056 913.524 63.7745 914.688 63.7745C915.934 63.7745 916.751 64.4078 917.119 65.6947L918.998 65.2044C918.569 63.2434 916.874 61.9973 914.688 61.9973C912.461 61.9973 910.807 63.3455 910.807 65.1432C910.807 66.7978 911.91 67.5945 914.525 68.3299C916.588 68.9631 917.303 69.3717 917.303 70.3318C917.303 71.1489 916.486 71.6596 915.158 71.6596C913.36 71.6596 912.502 70.9038 912.155 69.0857L910.276 69.4942ZM923.233 64.1013H925.888V62.3037H923.233V59.7707H921.231V62.3037H919.535V64.1013H921.231V70.3114C921.231 72.3745 922.027 73.1304 924.213 73.1304H925.377V71.2306H924.397C923.519 71.2306 923.233 70.9855 923.233 70.2705V64.1013ZM927.267 62.3037V73.1304H929.269V62.3037H927.267ZM927.165 58.3203V60.4244H929.351V58.3203H927.165ZM930.224 62.3037L934.78 73.1304H936.577L941.133 62.3037H938.988L935.699 70.4339H935.658L932.369 62.3037H930.224ZM941.343 70.3114C941.343 72.2111 942.753 73.4368 944.898 73.4368C946.226 73.4368 947.349 72.9261 947.942 72.0886H947.982V73.1304H949.821V65.6947C949.821 63.4068 948.268 61.9973 945.756 61.9973C944.591 61.9973 943.59 62.3241 942.773 62.9574C941.977 63.5906 941.486 64.4282 941.303 65.4904L943.243 65.899C943.509 64.5303 944.428 63.7541 945.756 63.7541C946.981 63.7541 947.737 64.326 947.737 65.2044C947.737 66.0011 947.124 66.3892 945.163 66.8795C942.406 67.5332 941.343 68.4933 941.343 70.3114ZM947.839 69.4738C947.839 70.7199 946.716 71.6392 945.143 71.6392C943.938 71.6392 943.305 71.108 943.305 70.1888C943.305 69.3717 943.958 68.9018 945.674 68.4729C946.981 68.1256 947.615 67.7987 947.799 67.3289H947.839V69.4738ZM951.796 58.2182V73.1304H953.798V58.2182H951.796ZM956.387 70.5156V73.1304H959.083V70.5156H956.387ZM575.77 87.1655C575.77 91.8434 578.487 94.642 582.817 94.642C584.431 94.642 585.698 94.3765 587.066 93.6615L586.474 92.3745C585.35 92.9669 584.125 93.2529 582.817 93.2529C579.324 93.2529 577.261 91.0263 577.261 87.1655C577.261 83.6315 579.61 81.0985 582.817 81.0985C586.188 81.0985 588.292 83.3455 588.292 86.8386C588.292 88.8814 587.802 89.9641 586.882 89.9641C586.147 89.9641 585.861 89.5964 585.861 88.5341V85.8785C585.861 84.1422 584.676 83.0391 583.022 83.0391C581.285 83.0391 580.101 83.9992 579.794 85.6334L581.408 85.9603C581.592 85.0206 582.143 84.5507 583.022 84.5507C583.655 84.5507 584.125 84.8776 584.125 85.3679C584.125 85.9603 583.818 86.1441 582.123 86.6139C580.468 87.1042 579.753 87.8192 579.753 89.0653C579.753 90.5156 580.815 91.394 582.388 91.394C583.389 91.394 584.309 91.0059 584.799 90.3522H584.84C585.187 91.0263 585.841 91.3736 586.801 91.3736C588.762 91.3736 589.804 89.8415 589.804 86.8386C589.804 82.651 587.046 79.7298 582.817 79.7298C578.793 79.6685 575.709 82.9778 575.77 87.1655ZM584.125 88.5341C584.125 89.3513 583.471 89.8824 582.572 89.8824C581.857 89.8824 581.49 89.576 581.49 88.9427C581.49 88.4524 581.755 88.146 582.552 87.8805C583.594 87.5536 583.961 87.3493 584.104 87.0838H584.125V88.5341ZM598.962 80.7921V93.1304H601.066V80.7921H605.397V78.831H594.59V80.7921H598.962ZM612.815 90.4543L613.755 93.1304H615.879L610.752 78.831H608.791L603.643 93.1304H605.768L606.707 90.4543H612.815ZM612.182 88.6159H607.341L609.751 81.7317H609.792L612.182 88.6159ZM615.941 85.9807C615.941 90.4952 618.331 93.4368 622.028 93.4368C625.338 93.4368 627.544 91.0672 627.544 87.5128V85.899H622.212V87.7783H625.501C625.562 90.0662 624.234 91.4757 622.028 91.4757C619.557 91.4757 618.045 89.3921 618.045 85.9807C618.045 82.5693 619.557 80.4856 622.028 80.4856C623.846 80.4856 625.072 81.6092 625.46 83.6519L627.523 83.3047C627.115 80.4244 624.909 78.5246 622.028 78.5246C618.331 78.5246 615.941 81.4662 615.941 85.9807ZM628.818 85.9807C628.818 90.4543 631.249 93.4368 634.906 93.4368C638.583 93.4368 641.014 90.4543 641.014 85.9807C641.014 81.507 638.583 78.5246 634.906 78.5246C631.249 78.5246 628.818 81.507 628.818 85.9807ZM638.91 85.9807C638.91 89.3921 637.377 91.4757 634.906 91.4757C632.434 91.4757 630.922 89.3921 630.922 85.9807C630.922 82.5693 632.434 80.4856 634.906 80.4856C637.377 80.4856 638.91 82.5693 638.91 85.9807ZM649.935 87.4106V87.3902C652.059 86.9204 653.285 85.3883 653.285 83.1821C653.285 80.4652 651.487 78.831 648.484 78.831H643.091V93.1304H645.195V87.5536H647.708L650.65 93.1304H653.019L649.935 87.4106ZM648.28 85.613H645.195V80.7921H648.28C650.221 80.7921 651.181 81.5887 651.181 83.1821C651.181 84.755 650.18 85.613 648.28 85.613ZM655.211 78.831V93.1304H663.974V91.1693H657.315V86.7161H663.402V84.8367H657.315V80.7921H663.974V78.831H655.211ZM673.005 80.7921V93.1304H675.109V80.7921H679.44V78.831H668.634V80.7921H673.005ZM681.335 78.831V93.1304H683.439V86.7161H689.302V93.1304H691.406V78.831H689.302V84.8572H683.439V78.831H681.335ZM694.292 78.831V93.1304H703.056V91.1693H696.396V86.7161H702.484V84.8367H696.396V80.7921H703.056V78.831H694.292ZM712.893 90.4543L713.832 93.1304H715.957L710.829 78.831H708.868L703.72 93.1304H705.845L706.785 90.4543H712.893ZM712.259 88.6159H707.418L709.828 81.7317H709.869L712.259 88.6159ZM718.57 80.7921V93.1304H720.674V80.7921H725.005V78.831H714.198V80.7921H718.57ZM733.743 87.4106V87.3902C735.868 86.9204 737.093 85.3883 737.093 83.1821C737.093 80.4652 735.296 78.831 732.293 78.831H726.9V93.1304H729.004V87.5536H731.516L734.458 93.1304H736.828L733.743 87.4106ZM732.088 85.613H729.004V80.7921H732.088C734.029 80.7921 734.989 81.5887 734.989 83.1821C734.989 84.755 733.988 85.613 732.088 85.613ZM739.019 78.831V93.1304H747.783V91.1693H741.123V86.7161H747.211V84.8367H741.123V80.7921H747.783V78.831H739.019ZM756.814 80.7921V93.1304H758.918V80.7921H763.248V78.831H752.442V80.7921H756.814ZM771.987 87.4106V87.3902C774.111 86.9204 775.337 85.3883 775.337 83.1821C775.337 80.4652 773.539 78.831 770.536 78.831H765.143V93.1304H767.248V87.5536H769.76L772.702 93.1304H775.071L771.987 87.4106ZM770.332 85.613H767.248V80.7921H770.332C772.273 80.7921 773.233 81.5887 773.233 83.1821C773.233 84.755 772.232 85.613 770.332 85.613ZM777.263 78.831V93.1304H779.367V78.831H777.263ZM780.627 78.831L785.774 93.1304H787.96L793.108 78.831H790.902L786.898 90.2501H786.857L782.853 78.831H780.627ZM800.522 90.4543L801.461 93.1304H803.586L798.458 78.831H796.497L791.35 93.1304H793.474L794.414 90.4543H800.522ZM799.888 88.6159H795.047L797.457 81.7317H797.498L799.888 88.6159ZM804.863 78.831V93.1304H806.967V82.2628H807.008L812.973 93.1304H815.302V78.831H813.198V89.6985H813.157L807.192 78.831H804.863ZM818.2 78.831V93.1304H822.714C826.616 93.1304 828.985 90.6995 828.985 85.9603C828.985 81.507 826.473 78.831 822.796 78.831H818.2ZM822.632 91.1693H820.304V80.7921H822.734C825.329 80.7921 826.881 82.5897 826.881 85.9603C826.881 89.433 825.472 91.1693 822.632 91.1693ZM837.92 87.4106V87.3902C840.045 86.9204 841.27 85.3883 841.27 83.1821C841.27 80.4652 839.473 78.831 836.47 78.831H831.077V93.1304H833.181V87.5536H835.694L838.635 93.1304H841.005L837.92 87.4106ZM836.266 85.613H833.181V80.7921H836.266C838.206 80.7921 839.166 81.5887 839.166 83.1821C839.166 84.755 838.165 85.613 836.266 85.613ZM843.094 88.4524C843.094 91.6392 844.953 93.4368 848.303 93.4368C851.633 93.4368 853.533 91.6392 853.533 88.4524V78.831H851.429V88.3503C851.429 90.4339 850.387 91.4757 848.303 91.4757C846.24 91.4757 845.198 90.4135 845.198 88.3094V78.831H843.094V88.4524ZM856.333 78.831V93.1304H858.417V82.4058H858.458L862.931 93.1304H863.81L868.304 82.4058H868.345V93.1304H870.428V78.831H867.834L863.401 89.6372H863.36L858.927 78.831H856.333ZM873.525 94.4582V95.5408C875.261 95.3978 876.18 94.4582 876.18 92.8035V90.5769H873.423V93.1304H874.546C874.546 93.9271 874.26 94.2947 873.525 94.4582ZM576.26 98.831V113.13H578.364V108.718L579.998 106.716H580.039L584.554 113.13H587.107L581.347 105.123L586.576 98.831H584.063L578.405 105.756H578.364V98.831H576.26ZM588.399 98.831V113.13H597.163V111.169H590.503V106.716H596.591V104.837H590.503V100.792H597.163V98.831H588.399ZM606.285 107.411V107.39C608.409 106.92 609.635 105.388 609.635 103.182C609.635 100.465 607.837 98.831 604.834 98.831H599.442V113.13H601.546V107.554H604.058L607 113.13H609.369L606.285 107.411ZM604.63 105.613H601.546V100.792H604.63C606.571 100.792 607.531 101.589 607.531 103.182C607.531 104.755 606.53 105.613 604.63 105.613ZM619.119 110.454L620.059 113.13H622.183L617.056 98.831H615.095L609.947 113.13H612.072L613.011 110.454H619.119ZM618.486 108.616H613.645L616.055 101.732H616.096L618.486 108.616ZM623.461 98.831V113.13H631.857V111.169H625.565V98.831H623.461ZM641.722 110.454L642.662 113.13H644.786L639.659 98.831H637.698L632.55 113.13H634.674L635.614 110.454H641.722ZM641.089 108.616H636.247L638.658 101.732H638.699L641.089 108.616Z" fill="#0A0A0A"/>
<path d="M605.838 159.85C605.838 164.365 608.228 167.306 611.925 167.306C613.498 167.306 614.785 166.837 615.786 165.876C616.787 164.916 617.359 163.589 617.502 161.934L615.398 161.628C615.132 164.079 613.947 165.345 611.925 165.345C609.453 165.345 607.942 163.282 607.942 159.85C607.942 156.439 609.453 154.355 611.925 154.355C613.825 154.355 615.01 155.54 615.398 157.767L617.461 157.419C617.093 154.396 614.867 152.394 611.925 152.394C608.268 152.394 605.838 155.377 605.838 159.85ZM619.27 162.322C619.27 165.509 621.129 167.306 624.479 167.306C627.809 167.306 629.709 165.509 629.709 162.322V152.701H627.605V162.22C627.605 164.304 626.563 165.345 624.479 165.345C622.416 165.345 621.374 164.283 621.374 162.179V152.701H619.27V162.322ZM639.352 161.28V161.26C641.477 160.79 642.703 159.258 642.703 157.052C642.703 154.335 640.905 152.701 637.902 152.701H632.509V167H634.613V161.423H637.126L640.067 167H642.437L639.352 161.28ZM637.698 159.483H634.613V154.662H637.698C639.638 154.662 640.599 155.458 640.599 157.052C640.599 158.625 639.598 159.483 637.698 159.483ZM652.187 164.324L653.126 167H655.251L650.124 152.701H648.163L643.015 167H645.139L646.079 164.324H652.187ZM651.554 162.485H646.712L649.123 155.601H649.164L651.554 162.485ZM657.864 154.662V167H659.968V154.662H664.299V152.701H653.493V154.662H657.864ZM666.194 152.701V167H674.958V165.039H668.298V160.586H674.386V158.706H668.298V154.662H674.958V152.701H666.194ZM677.236 152.701V167H681.751C685.652 167 688.022 164.569 688.022 159.83C688.022 155.377 685.509 152.701 681.832 152.701H677.236ZM681.669 165.039H679.34V154.662H681.771C684.365 154.662 685.918 156.459 685.918 159.83C685.918 163.303 684.508 165.039 681.669 165.039ZM606.655 172.701V187H608.738V176.275H608.779L613.253 187H614.131L618.625 176.275H618.666V187H620.75V172.701H618.155L613.723 183.507H613.682L609.249 172.701H606.655ZM631.18 184.324L632.119 187H634.244L629.117 172.701H627.156L622.008 187H624.132L625.072 184.324H631.18ZM630.547 182.485H625.705L628.116 175.601H628.157L630.547 182.485ZM642.365 181.28V181.26C644.489 180.79 645.715 179.258 645.715 177.052C645.715 174.335 643.917 172.701 640.914 172.701H635.521V187H637.626V181.423H640.138L643.08 187H645.449L642.365 181.28ZM640.71 179.483H637.626V174.662H640.71C642.651 174.662 643.611 175.458 643.611 177.052C643.611 178.625 642.61 179.483 640.71 179.483ZM647.641 172.701V187H649.745V182.588L651.379 180.586H651.42L655.934 187H658.488L652.727 178.992L657.957 172.701H655.444L649.786 179.626H649.745V172.701H647.641ZM659.78 172.701V187H668.544V185.039H661.884V180.586H667.972V178.706H661.884V174.662H668.544V172.701H659.78ZM674.193 174.662V187H676.297V174.662H680.628V172.701H669.821V174.662H674.193ZM682.523 172.701V187H684.627V181.668H688.14C691.184 181.668 692.982 179.993 692.982 177.195C692.982 174.417 691.184 172.701 688.161 172.701H682.523ZM688.059 179.707H684.627V174.662H688.079C689.958 174.662 690.878 175.479 690.878 177.195C690.878 178.87 689.938 179.707 688.059 179.707ZM694.682 172.701V187H703.078V185.039H696.786V172.701H694.682ZM712.943 184.324L713.883 187H716.007L710.88 172.701H708.919L703.771 187H705.896L706.835 184.324H712.943ZM712.31 182.485H707.469L709.879 175.601H709.92L712.31 182.485ZM716.069 179.85C716.069 184.365 718.459 187.306 722.156 187.306C723.729 187.306 725.016 186.837 726.017 185.876C727.018 184.916 727.59 183.589 727.733 181.934L725.629 181.628C725.363 184.079 724.179 185.345 722.156 185.345C719.684 185.345 718.173 183.282 718.173 179.85C718.173 176.439 719.684 174.355 722.156 174.355C724.056 174.355 725.241 175.54 725.629 177.767L727.692 177.419C727.324 174.396 725.098 172.394 722.156 172.394C718.5 172.394 716.069 175.377 716.069 179.85ZM729.604 172.701V187H738.367V185.039H731.708V180.586H737.795V178.706H731.708V174.662H738.367V172.701H729.604Z" fill="#0A0A0A"/>
<path d="M817.545 152.315L820.303 166.614H822.713L826.002 155.645H826.043L829.311 166.614H831.742L834.48 152.315H832.335L830.292 163.264H830.251L827.003 152.315H825.022L821.794 163.264H821.753L819.71 152.315H817.545ZM835.202 159.465C835.202 163.938 837.633 166.921 841.289 166.921C844.966 166.921 847.397 163.938 847.397 159.465C847.397 154.991 844.966 152.008 841.289 152.008C837.633 152.008 835.202 154.991 835.202 159.465ZM845.293 159.465C845.293 162.876 843.761 164.96 841.289 164.96C838.817 164.96 837.306 162.876 837.306 159.465C837.306 156.053 838.817 153.97 841.289 153.97C843.761 153.97 845.293 156.053 845.293 159.465ZM856.318 160.895V160.874C858.443 160.404 859.668 158.872 859.668 156.666C859.668 153.949 857.871 152.315 854.868 152.315H849.475V166.614H851.579V161.038H854.091L857.033 166.614H859.403L856.318 160.895ZM854.663 159.097H851.579V154.276H854.663C856.604 154.276 857.564 155.073 857.564 156.666C857.564 158.239 856.563 159.097 854.663 159.097ZM861.594 152.315V166.614H863.698V162.202L865.332 160.2H865.373L869.888 166.614H872.441L866.681 158.607L871.91 152.315H869.397L863.739 159.24H863.698V152.315H861.594ZM872.712 161.895C873.1 165.143 875.184 166.921 878.636 166.921C881.639 166.921 883.702 165.307 883.702 162.917C883.702 160.629 882.354 159.383 878.656 158.157C876.226 157.401 875.47 156.829 875.47 155.869C875.47 154.705 876.471 153.949 878.044 153.949C879.739 153.949 880.801 154.848 881.251 156.625L883.294 156.176C883.069 154.909 882.497 153.908 881.537 153.152C880.577 152.397 879.412 152.008 878.044 152.008C875.306 152.008 873.386 153.602 873.386 155.869C873.386 157.851 874.53 158.913 877.962 160.037C880.761 160.935 881.618 161.63 881.618 162.958C881.618 164.183 880.475 164.98 878.677 164.98C876.287 164.98 875.082 163.918 874.775 161.487L872.712 161.895ZM885.554 152.315V166.614H887.658V160.2H893.52V166.614H895.624V152.315H893.52V158.341H887.658V152.315H885.554ZM897.694 159.465C897.694 163.938 900.125 166.921 903.781 166.921C907.458 166.921 909.889 163.938 909.889 159.465C909.889 154.991 907.458 152.008 903.781 152.008C900.125 152.008 897.694 154.991 897.694 159.465ZM907.785 159.465C907.785 162.876 906.253 164.96 903.781 164.96C901.309 164.96 899.798 162.876 899.798 159.465C899.798 156.053 901.309 153.97 903.781 153.97C906.253 153.97 907.785 156.053 907.785 159.465ZM911.967 152.315V166.614H914.071V161.283H917.584C920.628 161.283 922.426 159.608 922.426 156.809C922.426 154.031 920.628 152.315 917.605 152.315H911.967ZM917.503 159.322H914.071V154.276H917.523C919.402 154.276 920.322 155.093 920.322 156.809C920.322 158.484 919.382 159.322 917.503 159.322ZM923.105 161.895C923.493 165.143 925.576 166.921 929.029 166.921C932.031 166.921 934.095 165.307 934.095 162.917C934.095 160.629 932.746 159.383 929.049 158.157C926.618 157.401 925.862 156.829 925.862 155.869C925.862 154.705 926.863 153.949 928.436 153.949C930.132 153.949 931.194 154.848 931.643 156.625L933.686 156.176C933.461 154.909 932.889 153.908 931.929 153.152C930.969 152.397 929.805 152.008 928.436 152.008C925.699 152.008 923.779 153.602 923.779 155.869C923.779 157.851 924.923 158.913 928.354 160.037C931.153 160.935 932.011 161.63 932.011 162.958C932.011 164.183 930.867 164.98 929.069 164.98C926.679 164.98 925.474 163.918 925.168 161.487L923.105 161.895Z" fill="#0A0A0A"/>
<path d="M818.958 207.701V222H821.062V216.117H827.211V214.258H821.062V209.662H827.742V207.701H818.958ZM828.685 214.85C828.685 219.324 831.116 222.306 834.772 222.306C838.449 222.306 840.88 219.324 840.88 214.85C840.88 210.377 838.449 207.394 834.772 207.394C831.116 207.394 828.685 210.377 828.685 214.85ZM838.776 214.85C838.776 218.262 837.244 220.345 834.772 220.345C832.3 220.345 830.789 218.262 830.789 214.85C830.789 211.439 832.3 209.355 834.772 209.355C837.244 209.355 838.776 211.439 838.776 214.85ZM842.141 214.85C842.141 219.324 844.571 222.306 848.228 222.306C851.905 222.306 854.336 219.324 854.336 214.85C854.336 210.377 851.905 207.394 848.228 207.394C844.571 207.394 842.141 210.377 842.141 214.85ZM852.232 214.85C852.232 218.262 850.7 220.345 848.228 220.345C845.756 220.345 844.245 218.262 844.245 214.85C844.245 211.439 845.756 209.355 848.228 209.355C850.7 209.355 852.232 211.439 852.232 214.85ZM856.414 207.701V222H860.928C864.83 222 867.199 219.569 867.199 214.83C867.199 210.377 864.687 207.701 861.01 207.701H856.414ZM860.846 220.039H858.518V209.662H860.949C863.543 209.662 865.095 211.459 865.095 214.83C865.095 218.303 863.686 220.039 860.846 220.039ZM884.87 221.203L886.075 219.773L884.216 218.139V213.788H882.296V216.464L878.108 212.808C877.23 212.072 876.964 211.561 876.964 210.887C876.964 209.907 877.72 209.253 878.864 209.253C880.028 209.253 880.702 209.825 880.927 211.051L882.909 210.744C882.643 208.681 881.091 207.394 878.864 207.394C876.596 207.394 874.962 208.845 874.962 210.826C874.962 211.95 875.453 212.869 876.596 213.951C874.799 215.014 873.818 216.525 873.818 218.098C873.818 220.733 875.718 222.306 878.844 222.306C881.111 222.306 882.725 221.53 883.603 220.08L884.87 221.203ZM882.071 218.752C881.642 219.835 880.498 220.427 878.864 220.427C876.964 220.427 875.82 219.508 875.82 218.017C875.82 216.893 876.535 215.933 877.945 215.136L882.071 218.752ZM894.517 209.662V222H896.621V209.662H900.952V207.701H890.145V209.662H894.517ZM909.69 216.28V216.26C911.814 215.79 913.04 214.258 913.04 212.052C913.04 209.335 911.242 207.701 908.24 207.701H902.847V222H904.951V216.423H907.463L910.405 222H912.775L909.69 216.28ZM908.035 214.483H904.951V209.662H908.035C909.976 209.662 910.936 210.458 910.936 212.052C910.936 213.625 909.935 214.483 908.035 214.483ZM914.966 207.701V222H923.729V220.039H917.07V215.586H923.158V213.706H917.07V209.662H923.729V207.701H914.966ZM933.566 219.324L934.506 222H936.631L931.503 207.701H929.542L924.394 222H926.519L927.458 219.324H933.566ZM932.933 217.485H928.092L930.502 210.601H930.543L932.933 217.485ZM939.244 209.662V222H941.348V209.662H945.679V207.701H934.872V209.662H939.244ZM946.552 217.281C946.94 220.529 949.024 222.306 952.476 222.306C955.479 222.306 957.542 220.693 957.542 218.303C957.542 216.015 956.194 214.769 952.497 213.543C950.066 212.787 949.31 212.215 949.31 211.255C949.31 210.091 950.311 209.335 951.884 209.335C953.579 209.335 954.642 210.234 955.091 212.011L957.134 211.561C956.909 210.295 956.337 209.294 955.377 208.538C954.417 207.782 953.253 207.394 951.884 207.394C949.147 207.394 947.226 208.988 947.226 211.255C947.226 213.237 948.37 214.299 951.802 215.422C954.601 216.321 955.459 217.016 955.459 218.343C955.459 219.569 954.315 220.366 952.517 220.366C950.127 220.366 948.922 219.304 948.615 216.873L946.552 217.281Z" fill="#0A0A0A"/>
<path d="M607.296 207.701V222H615.692V220.039H609.4V207.701H607.296ZM617.6 207.701V222H619.704V207.701H617.6ZM620.964 207.701L626.112 222H628.298L633.445 207.701H631.239L627.235 219.12H627.195L623.191 207.701H620.964ZM634.737 207.701V222H643.501V220.039H636.841V215.586H642.929V213.706H636.841V209.662H643.501V207.701H634.737ZM650.797 207.701V222H652.88V211.275H652.921L657.395 222H658.273L662.767 211.275H662.808V222H664.892V207.701H662.298L657.865 218.507H657.824L653.391 207.701H650.797ZM667.662 217.322C667.662 220.509 669.521 222.306 672.871 222.306C676.2 222.306 678.1 220.509 678.1 217.322V207.701H675.996V217.22C675.996 219.304 674.954 220.345 672.871 220.345C670.807 220.345 669.766 219.283 669.766 217.179V207.701H667.662V217.322ZM679.879 217.281C680.267 220.529 682.351 222.306 685.803 222.306C688.806 222.306 690.869 220.693 690.869 218.303C690.869 216.015 689.521 214.769 685.824 213.543C683.393 212.787 682.637 212.215 682.637 211.255C682.637 210.091 683.638 209.335 685.211 209.335C686.906 209.335 687.968 210.234 688.418 212.011L690.461 211.561C690.236 210.295 689.664 209.294 688.704 208.538C687.744 207.782 686.579 207.394 685.211 207.394C682.473 207.394 680.553 208.988 680.553 211.255C680.553 213.237 681.697 214.299 685.129 215.422C687.928 216.321 688.786 217.016 688.786 218.343C688.786 219.569 687.642 220.366 685.844 220.366C683.454 220.366 682.249 219.304 681.942 216.873L679.879 217.281ZM692.721 207.701V222H694.825V207.701H692.721ZM696.881 214.85C696.881 219.365 699.271 222.306 702.969 222.306C704.542 222.306 705.828 221.837 706.829 220.876C707.83 219.916 708.402 218.589 708.545 216.934L706.441 216.628C706.176 219.079 704.991 220.345 702.969 220.345C700.497 220.345 698.985 218.282 698.985 214.85C698.985 211.439 700.497 209.355 702.969 209.355C704.868 209.355 706.053 210.54 706.441 212.767L708.505 212.419C708.137 209.396 705.91 207.394 702.969 207.394C699.312 207.394 696.881 210.377 696.881 214.85Z" fill="#0A0A0A"/>
<path d="M586.077 155.098L585.119 156.056L589.205 159.884L577.649 159.884L577.649 161.238L589.205 161.238L585.119 165.067L586.077 166.048L591.75 160.561L586.077 155.098Z" fill="#0A0A0A"/>
<path d="M797.739 155.098L796.782 156.056L800.867 159.884L789.311 159.884L789.311 161.238L800.867 161.238L796.782 165.067L797.739 166.048L803.412 160.561L797.739 155.098Z" fill="#0A0A0A"/>
<path d="M797.846 210.484L796.888 211.441L800.974 215.27L789.418 215.27L789.418 216.624L800.974 216.624L796.888 220.452L797.846 221.433L803.519 215.947L797.846 210.484Z" fill="#0A0A0A"/>
<path d="M586.183 210.484L585.226 211.441L589.311 215.27L577.755 215.27L577.755 216.624L589.311 216.624L585.226 220.452L586.183 221.433L591.856 215.947L586.183 210.484Z" fill="#0A0A0A"/>
<defs>
<linearGradient id="paint0_linear_406_494" x1="503.396" y1="11" x2="503.396" y2="243" gradientUnits="userSpaceOnUse">
<stop stop-color="white"/>
<stop offset="1" stop-color="#FFC1F9"/>
</linearGradient>
<linearGradient id="paint1_linear_406_494" x1="503.453" y1="121.038" x2="503.453" y2="51.0001" gradientUnits="userSpaceOnUse">
<stop stop-color="#ED68E0"/>
<stop offset="1" stop-color="#8C1DF7"/>
</linearGradient>
</defs>
</svg>
