<svg width="499" height="618" viewBox="0 0 499 618" fill="none" xmlns="http://www.w3.org/2000/svg">
<path d="M353.824 514.737C353.845 517.832 353.856 520.931 353.878 524.026C353.92 531.514 353.963 538.992 354.006 546.481C354.059 555.493 354.113 564.513 354.156 573.526C354.199 581.323 354.242 589.114 354.285 596.912C354.306 600.716 354.253 604.52 354.349 608.325C354.349 608.379 354.349 608.441 354.349 608.496C354.37 612.696 358.024 616.723 362.385 616.53C366.736 616.337 370.42 612.995 370.42 608.496C370.42 601.651 370.42 594.802 370.42 587.946C370.42 577.53 370.42 567.117 370.42 556.704C370.42 553.005 370.322 549.31 370.806 545.648C370.708 546.353 370.613 547.07 370.515 547.779C371.031 544.233 371.973 540.781 373.355 537.472C373.086 538.115 372.821 538.745 372.541 539.388C373.465 537.257 374.545 535.199 375.832 533.271C376.109 532.864 376.389 532.456 376.676 532.06C376.818 531.867 376.967 531.674 377.116 531.471C375.658 533.486 376.28 532.554 376.643 532.103C377.287 531.321 377.964 530.583 378.669 529.863C379.324 529.212 380 528.579 380.706 527.979C380.92 527.797 381.157 527.626 381.371 527.434C382.055 526.833 379.807 528.579 380.546 528.063C380.91 527.808 381.273 527.539 381.637 527.281C383.234 526.201 384.917 525.28 386.685 524.517C386.041 524.786 385.409 525.055 384.765 525.331C387.143 524.335 389.62 523.651 392.17 523.287C391.464 523.382 390.744 523.48 390.038 523.575C392.577 523.244 395.116 523.244 397.654 523.575C396.949 523.48 396.229 523.382 395.523 523.287C397.989 523.64 400.368 524.295 402.67 525.248C402.026 524.979 401.393 524.709 400.753 524.433C402.808 525.31 404.757 526.404 406.58 527.71C406.761 527.841 406.943 527.99 407.136 528.117C405.092 526.713 406.001 527.219 406.463 527.615C406.911 527.99 407.362 528.365 407.791 528.761C408.682 529.576 409.515 530.441 410.319 531.343C410.857 531.954 411.359 532.587 411.853 533.216C412.075 533.507 412.301 533.798 412.537 534.075C412.686 534.257 412.923 534.58 412.268 533.722C411.391 532.587 412.301 533.776 412.421 533.947C414.123 536.315 415.516 538.876 416.651 541.563C416.385 540.923 416.116 540.29 415.836 539.647C417.189 542.945 418.098 546.364 418.582 549.899C418.484 549.194 418.385 548.474 418.291 547.768C418.687 550.896 418.644 554.024 418.644 557.163C418.644 561.44 418.644 565.713 418.644 569.99C418.644 580.37 418.644 590.754 418.644 601.123C418.644 603.589 418.644 606.041 418.644 608.506C418.644 612.707 422.339 616.733 426.681 616.541C431.031 616.348 434.716 613.005 434.716 608.506C434.716 596.806 434.716 585.117 434.716 573.416C434.716 567.354 434.716 561.291 434.716 555.224C434.716 545.109 432.584 535.028 426.787 526.553C423.423 521.636 419.535 517.33 414.69 513.835C409.569 510.15 403.557 508.212 397.345 507.474C385.699 506.081 373.504 511.285 365.878 520.061C358.077 529.041 354.36 540.461 354.36 552.289C354.36 557.635 354.36 562.971 354.36 568.317C354.36 581.454 354.36 594.598 354.36 607.735C354.36 607.99 354.36 608.248 354.36 608.506C359.717 608.506 365.074 608.506 370.431 608.506C370.409 605.411 370.398 602.313 370.377 599.218C370.333 591.729 370.293 584.248 370.249 576.759C370.195 567.75 370.14 558.726 370.1 549.718C370.057 541.916 370.013 534.129 369.969 526.328C369.947 522.524 370.002 518.723 369.907 514.919C369.907 514.864 369.907 514.802 369.907 514.748C369.886 510.547 366.23 506.517 361.87 506.71C357.531 506.895 353.802 510.238 353.824 514.737Z" fill="white"/>
<path d="M98.8284 561.342C98.8175 563.455 98.6782 565.565 98.4105 567.663C98.5069 566.958 98.6032 566.241 98.6996 565.532C98.1319 569.722 97.0284 573.792 95.3997 577.694C95.6678 577.05 95.9355 576.418 96.2141 575.774C95.0142 578.592 93.5678 581.302 91.8533 583.844C91.4569 584.423 91.0604 585.001 90.6429 585.568C89.5714 587.023 91.3499 584.71 90.9426 585.194C90.6854 585.503 90.4283 585.834 90.1712 586.147C89.2394 587.27 88.2534 588.343 87.2248 589.384C86.1963 590.409 85.1142 591.395 83.9893 592.329C83.7213 592.555 83.443 592.766 83.175 592.991C82.093 593.883 84.932 591.708 83.55 592.704C82.9288 593.151 82.3177 593.592 81.6856 594.021C79.1357 595.734 76.4359 597.181 73.618 598.382C74.261 598.112 74.8931 597.847 75.5358 597.567C71.6358 599.196 67.5645 600.298 63.3754 600.866C64.0824 600.771 64.8004 600.673 65.5074 600.578C61.3074 601.113 57.0753 601.113 52.8756 600.578C53.5827 600.673 54.3006 600.771 55.0077 600.866C50.8185 600.298 46.7469 599.196 42.8473 597.567C43.4899 597.836 44.122 598.101 44.7651 598.382C41.9471 597.181 39.2364 595.734 36.6971 594.021C36.1186 593.624 35.5401 593.228 34.9722 592.81C33.5151 591.74 35.8294 593.519 35.3472 593.111C35.0365 592.853 34.7044 592.595 34.3937 592.34C33.2687 591.406 32.1973 590.42 31.158 589.391C30.1295 588.365 29.1437 587.281 28.2116 586.157C27.9866 585.888 27.7723 585.612 27.5473 585.343C26.6581 584.259 28.833 587.099 27.8366 585.717C27.3866 585.095 26.9473 584.484 26.5188 583.852C24.8046 581.302 23.3581 578.603 22.1581 575.785C22.426 576.428 22.6938 577.061 22.9724 577.705C21.3439 573.802 20.2403 569.733 19.6725 565.543C19.7689 566.248 19.8653 566.968 19.9617 567.674C19.4261 563.473 19.4261 559.243 19.9617 555.043C19.8653 555.752 19.7689 556.468 19.6725 557.174C20.2403 552.988 21.3439 548.914 22.9724 545.015C22.7046 545.659 22.4367 546.288 22.1581 546.932C23.3581 544.113 24.8046 541.404 26.5188 538.865C26.9152 538.287 27.3116 537.709 27.7295 537.141C28.8009 535.683 27.0224 537.996 27.4295 537.516C27.6866 537.203 27.9438 536.872 28.2009 536.563C29.1331 535.436 30.1187 534.366 31.1473 533.326C32.1759 532.297 33.258 531.311 34.383 530.38C34.6508 530.155 34.9294 529.94 35.1972 529.714C36.2793 528.827 33.4401 531.002 34.8222 530.005C35.4437 529.554 36.0544 529.114 36.6865 528.685C39.2364 526.972 41.9366 525.525 44.7542 524.324C44.1115 524.594 43.4794 524.863 42.8364 525.139C46.7363 523.513 50.8076 522.408 54.9968 521.84C54.2897 521.935 53.5718 522.033 52.8647 522.128C57.0648 521.593 61.2968 521.593 65.4968 522.128C64.7894 522.033 64.0719 521.935 63.3645 521.84C67.554 522.408 71.6252 523.513 75.5252 525.139C74.8822 524.874 74.2501 524.604 73.6074 524.324C76.425 525.525 79.1357 526.972 81.6751 528.685C82.2537 529.082 82.832 529.478 83.4001 529.896C84.8571 530.969 82.5429 529.191 83.0251 529.598C83.3357 529.853 83.6678 530.111 83.9784 530.369C85.1037 531.3 86.1748 532.286 87.2143 533.315C88.2428 534.344 89.2284 535.425 90.1606 536.552C90.3857 536.818 90.6 537.098 90.8247 537.363C91.714 538.447 89.5391 535.606 90.5356 536.988C90.9855 537.61 91.4249 538.221 91.8533 538.854C93.5678 541.404 95.0142 544.103 96.2141 546.921C95.946 546.277 95.6784 545.648 95.3997 545.005C97.0284 548.903 98.1319 552.977 98.6996 557.163C98.6032 556.458 98.5069 555.741 98.4105 555.032C98.6782 557.123 98.8175 559.233 98.8284 561.342C98.8498 565.543 102.514 569.573 106.864 569.38C111.203 569.187 114.921 565.845 114.899 561.342C114.857 550.125 111.482 538.738 104.935 529.587C98.089 520.018 88.8535 512.915 77.8071 508.845C56.529 501 30.9973 507.91 16.6083 525.452C9.02266 534.708 4.53345 545.648 3.61204 557.592C2.7442 568.842 5.6263 580.531 11.4976 590.165C17.1654 599.476 25.6938 607.35 35.6686 611.817C41.4863 614.421 47.2612 615.985 53.5932 616.723C59.2932 617.389 65.0895 616.959 70.7036 615.836C92.4749 611.486 110.603 592.864 114.032 570.878C114.524 567.707 114.878 564.535 114.889 561.331C114.91 557.134 111.182 553.104 106.853 553.297C102.493 553.501 98.8498 556.832 98.8284 561.342Z" fill="white"/>
<path d="M142.756 513.665C142.756 519.528 142.756 525.376 142.756 531.236C142.756 541.91 142.756 552.581 142.756 563.263C142.756 567.235 142.756 571.221 142.756 575.196C142.756 577.298 142.681 579.43 142.842 581.528C143.527 590.734 147.256 599.433 153.824 606.002C160.391 612.567 169.081 616.287 178.295 616.982C182.012 617.262 185.816 617.069 189.544 617.069C194.194 617.069 198.844 617.069 203.494 617.069C203.784 617.069 204.083 617.069 204.373 617.069C208.573 617.069 212.601 613.371 212.409 609.032C212.215 604.682 208.873 600.997 204.373 600.997C196.948 600.997 189.534 600.997 182.109 600.997C180.223 600.997 178.348 600.965 176.473 600.717C177.18 600.816 177.898 600.91 178.605 601.008C175.991 600.634 173.452 599.935 171.02 598.906C171.663 599.175 172.295 599.444 172.938 599.721C171.213 598.972 169.563 598.095 168.009 597.044C167.623 596.786 167.248 596.509 166.873 596.24C165.791 595.458 168.63 597.677 167.13 596.411C166.466 595.855 165.823 595.265 165.202 594.643C164.581 594.022 163.991 593.378 163.434 592.716C162.18 591.214 164.388 594.054 163.605 592.97C163.338 592.596 163.059 592.221 162.802 591.836C161.752 590.283 160.863 588.621 160.123 586.907C160.391 587.551 160.659 588.184 160.938 588.824C159.92 586.384 159.213 583.852 158.838 581.241C158.934 581.947 159.031 582.667 159.127 583.372C158.731 580.339 158.849 577.244 158.849 574.2C158.849 569.068 158.849 563.936 158.849 558.793C158.849 546.591 158.849 534.396 158.849 522.194C158.849 519.357 158.849 516.527 158.849 513.687C158.849 509.486 155.152 505.46 150.813 505.653C146.442 505.824 142.756 509.155 142.756 513.665Z" fill="white"/>
<path d="M314.718 615.45C318.082 615.45 321.307 612.493 321.146 609.019C320.985 605.539 318.318 602.593 314.718 602.593C311.353 602.593 308.128 605.55 308.289 609.019C308.45 612.504 311.118 615.45 314.718 615.45Z" fill="white"/>
<path d="M435.25 608.485C435.25 601.64 435.25 594.791 435.25 587.936C435.25 577.523 435.25 567.106 435.25 556.694C435.25 552.995 435.156 549.3 435.636 545.637C435.541 546.343 435.443 547.059 435.348 547.768C435.85 544.222 436.781 540.771 438.167 537.461C437.898 538.105 437.629 538.738 437.352 539.378C438.273 537.246 439.345 535.188 440.618 533.249C440.888 532.831 441.175 532.424 441.466 532.027C441.604 531.835 441.753 531.642 441.906 531.438C440.469 533.453 441.069 532.522 441.433 532.071C442.077 531.289 442.739 530.54 443.448 529.823C444.099 529.169 444.776 528.536 445.474 527.936C445.685 527.754 445.921 527.583 446.125 527.39C446.801 526.79 444.561 528.536 445.299 528.023C445.667 527.765 446.03 527.485 446.394 527.241C447.98 526.157 449.671 525.237 451.439 524.477C450.798 524.742 450.166 525.011 449.522 525.292C451.89 524.295 454.366 523.618 456.916 523.266C456.207 523.36 455.49 523.458 454.785 523.553C457.203 523.255 459.636 523.255 462.059 523.564C461.349 523.469 460.633 523.371 459.927 523.277C462.379 523.618 464.757 524.273 467.049 525.215C466.409 524.946 465.776 524.68 465.132 524.4C467.136 525.259 469.031 526.306 470.809 527.583C470.897 527.637 471.519 528.056 471.508 528.096C471.497 528.117 469.856 526.768 470.704 527.485C471.155 527.87 471.602 528.237 472.031 528.634C472.922 529.449 473.77 530.303 474.563 531.205C475.108 531.824 475.621 532.478 476.138 533.133C476.37 533.431 476.596 533.722 476.832 534.02C477.378 534.708 475.698 532.478 476.501 533.613C478.182 535.992 479.629 538.49 480.786 541.178C480.517 540.534 480.251 539.905 479.971 539.261C481.408 542.68 482.361 546.248 482.866 549.911C482.768 549.205 482.673 548.485 482.575 547.779C482.972 550.907 482.928 554.035 482.928 557.174C482.928 561.451 482.928 565.724 482.928 570.001C482.928 580.382 482.928 590.765 482.928 601.134C482.928 603.6 482.928 606.052 482.928 608.518C482.928 612.718 486.627 616.745 490.966 616.552C495.316 616.359 499 613.017 499 608.518C499 596.817 499 585.128 499 573.428C499 567.365 499 561.298 499 555.235C499 545.262 496.941 535.362 491.373 526.928C488.02 521.862 484.001 517.392 479.073 513.824C474.014 510.172 468.056 508.223 461.917 507.492C450.209 506.103 437.971 511.384 430.431 520.331C422.822 529.329 419.2 540.578 419.2 552.311C419.2 557.657 419.2 562.993 419.2 568.339C419.2 581.476 419.2 594.621 419.2 607.757C419.2 608.012 419.2 608.27 419.2 608.529C419.2 612.729 422.899 616.755 427.238 616.563C431.566 616.326 435.25 612.984 435.25 608.485Z" fill="white"/>
<path d="M250.968 609.02C250.968 602.186 250.968 595.349 250.968 588.515C250.968 578.08 250.968 567.642 250.968 557.207C250.968 553.65 250.85 550.082 251.322 546.558C251.225 547.264 251.129 547.984 251.033 548.689C251.493 545.474 252.34 542.368 253.582 539.368C253.315 540.011 253.047 540.644 252.768 541.288C253.776 538.931 254.986 536.669 256.443 534.56C256.658 534.247 257.836 532.683 256.883 533.916C255.929 535.138 257.118 533.636 257.376 533.338C258.093 532.49 258.854 531.675 259.657 530.904C260.407 530.188 261.19 529.511 261.983 528.849C262.229 528.646 262.957 528.075 261.843 528.944C260.675 529.846 261.565 529.159 261.854 528.966C262.272 528.664 262.69 528.377 263.108 528.097C264.843 526.962 266.675 525.998 268.582 525.183C267.94 525.452 267.308 525.718 266.665 525.998C269.525 524.809 272.514 524.005 275.589 523.576C274.882 523.674 274.164 523.768 273.457 523.867C276.522 523.47 279.618 523.47 282.682 523.867C281.975 523.768 281.257 523.674 280.55 523.576C283.647 524.005 286.657 524.83 289.528 526.042C288.886 525.772 288.254 525.503 287.611 525.227C289.753 526.158 291.8 527.275 293.718 528.613C293.954 528.773 294.189 528.955 294.425 529.115C295.443 529.835 293.043 528.002 293.771 528.602C294.221 528.977 294.682 529.34 295.121 529.726C296.064 530.552 296.964 531.428 297.821 532.363C298.335 532.919 298.828 533.498 299.332 534.065C299.546 534.312 299.771 534.56 299.975 534.803C300.21 535.083 300.446 535.363 300.682 535.651C301.539 536.702 300.746 535.491 300.371 535.232C300.875 535.567 301.293 536.509 301.625 537.022C302.064 537.687 302.482 538.371 302.878 539.059C303.628 540.375 304.292 541.746 304.893 543.139C304.625 542.499 304.357 541.866 304.078 541.223C305.353 544.307 306.221 547.522 306.671 550.832C306.575 550.126 306.478 549.41 306.382 548.7C306.746 551.679 306.693 554.658 306.693 557.647C306.693 561.943 306.693 566.242 306.693 570.548C306.693 580.917 306.693 591.29 306.693 601.67C306.693 604.125 306.693 606.58 306.693 609.031C306.693 613.232 310.389 617.262 314.728 617.069C319.078 616.876 322.763 613.53 322.763 609.031C322.763 597.011 322.763 584.98 322.763 572.959C322.763 566.991 322.763 561.033 322.763 555.065C322.763 551.777 322.517 548.54 321.971 545.282C320.674 537.429 316.925 530.231 311.91 524.121C308.503 519.986 304.56 516.313 299.953 513.527C294.36 510.151 288.157 508.362 281.696 507.686C269.611 506.424 257.14 511.061 248.418 519.419C239.547 527.926 234.908 540.099 234.908 552.29C234.908 557.487 234.908 562.692 234.908 567.889C234.908 581.324 234.908 594.76 234.908 608.184C234.908 608.464 234.908 608.744 234.908 609.02C234.908 613.221 238.604 617.251 242.943 617.058C247.283 616.865 250.968 613.523 250.968 609.02Z" fill="white"/>
<path d="M243.469 574.198C251.472 574.198 259.486 574.198 267.49 574.198C280.143 574.198 292.796 574.198 305.439 574.198C308.353 574.198 311.267 574.198 314.182 574.198C318.382 574.198 322.41 570.503 322.217 566.164C322.025 561.814 318.682 558.13 314.182 558.13C306.178 558.13 298.164 558.13 290.161 558.13C277.507 558.13 264.854 558.13 252.212 558.13C249.297 558.13 246.383 558.13 243.469 558.13C239.269 558.13 235.24 561.825 235.433 566.164C235.626 570.514 238.969 574.198 243.469 574.198Z" fill="white"/>
<path d="M281.29 94.937C286.754 96.4903 292.111 98.3761 297.35 100.573C296.707 100.304 296.075 100.037 295.432 99.7582C301.893 102.49 308.161 105.694 314.15 109.347C317.182 111.201 320.139 113.162 323.021 115.24C323.685 115.722 324.349 116.204 325.014 116.697C325.367 116.965 325.721 117.233 326.075 117.501C327.05 118.24 324.51 116.279 325.796 117.286C327.189 118.379 328.56 119.493 329.921 120.64C335.225 125.118 340.207 130.004 344.803 135.211C345.971 136.54 347.117 137.89 348.231 139.261C348.746 139.893 349.26 140.536 349.774 141.19C349.892 141.34 350.01 141.49 350.128 141.64C350.653 142.304 349.356 140.622 349.453 140.761C349.742 141.168 350.063 141.565 350.374 141.972C352.474 144.757 354.456 147.618 356.342 150.554C360.649 157.261 364.368 164.332 367.485 171.661C367.216 171.018 366.947 170.386 366.671 169.743C369.682 176.9 372.101 184.282 373.912 191.835C374.887 195.928 379.764 198.757 383.801 197.449C388.067 196.067 390.468 191.953 389.417 187.56C384.736 167.943 375.927 149.14 363.681 133.101C351.189 116.729 335.674 102.855 317.675 92.7726C307.571 87.105 296.728 82.6049 285.586 79.4334C281.547 78.287 276.661 80.8369 275.697 85.0479C274.7 89.3334 276.961 93.7047 281.29 94.937Z" fill="white"/>
<path d="M122.357 276.423C122.207 276.08 121.896 274.902 121.606 274.677C121.628 274.698 122.067 275.802 121.8 275.116C121.682 274.827 121.553 274.527 121.435 274.237C120.953 273.059 120.492 271.881 120.053 270.691C119.217 268.463 118.424 266.202 117.707 263.931C116.217 259.281 114.964 254.545 113.968 249.766C113.453 247.313 113.003 244.849 112.618 242.374C112.532 241.817 112.446 241.249 112.371 240.692C112.296 240.188 112.5 239.76 112.403 240.949C112.425 240.724 112.339 240.445 112.307 240.22C112.146 238.924 111.996 237.628 111.868 236.331C111.375 231.392 111.15 226.431 111.171 221.46C111.193 217.528 111.375 213.596 111.728 209.674C111.9 207.703 112.157 205.753 112.371 203.792C112.382 203.717 112.168 205.282 112.264 204.564C112.296 204.317 112.339 204.06 112.371 203.814C112.435 203.374 112.5 202.935 112.564 202.496C112.714 201.499 112.885 200.503 113.057 199.507C114.375 192.028 116.292 184.646 118.81 177.478C119.421 175.732 120.064 174.007 120.75 172.293C120.932 171.832 121.114 171.382 121.296 170.922C121.403 170.643 121.96 169.325 121.532 170.332C121.082 171.393 121.682 169.989 121.789 169.743C122.003 169.239 122.228 168.736 122.453 168.232C123.975 164.836 125.624 161.493 127.414 158.236C129.192 154.99 131.099 151.808 133.124 148.711C134.153 147.136 135.214 145.593 136.306 144.061C136.799 143.375 137.292 142.69 137.806 142.004C138.096 141.618 138.385 141.233 138.674 140.847C138.781 140.697 138.889 140.558 139.006 140.419C139.617 139.615 139.081 140.354 138.781 140.719C141.16 137.901 143.41 134.997 145.906 132.265C148.392 129.543 150.974 126.919 153.663 124.401C156.352 121.883 159.138 119.462 162.02 117.158C162.352 116.89 162.684 116.633 163.017 116.365C163.209 116.215 163.402 116.076 163.585 115.915C163.52 115.969 162.309 116.89 163.145 116.258C163.863 115.712 164.592 115.165 165.32 114.629C166.831 113.515 168.363 112.433 169.927 111.383C176.077 107.237 182.559 103.573 189.288 100.444C190.059 100.08 190.841 99.7264 191.623 99.3834C192.073 99.1907 192.523 98.987 192.973 98.7942C193.338 98.6335 194.098 98.3334 192.448 99.0084C192.673 98.9121 192.898 98.8157 193.123 98.7298C194.881 98.0013 196.659 97.3049 198.448 96.6513C201.984 95.355 205.584 94.1977 209.216 93.1906C211.016 92.6869 212.826 92.2265 214.648 91.7977C217.927 91.0263 220.176 87.1052 219.137 83.8908C218.033 80.4731 214.734 78.5767 211.23 79.4016C195.898 83.0124 181.07 89.1728 167.699 97.5085C154.584 105.683 142.66 115.937 132.76 127.808C122.442 140.161 114.278 153.929 108.353 168.886C102.417 183.886 99.15 199.925 98.4426 216.028C97.5642 236.01 100.832 256.334 108 275.009C109.018 277.666 110.121 280.302 111.267 282.916C111.868 284.298 113.732 285.488 115.114 285.873C116.657 286.302 118.703 286.109 120.064 285.23C121.435 284.341 122.646 283.023 123.021 281.384C123.406 279.584 123.085 278.095 122.357 276.423Z" fill="white"/>
<path d="M318.157 334.225C311.01 338.532 303.585 342.357 295.903 345.604C296.546 345.336 297.179 345.068 297.821 344.789C285.8 349.836 273.2 353.414 260.268 355.161C260.976 355.064 261.693 354.968 262.401 354.872C250.786 356.404 239.022 356.425 227.397 354.882C228.104 354.979 228.822 355.075 229.529 355.171C217.658 353.554 206.087 350.307 195.052 345.657C195.694 345.925 196.326 346.193 196.969 346.472C185.569 341.629 174.823 335.34 164.87 327.979C164.248 327.518 163.627 327.057 163.006 326.586C162.588 326.276 161.356 325.172 163.145 326.704C162.909 326.501 162.652 326.318 162.406 326.126C161.045 325.054 159.695 323.961 158.356 322.847C155.988 320.876 153.802 318.722 151.434 316.751C146.849 312.926 141.803 309.851 136.038 308.169C126.749 305.458 116.185 306.883 108.117 312.315C100.36 317.533 94.371 325.793 92.8496 335.147C91.9069 340.911 92.0782 346.75 93.9102 352.343C96.0211 358.793 99.7065 364.47 104.378 369.369C107.282 372.409 112.853 372.519 115.746 369.369C118.746 366.099 118.853 361.257 115.746 358C114.942 357.154 114.16 356.296 113.421 355.386C113.249 355.182 112.435 354.132 113.356 355.322C114.267 356.5 113.474 355.471 113.324 355.247C113.003 354.807 112.703 354.368 112.403 353.918C111.246 352.172 110.26 350.329 109.435 348.389C109.703 349.032 109.971 349.665 110.25 350.307C109.264 347.918 108.578 345.432 108.235 342.861C108.331 343.568 108.428 344.286 108.524 344.993C108.246 342.7 108.235 340.397 108.524 338.093C108.428 338.8 108.331 339.518 108.235 340.225C108.556 337.836 109.189 335.522 110.11 333.304C109.842 333.947 109.574 334.579 109.296 335.222C109.96 333.679 110.742 332.201 111.674 330.797C111.921 330.422 112.188 330.058 112.446 329.693C113.249 328.579 111.031 331.45 112.103 330.154C112.649 329.5 113.217 328.868 113.817 328.258C114.385 327.69 114.985 327.143 115.596 326.618C115.767 326.479 115.939 326.34 116.121 326.19C116.892 325.558 115.071 326.993 115.135 326.951C115.51 326.725 115.864 326.415 116.228 326.168C117.642 325.215 119.153 324.411 120.728 323.736C120.085 324.004 119.453 324.272 118.81 324.55C120.835 323.715 122.946 323.136 125.121 322.815C124.414 322.911 123.696 323.008 122.989 323.104C125.249 322.804 127.531 322.793 129.792 323.072C129.085 322.976 128.367 322.879 127.66 322.783C130.21 323.125 132.663 323.822 135.031 324.819C134.388 324.55 133.756 324.283 133.113 324.004C135.685 325.119 137.945 326.597 140.238 328.183C137.87 326.543 140.12 328.118 140.667 328.59C141.16 329.018 141.642 329.458 142.124 329.907C143.581 331.29 145.102 332.597 146.634 333.883C152.602 338.886 158.859 343.59 165.395 347.822C177.266 355.514 190.23 361.697 203.751 365.885C229.423 373.846 257.108 373.962 282.993 366.892C298.186 362.736 312.778 356.2 326.257 348.079C329.856 345.914 331.517 340.761 329.139 337.086C326.824 333.497 322.014 331.911 318.157 334.225Z" fill="white"/>
<path d="M358.496 321.605C363.317 315.658 368.158 309.615 372.156 303.059C375.294 297.894 377.684 292.355 379.902 286.741C381.146 283.613 382.408 280.473 383.503 277.291C385.089 272.684 385.943 267.97 386.514 263.148C387.318 256.313 387.144 249.531 386.031 242.738C384.296 232.12 379.055 222.231 370.239 215.899C363.188 210.842 353.235 209.342 345.081 212.417C340.442 214.164 336.274 216.767 332.868 220.388C328.935 224.578 326.236 229.463 324.2 234.799C323.761 235.956 323.375 237.135 323.032 238.324C328.293 239.031 333.553 239.749 338.814 240.456C339.939 226.388 338.867 211.946 334.892 198.371C331.249 185.932 325.186 174.5 317.021 164.461C309.736 155.504 300.479 147.972 290.354 142.443C280.229 136.904 269.087 133.101 257.665 131.429C243.812 129.394 229.787 129.769 216.191 133.379C202.112 137.108 189.148 144.104 178.038 153.468C167.484 162.35 158.753 173.782 153.01 186.318C149.249 194.525 146.442 203.128 145.049 212.053C144.16 217.71 144.224 223.528 144.449 229.238C145.017 243.67 147.61 257.845 153.481 271.088C157.81 280.859 164.345 289.752 172.263 296.93C176.57 300.841 181.22 304.387 186.277 307.248C192.277 310.644 198.727 313.43 205.359 315.337C217.412 318.808 230.162 319.247 242.43 316.698C253.272 314.448 263.719 309.573 272.493 302.834C281.622 295.816 289.39 287.137 294.8 276.916C300.243 266.641 303.404 255.231 303.693 243.585C304.004 231.263 300.875 219.049 295.218 208.142C293.804 205.399 292.197 202.753 290.45 200.214C288.265 197.043 285.972 193.732 283.1 191.15C277.176 185.825 270.554 181.057 263.258 177.8C256.369 174.725 249.34 172.775 241.787 172.239C235.616 171.811 229.208 172.55 223.284 174.318C211.348 177.875 201.223 185.428 193.97 195.489C187.327 204.703 183.695 216.713 184.713 228.081C185.302 234.671 187.048 240.767 190.006 246.681C191.891 250.452 197.516 251.813 200.998 249.563C204.855 247.077 205.895 242.599 203.88 238.57C203.452 237.702 203.045 236.824 202.659 235.924C202.927 236.567 203.195 237.199 203.473 237.842C202.123 234.595 201.191 231.21 200.698 227.727C200.795 228.435 200.891 229.152 200.988 229.86C200.516 226.324 200.527 222.756 200.988 219.21C200.891 219.917 200.795 220.635 200.698 221.342C201.202 217.657 202.198 214.067 203.623 210.628C203.355 211.271 203.088 211.903 202.809 212.546C203.955 209.835 205.359 207.231 206.998 204.789C207.384 204.221 207.78 203.653 208.187 203.096C209.259 201.65 207.03 204.532 207.834 203.546C208.016 203.31 208.209 203.085 208.391 202.849C209.334 201.703 210.33 200.6 211.38 199.539C212.43 198.478 213.544 197.471 214.691 196.517C214.926 196.325 215.152 196.132 215.387 195.95C216.802 194.814 213.919 197.043 214.948 196.292C215.516 195.875 216.084 195.467 216.662 195.071C219.18 193.357 221.859 191.91 224.666 190.711C224.023 190.978 223.391 191.246 222.748 191.525C226.498 189.95 230.43 188.868 234.458 188.31C233.751 188.407 233.033 188.503 232.326 188.6C236.473 188.053 240.662 188.064 244.808 188.611C244.101 188.514 243.383 188.417 242.676 188.321C247.337 188.964 251.847 190.26 256.176 192.082C255.533 191.814 254.901 191.546 254.258 191.267C257.976 192.864 261.522 194.825 264.865 197.085C265.829 197.739 266.772 198.403 267.704 199.1C268.154 199.432 269.226 200.492 267.49 198.928C267.94 199.324 268.444 199.678 268.904 200.064C270.629 201.478 272.44 202.924 273.854 204.66C274.165 205.046 274.476 205.431 274.786 205.828C275.686 206.953 273.629 204.296 274.433 205.367C275.011 206.149 275.59 206.921 276.158 207.725C277.176 209.182 278.15 210.66 279.061 212.181C280.818 215.085 282.35 218.117 283.679 221.246C283.411 220.603 283.143 219.971 282.865 219.328C285.072 224.621 286.604 230.16 287.365 235.849C287.268 235.142 287.172 234.424 287.075 233.717C287.804 239.32 287.783 244.988 287.033 250.592C287.129 249.884 287.225 249.167 287.322 248.46C286.518 254.234 284.943 259.881 282.693 265.259C282.961 264.616 283.229 263.984 283.508 263.341C282.136 266.556 280.54 269.673 278.708 272.652C277.808 274.12 276.854 275.555 275.847 276.959C275.59 277.323 275.322 277.677 275.065 278.03C274.915 278.223 274.754 278.416 274.615 278.62C274.561 278.706 276.029 276.82 275.333 277.698C274.776 278.395 274.229 279.08 273.651 279.766C271.39 282.445 268.926 284.962 266.29 287.277C265.658 287.834 265.015 288.38 264.361 288.916C264.051 289.162 263.751 289.419 263.44 289.666C262.047 290.77 265.058 288.444 263.654 289.505C262.229 290.577 260.761 291.605 259.251 292.569C255.887 294.723 252.34 296.587 248.665 298.141C249.308 297.873 249.94 297.605 250.583 297.326C245.14 299.598 239.43 301.173 233.591 301.987C234.298 301.891 235.016 301.794 235.723 301.698C229.723 302.501 223.659 302.491 217.659 301.698C218.366 301.794 219.084 301.891 219.791 301.987C213.309 301.098 206.998 299.309 200.966 296.759C201.609 297.026 202.241 297.294 202.884 297.573C198.716 295.794 194.698 293.684 190.863 291.273C190.113 290.802 189.395 290.309 188.688 289.784C188.409 289.569 188.12 289.366 187.841 289.152C187.67 289.023 187.499 288.873 187.316 288.755C187.381 288.798 189.17 290.201 188.206 289.441C186.952 288.444 185.709 287.427 184.509 286.366C182.088 284.234 179.784 281.952 177.652 279.519C177.127 278.92 176.613 278.32 176.109 277.709C175.842 277.377 175.574 277.055 175.317 276.723C174.245 275.373 176.57 278.384 175.531 277.002C174.513 275.652 173.549 274.259 172.627 272.834C170.377 269.33 168.449 265.634 166.82 261.798C167.088 262.441 167.356 263.074 167.635 263.716C164.41 256.045 162.417 247.934 161.292 239.695C161.388 240.403 161.485 241.12 161.581 241.827C160.349 232.645 160.135 223.421 160.82 214.196C160.724 214.903 160.627 215.621 160.531 216.328C161.806 208.989 163.724 201.842 166.606 194.964C166.338 195.607 166.07 196.239 165.792 196.882C167.635 192.564 169.788 188.385 172.263 184.4C173.399 182.579 174.599 180.8 175.863 179.054C176.163 178.646 176.463 178.239 176.763 177.832C178.027 176.161 175.734 179.139 176.774 177.811C177.481 176.921 178.199 176.043 178.938 175.186C181.756 171.886 184.82 168.789 188.088 165.929C188.891 165.222 189.716 164.536 190.541 163.861C190.927 163.539 191.323 163.229 191.72 162.918C191.988 162.715 192.716 162.136 191.656 162.961C190.466 163.882 191.645 162.982 191.902 162.789C193.67 161.472 195.491 160.207 197.356 159.029C201.534 156.361 205.938 154.068 210.502 152.118C209.859 152.386 209.227 152.654 208.584 152.932C215.891 149.858 223.562 147.768 231.416 146.697C230.709 146.793 229.991 146.89 229.284 146.986C237.619 145.883 246.083 145.947 254.408 147.061C253.701 146.965 252.983 146.868 252.276 146.772C260.419 147.886 268.39 150.018 275.975 153.2C275.333 152.932 274.701 152.665 274.058 152.386C277.904 154.014 281.632 155.89 285.211 158.032C287 159.104 288.747 160.24 290.45 161.439C291.222 161.975 291.982 162.532 292.732 163.1C294.233 164.236 291.147 161.847 292.593 162.993C293.086 163.379 293.579 163.775 294.061 164.172C297.221 166.786 300.2 169.636 302.943 172.679C303.65 173.471 304.346 174.275 305.032 175.089C305.375 175.497 305.707 175.914 306.05 176.332C306.179 176.504 306.318 176.664 306.446 176.836C307.314 177.939 306.189 176.611 305.975 176.225C306.489 177.136 307.282 177.971 307.882 178.828C308.504 179.718 309.114 180.618 309.704 181.518C312.425 185.718 314.75 190.153 316.7 194.749C316.432 194.107 316.164 193.475 315.886 192.832C319.175 200.664 321.328 208.903 322.464 217.314C322.368 216.607 322.271 215.889 322.175 215.182C323.289 223.571 323.396 232.035 322.721 240.467C322.571 242.342 323.707 244.892 325.078 246.145C326.407 247.367 327.896 248.117 329.696 248.352C333.639 248.877 337.389 246.467 338.514 242.599C338.985 240.97 339.542 239.374 340.196 237.799C339.928 238.442 339.66 239.074 339.382 239.717C340.153 237.895 341.053 236.138 342.114 234.467C342.585 233.727 343.11 233.02 343.624 232.302C341.653 235.056 343.571 232.431 344.214 231.745C344.76 231.156 345.339 230.599 345.949 230.063C346.239 229.806 346.549 229.56 346.849 229.303C347.707 228.585 345.028 230.663 345.885 230.042C346.057 229.924 346.217 229.795 346.389 229.678C347.653 228.788 349.013 228.028 350.438 227.417C349.796 227.685 349.164 227.953 348.521 228.231C350.181 227.535 351.917 227.042 353.706 226.796C352.999 226.892 352.281 226.988 351.574 227.085C353.331 226.849 355.088 226.849 356.846 227.085C356.138 226.988 355.421 226.892 354.713 226.796C356.492 227.042 358.217 227.524 359.867 228.221C359.224 227.953 358.592 227.685 357.949 227.406C359.321 227.996 360.638 228.724 361.871 229.581C362.01 229.678 362.149 229.785 362.288 229.881C363.317 230.599 361.388 229.185 361.324 229.131C361.614 229.421 361.989 229.667 362.288 229.935C362.878 230.46 363.456 231.006 363.99 231.585C364.561 232.185 365.063 232.817 365.598 233.449C363.414 230.856 365.449 233.31 365.962 234.102C367.002 235.72 367.871 237.435 368.62 239.202C368.351 238.56 368.086 237.928 367.806 237.285C369.286 240.842 370.206 244.581 370.741 248.395C370.646 247.688 370.548 246.97 370.453 246.263C371.257 252.338 371.064 258.477 370.261 264.541C370.355 263.834 370.453 263.116 370.548 262.409C369.413 270.573 366.176 278.341 363.006 285.905C363.274 285.262 363.542 284.63 363.819 283.988C362.01 288.263 359.921 292.387 357.435 296.309C355.957 298.633 354.371 300.894 352.721 303.112C352.271 303.723 351.81 304.333 351.349 304.934C351.135 305.223 350.91 305.501 350.685 305.791C352.11 303.862 351.189 305.148 350.835 305.587C349.614 307.151 348.371 308.694 347.128 310.237C345.746 311.951 344.771 313.633 344.771 315.916C344.771 317.887 345.65 320.244 347.128 321.594C350.063 324.305 355.667 325.098 358.496 321.605Z" fill="white"/>
<path d="M411.457 308.865C406.249 318.658 400.175 327.829 393.53 336.69C395.127 334.568 393.552 336.657 393.156 337.15C392.748 337.665 392.33 338.179 391.912 338.693C391.035 339.776 390.144 340.847 389.246 341.918C387.445 344.05 385.602 346.14 383.718 348.186C380.001 352.236 376.098 356.125 372.061 359.843C368.009 363.571 363.779 367.085 359.46 370.493C361.496 368.885 359.631 370.355 359.16 370.707C358.635 371.104 358.099 371.5 357.574 371.897C356.395 372.773 355.207 373.632 354.006 374.479C351.788 376.054 349.528 377.574 347.246 379.054C342.596 382.055 337.828 384.859 332.942 387.452C327.95 390.111 322.818 392.369 317.686 394.737C317.771 394.697 319.582 393.944 318.371 394.45C318.092 394.566 317.825 394.675 317.546 394.792C316.861 395.072 316.164 395.359 315.479 395.628C314.161 396.152 312.843 396.668 311.514 397.159C308.921 398.123 306.307 399.047 303.671 399.902C298.218 401.68 292.69 403.215 287.108 404.499C281.525 405.786 275.89 406.794 270.211 407.605C269.097 407.769 272.386 407.329 270.747 407.532C270.436 407.576 270.136 407.605 269.826 407.649C269.14 407.736 268.443 407.82 267.758 407.896C266.301 408.067 264.833 408.216 263.365 408.358C260.419 408.623 257.461 408.838 254.505 408.976C248.355 409.267 242.194 409.278 236.033 408.998C232.884 408.86 229.744 408.634 226.605 408.347C225.094 408.205 223.573 408.045 222.062 407.863C221.226 407.769 220.391 407.66 219.555 407.554C219.062 407.489 218.012 407.307 220.187 407.638C219.694 407.565 219.191 407.499 218.687 407.423C206.398 405.634 194.27 402.666 182.549 398.574C179.624 397.556 176.709 396.465 173.838 395.297C173.163 395.017 172.477 394.737 171.802 394.461C170.752 394.032 173.709 395.286 172.145 394.61C171.845 394.483 171.545 394.352 171.245 394.224C169.756 393.581 168.277 392.919 166.799 392.231C161.367 389.714 156.052 386.95 150.878 383.95C145.585 380.884 140.442 377.563 135.46 374.006C134.282 373.17 133.114 372.315 131.956 371.446C131.378 371.016 130.799 370.58 130.231 370.14C129.792 369.798 128.935 368.962 130.521 370.365C130.167 370.042 129.76 369.776 129.385 369.474C127.06 367.63 124.767 365.746 122.528 363.808C120.289 361.868 118.092 359.875 115.928 357.839C112.875 354.947 107.56 354.582 104.56 357.839C101.689 360.968 101.293 366.121 104.56 369.205C123.332 386.95 145.199 400.887 169.113 410.616C193.262 420.444 219.48 425.339 245.547 425.274C269.483 425.219 293.568 420.989 315.993 412.588C338.267 404.241 358.806 392.209 377 376.89C394.56 362.093 409.602 344.136 421.226 324.336C422.652 321.915 424.012 319.461 425.329 316.987C427.3 313.279 426.391 308.072 422.448 305.994C418.731 304.022 413.567 304.912 411.457 308.865Z" fill="white"/>
<path d="M74.5285 309.937C62.8715 287.48 55.5753 262.077 53.6895 236.899C52.8217 225.402 52.961 213.82 54.0968 202.345C54.2146 201.114 54.3539 199.881 54.4932 198.649C54.5682 198.038 54.6431 197.417 54.718 196.806C54.7609 196.453 54.8038 196.11 54.8573 195.756C54.7824 196.346 54.8038 196.153 54.8682 195.681C55.2323 193.164 55.6287 190.646 56.079 188.139C56.9897 183.092 58.1037 178.078 59.4109 173.107C60.686 168.275 62.143 163.496 63.7822 158.782C64.5965 156.436 65.4538 154.111 66.3645 151.797C66.8039 150.682 67.2428 149.579 67.7037 148.464C67.8215 148.186 68.4431 146.718 68.0252 147.682C68.2929 147.061 68.5609 146.429 68.8395 145.807C72.782 136.807 77.4105 128.108 82.6606 119.804C85.2749 115.669 88.0285 111.64 90.9424 107.719C91.6389 106.776 92.3569 105.833 93.0748 104.901C92.4318 105.737 93.4283 104.451 93.5891 104.247C94.0605 103.658 94.5318 103.058 95.0032 102.469C96.5355 100.572 98.0998 98.708 99.696 96.8651C106.082 89.5154 113.014 82.6367 120.417 76.305C122.271 74.7192 124.146 73.1655 126.063 71.655C126.524 71.2906 126.985 70.9262 127.456 70.5621C127.96 70.1657 127.392 70.6156 127.317 70.669C127.585 70.4657 127.853 70.2621 128.12 70.0584C129.128 69.2979 130.135 68.537 131.153 67.798C135.096 64.9156 139.145 62.1729 143.303 59.5906C151.734 54.341 160.541 49.798 169.648 45.834C169.702 45.8125 170.484 45.4804 169.916 45.7161C169.295 45.9733 170.291 45.5659 170.42 45.5019C170.977 45.2768 171.523 45.0411 172.081 44.8269C173.27 44.3446 174.459 43.8732 175.659 43.4233C177.984 42.5341 180.32 41.6983 182.666 40.8945C187.402 39.2877 192.202 37.8732 197.044 36.6305C201.941 35.3769 206.88 34.3269 211.862 33.4591C213.073 33.2448 214.283 33.052 215.494 32.8591C216.105 32.7627 216.716 32.6769 217.316 32.5805C217.669 32.527 218.012 32.4841 218.365 32.4305C219.276 32.302 217.53 32.5377 218.441 32.4198C220.991 32.0877 223.54 31.7984 226.09 31.5627C236.762 30.577 247.508 30.4592 258.19 31.2091C260.879 31.3913 263.579 31.6377 266.258 31.9377C267.543 32.077 268.829 32.2377 270.115 32.3984C269.161 32.2698 270.822 32.4948 271.089 32.5377C271.818 32.6448 272.547 32.752 273.275 32.8591C278.514 33.6734 283.722 34.7019 288.886 35.934C299.043 38.3661 309.007 41.6234 318.649 45.6412C319.496 45.9947 317.942 45.3411 318.789 45.6947C319.035 45.8016 319.282 45.9089 319.528 46.0162C320.107 46.2624 320.675 46.5195 321.242 46.7661C322.464 47.3124 323.685 47.8587 324.896 48.4268C327.307 49.5623 329.706 50.741 332.074 51.9624C336.639 54.3301 341.106 56.8694 345.467 59.5906C349.817 62.3013 354.049 65.1728 358.174 68.2155C359.17 68.9444 360.156 69.6943 361.131 70.4443C361.163 70.4657 361.849 71.0015 361.399 70.6476C360.906 70.2621 361.763 70.9371 361.87 71.0229C362.427 71.4619 362.974 71.9013 363.52 72.3406C365.514 73.9369 367.474 75.5761 369.402 77.2477C377.105 83.9438 384.296 91.2295 390.875 99.0295C392.577 101.044 394.239 103.101 395.865 105.19C395.33 104.504 396.112 105.511 396.272 105.726C396.701 106.283 397.12 106.851 397.549 107.419C398.342 108.479 399.113 109.551 399.884 110.622C402.863 114.79 405.67 119.076 408.304 123.468C410.951 127.872 413.435 132.382 415.73 136.989C416.887 139.304 417.989 141.629 419.051 143.986C419.567 145.122 420.058 146.268 420.56 147.414C420.626 147.565 420.979 148.411 420.626 147.554C420.735 147.8 420.829 148.046 420.939 148.293C421.215 148.957 421.484 149.622 421.742 150.275C423.648 155.021 425.35 159.853 426.885 164.739C427.794 167.632 430.806 169.496 433.806 168.671C436.665 167.889 438.647 164.664 437.738 161.75C431.308 141.254 421.688 121.743 409.14 104.301C396.509 86.7403 381.273 71.3441 363.852 58.5195C346.57 45.791 327.189 35.9233 306.778 29.2913C285.757 22.4557 263.483 19.1772 241.39 19.5093C220.208 19.82 198.995 23.42 178.959 30.2984C159.567 36.952 141.17 46.4981 124.681 58.6799C107.999 70.9691 93.3745 85.5939 81.0748 102.244C68.9359 118.668 59.4323 136.979 52.7791 156.275C45.8789 176.3 42.247 197.503 41.904 218.684C41.4647 245.566 46.3718 272.619 56.5074 297.54C59.0039 303.69 61.7575 309.733 64.8217 315.626C66.2252 318.326 69.9859 319.119 72.5144 317.64C75.2465 316.033 75.9321 312.647 74.5285 309.937Z" fill="white"/>
<path d="M420.411 200.191C427.14 196.72 434.737 194.995 442.462 195.199C444.132 195.242 445.805 195.37 447.463 195.584C446.758 195.499 447.594 195.606 447.852 195.649C448.216 195.702 448.569 195.767 448.933 195.831C449.769 195.981 450.606 196.152 451.428 196.345C452.952 196.699 454.45 197.138 455.93 197.631C456.658 197.877 457.385 198.145 458.116 198.434C458.265 198.499 459.134 198.852 458.789 198.702C458.342 198.509 459.025 198.809 459.124 198.852C459.335 198.949 459.549 199.045 459.764 199.141C462.539 200.427 465.197 201.97 467.682 203.738C468.016 203.974 468.347 204.22 468.678 204.466C469.289 204.916 468.391 204.22 468.98 204.692C469.613 205.206 470.242 205.731 470.864 206.266C471.999 207.273 473.093 208.323 474.145 209.427C475.181 210.531 476.178 211.688 477.123 212.877C476.629 212.255 477.338 213.166 477.443 213.327C477.647 213.606 477.862 213.895 478.054 214.184C478.523 214.859 478.974 215.534 479.415 216.231C480.229 217.527 480.989 218.856 481.677 220.216C482.019 220.902 482.35 221.598 482.673 222.295C482.779 222.52 483.088 223.27 482.833 222.638C483.015 223.077 483.186 223.516 483.357 223.966C484.47 226.891 485.296 229.913 485.834 232.998C485.896 233.363 485.95 233.716 486.005 234.08C486.132 234.873 486.038 234.273 486.016 234.102C486.038 234.284 486.056 234.466 486.078 234.648C486.176 235.505 486.259 236.373 486.314 237.23C486.423 238.859 486.441 240.487 486.39 242.116C486.358 242.92 486.314 243.734 486.249 244.537C486.219 244.901 486.187 245.276 486.143 245.641C486.121 245.823 486.099 246.005 486.078 246.187C486.067 246.262 485.972 247.023 486.038 246.562C486.088 246.177 485.918 247.323 485.885 247.484C485.823 247.848 485.758 248.201 485.692 248.566C485.532 249.402 485.361 250.226 485.157 251.051C484.794 252.562 484.343 254.062 483.841 255.541C483.583 256.269 483.313 256.998 483.026 257.716C482.961 257.876 482.895 258.048 482.822 258.209C482.844 258.155 483.07 257.64 482.877 258.069C482.702 258.444 482.542 258.83 482.361 259.205C481.044 262.033 479.458 264.723 477.636 267.251C477.432 267.54 477.218 267.819 477.014 268.098C476.738 268.462 477.069 268.033 477.112 267.98C476.97 268.162 476.821 268.344 476.672 268.526C476.189 269.115 475.708 269.694 475.203 270.262C474.155 271.44 473.061 272.576 471.904 273.647C471.391 274.13 470.864 274.59 470.34 275.051C470.027 275.319 469.718 275.576 469.398 275.833C469.216 275.983 468.391 276.626 468.969 276.187C467.758 277.108 466.503 277.976 465.208 278.78C463.859 279.626 462.477 280.397 461.051 281.104C460.418 281.415 459.775 281.715 459.124 282.015C458.96 282.09 458.8 282.154 458.629 282.229C459.316 281.93 458.738 282.187 458.607 282.24C458.222 282.39 457.836 282.551 457.451 282.69C454.461 283.815 451.377 284.651 448.227 285.165C447.86 285.23 447.496 285.283 447.143 285.336C447.852 285.23 447.005 285.347 446.747 285.379C445.888 285.476 445.023 285.551 444.154 285.604C442.397 285.711 440.629 285.722 438.862 285.647C435.003 285.476 431.791 284.919 427.871 283.719C426.958 283.44 426.07 283.14 425.179 282.819C424.772 282.669 424.365 282.508 423.957 282.348C423.99 282.358 423.328 282.09 423.637 282.219C423.841 282.305 423.197 282.026 423.124 281.994C421.353 281.201 419.629 280.312 417.96 279.315C416.363 278.362 414.828 277.312 413.341 276.197C411.606 274.89 408.853 275.919 407.845 277.644C406.645 279.701 407.543 281.833 409.289 283.14C422.244 292.912 439.505 296.126 455.148 291.883C468.507 288.262 480.186 279.283 487.172 267.337C494.425 254.951 496.363 239.727 492.442 225.916C488.671 212.598 479.607 201.006 467.587 194.138C454.097 186.435 437.276 184.935 422.695 190.42C420.531 191.235 418.407 192.177 416.352 193.227C414.425 194.224 413.854 196.924 414.905 198.724C416.061 200.717 418.483 201.199 420.411 200.191Z" fill="white"/>
<path d="M464.306 239.921C464.306 240.671 464.277 241.41 464.223 242.16C464.201 242.406 464.245 243.049 464.114 243.263C464.146 243.039 464.179 242.824 464.212 242.599C464.179 242.835 464.136 243.081 464.092 243.317C463.848 244.742 463.503 246.135 463.044 247.506C462.895 247.946 462.743 248.867 462.433 249.178C462.517 248.985 462.604 248.781 462.692 248.588C462.593 248.803 462.499 249.017 462.401 249.231C462.252 249.553 462.102 249.864 461.939 250.185C461.299 251.438 460.568 252.638 459.753 253.774C459.691 253.87 459.615 253.967 459.549 254.053C459.218 254.503 459.273 254.428 459.731 253.828C459.691 253.967 459.367 254.277 459.295 254.374C458.844 254.91 458.382 255.435 457.902 255.938C457.462 256.399 457 256.849 456.52 257.278C456.305 257.47 456.09 257.663 455.865 257.856C455.683 258.006 455.512 258.156 455.33 258.306C454.89 258.66 454.967 258.595 455.567 258.135C455.265 258.606 454.312 259.035 453.839 259.335C453.348 259.645 452.843 259.956 452.341 260.235C451.73 260.578 451.097 260.899 450.453 261.199C450.358 261.242 449.286 261.66 450.111 261.36C450.937 261.06 449.555 261.563 449.416 261.617C448.184 262.067 446.907 262.42 445.623 262.688C445.27 262.763 444.914 262.827 444.55 262.892C444.434 262.913 444.314 262.935 444.186 262.945C443.608 263.031 443.706 263.02 444.488 262.902C444.026 263.192 442.826 263.053 442.27 263.074C441.52 263.106 440.768 263.106 440.018 263.074C439.527 263.053 438.207 263.192 437.8 262.902C437.854 262.935 439.098 263.117 438.102 262.945C437.749 262.881 437.382 262.827 437.029 262.752C436.203 262.592 435.392 262.388 434.577 262.152C434.01 261.981 433.439 261.799 432.883 261.596C432.646 261.51 432.068 261.392 431.886 261.21C432.079 261.295 432.282 261.381 432.475 261.467C432.261 261.37 432.046 261.274 431.835 261.178C430.558 260.588 429.326 259.903 428.158 259.121C427.805 258.885 426.947 258.499 426.732 258.113C426.903 258.242 427.067 258.371 427.238 258.499C427.056 258.36 426.874 258.21 426.692 258.06C426.423 257.835 426.154 257.61 425.899 257.374C424.859 256.442 423.885 255.435 422.993 254.363C422.921 254.277 422.844 254.181 422.768 254.096C422.415 253.656 422.481 253.731 422.939 254.331C422.717 254.192 422.481 253.699 422.331 253.485C421.997 253.003 421.677 252.52 421.375 252.017C421.011 251.417 420.669 250.806 420.349 250.174C420.218 249.917 420.08 249.649 419.964 249.381C419.887 249.221 419.811 249.06 419.738 248.899C419.513 248.374 419.546 248.471 419.844 249.167C419.458 248.792 419.276 247.667 419.116 247.163C418.935 246.596 418.775 246.017 418.622 245.438C418.451 244.731 418.302 244.024 418.174 243.317C418.153 243.199 418.131 243.081 418.12 242.953C418.033 242.374 418.043 242.471 418.163 243.253C418.011 243.028 418.076 242.439 418.054 242.149C417.949 240.724 417.938 239.289 418.043 237.864C418.065 237.553 418.098 237.253 418.12 236.942C418.214 235.667 417.894 238.132 418.12 236.878C418.269 236.042 418.418 235.217 418.622 234.392C418.775 233.814 418.935 233.235 419.116 232.667C419.276 232.164 419.458 231.039 419.844 230.664C419.244 231.253 419.535 231.349 419.811 230.771C419.942 230.503 420.058 230.235 420.186 229.978C420.553 229.239 420.949 228.521 421.375 227.825C421.677 227.321 421.997 226.839 422.331 226.357C422.481 226.143 422.728 225.65 422.939 225.51C422.812 225.682 422.684 225.842 422.553 226.014C422.695 225.832 422.844 225.65 422.993 225.468C423.885 224.396 424.859 223.389 425.899 222.457C426.154 222.221 426.423 221.996 426.692 221.771C426.776 221.696 426.874 221.621 426.958 221.546C427.398 221.193 427.322 221.257 426.721 221.717C426.958 221.321 427.772 220.957 428.147 220.71C429.325 219.939 430.548 219.253 431.824 218.653C431.93 218.6 432.035 218.557 432.144 218.503C432.668 218.278 432.573 218.311 431.875 218.61C432.057 218.428 432.635 218.311 432.872 218.225C433.428 218.021 433.999 217.839 434.566 217.668C435.261 217.464 435.959 217.293 436.665 217.143C437.018 217.067 437.374 217.003 437.738 216.939C437.92 216.907 438.102 216.875 438.273 216.853C438.669 216.789 438.509 216.81 437.789 216.918C438.24 216.639 439.473 216.767 440.007 216.746C440.695 216.725 441.379 216.714 442.066 216.735C442.75 216.757 443.426 216.821 444.103 216.875C445.376 216.971 442.913 216.65 444.165 216.875C444.648 216.96 445.117 217.035 445.59 217.132C447.121 217.453 448.58 217.935 450.046 218.46C450.497 218.621 450.628 218.439 449.78 218.343C450.177 218.385 450.7 218.76 451.064 218.932C451.806 219.296 452.522 219.693 453.217 220.121C453.817 220.486 454.396 220.871 454.977 221.278C455.072 221.342 455.17 221.417 455.254 221.482C455.705 221.814 455.628 221.76 455.028 221.299C455.381 221.428 455.81 221.942 456.101 222.189C457.236 223.185 458.298 224.267 459.262 225.435C459.367 225.574 459.658 225.832 459.702 225.982C459.24 225.382 459.185 225.307 459.52 225.757C459.658 225.949 459.797 226.132 459.927 226.324C460.353 226.946 460.771 227.589 461.146 228.242C461.531 228.896 461.888 229.571 462.219 230.267C462.346 230.535 462.626 230.942 462.659 231.231C462.368 230.524 462.324 230.439 462.539 230.964C462.604 231.125 462.67 231.296 462.732 231.467C463.27 232.924 463.688 234.435 463.975 235.957C464.03 236.256 464.081 236.556 464.136 236.856C464.223 237.435 464.212 237.339 464.092 236.556C464.125 236.803 464.146 237.049 464.168 237.285C464.277 238.185 464.306 239.053 464.306 239.921C464.328 242.653 466.696 245.267 469.536 245.149C472.355 245.021 474.774 242.856 474.767 239.921C474.668 225.735 465.732 213.264 452.522 208.293C439.698 203.471 424.205 207.639 415.505 218.214C410.929 223.774 408.242 230.31 407.631 237.5C407.063 244.271 408.776 251.321 412.268 257.138C419.629 269.417 434.061 275.556 448.034 272.813C461.168 270.231 472.152 258.981 474.228 245.728C474.53 243.799 474.745 241.871 474.756 239.91C474.774 237.178 472.344 234.564 469.526 234.682C466.685 234.821 464.328 236.996 464.306 239.921Z" fill="white"/>
<path d="M343.764 7.40259C357.478 13.6811 370.602 21.2131 382.914 29.9236C389.009 34.2414 394.28 38.3448 400.001 43.2519C405.682 48.127 411.144 53.2697 416.353 58.6482C422.223 64.7125 427.773 71.0871 432.992 77.7302C434.33 79.4334 437.266 79.1337 438.669 77.7302C440.35 76.048 440.019 73.7549 438.669 72.0517C429.37 60.2124 418.997 49.2304 407.675 39.3093C396.189 29.238 383.779 20.1952 370.635 12.4061C363.242 8.02401 355.614 4.04907 347.803 0.47057C345.831 -0.429416 343.474 -0.0865645 342.307 1.91698C341.31 3.63123 341.782 6.49191 343.764 7.40259Z" fill="white"/>
<path d="M70.7893 384.732C54.311 366.83 40.6398 346.45 30.29 324.433C19.833 302.18 12.8689 278.116 9.8582 253.709C6.76181 228.627 7.54392 203.02 12.3974 178.217C17.0152 154.614 25.1901 131.772 36.6754 110.644C47.9469 89.9009 62.2717 70.9156 79.1141 54.3624C81.225 52.2839 83.3785 50.2482 85.564 48.2551C87.1606 46.7876 87.0533 44.0554 85.564 42.5766C83.9677 40.9803 81.4927 41.1091 79.8855 42.5766C61.8644 59.0549 46.2863 78.2333 33.8899 99.2651C21.3866 120.468 12.0653 143.632 6.47252 167.6C0.569048 192.885 -1.32735 219.124 0.911899 244.998C3.14043 270.766 9.40819 295.998 19.4902 319.815C29.3043 342.979 42.7289 364.492 59.0682 383.608C61.0395 385.91 63.0537 388.183 65.1108 390.42C66.5787 392.017 69.2999 391.911 70.7893 390.42C72.375 388.823 72.2572 386.339 70.7893 384.732Z" fill="white"/>
<path d="M237.308 461.295C221.109 460.728 205.777 458.68 190.016 454.898C182.313 453.046 174.695 450.806 167.206 448.202C163.531 446.918 159.877 445.558 156.267 444.099C152.86 442.717 149.678 441.346 146.142 439.695C138.181 436.01 130.435 431.875 122.924 427.354C121.071 426.227 118.51 426.936 117.428 428.798C116.314 430.697 117.01 433.17 118.875 434.294C132.556 442.535 147.031 449.435 162.042 454.887C177.17 460.386 192.845 464.35 208.766 466.707C218.227 468.111 227.751 469.009 237.308 469.34C239.408 469.417 241.422 467.445 241.326 465.325C241.219 463.074 239.558 461.371 237.308 461.295Z" fill="white"/>
<path d="M483.886 481.077C481.468 481.077 479.295 480.614 477.365 479.688C475.449 478.749 473.919 477.463 472.774 475.83C471.629 474.196 471.019 472.332 470.941 470.235H476.729C476.87 471.933 477.623 473.328 478.986 474.421C480.349 475.515 481.983 476.061 483.886 476.061C485.404 476.061 486.748 475.714 487.918 475.02C489.101 474.312 490.027 473.341 490.696 472.106C491.378 470.872 491.718 469.464 491.718 467.882C491.718 466.274 491.371 464.84 490.677 463.58C489.982 462.319 489.024 461.329 487.802 460.609C486.593 459.889 485.204 459.522 483.635 459.509C482.439 459.509 481.237 459.715 480.028 460.126C478.819 460.538 477.841 461.078 477.095 461.747L471.636 460.937L473.854 441.028H495.577V446.14H478.812L477.558 457.194H477.79C478.562 456.448 479.584 455.824 480.857 455.323C482.143 454.821 483.519 454.57 484.986 454.57C487.391 454.57 489.532 455.143 491.41 456.287C493.3 457.432 494.786 458.995 495.866 460.975C496.959 462.943 497.499 465.207 497.487 467.766C497.499 470.325 496.921 472.608 495.75 474.614C494.593 476.621 492.985 478.203 490.927 479.36C488.883 480.505 486.535 481.077 483.886 481.077Z" fill="white"/>
<path d="M438.615 480.537V476.216L451.984 462.364C453.412 460.86 454.588 459.541 455.514 458.41C456.453 457.265 457.154 456.178 457.617 455.149C458.08 454.12 458.312 453.027 458.312 451.87C458.312 450.558 458.003 449.426 457.386 448.474C456.768 447.51 455.926 446.77 454.858 446.256C453.791 445.729 452.588 445.465 451.251 445.465C449.836 445.465 448.602 445.754 447.547 446.333C446.492 446.912 445.682 447.728 445.116 448.783C444.55 449.838 444.267 451.072 444.267 452.487H438.576C438.576 450.082 439.129 447.979 440.235 446.179C441.342 444.378 442.859 442.983 444.788 441.992C446.717 440.989 448.91 440.488 451.367 440.488C453.849 440.488 456.035 440.983 457.926 441.973C459.829 442.951 461.315 444.288 462.382 445.986C463.45 447.671 463.983 449.574 463.983 451.696C463.983 453.162 463.707 454.596 463.154 455.998C462.614 457.4 461.668 458.963 460.318 460.686C458.968 462.396 457.09 464.473 454.685 466.917L446.833 475.135V475.425H464.62V480.537H438.615Z" fill="white"/>
<path d="M418.389 481.193C415.341 481.18 412.737 480.376 410.576 478.781C408.415 477.187 406.763 474.865 405.618 471.817C404.474 468.769 403.901 465.097 403.901 460.802C403.901 456.519 404.474 452.86 405.618 449.825C406.776 446.79 408.435 444.475 410.595 442.88C412.769 441.285 415.367 440.488 418.389 440.488C421.412 440.488 424.003 441.291 426.164 442.899C428.324 444.494 429.977 446.809 431.122 449.844C432.279 452.866 432.858 456.519 432.858 460.802C432.858 465.11 432.286 468.788 431.141 471.836C429.996 474.872 428.344 477.193 426.183 478.801C424.022 480.395 421.424 481.193 418.389 481.193ZM418.389 476.042C421.064 476.042 423.154 474.737 424.659 472.126C426.177 469.515 426.935 465.74 426.935 460.802C426.935 457.522 426.588 454.751 425.894 452.487C425.212 450.211 424.228 448.487 422.942 447.317C421.669 446.134 420.151 445.542 418.389 445.542C415.727 445.542 413.637 446.854 412.119 449.478C410.602 452.101 409.837 455.876 409.824 460.802C409.824 464.094 410.165 466.878 410.846 469.155C411.541 471.418 412.525 473.135 413.798 474.306C415.071 475.463 416.602 476.042 418.389 476.042Z" fill="white"/>
<path d="M372.404 480.537V476.216L385.773 462.364C387.201 460.86 388.378 459.541 389.304 458.41C390.243 457.265 390.943 456.178 391.406 455.149C391.869 454.12 392.101 453.027 392.101 451.87C392.101 450.558 391.792 449.426 391.175 448.474C390.558 447.51 389.715 446.77 388.648 446.256C387.58 445.729 386.378 445.465 385.04 445.465C383.626 445.465 382.391 445.754 381.336 446.333C380.282 446.912 379.471 447.728 378.906 448.783C378.34 449.838 378.057 451.072 378.057 452.487H372.366C372.366 450.082 372.919 447.979 374.025 446.179C375.131 444.378 376.648 442.983 378.578 441.992C380.507 440.989 382.7 440.488 385.156 440.488C387.638 440.488 389.825 440.983 391.715 441.973C393.619 442.951 395.104 444.288 396.171 445.986C397.239 447.671 397.773 449.574 397.773 451.696C397.773 453.162 397.496 454.596 396.943 455.998C396.403 457.4 395.458 458.963 394.107 460.686C392.757 462.396 390.879 464.473 388.474 466.917L380.623 475.135V475.425H398.409V480.537H372.404Z" fill="white"/>
</svg>
