<svg width="1809" height="2238" viewBox="0 0 1809 2238" fill="none" xmlns="http://www.w3.org/2000/svg">
<path d="M1282.7 1866.59C1282.78 1877.82 1282.82 1889.04 1282.89 1900.27C1283.05 1927.42 1283.21 1954.53 1283.36 1981.68C1283.55 2014.34 1283.75 2047.05 1283.9 2079.71C1284.06 2107.99 1284.21 2136.23 1284.37 2164.5C1284.45 2178.29 1284.25 2192.08 1284.6 2205.87C1284.6 2206.06 1284.6 2206.3 1284.6 2206.49C1284.68 2221.72 1297.93 2236.32 1313.73 2235.62C1329.5 2234.92 1342.87 2222.81 1342.87 2206.49C1342.87 2181.67 1342.87 2156.85 1342.87 2131.99C1342.87 2094.24 1342.87 2056.49 1342.87 2018.73C1342.87 2005.33 1342.52 1991.93 1344.26 1978.65C1343.91 1981.21 1343.56 1983.81 1343.21 1986.38C1345.08 1973.52 1348.5 1961.01 1353.51 1949.01C1352.54 1951.34 1351.57 1953.64 1350.56 1955.97C1353.9 1948.24 1357.82 1940.78 1362.48 1933.79C1363.49 1932.31 1364.5 1930.84 1365.55 1929.4C1366.05 1928.7 1366.6 1928 1367.14 1927.26C1361.86 1934.56 1364.11 1931.18 1365.43 1929.55C1367.76 1926.72 1370.21 1924.04 1372.77 1921.44C1375.14 1919.07 1377.59 1916.77 1380.15 1914.6C1380.93 1913.94 1381.78 1913.32 1382.56 1912.62C1385.05 1910.44 1376.89 1916.77 1379.57 1914.91C1380.89 1913.98 1382.21 1913.01 1383.53 1912.07C1389.32 1908.15 1395.42 1904.81 1401.83 1902.05C1399.5 1903.02 1397.2 1904 1394.87 1905.01C1403.5 1901.39 1412.47 1898.91 1421.71 1897.59C1419.15 1897.94 1416.55 1898.29 1413.98 1898.64C1423.19 1897.43 1432.39 1897.43 1441.6 1898.64C1439.04 1898.29 1436.43 1897.94 1433.87 1897.59C1442.8 1898.87 1451.43 1901.24 1459.78 1904.69C1457.45 1903.72 1455.16 1902.75 1452.83 1901.74C1460.28 1904.93 1467.35 1908.89 1473.95 1913.63C1474.62 1914.09 1475.28 1914.64 1475.97 1915.1C1468.56 1910.02 1471.86 1911.84 1473.53 1913.28C1475.16 1914.64 1476.79 1916 1478.34 1917.43C1481.57 1920.39 1484.6 1923.53 1487.51 1926.8C1489.45 1929.01 1491.28 1931.3 1493.06 1933.59C1493.88 1934.64 1494.7 1935.69 1495.55 1936.7C1496.09 1937.36 1496.95 1938.53 1494.58 1935.42C1491.39 1931.3 1494.7 1935.61 1495.12 1936.23C1501.3 1944.82 1506.35 1954.1 1510.47 1963.85C1509.49 1961.52 1508.52 1959.23 1507.51 1956.9C1512.41 1968.86 1515.71 1981.25 1517.46 1994.07C1517.11 1991.51 1516.76 1988.9 1516.41 1986.34C1517.85 1997.68 1517.69 2009.02 1517.69 2020.4C1517.69 2035.9 1517.69 2051.4 1517.69 2066.9C1517.69 2104.53 1517.69 2142.17 1517.69 2179.77C1517.69 2188.7 1517.69 2197.6 1517.69 2206.53C1517.69 2221.76 1531.09 2236.36 1546.82 2235.66C1562.59 2234.96 1575.95 2222.84 1575.95 2206.53C1575.95 2164.12 1575.95 2121.74 1575.95 2079.33C1575.95 2057.34 1575.95 2035.36 1575.95 2013.37C1575.95 1976.71 1568.22 1940.16 1547.21 1909.43C1535.01 1891.61 1520.91 1875.99 1503.36 1863.33C1484.79 1849.97 1463 1842.94 1440.47 1840.26C1398.25 1835.21 1354.05 1854.08 1326.4 1885.9C1298.12 1918.44 1284.64 1959.85 1284.64 2002.73C1284.64 2022.11 1284.64 2041.46 1284.64 2060.84C1284.64 2108.46 1284.64 2156.11 1284.64 2203.73C1284.64 2204.67 1284.64 2205.6 1284.64 2206.53C1304.06 2206.53 1323.48 2206.53 1342.9 2206.53C1342.83 2195.31 1342.79 2184.08 1342.71 2172.86C1342.55 2145.71 1342.4 2118.59 1342.24 2091.44C1342.05 2058.78 1341.86 2026.07 1341.7 1993.41C1341.54 1965.13 1341.39 1936.89 1341.23 1908.62C1341.16 1894.83 1341.35 1881.04 1341 1867.25C1341 1867.06 1341 1866.82 1341 1866.63C1340.92 1851.4 1327.68 1836.8 1311.87 1837.5C1296.14 1838.16 1282.62 1850.28 1282.7 1866.59Z" fill="white"/>
<path d="M358.277 2035.55C358.238 2043.2 357.733 2050.85 356.762 2058.47C357.111 2055.9 357.461 2053.3 357.811 2050.74C355.752 2065.93 351.751 2080.68 345.847 2094.82C346.819 2092.49 347.79 2090.2 348.799 2087.87C344.449 2098.09 339.206 2107.91 332.991 2117.12C331.554 2119.22 330.117 2121.31 328.602 2123.37C324.718 2128.65 331.165 2120.26 329.689 2122.01C328.757 2123.14 327.825 2124.34 326.893 2125.47C323.514 2129.55 319.94 2133.43 316.212 2137.2C312.483 2140.93 308.56 2144.5 304.481 2147.88C303.51 2148.7 302.501 2149.47 301.53 2150.29C297.607 2153.51 307.899 2145.63 302.889 2149.24C300.636 2150.87 298.422 2152.46 296.131 2154.02C286.886 2160.23 277.098 2165.48 266.883 2169.83C269.214 2168.85 271.505 2167.88 273.836 2166.87C259.697 2172.78 244.938 2176.78 229.751 2178.84C232.314 2178.49 234.917 2178.14 237.48 2177.79C222.254 2179.73 206.912 2179.73 191.686 2177.79C194.25 2178.14 196.852 2178.49 199.416 2178.84C184.229 2176.78 169.469 2172.78 155.331 2166.87C157.661 2167.84 159.953 2168.82 162.283 2169.83C152.068 2165.48 142.241 2160.23 133.036 2154.02C130.938 2152.58 128.841 2151.14 126.782 2149.63C121.5 2145.74 129.89 2152.19 128.142 2150.72C127.015 2149.78 125.811 2148.85 124.685 2147.92C120.607 2144.54 116.723 2140.97 112.955 2137.24C109.226 2133.51 105.653 2129.59 102.274 2125.51C101.458 2124.54 100.681 2123.53 99.8654 2122.56C96.6416 2118.63 104.526 2128.93 100.914 2123.92C99.2828 2121.66 97.6903 2119.45 96.1366 2117.16C89.922 2107.91 84.6784 2098.12 80.3282 2087.91C81.2992 2090.24 82.2703 2092.53 83.2802 2094.86C77.3763 2080.72 73.3756 2065.96 71.317 2050.78C71.6666 2053.34 72.0162 2055.94 72.3657 2058.51C70.4237 2043.28 70.4237 2027.94 72.3657 2012.71C72.0162 2015.28 71.6666 2017.88 71.317 2020.44C73.3756 2005.26 77.3763 1990.5 83.2802 1976.36C82.3091 1978.69 81.3381 1980.98 80.3282 1983.31C84.6784 1973.09 89.922 1963.27 96.1366 1954.06C97.5738 1951.96 99.0109 1949.87 100.526 1947.81C104.41 1942.53 97.9622 1950.92 99.4381 1949.17C100.37 1948.04 101.303 1946.84 102.235 1945.71C105.614 1941.63 109.187 1937.75 112.916 1933.98C116.645 1930.25 120.568 1926.68 124.646 1923.3C125.617 1922.48 126.627 1921.71 127.598 1920.89C131.521 1917.67 121.228 1925.55 126.239 1921.94C128.491 1920.31 130.705 1918.72 132.997 1917.16C142.241 1910.95 152.029 1905.7 162.245 1901.35C159.914 1902.33 157.622 1903.3 155.292 1904.31C169.43 1898.4 184.19 1894.4 199.377 1892.34C196.813 1892.69 194.211 1893.04 191.647 1893.39C206.873 1891.45 222.216 1891.45 237.441 1893.39C234.878 1893.04 232.275 1892.69 229.712 1892.34C244.899 1894.4 259.659 1898.4 273.797 1904.31C271.466 1903.34 269.175 1902.36 266.844 1901.35C277.059 1905.7 286.886 1910.95 296.092 1917.16C298.189 1918.6 300.287 1920.04 302.345 1921.55C307.628 1925.44 299.238 1918.99 300.986 1920.46C302.112 1921.4 303.316 1922.33 304.443 1923.26C308.521 1926.64 312.405 1930.21 316.173 1933.94C319.901 1937.67 323.475 1941.59 326.854 1945.67C327.67 1946.64 328.447 1947.65 329.262 1948.62C332.486 1952.55 324.601 1942.25 328.214 1947.26C329.845 1949.52 331.437 1951.73 332.991 1954.02C339.206 1963.27 344.449 1973.06 348.799 1983.27C347.828 1980.94 346.857 1978.65 345.847 1976.32C351.751 1990.46 355.752 2005.22 357.811 2020.4C357.461 2017.84 357.111 2015.24 356.762 2012.67C357.733 2020.25 358.238 2027.9 358.277 2035.55C358.354 2050.78 371.638 2065.38 387.408 2064.68C403.138 2063.98 416.616 2051.86 416.539 2035.55C416.383 1994.88 404.148 1953.6 380.416 1920.43C355.597 1885.74 322.115 1859.99 282.07 1845.23C204.931 1816.8 112.372 1841.85 60.2084 1905.43C32.7087 1938.99 16.4342 1978.65 13.0939 2021.96C9.94773 2062.74 20.396 2105.12 41.6811 2140.03C62.2281 2173.79 93.1458 2202.34 129.307 2218.53C150.398 2227.97 171.333 2233.64 194.289 2236.32C214.952 2238.73 235.965 2237.18 256.318 2233.1C335.244 2217.33 400.963 2149.82 413.393 2070.12C415.179 2058.62 416.461 2047.13 416.5 2035.51C416.578 2020.29 403.061 2005.68 387.369 2006.38C371.56 2007.12 358.354 2019.2 358.277 2035.55Z" fill="white"/>
<path d="M517.526 1862.71C517.526 1883.95 517.526 1905.16 517.526 1926.41C517.526 1965.09 517.526 2003.78 517.526 2042.5C517.526 2056.91 517.526 2071.36 517.526 2085.77C517.526 2093.39 517.254 2101.12 517.837 2108.73C520.323 2142.09 533.839 2173.63 557.649 2197.44C581.459 2221.25 612.959 2234.73 646.363 2237.25C659.841 2238.26 673.629 2237.57 687.146 2237.57C704.003 2237.57 720.86 2237.57 737.718 2237.57C738.766 2237.57 739.854 2237.57 740.903 2237.57C756.128 2237.57 770.733 2224.16 770.034 2208.43C769.334 2192.66 757.216 2179.3 740.903 2179.3C713.985 2179.3 687.107 2179.3 660.19 2179.3C653.354 2179.3 646.557 2179.19 639.76 2178.29C642.323 2178.64 644.926 2178.99 647.489 2179.34C638.012 2177.98 628.807 2175.46 619.99 2171.73C622.32 2172.7 624.612 2173.67 626.942 2174.68C620.689 2171.96 614.707 2168.78 609.075 2164.97C607.677 2164.04 606.317 2163.03 604.958 2162.06C601.035 2159.22 611.328 2167.26 605.89 2162.68C603.482 2160.66 601.151 2158.52 598.899 2156.27C596.646 2154.02 594.51 2151.69 592.49 2149.28C587.945 2143.84 595.947 2154.13 593.111 2150.21C592.14 2148.85 591.13 2147.49 590.198 2146.09C586.392 2140.46 583.168 2134.44 580.488 2128.23C581.459 2130.56 582.43 2132.85 583.44 2135.18C579.75 2126.32 577.186 2117.16 575.827 2107.68C576.176 2110.24 576.526 2112.85 576.876 2115.41C575.439 2104.42 575.866 2093.19 575.866 2082.16C575.866 2063.56 575.866 2044.95 575.866 2026.31C575.866 1982.07 575.866 1937.87 575.866 1893.63C575.866 1883.33 575.866 1873.08 575.866 1862.79C575.866 1847.56 562.466 1832.95 546.735 1833.65C530.888 1834.28 517.526 1846.36 517.526 1862.71Z" fill="white"/>
<path d="M1140.93 2231.7C1153.13 2231.7 1164.82 2220.98 1164.23 2208.4C1163.65 2195.77 1153.98 2185.09 1140.93 2185.09C1128.73 2185.09 1117.04 2195.81 1117.62 2208.4C1118.21 2221.02 1127.88 2231.7 1140.93 2231.7Z" fill="white"/>
<path d="M1577.89 2206.45C1577.89 2181.63 1577.89 2156.81 1577.89 2131.96C1577.89 2094.2 1577.89 2056.45 1577.89 2018.69C1577.89 2005.29 1577.54 1991.89 1579.29 1978.61C1578.94 1981.17 1578.59 1983.78 1578.24 1986.34C1580.07 1973.48 1583.45 1960.98 1588.46 1948.97C1587.49 1951.3 1586.52 1953.6 1585.51 1955.93C1588.85 1948.2 1592.73 1940.74 1597.35 1933.71C1598.32 1932.19 1599.37 1930.72 1600.42 1929.28C1600.93 1928.58 1601.47 1927.88 1602.01 1927.15C1596.81 1934.45 1598.98 1931.07 1600.31 1929.44C1602.64 1926.6 1605.04 1923.88 1607.61 1921.28C1609.98 1918.91 1612.42 1916.62 1614.95 1914.44C1615.73 1913.78 1616.58 1913.16 1617.32 1912.46C1619.77 1910.29 1611.65 1916.62 1614.33 1914.75C1615.65 1913.82 1616.97 1912.81 1618.29 1911.92C1624.04 1908 1630.17 1904.66 1636.58 1901.9C1634.25 1902.87 1631.96 1903.84 1629.63 1904.85C1638.21 1901.24 1647.19 1898.79 1656.43 1897.51C1653.87 1897.86 1651.27 1898.21 1648.7 1898.56C1657.48 1897.47 1666.3 1897.47 1675.08 1898.6C1672.51 1898.25 1669.91 1897.9 1667.35 1897.55C1676.24 1898.79 1684.86 1901.16 1693.18 1904.58C1690.84 1903.61 1688.55 1902.64 1686.22 1901.63C1693.49 1904.73 1700.36 1908.54 1706.81 1913.16C1707.12 1913.36 1709.37 1914.87 1709.33 1915.03C1709.29 1915.1 1703.35 1910.21 1706.42 1912.81C1708.05 1914.21 1709.68 1915.53 1711.24 1916.97C1714.46 1919.92 1717.53 1923.03 1720.4 1926.29C1722.38 1928.54 1724.25 1930.91 1726.11 1933.28C1726.97 1934.37 1727.78 1935.42 1728.64 1936.51C1730.62 1938.99 1724.52 1930.91 1727.43 1935.03C1733.53 1943.65 1738.77 1952.7 1742.97 1962.45C1742 1960.12 1741.03 1957.83 1740.02 1955.5C1745.22 1967.89 1748.68 1980.82 1750.51 1994.11C1750.16 1991.54 1749.81 1988.94 1749.46 1986.38C1750.89 1997.72 1750.74 2009.06 1750.74 2020.44C1750.74 2035.94 1750.74 2051.44 1750.74 2066.94C1750.74 2104.57 1750.74 2142.21 1750.74 2179.81C1750.74 2188.74 1750.74 2197.64 1750.74 2206.57C1750.74 2221.8 1764.14 2236.4 1779.87 2235.7C1795.64 2235 1809 2222.88 1809 2206.57C1809 2164.15 1809 2121.78 1809 2079.36C1809 2057.38 1809 2035.4 1809 2013.41C1809 1977.25 1801.54 1941.36 1781.35 1910.79C1769.19 1892.42 1754.62 1876.22 1736.76 1863.29C1718.42 1850.05 1696.83 1842.98 1674.57 1840.33C1632.12 1835.29 1587.76 1854.43 1560.42 1886.87C1532.84 1919.49 1519.71 1960.28 1519.71 2002.81C1519.71 2022.19 1519.71 2041.53 1519.71 2060.91C1519.71 2108.53 1519.71 2156.19 1519.71 2203.81C1519.71 2204.74 1519.71 2205.68 1519.71 2206.61C1519.71 2221.83 1533.11 2236.44 1548.84 2235.74C1564.53 2234.88 1577.89 2222.77 1577.89 2206.45Z" fill="white"/>
<path d="M909.823 2208.4C909.823 2183.61 909.823 2158.83 909.823 2134.05C909.823 2096.22 909.823 2058.39 909.823 2020.56C909.823 2007.66 909.396 1994.73 911.105 1981.95C910.756 1984.51 910.406 1987.12 910.057 1989.68C911.727 1978.03 914.795 1966.76 919.301 1955.89C918.33 1958.22 917.359 1960.51 916.349 1962.84C920 1954.3 924.389 1946.1 929.671 1938.45C930.448 1937.32 934.721 1931.65 931.264 1936.12C927.807 1940.55 932.118 1935.11 933.051 1934.02C935.653 1930.95 938.411 1928 941.324 1925.2C944.043 1922.6 946.878 1920.15 949.752 1917.75C950.646 1917.01 953.287 1914.95 949.247 1918.1C945.014 1921.36 948.238 1918.87 949.286 1918.17C950.801 1917.09 952.316 1916.04 953.831 1915.03C960.123 1910.91 966.765 1907.41 973.679 1904.46C971.348 1905.43 969.056 1906.4 966.726 1907.41C977.097 1903.1 987.933 1900.19 999.081 1898.64C996.517 1898.99 993.915 1899.33 991.351 1899.68C1002.46 1898.25 1013.69 1898.25 1024.79 1899.68C1022.23 1899.33 1019.63 1898.99 1017.06 1898.64C1028.29 1900.19 1039.2 1903.18 1049.61 1907.57C1047.28 1906.6 1044.99 1905.63 1042.66 1904.62C1050.43 1908 1057.85 1912.04 1064.8 1916.89C1065.65 1917.47 1066.51 1918.13 1067.36 1918.72C1071.05 1921.32 1062.35 1914.68 1064.99 1916.85C1066.63 1918.21 1068.3 1919.53 1069.89 1920.93C1073.31 1923.92 1076.57 1927.11 1079.68 1930.49C1081.54 1932.51 1083.33 1934.6 1085.15 1936.66C1085.93 1937.55 1086.75 1938.45 1087.48 1939.34C1088.34 1940.35 1089.19 1941.36 1090.05 1942.41C1093.15 1946.22 1090.28 1941.83 1088.92 1940.9C1090.75 1942.1 1092.26 1945.52 1093.47 1947.38C1095.06 1949.79 1096.57 1952.28 1098.01 1954.76C1100.73 1959.54 1103.14 1964.51 1105.31 1969.56C1104.34 1967.23 1103.37 1964.94 1102.36 1962.61C1106.98 1973.79 1110.13 1985.45 1111.76 1997.45C1111.41 1994.88 1111.06 1992.28 1110.71 1989.72C1112.03 2000.52 1111.84 2011.31 1111.84 2022.15C1111.84 2037.73 1111.84 2053.3 1111.84 2068.92C1111.84 2106.51 1111.84 2144.11 1111.84 2181.75C1111.84 2190.64 1111.84 2199.54 1111.84 2208.43C1111.84 2223.66 1125.24 2238.26 1140.97 2237.57C1156.74 2236.87 1170.1 2224.75 1170.1 2208.43C1170.1 2164.85 1170.1 2121.24 1170.1 2077.66C1170.1 2056.02 1170.1 2034.42 1170.1 2012.79C1170.1 2000.87 1169.21 1989.14 1167.22 1977.33C1162.53 1948.86 1148.93 1922.76 1130.75 1900.62C1118.4 1885.62 1104.11 1872.3 1087.41 1862.2C1067.13 1849.97 1044.64 1843.48 1021.22 1841.03C977.407 1836.45 932.196 1853.27 900.579 1883.57C868.419 1914.41 851.6 1958.53 851.6 2002.73C851.6 2021.57 851.6 2040.45 851.6 2059.28C851.6 2107.99 851.6 2156.7 851.6 2205.37C851.6 2206.38 851.6 2207.39 851.6 2208.4C851.6 2223.62 865.001 2238.23 880.731 2237.53C896.462 2236.83 909.823 2224.71 909.823 2208.4Z" fill="white"/>
<path d="M882.635 2082.16C911.649 2082.16 940.702 2082.16 969.717 2082.16C1015.59 2082.16 1061.46 2082.16 1107.29 2082.16C1117.86 2082.16 1128.42 2082.16 1138.99 2082.16C1154.21 2082.16 1168.82 2068.76 1168.12 2053.03C1167.42 2037.26 1155.3 2023.9 1138.99 2023.9C1109.97 2023.9 1080.92 2023.9 1051.9 2023.9C1006.03 2023.9 960.162 2023.9 914.329 2023.9C903.764 2023.9 893.199 2023.9 882.635 2023.9C867.409 2023.9 852.804 2037.3 853.504 2053.03C854.203 2068.8 866.321 2082.16 882.635 2082.16Z" fill="white"/>
<path d="M1019.74 344.711C1039.55 350.343 1058.97 357.179 1077.97 365.142C1075.64 364.171 1073.35 363.2 1071.01 362.19C1094.44 372.094 1117.16 383.708 1138.87 396.953C1149.86 403.672 1160.58 410.78 1171.03 418.316C1173.44 420.063 1175.85 421.811 1178.26 423.598C1179.54 424.569 1180.82 425.54 1182.1 426.511C1185.64 429.191 1176.43 422.083 1181.09 425.734C1186.14 429.696 1191.11 433.736 1196.05 437.892C1215.27 454.127 1233.33 471.839 1250 490.716C1254.23 495.532 1258.39 500.426 1262.42 505.398C1264.29 507.689 1266.15 510.02 1268.02 512.389C1268.45 512.933 1268.87 513.477 1269.3 514.021C1271.2 516.429 1266.5 510.331 1266.85 510.836C1267.9 512.311 1269.07 513.749 1270.19 515.225C1277.81 525.323 1284.99 535.694 1291.83 546.337C1307.44 570.651 1320.92 596.286 1332.22 622.854C1331.25 620.523 1330.28 618.232 1329.27 615.901C1340.19 641.847 1348.96 668.609 1355.53 695.992C1359.06 710.829 1376.74 721.084 1391.38 716.345C1406.84 711.334 1415.54 696.419 1411.73 680.494C1394.76 609.376 1362.83 541.209 1318.43 483.064C1273.15 423.714 1216.9 373.415 1151.65 336.865C1115.02 316.318 1075.71 300.005 1035.32 288.508C1020.68 284.352 1002.96 293.596 999.469 308.861C995.857 324.397 1004.05 340.244 1019.74 344.711Z" fill="white"/>
<path d="M443.572 1002.64C443.028 1001.4 441.902 997.129 440.853 996.313C440.931 996.391 442.524 1000.39 441.552 997.906C441.125 996.857 440.659 995.769 440.232 994.721C438.484 990.448 436.814 986.176 435.221 981.864C432.192 973.785 429.317 965.59 426.715 957.355C421.316 940.498 416.772 923.33 413.159 906.007C411.295 897.112 409.664 888.179 408.265 879.207C407.955 877.187 407.644 875.128 407.372 873.109C407.1 871.283 407.838 869.729 407.489 874.041C407.566 873.225 407.256 872.215 407.139 871.399C406.556 866.7 406.013 862 405.547 857.3C403.76 839.394 402.944 821.411 403.022 803.388C403.1 789.134 403.76 774.879 405.042 760.663C405.663 753.516 406.595 746.447 407.372 739.339C407.411 739.067 406.634 744.738 406.984 742.136C407.1 741.242 407.256 740.31 407.372 739.417C407.605 737.824 407.838 736.232 408.071 734.639C408.615 731.027 409.237 727.415 409.858 723.803C414.635 696.691 421.588 669.93 430.716 643.945C432.93 637.614 435.26 631.36 437.746 625.146C438.406 623.475 439.067 621.844 439.727 620.174C440.115 619.164 442.135 614.387 440.581 618.038C438.95 621.883 441.125 616.795 441.514 615.901C442.29 614.076 443.106 612.25 443.922 610.425C449.437 598.112 455.419 585.994 461.905 574.186C468.353 562.417 475.267 550.881 482.608 539.656C486.337 533.946 490.182 528.353 494.144 522.799C495.93 520.313 497.717 517.827 499.581 515.341C500.63 513.943 501.679 512.545 502.728 511.146C503.116 510.603 503.504 510.098 503.932 509.593C506.146 506.68 504.204 509.36 503.116 510.68C511.739 500.465 519.895 489.939 528.945 480.034C537.957 470.169 547.317 460.653 557.067 451.525C566.816 442.397 576.914 433.619 587.363 425.268C588.567 424.297 589.771 423.365 590.975 422.394C591.674 421.85 592.373 421.345 593.034 420.763C592.801 420.957 588.412 424.297 591.441 422.005C594.044 420.025 596.685 418.044 599.326 416.102C604.803 412.062 610.357 408.139 616.028 404.333C638.323 389.301 661.822 376.017 686.214 364.676C689.011 363.355 691.846 362.073 694.681 360.83C696.313 360.131 697.944 359.393 699.575 358.694C700.896 358.112 703.654 357.024 697.672 359.471C698.488 359.121 699.303 358.772 700.119 358.461C706.489 355.82 712.937 353.295 719.423 350.926C732.241 346.226 745.292 342.031 758.459 338.38C764.984 336.555 771.548 334.884 778.151 333.331C790.037 330.534 798.193 316.318 794.426 304.666C790.425 292.275 778.462 285.401 765.761 288.391C710.179 301.481 656.423 323.815 607.949 354.033C560.407 383.669 517.177 420.84 481.287 463.876C443.883 508.66 414.286 558.572 392.807 612.794C371.289 667.172 359.442 725.317 356.878 783.696C353.693 856.135 365.54 929.817 391.525 997.517C395.215 1007.15 399.215 1016.7 403.371 1026.18C405.547 1031.19 412.305 1035.5 417.315 1036.9C422.909 1038.46 430.327 1037.76 435.26 1034.57C440.232 1031.35 444.621 1026.57 445.98 1020.63C447.379 1014.1 446.213 1008.7 443.572 1002.64Z" fill="white"/>
<path d="M1153.4 1212.19C1127.49 1227.81 1100.57 1241.67 1072.72 1253.44C1075.05 1252.47 1077.35 1251.5 1079.68 1250.49C1036.1 1268.78 990.419 1281.76 943.538 1288.09C946.101 1287.74 948.704 1287.39 951.267 1287.04C909.163 1292.59 866.515 1292.67 824.373 1287.08C826.936 1287.43 829.538 1287.78 832.102 1288.13C789.066 1282.26 747.117 1270.49 707.111 1253.64C709.441 1254.61 711.733 1255.58 714.063 1256.59C672.736 1239.03 633.778 1216.23 597.695 1189.55C595.442 1187.88 593.189 1186.21 590.936 1184.5C589.421 1183.37 584.955 1179.37 591.441 1184.93C590.587 1184.19 589.654 1183.53 588.761 1182.83C583.828 1178.94 578.934 1174.98 574.079 1170.94C565.495 1163.8 557.572 1155.99 548.988 1148.84C532.364 1134.98 514.069 1123.83 493.173 1117.73C459.497 1107.9 421.2 1113.07 391.952 1132.76C363.831 1151.68 342.119 1181.63 336.603 1215.53C333.185 1236.43 333.807 1257.6 340.449 1277.87C348.1 1301.26 361.462 1321.84 378.397 1339.59C388.923 1350.62 409.12 1351.01 419.607 1339.59C430.483 1327.75 430.871 1310.19 419.607 1298.38C416.694 1295.31 413.859 1292.21 411.179 1288.9C410.557 1288.17 407.605 1284.36 410.946 1288.67C414.247 1292.94 411.373 1289.22 410.829 1288.4C409.664 1286.81 408.576 1285.21 407.489 1283.58C403.294 1277.25 399.72 1270.57 396.73 1263.54C397.701 1265.87 398.672 1268.16 399.682 1270.49C396.108 1261.83 393.622 1252.82 392.379 1243.5C392.729 1246.06 393.079 1248.67 393.428 1251.23C392.418 1242.92 392.379 1234.57 393.428 1226.21C393.079 1228.78 392.729 1231.38 392.379 1233.94C393.545 1225.28 395.836 1216.89 399.177 1208.85C398.206 1211.18 397.235 1213.47 396.225 1215.81C398.633 1210.21 401.468 1204.85 404.847 1199.76C405.741 1198.4 406.712 1197.08 407.644 1195.76C410.557 1191.72 402.517 1202.13 406.401 1197.43C408.382 1195.06 410.441 1192.77 412.616 1190.56C414.674 1188.5 416.849 1186.52 419.063 1184.62C419.685 1184.11 420.306 1183.61 420.967 1183.06C423.763 1180.77 417.16 1185.98 417.393 1185.82C418.753 1185 420.034 1183.88 421.355 1182.98C426.482 1179.53 431.959 1176.61 437.668 1174.17C435.338 1175.14 433.046 1176.11 430.716 1177.12C438.057 1174.09 445.709 1171.99 453.593 1170.83C451.03 1171.18 448.427 1171.53 445.864 1171.88C454.059 1170.79 462.333 1170.75 470.528 1171.76C467.965 1171.41 465.362 1171.06 462.799 1170.71C472.043 1171.95 480.938 1174.48 489.522 1178.09C487.191 1177.12 484.899 1176.15 482.569 1175.14C491.891 1179.18 500.086 1184.54 508.398 1190.29C499.814 1184.34 507.971 1190.05 509.952 1191.76C511.739 1193.32 513.487 1194.91 515.234 1196.54C520.517 1201.55 526.032 1206.29 531.587 1210.95C553.221 1229.09 575.905 1246.14 599.598 1261.48C642.634 1289.37 689.632 1311.78 738.65 1326.97C831.714 1355.83 932.08 1356.26 1025.92 1330.62C1081 1315.55 1133.9 1291.86 1182.76 1262.41C1195.81 1254.57 1201.83 1235.89 1193.21 1222.56C1184.82 1209.55 1167.38 1203.8 1153.4 1212.19Z" fill="white"/>
<path d="M1299.63 1166.44C1317.11 1144.88 1334.67 1122.97 1349.16 1099.2C1360.54 1080.48 1369.2 1060.4 1377.24 1040.05C1381.75 1028.71 1386.33 1017.33 1390.29 1005.79C1396.04 989.089 1399.15 971.998 1401.21 954.52C1404.12 929.739 1403.5 905.153 1399.46 880.527C1393.16 842.035 1374.17 806.185 1342.21 783.23C1316.65 764.897 1280.56 759.459 1251.01 770.606C1234.19 776.937 1219.08 786.376 1206.73 799.504C1192.47 814.691 1182.68 832.403 1175.3 851.746C1173.71 855.941 1172.31 860.213 1171.07 864.525C1190.14 867.088 1209.21 869.69 1228.28 872.254C1232.36 821.255 1228.48 768.897 1214.07 719.685C1200.86 674.591 1178.88 633.147 1149.28 596.752C1122.87 564.281 1089.31 536.976 1052.6 516.934C1015.9 496.853 975.504 483.064 934.099 477.005C883.877 469.625 833.034 470.984 783.745 484.074C732.707 497.591 685.709 522.954 645.431 556.901C607.172 589.101 575.516 630.545 554.697 675.989C541.064 705.741 530.888 736.931 525.838 769.286C522.614 789.794 522.847 810.885 523.663 831.587C525.722 883.906 535.121 935.293 556.406 983.301C572.098 1018.72 595.791 1050.96 624.495 1076.99C640.109 1091.16 656.966 1104.02 675.3 1114.39C697.051 1126.7 720.433 1136.8 744.476 1143.72C788.172 1156.3 834.394 1157.89 878.867 1148.65C918.174 1140.49 956.045 1122.82 987.856 1098.39C1020.95 1072.95 1049.11 1041.49 1068.72 1004.43C1088.45 967.182 1099.91 925.816 1100.96 883.596C1102.09 838.928 1090.75 794.649 1070.24 755.109C1065.11 745.165 1059.28 735.571 1052.95 726.366C1045.03 714.869 1036.72 702.867 1026.31 693.506C1004.83 674.202 980.825 656.918 954.374 645.11C929.399 633.963 903.92 626.893 876.536 624.951C854.164 623.398 830.937 626.078 809.458 632.487C766.188 645.382 729.483 672.765 703.188 709.237C679.106 742.641 665.939 786.182 669.629 827.392C671.765 851.28 678.096 873.38 688.816 894.821C695.652 908.493 716.044 913.426 728.668 905.269C742.65 896.258 746.418 880.022 739.116 865.418C737.562 862.272 736.086 859.087 734.688 855.824C735.659 858.155 736.63 860.446 737.64 862.777C732.746 851.008 729.367 838.734 727.58 826.111C727.93 828.674 728.279 831.276 728.629 833.84C726.92 821.022 726.959 808.088 728.629 795.232C728.279 797.795 727.93 800.398 727.58 802.961C729.406 789.6 733.018 776.588 738.184 764.12C737.213 766.45 736.242 768.742 735.232 771.072C739.388 761.246 744.476 751.807 750.419 742.951C751.817 740.893 753.254 738.834 754.73 736.814C758.614 731.571 750.535 742.019 753.448 738.446C754.109 737.591 754.808 736.775 755.468 735.921C758.886 731.765 762.498 727.764 766.305 723.919C770.111 720.074 774.151 716.423 778.307 712.966C779.161 712.267 779.977 711.567 780.831 710.907C785.958 706.79 775.51 714.869 779.239 712.15C781.298 710.635 783.356 709.159 785.454 707.722C794.581 701.508 804.292 696.264 814.468 691.914C812.138 692.885 809.846 693.856 807.515 694.866C821.11 689.156 835.365 685.233 849.969 683.213C847.405 683.563 844.803 683.912 842.24 684.262C857.271 682.281 872.458 682.32 887.49 684.301C884.926 683.951 882.324 683.602 879.76 683.252C896.656 685.583 913.008 690.282 928.7 696.885C926.37 695.914 924.078 694.943 921.748 693.934C935.226 699.721 948.082 706.829 960.201 715.024C963.696 717.394 967.114 719.802 970.494 722.327C972.125 723.531 976.009 727.376 969.717 721.705C971.348 723.142 973.174 724.424 974.844 725.822C981.097 730.949 987.661 736.193 992.789 742.485C993.915 743.883 995.041 745.282 996.168 746.719C999.43 750.797 991.973 741.165 994.886 745.049C996.983 747.884 999.081 750.681 1001.14 753.594C1004.83 758.876 1008.36 764.236 1011.67 769.752C1018.04 780.278 1023.59 791.27 1028.41 802.612C1027.43 800.281 1026.46 797.989 1025.45 795.659C1033.46 814.847 1039.01 834.927 1041.77 855.552C1041.42 852.989 1041.07 850.386 1040.72 847.823C1043.36 868.137 1043.28 888.684 1040.56 908.998C1040.91 906.434 1041.26 903.832 1041.61 901.268C1038.7 922.204 1032.99 942.673 1024.83 962.172C1025.8 959.841 1026.77 957.55 1027.78 955.219C1022.81 966.871 1017.03 978.174 1010.38 988.972C1007.12 994.293 1003.66 999.498 1000.01 1004.59C999.081 1005.91 998.11 1007.19 997.178 1008.47C996.634 1009.17 996.051 1009.87 995.546 1010.61C995.352 1010.92 1000.67 1004.08 998.149 1007.27C996.129 1009.79 994.148 1012.28 992.051 1014.76C983.855 1024.47 974.922 1033.6 965.367 1041.99C963.075 1044.01 960.744 1045.99 958.375 1047.93C957.249 1048.83 956.161 1049.76 955.035 1050.65C949.985 1054.65 960.9 1046.22 955.812 1050.07C950.646 1053.95 945.324 1057.68 939.848 1061.18C927.652 1068.99 914.795 1075.74 901.473 1081.38C903.803 1080.4 906.095 1079.43 908.425 1078.42C888.694 1086.66 867.991 1092.37 846.823 1095.32C849.386 1094.97 851.989 1094.62 854.552 1094.27C832.801 1097.18 810.817 1097.15 789.066 1094.27C791.629 1094.62 794.232 1094.97 796.795 1095.32C773.296 1092.1 750.419 1085.61 728.551 1076.37C730.882 1077.34 733.173 1078.31 735.504 1079.32C720.394 1072.87 705.829 1065.22 691.924 1056.48C689.205 1054.77 686.602 1052.98 684.039 1051.08C683.029 1050.3 681.98 1049.56 680.97 1048.79C680.349 1048.32 679.727 1047.78 679.067 1047.35C679.3 1047.51 685.787 1052.59 682.291 1049.84C677.747 1046.22 673.241 1042.53 668.891 1038.69C660.113 1030.96 651.762 1022.69 644.032 1013.87C642.129 1011.69 640.265 1009.52 638.439 1007.31C637.468 1006.1 636.497 1004.94 635.565 1003.73C631.681 998.838 640.109 1009.75 636.342 1004.74C632.652 999.848 629.156 994.798 625.816 989.632C617.659 976.931 610.668 963.531 604.764 949.626C605.735 951.956 606.706 954.248 607.716 956.578C596.024 928.768 588.8 899.365 584.722 869.496C585.071 872.06 585.421 874.662 585.77 877.226C581.304 843.939 580.527 810.496 583.013 777.054C582.663 779.617 582.313 782.22 581.964 784.783C586.586 758.177 593.539 732.27 603.987 707.334C603.016 709.664 602.045 711.956 601.035 714.286C607.716 698.633 615.523 683.485 624.495 669.036C628.612 662.433 632.962 655.986 637.546 649.654C638.633 648.178 639.721 646.703 640.808 645.227C645.392 639.167 637.08 649.965 640.847 645.149C643.411 641.925 646.013 638.74 648.693 635.633C658.909 623.67 670.017 612.444 681.864 602.074C684.777 599.51 687.768 597.024 690.758 594.577C692.157 593.412 693.594 592.286 695.031 591.159C696.002 590.421 698.643 588.324 694.798 591.315C690.487 594.655 694.759 591.392 695.691 590.693C702.1 585.916 708.703 581.333 715.462 577.06C730.61 567.388 746.573 559.076 763.12 552.007C760.789 552.978 758.498 553.949 756.167 554.959C782.657 543.812 810.467 536.238 838.938 532.354C836.375 532.703 833.772 533.053 831.209 533.402C861.427 529.402 892.112 529.635 922.292 533.674C919.728 533.325 917.126 532.975 914.562 532.625C944.082 536.665 972.979 544.394 1000.48 555.93C998.149 554.959 995.857 553.988 993.527 552.978C1007.47 558.882 1020.99 565.679 1033.96 573.448C1040.45 577.332 1046.78 581.449 1052.95 585.799C1055.75 587.741 1058.51 589.761 1061.23 591.82C1066.66 595.937 1055.48 587.275 1060.72 591.431C1062.51 592.83 1064.3 594.267 1066.04 595.704C1077.5 605.181 1088.3 615.513 1098.24 626.544C1100.81 629.418 1103.33 632.331 1105.82 635.283C1107.06 636.759 1108.26 638.274 1109.51 639.789C1109.97 640.41 1110.48 640.993 1110.94 641.614C1114.09 645.615 1110.01 640.799 1109.23 639.4C1111.1 642.702 1113.97 645.731 1116.15 648.839C1118.4 652.063 1120.62 655.325 1122.75 658.588C1132.62 673.814 1141.05 689.894 1148.11 706.557C1147.14 704.226 1146.17 701.935 1145.16 699.604C1157.09 727.997 1164.89 757.866 1169.01 788.357C1168.66 785.793 1168.31 783.191 1167.96 780.627C1172 811.04 1172.39 841.725 1169.94 872.293C1169.4 879.09 1173.52 888.334 1178.49 892.879C1183.31 897.307 1188.7 900.026 1195.23 900.88C1209.52 902.783 1223.12 894.044 1227.2 880.022C1228.9 874.118 1230.92 868.331 1233.29 862.621C1232.32 864.952 1231.35 867.243 1230.34 869.574C1233.14 862.971 1236.4 856.601 1240.25 850.542C1241.96 847.862 1243.86 845.298 1245.72 842.696C1238.58 852.678 1245.53 843.162 1247.86 840.676C1249.84 838.54 1251.94 836.52 1254.15 834.578C1255.2 833.646 1256.33 832.752 1257.41 831.82C1260.52 829.218 1250.81 836.753 1253.92 834.5C1254.54 834.073 1255.12 833.607 1255.74 833.18C1260.33 829.956 1265.26 827.198 1270.43 824.984C1268.1 825.955 1265.8 826.926 1263.47 827.936C1269.49 825.411 1275.79 823.625 1282.27 822.731C1279.71 823.081 1277.11 823.43 1274.54 823.78C1280.91 822.926 1287.28 822.926 1293.65 823.78C1291.09 823.43 1288.49 823.081 1285.92 822.731C1292.37 823.625 1298.63 825.373 1304.61 827.897C1302.28 826.926 1299.98 825.955 1297.65 824.945C1302.63 827.082 1307.4 829.723 1311.87 832.83C1312.37 833.18 1312.88 833.568 1313.38 833.918C1317.11 836.52 1310.12 831.393 1309.89 831.199C1310.94 832.247 1312.3 833.141 1313.38 834.112C1315.52 836.015 1317.62 837.996 1319.56 840.093C1321.62 842.269 1323.44 844.56 1325.39 846.852C1317.46 837.452 1324.84 846.347 1326.71 849.221C1330.47 855.086 1333.62 861.301 1336.34 867.71C1335.37 865.379 1334.4 863.087 1333.39 860.757C1338.75 873.652 1342.09 887.208 1344.03 901.035C1343.68 898.472 1343.33 895.87 1342.98 893.306C1345.89 915.329 1345.2 937.585 1342.28 959.569C1342.63 957.006 1342.98 954.403 1343.33 951.84C1339.21 981.437 1327.48 1009.6 1315.99 1037.02C1316.96 1034.69 1317.93 1032.4 1318.94 1030.07C1312.37 1045.56 1304.8 1060.52 1295.79 1074.73C1290.43 1083.16 1284.68 1091.36 1278.7 1099.4C1277.07 1101.61 1275.4 1103.83 1273.73 1106C1272.95 1107.05 1272.14 1108.06 1271.32 1109.11C1276.49 1102.12 1273.15 1106.78 1271.86 1108.37C1267.44 1114.04 1262.93 1119.63 1258.42 1125.23C1253.41 1131.44 1249.88 1137.54 1249.88 1145.81C1249.88 1152.96 1253.06 1161.51 1258.42 1166.4C1269.07 1176.23 1289.38 1179.1 1299.63 1166.44Z" fill="white"/>
<path d="M1491.63 1120.26C1472.75 1155.76 1450.73 1189 1426.65 1221.13C1432.43 1213.44 1426.72 1221.01 1425.29 1222.8C1423.81 1224.66 1422.3 1226.53 1420.78 1228.39C1417.6 1232.31 1414.37 1236.2 1411.11 1240.08C1404.58 1247.81 1397.9 1255.38 1391.07 1262.8C1377.59 1277.49 1363.45 1291.58 1348.81 1305.06C1334.13 1318.58 1318.78 1331.32 1303.13 1343.67C1310.51 1337.84 1303.75 1343.17 1302.04 1344.45C1300.14 1345.88 1298.2 1347.32 1296.29 1348.76C1292.02 1351.94 1287.71 1355.05 1283.36 1358.12C1275.32 1363.83 1267.12 1369.35 1258.85 1374.71C1241.99 1385.58 1224.71 1395.76 1207 1405.16C1188.9 1414.79 1170.29 1422.99 1151.69 1431.57C1152 1431.41 1158.56 1428.69 1154.17 1430.52C1153.16 1430.95 1152.19 1431.34 1151.18 1431.76C1148.7 1432.77 1146.17 1433.82 1143.69 1434.79C1138.91 1436.7 1134.13 1438.56 1129.32 1440.35C1119.92 1443.84 1110.44 1447.18 1100.88 1450.29C1081.11 1456.74 1061.07 1462.29 1040.84 1466.95C1020.6 1471.61 1000.17 1475.27 979.582 1478.22C975.543 1478.8 987.467 1477.21 981.525 1477.95C980.398 1478.1 979.311 1478.22 978.184 1478.37C975.698 1478.68 973.174 1478.99 970.688 1479.27C965.405 1479.89 960.084 1480.43 954.763 1480.94C944.081 1481.91 933.361 1482.68 922.641 1483.19C900.346 1484.24 878.012 1484.28 855.679 1483.27C844.259 1482.76 832.879 1481.95 821.498 1480.9C816.022 1480.39 810.506 1479.81 805.03 1479.15C802 1478.8 798.97 1478.41 795.941 1478.02C794.154 1477.79 790.348 1477.13 798.232 1478.33C796.446 1478.06 794.62 1477.83 792.795 1477.56C748.244 1471.07 704.275 1460.31 661.783 1445.47C651.179 1441.78 640.614 1437.82 630.205 1433.59C627.758 1432.58 625.272 1431.57 622.825 1430.56C619.018 1429.01 629.739 1433.55 624.068 1431.1C622.98 1430.64 621.893 1430.17 620.805 1429.7C615.406 1427.37 610.046 1424.97 604.686 1422.48C584.993 1413.35 565.728 1403.33 546.968 1392.46C527.78 1381.35 509.136 1369.31 491.075 1356.41C486.803 1353.38 482.569 1350.27 478.374 1347.13C476.277 1345.57 474.179 1343.98 472.121 1342.39C470.528 1341.15 467.421 1338.12 473.169 1343.2C471.888 1342.04 470.412 1341.07 469.052 1339.98C460.624 1333.3 452.312 1326.46 444.194 1319.43C436.076 1312.4 428.113 1305.18 420.267 1297.8C409.198 1287.31 389.932 1285.99 379.057 1297.8C368.647 1309.14 367.21 1327.82 379.057 1339.01C447.107 1403.33 526.382 1453.86 613.076 1489.13C700.624 1524.75 795.669 1542.5 890.17 1542.27C976.941 1542.07 1064.26 1526.73 1145.55 1496.28C1226.3 1466.02 1300.76 1422.4 1366.71 1366.86C1430.37 1313.22 1484.91 1248.12 1527.05 1176.34C1532.22 1167.56 1537.15 1158.67 1541.93 1149.7C1549.07 1136.26 1545.77 1117.38 1531.48 1109.85C1518 1102.7 1499.28 1105.92 1491.63 1120.26Z" fill="white"/>
<path d="M270.185 1124.14C227.925 1042.73 201.474 950.636 194.638 859.359C191.492 817.682 191.997 775.694 196.114 734.095C196.541 729.629 197.046 725.162 197.551 720.695C197.823 718.481 198.095 716.228 198.367 714.014C198.522 712.733 198.678 711.49 198.872 710.208C198.6 712.344 198.678 711.645 198.911 709.936C200.231 700.808 201.668 691.681 203.3 682.592C206.601 664.298 210.641 646.12 215.379 628.097C220.002 610.58 225.284 593.257 231.227 576.167C234.179 567.66 237.286 559.232 240.587 550.842C242.18 546.803 243.772 542.802 245.443 538.762C245.87 537.753 248.123 532.431 246.608 535.927C247.579 533.674 248.55 531.383 249.56 529.13C263.853 496.503 280.633 464.964 299.665 434.862C309.142 419.869 319.125 405.265 329.689 391.049C332.214 387.631 334.817 384.213 337.419 380.834C335.088 383.863 338.701 379.202 339.283 378.464C340.992 376.328 342.701 374.153 344.41 372.017C349.965 365.142 355.635 358.383 361.423 351.703C384.572 325.058 409.703 300.121 436.542 277.166C443.262 271.418 450.059 265.786 457.011 260.309C458.682 258.988 460.352 257.668 462.061 256.347C463.886 254.91 461.828 256.541 461.556 256.736C462.527 255.998 463.498 255.26 464.469 254.522C468.12 251.764 471.771 249.006 475.461 246.326C489.755 235.878 504.437 225.935 519.507 216.574C550.075 197.542 582.003 181.073 615.018 166.701C615.212 166.624 618.047 165.42 615.989 166.274C613.736 167.206 617.348 165.73 617.814 165.497C619.834 164.682 621.815 163.827 623.835 163.05C628.146 161.303 632.458 159.594 636.808 157.962C645.236 154.738 653.704 151.709 662.21 148.796C679.378 142.969 696.779 137.842 714.335 133.337C732.086 128.792 749.991 124.986 768.053 121.84C772.442 121.063 776.831 120.364 781.22 119.665C783.434 119.315 785.648 119.004 787.823 118.655C789.105 118.461 790.348 118.305 791.629 118.111C794.931 117.645 788.6 118.499 791.901 118.072C801.145 116.868 810.39 115.819 819.634 114.965C858.32 111.391 897.278 110.964 936.003 113.683C945.752 114.343 955.54 115.237 965.25 116.324C969.911 116.829 974.572 117.412 979.233 117.994C975.776 117.528 981.796 118.344 982.767 118.499C985.409 118.888 988.05 119.276 990.691 119.665C1009.68 122.617 1028.56 126.345 1047.28 130.812C1084.1 139.629 1120.23 151.437 1155.18 166.002C1158.25 167.284 1152.62 164.915 1155.69 166.197C1156.58 166.585 1157.48 166.973 1158.37 167.362C1160.47 168.255 1162.53 169.187 1164.58 170.081C1169.01 172.062 1173.44 174.043 1177.83 176.101C1186.57 180.218 1195.27 184.491 1203.85 188.919C1220.4 197.503 1236.6 206.708 1252.4 216.574C1268.17 226.401 1283.52 236.81 1298.47 247.841C1302.08 250.482 1305.66 253.201 1309.19 255.92C1309.31 255.998 1311.79 257.94 1310.16 256.658C1308.37 255.26 1311.48 257.707 1311.87 258.017C1313.89 259.61 1315.87 261.202 1317.85 262.795C1325.08 268.582 1332.18 274.525 1339.18 280.584C1367.1 304.86 1393.16 331.272 1417.01 359.549C1423.19 366.851 1429.21 374.308 1435.11 381.882C1433.17 379.397 1436.01 383.048 1436.59 383.824C1438.14 385.844 1439.66 387.903 1441.21 389.961C1444.09 393.807 1446.88 397.691 1449.68 401.575C1460.48 416.684 1470.65 432.221 1480.21 448.146C1489.8 464.109 1498.81 480.462 1507.13 497.163C1511.32 505.553 1515.32 513.982 1519.17 522.527C1521.03 526.644 1522.82 530.8 1524.64 534.956C1524.88 535.5 1526.16 538.568 1524.88 535.461C1525.26 536.354 1525.61 537.248 1526 538.141C1527.01 540.549 1527.98 542.957 1528.92 545.327C1535.83 562.533 1542 580.051 1547.56 597.762C1550.86 608.25 1561.78 615.008 1572.65 612.017C1583.02 609.182 1590.21 597.49 1586.91 586.926C1563.6 512.622 1528.72 441.892 1483.24 378.659C1437.44 314.998 1382.21 259.183 1319.06 212.69C1256.4 166.546 1186.14 130.773 1112.15 106.731C1035.94 81.9497 955.19 70.0643 875.099 71.2684C798.31 72.3948 721.404 85.4455 648.771 110.382C578.468 134.502 511.778 169.11 452.001 213.272C391.525 257.823 338.506 310.842 293.917 371.201C249.909 430.745 215.457 497.125 191.337 567.078C166.323 639.672 153.156 716.539 151.913 793.328C150.32 890.781 168.11 988.856 204.853 1079.2C213.904 1101.5 223.886 1123.4 234.994 1144.76C240.083 1154.55 253.716 1157.43 262.882 1152.07C272.787 1146.24 275.273 1133.97 270.185 1124.14Z" fill="white"/>
<path d="M1524.1 726.288C1548.49 713.704 1576.03 707.45 1604.03 708.188C1610.09 708.344 1616.15 708.81 1622.17 709.587C1619.61 709.276 1622.64 709.664 1623.57 709.82C1624.89 710.014 1626.17 710.247 1627.49 710.48C1630.52 711.024 1633.55 711.645 1636.54 712.344C1642.06 713.626 1647.5 715.219 1652.86 717.005C1655.5 717.899 1658.14 718.87 1660.78 719.918C1661.33 720.151 1664.47 721.433 1663.23 720.889C1661.6 720.19 1664.08 721.278 1664.43 721.433C1665.21 721.783 1665.99 722.132 1666.76 722.482C1676.82 727.143 1686.46 732.736 1695.47 739.145C1696.67 739.999 1697.88 740.893 1699.08 741.786C1701.29 743.417 1698.03 740.893 1700.17 742.602C1702.46 744.466 1704.75 746.369 1707 748.311C1711.12 751.962 1715.08 755.769 1718.89 759.77C1722.66 763.77 1726.27 767.965 1729.69 772.276C1727.9 770.024 1730.46 773.325 1730.85 773.908C1731.59 774.918 1732.37 775.966 1733.07 777.015C1734.77 779.462 1736.41 781.909 1738 784.434C1740.95 789.134 1743.71 793.95 1746.19 798.883C1747.44 801.369 1748.64 803.893 1749.81 806.418C1750.19 807.234 1751.32 809.953 1750.39 807.661C1751.05 809.253 1751.67 810.846 1752.29 812.477C1756.33 823.081 1759.32 834.034 1761.26 845.22C1761.5 846.541 1761.69 847.823 1761.89 849.143C1762.35 852.018 1762 849.843 1761.92 849.221C1762 849.881 1762.08 850.542 1762.16 851.202C1762.51 854.309 1762.82 857.455 1763.01 860.563C1763.4 866.467 1763.48 872.371 1763.28 878.274C1763.17 881.188 1763.01 884.139 1762.78 887.053C1762.66 888.373 1762.55 889.733 1762.39 891.053C1762.31 891.713 1762.24 892.374 1762.16 893.034C1762.12 893.306 1761.77 896.064 1762 894.394C1762.2 892.995 1761.57 897.151 1761.46 897.734C1761.23 899.055 1760.99 900.336 1760.76 901.657C1760.18 904.686 1759.55 907.677 1758.82 910.668C1757.5 916.145 1755.87 921.582 1754.04 926.943C1753.11 929.584 1752.14 932.225 1751.09 934.827C1750.85 935.41 1750.62 936.031 1750.35 936.614C1750.43 936.42 1751.24 934.555 1750.54 936.109C1749.92 937.469 1749.34 938.867 1748.68 940.226C1743.9 950.48 1738.15 960.23 1731.55 969.396C1730.81 970.445 1730.04 971.455 1729.3 972.465C1728.29 973.785 1729.49 972.232 1729.65 972.037C1729.14 972.698 1728.6 973.358 1728.05 974.018C1726.31 976.155 1724.56 978.252 1722.73 980.311C1718.93 984.583 1714.97 988.7 1710.77 992.584C1708.91 994.332 1707 996.003 1705.1 997.673C1703.97 998.644 1702.85 999.576 1701.68 1000.51C1701.02 1001.05 1698.03 1003.38 1700.13 1001.79C1695.74 1005.13 1691.19 1008.28 1686.49 1011.19C1681.6 1014.26 1676.59 1017.05 1671.42 1019.62C1669.13 1020.74 1666.8 1021.83 1664.43 1022.92C1663.85 1023.19 1663.27 1023.42 1662.65 1023.7C1665.13 1022.61 1663.03 1023.54 1662.57 1023.74C1661.17 1024.28 1659.77 1024.86 1658.37 1025.37C1647.54 1029.44 1636.35 1032.47 1624.93 1034.34C1623.61 1034.57 1622.29 1034.77 1621.01 1034.96C1623.57 1034.57 1620.5 1035 1619.57 1035.12C1616.46 1035.47 1613.32 1035.74 1610.17 1035.93C1603.8 1036.32 1597.39 1036.36 1590.98 1036.09C1577 1035.47 1565.35 1033.45 1551.13 1029.1C1547.83 1028.09 1544.61 1027 1541.38 1025.83C1539.91 1025.29 1538.43 1024.71 1536.96 1024.12C1537.07 1024.16 1534.66 1023.19 1535.79 1023.66C1536.53 1023.97 1534.2 1022.96 1533.93 1022.84C1527.52 1019.97 1521.26 1016.74 1515.2 1013.13C1509.42 1009.67 1503.86 1005.87 1498.46 1001.83C1492.17 997.09 1482.19 1000.82 1478.54 1007.07C1474.19 1014.53 1477.45 1022.26 1483.78 1027C1530.74 1062.42 1593.31 1074.07 1650.02 1058.69C1698.46 1045.56 1740.79 1013.01 1766.12 969.707C1792.41 924.806 1799.45 869.613 1785.23 819.546C1771.56 771.267 1738.7 729.24 1695.12 704.343C1646.22 676.416 1585.24 670.978 1532.37 690.865C1524.53 693.817 1516.84 697.235 1509.38 701.041C1502.39 704.654 1500.33 714.442 1504.13 720.967C1508.33 728.192 1517.11 729.939 1524.1 726.288Z" fill="white"/>
<path d="M1683.23 870.312C1683.23 873.031 1683.12 875.711 1682.92 878.43C1682.84 879.323 1683 881.654 1682.53 882.43C1682.65 881.615 1682.77 880.838 1682.88 880.022C1682.77 880.877 1682.61 881.77 1682.46 882.625C1681.56 887.791 1680.32 892.84 1678.65 897.812C1678.1 899.404 1677.56 902.744 1676.43 903.871C1676.75 903.172 1677.06 902.434 1677.37 901.735C1677.02 902.511 1676.67 903.288 1676.32 904.065C1675.77 905.23 1675.23 906.357 1674.65 907.522C1672.32 912.066 1669.68 916.417 1666.72 920.534C1666.49 920.883 1666.22 921.233 1665.99 921.544C1664.78 923.175 1664.98 922.903 1666.65 920.728C1666.49 921.233 1665.33 922.359 1665.05 922.709C1663.42 924.651 1661.75 926.554 1660 928.38C1658.41 930.05 1656.74 931.681 1654.99 933.235C1654.22 933.934 1653.44 934.633 1652.62 935.332C1651.96 935.876 1651.34 936.42 1650.68 936.964C1649.09 938.245 1649.36 938.012 1651.54 936.342C1650.45 938.051 1646.99 939.605 1645.28 940.692C1643.5 941.819 1641.67 942.945 1639.85 943.955C1637.63 945.198 1635.34 946.363 1633.01 947.451C1632.66 947.606 1628.78 949.121 1631.77 948.033C1634.76 946.946 1629.75 948.771 1629.24 948.966C1624.78 950.597 1620.15 951.879 1615.49 952.85C1614.21 953.122 1612.93 953.355 1611.61 953.588C1611.18 953.665 1610.75 953.743 1610.29 953.782C1608.19 954.093 1608.54 954.054 1611.38 953.627C1609.71 954.675 1605.35 954.17 1603.34 954.248C1600.62 954.365 1597.9 954.365 1595.18 954.248C1593.39 954.17 1588.61 954.675 1587.14 953.627C1587.33 953.743 1591.84 954.403 1588.23 953.782C1586.94 953.549 1585.62 953.355 1584.34 953.083C1581.35 952.5 1578.4 951.762 1575.45 950.908C1573.39 950.286 1571.33 949.626 1569.31 948.888C1568.46 948.577 1566.36 948.15 1565.7 947.49C1566.4 947.8 1567.14 948.111 1567.83 948.422C1567.06 948.072 1566.28 947.723 1565.5 947.373C1560.88 945.237 1556.41 942.751 1552.18 939.916C1550.9 939.061 1547.79 937.663 1547.02 936.264C1547.64 936.731 1548.22 937.197 1548.84 937.663C1548.18 937.158 1547.52 936.614 1546.86 936.07C1545.89 935.255 1544.92 934.439 1543.99 933.584C1540.22 930.205 1536.68 926.554 1533.46 922.67C1533.19 922.359 1532.92 922.01 1532.64 921.699C1531.36 920.106 1531.6 920.378 1533.27 922.553C1532.45 922.049 1531.6 920.262 1531.05 919.485C1529.85 917.737 1528.68 915.989 1527.59 914.164C1526.27 911.989 1525.03 909.775 1523.87 907.483C1523.4 906.551 1522.89 905.58 1522.47 904.609C1522.2 904.026 1521.92 903.444 1521.65 902.861C1520.84 900.958 1520.95 901.307 1522.04 903.832C1520.64 902.473 1519.98 898.394 1519.4 896.569C1518.74 894.51 1518.16 892.413 1517.61 890.315C1516.99 887.752 1516.45 885.188 1515.98 882.625C1515.9 882.197 1515.83 881.77 1515.79 881.304C1515.48 879.207 1515.51 879.556 1515.94 882.392C1515.4 881.576 1515.63 879.44 1515.55 878.391C1515.17 873.225 1515.13 868.02 1515.52 862.854C1515.59 861.728 1515.71 860.64 1515.79 859.514C1516.14 854.892 1514.97 863.825 1515.79 859.281C1516.33 856.251 1516.87 853.261 1517.61 850.27C1518.16 848.172 1518.74 846.075 1519.4 844.016C1519.98 842.191 1520.64 838.112 1522.04 836.753C1519.87 838.889 1520.91 839.239 1521.92 837.141C1522.39 836.17 1522.82 835.199 1523.28 834.267C1524.6 831.587 1526.04 828.985 1527.59 826.46C1528.68 824.635 1529.85 822.887 1531.05 821.139C1531.6 820.362 1532.49 818.575 1533.27 818.07C1532.8 818.692 1532.33 819.274 1531.87 819.896C1532.37 819.236 1532.92 818.575 1533.46 817.915C1536.68 814.031 1540.22 810.38 1543.99 807.001C1544.92 806.146 1545.89 805.33 1546.86 804.515C1547.17 804.243 1547.52 803.971 1547.83 803.699C1549.42 802.417 1549.15 802.65 1546.98 804.321C1547.83 802.883 1550.78 801.563 1552.14 800.669C1556.41 797.873 1560.84 795.387 1565.46 793.212C1565.85 793.018 1566.24 792.862 1566.63 792.668C1568.53 791.852 1568.18 791.969 1565.66 793.057C1566.32 792.396 1568.42 791.969 1569.27 791.658C1571.29 790.92 1573.35 790.26 1575.41 789.639C1577.93 788.901 1580.46 788.279 1583.02 787.735C1584.3 787.463 1585.58 787.23 1586.91 786.997C1587.57 786.881 1588.23 786.764 1588.85 786.687C1590.28 786.454 1589.7 786.531 1587.1 786.92C1588.73 785.91 1593.2 786.376 1595.14 786.298C1597.63 786.22 1600.11 786.182 1602.6 786.259C1605.08 786.337 1607.53 786.57 1609.98 786.764C1614.6 787.114 1605.67 785.949 1610.21 786.764C1611.96 787.075 1613.67 787.347 1615.38 787.696C1620.93 788.862 1626.21 790.61 1631.53 792.513C1633.17 793.095 1633.63 792.435 1630.56 792.086C1632 792.241 1633.9 793.6 1635.22 794.222C1637.9 795.542 1640.51 796.98 1643.03 798.533C1645.21 799.854 1647.3 801.252 1649.4 802.728C1649.75 802.961 1650.1 803.233 1650.41 803.466C1652.04 804.67 1651.77 804.476 1649.6 802.806C1650.88 803.272 1652.43 805.136 1653.48 806.03C1657.6 809.642 1661.44 813.565 1664.94 817.798C1665.33 818.303 1666.37 819.236 1666.53 819.779C1664.86 817.604 1664.67 817.332 1665.87 818.964C1666.37 819.663 1666.88 820.323 1667.35 821.022C1668.9 823.275 1670.41 825.606 1671.77 827.975C1673.17 830.344 1674.45 832.791 1675.66 835.316C1676.12 836.287 1677.13 837.763 1677.25 838.812C1676.2 836.248 1676.05 835.937 1676.82 837.841C1677.06 838.423 1677.29 839.045 1677.52 839.666C1679.46 844.949 1680.98 850.425 1682.03 855.941C1682.22 857.028 1682.42 858.116 1682.61 859.203C1682.92 861.301 1682.88 860.951 1682.46 858.116C1682.57 859.009 1682.65 859.902 1682.73 860.757C1683.12 864.02 1683.23 867.166 1683.23 870.312C1683.31 880.216 1691.89 889.694 1702.19 889.267C1712.4 888.8 1721.18 880.954 1721.14 870.312C1720.79 818.886 1688.4 773.675 1640.51 755.652C1594.01 738.174 1537.85 753.283 1506.31 791.619C1489.72 811.778 1479.98 835.471 1477.76 861.534C1475.7 886.081 1481.92 911.639 1494.58 932.73C1521.26 977.242 1573.58 999.498 1624.23 989.555C1671.85 980.194 1711.66 939.411 1719.2 891.364C1720.29 884.372 1721.06 877.381 1721.1 870.273C1721.18 860.369 1712.36 850.891 1702.15 851.319C1691.85 851.823 1683.31 859.708 1683.23 870.312Z" fill="white"/>
<path d="M1246.23 27.3777C1295.94 50.1387 1343.53 77.4442 1388.15 109.022C1410.26 124.675 1429.37 139.551 1450.11 157.341C1470.69 175.014 1490.5 193.657 1509.38 213.156C1530.66 235.14 1550.78 258.25 1569.7 282.332C1574.55 288.508 1585.2 287.42 1590.28 282.332C1596.38 276.234 1595.18 267.922 1590.28 261.746C1556.57 218.827 1518.97 179.014 1477.92 143.047C1436.28 106.536 1391.3 73.7542 1343.64 45.5166C1316.84 29.6305 1289.19 15.2204 1260.87 2.24737C1253.72 -1.0153 1245.18 0.227625 1240.95 7.49095C1237.33 13.7056 1239.04 24.0762 1246.23 27.3777Z" fill="white"/>
<path d="M256.629 1395.29C196.891 1330.39 147.329 1256.51 109.809 1176.69C71.8996 1096.02 46.6528 1008.78 35.7384 920.301C24.5132 829.373 27.3486 736.542 44.9438 646.625C61.6844 561.057 91.3203 478.248 132.958 401.653C173.819 326.456 225.75 257.629 286.809 197.619C294.46 190.084 302.268 182.704 310.191 175.48C315.979 170.158 315.59 160.254 310.191 154.894C304.404 149.106 295.431 149.572 289.605 154.894C224.274 214.632 167.799 284.158 122.859 360.403C77.5316 437.27 43.7397 521.245 23.4645 608.133C2.06294 699.799 -4.81197 794.921 3.30586 888.723C11.3849 982.136 34.107 1073.61 70.6567 1159.95C106.235 1243.93 154.904 1321.92 214.137 1391.21C221.283 1399.56 228.586 1407.8 236.043 1415.92C241.364 1421.7 251.23 1421.31 256.629 1415.92C262.377 1410.13 261.95 1401.12 256.629 1395.29Z" fill="white"/>
<path d="M860.301 1672.85C801.573 1670.79 745.991 1663.37 688.855 1649.66C660.928 1642.94 633.312 1634.83 606.162 1625.39C592.839 1620.73 579.595 1615.79 566.505 1610.51C554.153 1605.5 542.618 1600.53 529.8 1594.55C500.941 1581.19 472.859 1566.19 445.631 1549.8C438.911 1545.72 429.628 1548.29 425.705 1555.05C421.666 1561.92 424.19 1570.89 430.949 1574.97C480.549 1604.84 533.024 1629.85 587.44 1649.62C642.284 1669.55 699.109 1683.92 756.827 1692.47C791.124 1697.55 825.654 1700.82 860.301 1702.02C867.914 1702.29 875.216 1695.15 874.866 1687.46C874.478 1679.3 868.457 1673.12 860.301 1672.85Z" fill="white"/>
<path d="M1333.16 1725.05V1706.57L1382.19 1658.5C1386.88 1653.77 1390.79 1649.56 1393.91 1645.88C1397.04 1642.2 1399.39 1638.64 1400.95 1635.19C1402.51 1631.74 1403.29 1628.07 1403.29 1624.16C1403.29 1619.7 1402.28 1615.88 1400.26 1612.71C1398.24 1609.49 1395.46 1607.01 1391.91 1605.26C1388.37 1603.51 1384.35 1602.64 1379.85 1602.64C1375.2 1602.64 1371.13 1603.61 1367.64 1605.54C1364.14 1607.42 1361.43 1610.11 1359.5 1613.61C1357.62 1617.1 1356.67 1621.26 1356.67 1626.09H1332.33C1332.33 1617.12 1334.37 1609.33 1338.47 1602.71C1342.56 1596.09 1348.19 1590.96 1355.36 1587.33C1362.58 1583.7 1370.86 1581.88 1380.19 1581.88C1389.66 1581.88 1397.98 1583.65 1405.16 1587.19C1412.33 1590.73 1417.89 1595.58 1421.85 1601.74C1425.85 1607.9 1427.85 1614.94 1427.85 1622.85C1427.85 1628.13 1426.83 1633.33 1424.81 1638.43C1422.79 1643.54 1419.23 1649.19 1414.12 1655.4C1409.06 1661.61 1401.96 1669.12 1392.81 1677.95L1368.47 1702.71V1703.67H1429.98V1725.05H1333.16Z" fill="white"/>
<path d="M1502.1 1727.74C1490.74 1727.74 1481 1724.87 1472.86 1719.12C1464.77 1713.33 1458.54 1704.98 1454.17 1694.09C1449.85 1683.15 1447.69 1669.97 1447.69 1654.57C1447.73 1639.17 1449.92 1626.07 1454.24 1615.26C1458.61 1604.41 1464.84 1596.13 1472.93 1590.43C1481.07 1584.73 1490.79 1581.88 1502.1 1581.88C1513.41 1581.88 1523.13 1584.73 1531.27 1590.43C1539.41 1596.13 1545.64 1604.41 1549.96 1615.26C1554.33 1626.11 1556.51 1639.21 1556.51 1654.57C1556.51 1670.02 1554.33 1683.21 1549.96 1694.16C1545.64 1705.05 1539.41 1713.38 1531.27 1719.12C1523.18 1724.87 1513.46 1727.74 1502.1 1727.74ZM1502.1 1706.16C1510.93 1706.16 1517.89 1701.81 1523 1693.12C1528.15 1684.39 1530.72 1671.54 1530.72 1654.57C1530.72 1643.35 1529.55 1633.93 1527.2 1626.3C1524.86 1618.66 1521.55 1612.92 1517.27 1609.05C1513 1605.15 1507.94 1603.19 1502.1 1603.19C1493.32 1603.19 1486.38 1607.56 1481.27 1616.3C1476.17 1624.99 1473.59 1637.74 1473.55 1654.57C1473.5 1665.84 1474.63 1675.31 1476.93 1682.98C1479.27 1690.66 1482.58 1696.46 1486.86 1700.36C1491.13 1704.23 1496.21 1706.16 1502.1 1706.16Z" fill="white"/>
<path d="M1575.54 1725.05V1706.57L1624.58 1658.5C1629.27 1653.77 1633.17 1649.56 1636.3 1645.88C1639.43 1642.2 1641.77 1638.64 1643.34 1635.19C1644.9 1631.74 1645.68 1628.07 1645.68 1624.16C1645.68 1619.7 1644.67 1615.88 1642.65 1612.71C1640.62 1609.49 1637.84 1607.01 1634.3 1605.26C1630.76 1603.51 1626.74 1602.64 1622.23 1602.64C1617.59 1602.64 1613.52 1603.61 1610.03 1605.54C1606.53 1607.42 1603.82 1610.11 1601.89 1613.61C1600 1617.1 1599.06 1621.26 1599.06 1626.09H1574.72C1574.72 1617.12 1576.76 1609.33 1580.85 1602.71C1584.95 1596.09 1590.58 1590.96 1597.75 1587.33C1604.97 1583.7 1613.24 1581.88 1622.58 1581.88C1632.05 1581.88 1640.37 1583.65 1647.54 1587.19C1654.72 1590.73 1660.28 1595.58 1664.23 1601.74C1668.23 1607.9 1670.23 1614.94 1670.23 1622.85C1670.23 1628.13 1669.22 1633.33 1667.2 1638.43C1665.17 1643.54 1661.61 1649.19 1656.51 1655.4C1651.45 1661.61 1644.35 1669.12 1635.2 1677.95L1610.85 1702.71V1703.67H1672.37V1725.05H1575.54Z" fill="white"/>
<path d="M1742.97 1726.98C1733.04 1726.98 1724.21 1725.28 1716.49 1721.88C1708.81 1718.48 1702.74 1713.74 1698.28 1707.67C1693.82 1701.61 1691.45 1694.59 1691.18 1686.64H1717.11C1717.34 1690.46 1718.6 1693.79 1720.9 1696.64C1723.2 1699.44 1726.26 1701.63 1730.07 1703.19C1733.89 1704.76 1738.16 1705.54 1742.9 1705.54C1747.96 1705.54 1752.44 1704.66 1756.35 1702.92C1760.26 1701.12 1763.31 1698.64 1765.52 1695.47C1767.73 1692.3 1768.81 1688.64 1768.76 1684.5C1768.81 1680.23 1767.7 1676.46 1765.45 1673.19C1763.2 1669.93 1759.93 1667.38 1755.66 1665.54C1751.43 1663.7 1746.33 1662.78 1740.35 1662.78H1727.87V1643.05H1740.35C1745.27 1643.05 1749.57 1642.2 1753.24 1640.5C1756.97 1638.8 1759.89 1636.41 1762 1633.33C1764.12 1630.2 1765.15 1626.59 1765.11 1622.5C1765.15 1618.5 1764.26 1615.03 1762.42 1612.09C1760.62 1609.1 1758.07 1606.78 1754.76 1605.12C1751.5 1603.47 1747.66 1602.64 1743.24 1602.64C1738.92 1602.64 1734.92 1603.42 1731.24 1604.99C1727.57 1606.55 1724.6 1608.78 1722.35 1611.67C1720.1 1614.53 1718.9 1617.93 1718.76 1621.88H1694.14C1694.33 1613.97 1696.6 1607.03 1700.97 1601.05C1705.38 1595.03 1711.27 1590.34 1718.62 1586.99C1725.98 1583.58 1734.23 1581.88 1743.38 1581.88C1752.81 1581.88 1760.99 1583.65 1767.93 1587.19C1774.92 1590.69 1780.33 1595.4 1784.14 1601.33C1787.96 1607.26 1789.87 1613.81 1789.87 1620.99C1789.91 1628.94 1787.57 1635.61 1782.83 1640.99C1778.14 1646.36 1771.98 1649.88 1764.35 1651.54V1652.64C1774.28 1654.02 1781.89 1657.7 1787.18 1663.67C1792.51 1669.61 1795.15 1676.99 1795.11 1685.81C1795.11 1693.72 1792.85 1700.8 1788.35 1707.05C1783.89 1713.26 1777.73 1718.13 1769.87 1721.67C1762.05 1725.21 1753.08 1726.98 1742.97 1726.98Z" fill="white"/>
</svg>
