<svg width="142" height="13" viewBox="0 0 142 13" fill="none" xmlns="http://www.w3.org/2000/svg">
<path d="M5.77644 11.904C5.00844 11.904 4.28844 11.76 3.61644 11.472C2.95511 11.184 2.36844 10.7893 1.85644 10.288C1.34444 9.776 0.94444 9.184 0.65644 8.512C0.36844 7.84 0.22444 7.12 0.22444 6.352C0.22444 5.584 0.36844 4.86933 0.65644 4.208C0.94444 3.536 1.33911 2.944 1.84044 2.432C2.35244 1.92 2.94444 1.52 3.61644 1.232C4.28844 0.943999 5.00844 0.799999 5.77644 0.799999C6.54444 0.799999 7.26444 0.943999 7.93644 1.232C8.60844 1.52 9.19511 1.92 9.69644 2.432C10.2084 2.93333 10.6084 3.52 10.8964 4.192C11.1844 4.864 11.3284 5.584 11.3284 6.352C11.3284 7.12 11.1844 7.84 10.8964 8.512C10.6084 9.184 10.2084 9.776 9.69644 10.288C9.19511 10.7893 8.60844 11.184 7.93644 11.472C7.26444 11.76 6.54444 11.904 5.77644 11.904ZM5.76044 9.6C6.85911 9.6 7.74444 9.03467 8.41644 7.904L7.44044 7.376C7.21644 7.71733 6.96044 7.97333 6.67244 8.144C6.39511 8.31467 6.09111 8.4 5.76044 8.4C5.41911 8.4 5.10977 8.31467 4.83244 8.144C4.55511 7.97333 4.30444 7.71733 4.08044 7.376L3.12044 7.904C3.78177 9.03467 4.66177 9.6 5.76044 9.6ZM3.85644 5.984C4.10177 5.984 4.30977 5.89867 4.48044 5.728C4.65111 5.55733 4.73644 5.34933 4.73644 5.104C4.73644 4.85867 4.65111 4.65067 4.48044 4.48C4.32044 4.29867 4.11244 4.208 3.85644 4.208C3.58977 4.208 3.37111 4.29867 3.20044 4.48C3.04044 4.65067 2.96044 4.85867 2.96044 5.104C2.96044 5.34933 3.04577 5.55733 3.21644 5.728C3.38711 5.89867 3.60044 5.984 3.85644 5.984ZM7.69644 5.984C7.95244 5.984 8.16577 5.904 8.33644 5.744C8.50711 5.57333 8.59244 5.36 8.59244 5.104C8.59244 4.848 8.50711 4.63467 8.33644 4.464C8.16577 4.29333 7.95244 4.208 7.69644 4.208C7.44044 4.208 7.22711 4.29867 7.05644 4.48C6.88577 4.65067 6.80044 4.85867 6.80044 5.104C6.80044 5.34933 6.88577 5.55733 7.05644 5.728C7.23777 5.89867 7.45111 5.984 7.69644 5.984ZM17.2609 8.304C17.6289 10.864 19.2449 12.24 21.9489 12.24C24.3489 12.24 25.9809 10.944 25.9809 9.056C25.9809 7.248 24.9409 6.224 22.0609 5.264C21.1809 4.976 20.5729 4.72 20.2529 4.496C19.9329 4.256 19.7729 3.984 19.7729 3.648C19.7729 2.88 20.4609 2.384 21.5009 2.384C22.6689 2.384 23.3889 2.992 23.7249 4.256L25.6769 3.84C25.5009 2.848 25.0209 2.048 24.2529 1.456C23.5009 0.863999 22.5729 0.559999 21.5009 0.559999C19.3249 0.559999 17.7889 1.84 17.7889 3.648C17.7889 5.28 18.7009 6.144 21.3729 7.04C23.3889 7.696 23.9809 8.16 23.9809 9.072C23.9809 9.904 23.2129 10.416 21.9809 10.416C20.3009 10.416 19.5009 9.68 19.2289 7.904L17.2609 8.304ZM27.2566 6.4C27.2566 9.936 29.1766 12.24 32.1206 12.24C34.5526 12.24 36.2806 10.608 36.5366 8.064L34.5526 7.744C34.3446 9.488 33.4806 10.4 32.1206 10.4C30.3286 10.4 29.2566 8.896 29.2566 6.4C29.2566 3.904 30.3286 2.4 32.1206 2.4C33.4166 2.4 34.2646 3.264 34.5366 4.848L36.5046 4.528C36.2166 2.16 34.4726 0.559999 32.1206 0.559999C29.1926 0.559999 27.2566 2.896 27.2566 6.4ZM44.2109 7.664V7.648C45.7469 7.2 46.6269 5.984 46.6269 4.304C46.6269 2.128 45.1869 0.799999 42.8349 0.799999H38.4509V12H40.4509V7.84H42.1469L44.3709 12H46.5629L44.2109 7.664ZM42.6109 6H40.4509V2.64H42.6109C43.9549 2.64 44.6269 3.2 44.6269 4.304C44.6269 5.408 43.9389 6 42.6109 6ZM48.0059 6.4C48.0059 9.904 49.9419 12.24 52.8699 12.24C55.7979 12.24 57.7179 9.904 57.7179 6.4C57.7179 2.896 55.7979 0.559999 52.8699 0.559999C49.9419 0.559999 48.0059 2.896 48.0059 6.4ZM55.7179 6.4C55.7179 8.88 54.6459 10.4 52.8699 10.4C51.0779 10.4 50.0059 8.896 50.0059 6.4C50.0059 3.92 51.0939 2.4 52.8699 2.4C54.6459 2.4 55.7179 3.92 55.7179 6.4ZM59.7941 0.799999V12H66.6421V10.16H61.7941V0.799999H59.7941ZM68.6141 0.799999V12H75.4621V10.16H70.6141V0.799999H68.6141ZM81.9103 0.799999V12H85.6063C88.6143 12 90.5183 9.984 90.5183 6.4C90.5183 2.928 88.5983 0.799999 85.6383 0.799999H81.9103ZM85.5903 10.16H83.9103V2.64H85.6223C87.4303 2.64 88.5183 3.968 88.5183 6.4C88.5183 8.912 87.4463 10.16 85.5903 10.16ZM91.9653 6.4C91.9653 9.904 93.9013 12.24 96.8293 12.24C99.7573 12.24 101.677 9.904 101.677 6.4C101.677 2.896 99.7573 0.559999 96.8293 0.559999C93.9013 0.559999 91.9653 2.896 91.9653 6.4ZM99.6773 6.4C99.6773 8.88 98.6053 10.4 96.8293 10.4C95.0373 10.4 93.9653 8.896 93.9653 6.4C93.9653 3.92 95.0533 2.4 96.8293 2.4C98.6053 2.4 99.6773 3.92 99.6773 6.4ZM102.652 0.799999L104.94 12H107.132L109.5 3.824H109.532L111.916 12H114.124L116.38 0.799999H114.348L112.78 8.784H112.748L110.46 0.799999H108.588L106.3 8.784H106.268L104.716 0.799999H102.652ZM118.12 0.799999V12H120.12V4.176H120.152L124.376 12H126.504V0.799999H124.504V8.624H124.472L120.248 0.799999H118.12ZM141.89 7.008L140.578 5.696L138.482 8.048V1.216H136.61V8.064L134.514 5.696L133.186 7.008L137.538 11.552L141.89 7.008Z" fill="white"/>
</svg>
