<svg width="1153" height="342" viewBox="0 0 1153 342" fill="none" xmlns="http://www.w3.org/2000/svg">
<path d="M534.457 341.92C1040.07 338.515 1142.18 157.526 1142.18 157.526C1185 96.8177 1096.06 57.6694 957.722 50.861C812.791 43.4852 710.68 104.761 667.86 62.2082C626.686 19.6558 545.985 36.1093 511.4 64.4776C476.814 92.8459 415.877 74.123 422.465 41.7831C427.406 15.1169 358.234 -7.01039 282.475 40.081C182.011 101.924 203.421 25.8969 81.5476 4.90439C-35.3854 -15.5208 -7.38736 31.5706 46.9618 77.5273C98.0171 121.782 23.9046 159.228 7.43517 199.511C-9.03427 239.794 33.786 345.324 534.457 341.92ZM575.631 227.879C17.3169 218.801 228.125 78.6619 289.062 72.4209C349.999 66.1799 419.171 73.5555 369.763 111.569C320.354 149.015 491.636 157.526 555.867 105.328C620.098 52.5631 694.211 82.6335 671.153 99.6545C648.096 116.108 572.337 133.129 608.57 154.122C643.156 174.547 733.737 166.604 817.731 133.697C903.372 100.789 1084.54 66.1798 1091.12 120.08C1091.12 120.08 1112.53 236.389 575.631 227.879Z" fill="#181A23"/>
</svg>
