<svg width="1440" height="364" viewBox="0 0 1440 364" fill="none" xmlns="http://www.w3.org/2000/svg">
<path d="M1519.27 161.569C1586.74 134.756 1558.19 110.825 1371.35 117.134C1181.91 122.654 852.345 219.927 745.949 244.374C642.147 268.821 655.122 217.561 761.519 175.764C865.32 133.179 813.419 93.7488 655.122 128.448C496.825 163.147 260.677 278.284 172.446 264.878C84.2146 251.471 276.247 182.073 333.338 146.586C393.024 111.887 328.148 106.366 250.297 123.716C172.446 140.277 1.17363 221.504 -50.7271 220.715C-105.223 219.927 -89.6526 160.781 -50.7271 133.179C-11.8015 106.366 436.479 -21.3549 478 3.09209C519.521 27.5391 512.165 53.4711 494 88.9586C473.24 124.446 540.941 118.984 652.527 64.5701C764.114 9.36726 917.221 19.619 992.477 45.6432C1067.73 71.6674 1010.02 100.846 1023 111.098C1038.57 121.35 1236.41 85.8625 1368.76 60.6269C1503.7 34.6027 1752.82 34.6028 1729.47 125.293C1706.11 215.195 1542.62 183.651 1368.76 288.536C1194.89 392.633 984.692 358.723 984.692 358.723C735.568 327.967 1451.8 187.593 1519.27 161.569Z" fill="#FFFFFB"/>
</svg>
